<svg id="Layer_2" xmlns="http://www.w3.org/2000/svg" width="555.09mm" height="367.33mm" viewBox="0 0 1573.47 1041.24"><g id="fairway"><path d="M885.46,871.45s-9.03-1.74-15.6,1.58-12.36,3.09-19.25,2.22-25.82,2.19-33.27,8.38c-7.45,6.19-7.21,21.16,1.66,26.79,8.87,5.62,28.28-.32,33.27-2.93s10.69-5.78,12.83-8.79,5.78-7.68,11.09-3.96c5.31,3.72,17.78,9.7,31.8,5.74s28.16-9.42,40.63-6.45c12.48,2.97,33.98.95,44.44.48s24.59.95,39.21,9.62c14.61,8.67,24.12,10.57,43.72,12.36,19.6,1.78,33.74,2.02,36.12-5.94,2.38-7.96-1.9-15.21-14.73-18.89-12.83-3.68-43.13-9.39-53.11-12.71s-18.96-9.5-34.73-8.44-38.7,1.4-50.22-1.08-36.59-7.87-48.48-4.11c-11.88,3.76-16.08,8.4-25.39,6.14Z" fill="#758838" stroke="#525d29" stroke-miterlimit="10" stroke-width=".5"/><path d="M603.96,873.43s-25.03-.32-46.89-8.71c-21.86-8.4-29.47-17.74-42.14-19.64-12.67-1.9-20.99-4.7-24.08-8.07s-11.25-14.07-22.81-18.34-18.72-5.43-26.06,2.19c-7.26,7.53-3.17,19.04,0,22.05,3.17,3.01,2.61,9.82,9.43,11.25,6.81,1.43,11.56-1.66,16.55-.55s12.44-.16,18.93-.24,10.06.79,14.18,6.89c4.12,6.1,15.41,11.41,27.41,16.04,12,4.63,31.49,14.38,45.5,17.47s21.27,6.42,26.97,12.12c5.7,5.7,14.85,7.25,27.09,9.15s32.2-5.11,33.03-16.04c.83-10.93-2.14-21.39-14.85-22.93s-42.26-2.61-42.26-2.61Z" fill="#758838" stroke="#525d29" stroke-miterlimit="10" stroke-width=".5"/><path d="M1405.62,953.09c-4.28-2.49-9.15-11.52-12.36-15.56-3.21-4.04-9.03-8.44-22.34-10.93-13.31-2.49-26.38-7.01-35.88-3.92s-17.94,4.75-30.18,6.18-21.74,4.04-26.73,6.65c-4.99,2.61-12.83,4.28-19.37,4.16-6.53-.12-19.25.28-19.25.28,0,0-25.19.71-31.45.4-6.26-.32-14.46-.2-32.91,4.55-18.45,4.75-25.11,7.95-26.53,11.7-1.43,3.75-9.35,8.18-7.52,17.21,1.82,9.03,10.77,10.85,16,9.19,5.23-1.66,8.24-.24,11.64.55,3.41.79,8.25,1.27,13.79-2.22,5.54-3.49,12.75-2.93,17.02.63,4.28,3.56,14.73,5.59,20.12-2.06,5.39-7.65,10.81-24.6,18.42-26.07,7.6-1.46,23.17-4.04,33.5-1.74,10.34,2.3,16.63,1.38,31.49,0,14.85-1.38,37.54-9.34,57.86-.31,20.32,9.03,26.26,16.48,33.74,20.48,7.49,4,15.56,1.14,18.06-5.75,2.5-6.89-2.85-10.93-7.13-13.43ZM1200.29,962.93c-3.98.12-5.17-6.26-5.17-6.26-.89-2.75.89-5.92,3.8-6.38s6,2.24,6.53,5.68c.53,3.45-1.19,6.83-5.17,6.95Z" fill="#758838" stroke="#525d29" stroke-miterlimit="10" stroke-width=".5"/><path d="M1391.84,744.81s-4.59-4.11-8.4-7.32c-3.8-3.21-11.05-7.01-21.03-4.16s-18.53,5.35-19.72,13.54,2.84,13.01,8.32,17.32,14.26,17.14,17.82,21.06,15.33,6.3,18.65-.95c3.33-7.25,6.77-17.71,8.32-22.22s1.35-12.08-3.96-17.27Z" fill="#758838" stroke="#525d29" stroke-miterlimit="10" stroke-width=".5"/><path d="M1508.59,941.76s13.07,19.01,17.82,24,9.86,6.65,18.89,9.86c9.03,3.21,18.77,8.2,24.71,17.23,5.94,9.03,2.97,19.01-3.56,26.38-6.53,7.37-18.42,5.35-26.26,2.73-7.84-2.61-10.46-5.58-12.95-13.54-2.5-7.96-7.25-19.84-16.75-25.36-9.5-5.53-38.34-35.47-48.95-45.29s-26.14-27.22-34.06-36.11-9.82-24.57-9.03-31.06-1.74-8.56-5.07-15.21.31-15.05,8.55-17.11,11.41.79,14.73,8.24c3.33,7.45,15.8,37.19,17.35,41.94s2.38,13.31,2.97,17.58c.59,4.28,3.68,8.44,10.63,7.49s16.1.83,22.87,7.25,18.1,20.99,18.1,20.99Z" fill="#758838" stroke="#525d29" stroke-miterlimit="10" stroke-width=".5"/><path d="M1398.41,592.73s-6.77-16.99-10.81-21.27-14.5-5.83-20.67,6.53-.24,32.8,2.97,45.87c3.21,13.07,10.75,47.05,18.62,71.76s19.99,49.74,22.61,55.33c2.61,5.58,7.84,3.95,9.15,10.05s1.31,19.41,5.35,25.23c4.04,5.82,14.05,15.09,25.56,11.17,11.51-3.92,17.33-16.16,14.6-25.54s-4.16-13.07-10.1-18.18-10.34-11-14.61-16.19-9.15-8.16-15.09-17.19-9.39-14.38-12.36-17.94-3.92-5.58-1.9-13.31-.83-16.4-4.51-23.88-10.81-16.04-8.08-27.45c2.73-11.41,7.49-25.07,4.87-31.96-2.61-6.89-5.58-13.03-5.58-13.03Z" fill="#758838" stroke="#525d29" stroke-miterlimit="10" stroke-width=".5"/><path d="M1310.02,450.28s-2.61,2.16-7.13,3.46-10.69,5.56-14.73,9.01-5.62,7.02-14.26,10.18-30.02,15.92-35.25,19.64-16.32,14.18-20.67,17.03c-4.36,2.85-57.74,31.92-72,39.21-14.26,7.29-43.88,27.88-55.13,43.41-11.25,15.52-25.82,41.5-31.52,49.9s-24.67,25.27-28,28.95-1.43,10.46,4.16,16.04c5.58,5.58,17.35,7.49,24.48-2.97s24.36-38.61,29.23-43.6,19.72-14.73,29.35-25.78c9.62-11.05,21.72-21.5,26.66-24s24.19-10.24,29.53-19.79c5.35-9.56,13.78-24.76,21.5-27.73s38.38-14.38,50.97-21.98c12.59-7.6,36.95-24.03,42.65-30.37,5.7-6.34,7.01-7.06,13.19-6.11s18.77,2.02,26.97-2.73,13.54-13,11.29-22.07-14.46-15.08-31.29-9.7Z" fill="#758838" stroke="#525d29" stroke-miterlimit="10" stroke-width=".5"/><path d="M908.51,680.69s-34.14-8.79-56-10.81-37.9-1.43-42.18,6.06c-4.28,7.49-1.31,17.35,8.2,17.94s32.06,1.07,37.65,5.7,10.35,9.27,19.26,6.53c8.91-2.73,15.8-1.43,19.96,2.61s9.98,7.72,17.7,4.4,15.14.12,19.57,7.25c4.43,7.13,12.86,7.6,17.85,8.2s21.86,4.76,23.52,10.7c1.66,5.94,3.63,19.36,14.53,21.26,10.9,1.9,33.07-2.02,39.51-8.79,6.44-6.77,8.31-9.27,2.38-17.7-5.93-8.44-10.57-17.62-13.36-19.8s-6.59-4.79-17.28-4.32-21.98-.16-25.62.71-4.99,1.03-8.4-1.98c-3.41-3.01-7.45-5.15-15.05-5.23s-14.42-1.82-19.01-8.32c-4.59-6.5-6.02-10.22-23.25-14.42Z" fill="#758838" stroke="#525d29" stroke-miterlimit="10" stroke-width=".5"/><path d="M729.94,109.37s-10.69,5.47-14.97,6.65-9.35-2.87-17.9,5.45c-8.55,8.33-12.99,22.9-3.8,28.92s25.96-6.42,28.82-11.33c2.86-4.91,6.43-14.73,10.47-13.7s12.91-1.5,11.25-9.03-5.78-11.09-13.86-6.97Z" fill="#758838" stroke="#525d29" stroke-miterlimit="10" stroke-width=".5"/><path d="M690.83,47.8s6.42-7.31,14.61-11.7,14.32-6.69,18.59-3.55,10.75,3.46,11.05-1.45-1.25-15.37,4.75-15.61,14.55-1.49,16.69-6.06,6.3-10.51,14.55-8.91,9.27,9.15,7.49,13.96-6.36,4.34-8.73,7.07-7.09,5.29-12.71,4.1c-5.63-1.19-9.33.89-10.87,3.45s-3.62,6-6.42,7.54-5.33,6.69-6.75,8.71-5.23,7.65-13.31,10.02-18.42,13.43-26.73,21.15-15.45,12.48-21.62,22.34-14.14,18.48-30.53,27c-16.4,8.52-12.5,3.06-22.29,10.66-9.79,7.6-22.39,15.21-40.92,19.01-18.53,3.8-69.86,2.38-84.83,1.9s-22.22-.95-25.31-11.64c-3.09-10.69.59-18.77,13.54-21.03,12.95-2.26,31.01.83,41.23,3.33,10.22,2.5,41.23,7.01,58.57,3.09,17.35-3.92,26.73-17.47,38.02-18.06s22.1-3.68,29.35-14.38c7.25-10.69,23.88-29.58,29.47-36.48s13.11-14.46,13.11-14.46Z" fill="#758838" stroke="#525d29" stroke-miterlimit="10" stroke-width=".5"/><path d="M54.99,654.3s-5.11-1.35-7.96-1.7-5.64,3.56-8.5,3.27-3.92-.65-8.79.89c-4.87,1.54-17.03,1.05-24.79-5.52-7.76-6.57-5.54-21.7,3.96-28.36,9.5-6.65,18.77-6.77,25.19-1.68s12.28,6.83,19.49,7.7,17.98,4.73,19.01,12.34c1.03,7.62-5.66,15.26-17.6,13.06Z" fill="#758838" stroke="#525d29" stroke-miterlimit="10" stroke-width=".5"/><path d="M162.28,227.94s7.01-8.55,12-12.95,10.93-4.9,16.4-5.48,7.88-1.22,5.18-11.38,2.42-17.83,11.21-20.33c8.79-2.5,17.7,1.13,19.49,7.87s-2.83,9.59-4.98,13.52c-2.15,3.92-3.01,9.39-8.82,11.41s-9.49,4.28-7.71,11.17-3.6,24-14.38,31.29c-10.77,7.29-29.16,20.12-34.3,28.67-5.14,8.55-5.46,23.45-9.1,31.45s-1.74,10.01-.95,19.88-3.8,28.2-6.97,39.6c-3.17,11.41-6.5,16.63-10.77,21.54s-4.65,12.99.77,23.29c5.41,10.3,11.75,26.14,5.41,40.08s-15.13,29.47-20,35.49c-4.87,6.02-10.57,7.92-23.56,2.06-12.99-5.86-14.57-22.34-3.96-27.56s29.81-18.22,28.92-26.46c-.89-8.24-17.04-22.68-16.89-42.39.16-19.71,5.54-30.96,14.42-40.15,8.87-9.19,11.25-26.46,14.42-33.9,3.17-7.45,8.24-16.95,6.81-26.93s-3.49-22.18,6.18-33.9c9.66-11.72,14.5-28.2,21.19-35.88Z" fill="#758838" stroke="#525d29" stroke-miterlimit="10" stroke-width=".5"/><path d="M311.9,571.27s-23.92,23.51-34.22,36.31c-10.3,12.8-18.16,21.46-26.37,22.14s-24.56-1.34-35.26,6.69-10.59,18.02-2.39,22.53c8.21,4.51,21.16-1.72,25.67-8.17,4.51-6.45,7.72-7.99,13.54-3.71s19.01-2.14,23.76-5.35c4.75-3.21,18.42-8.59,33.31-20.79s40.24-42.14,44.99-45.15,24.55-2.85,33.27-2.85,15.84,5.07,23.29,6.81c7.45,1.74,15.84-.95,18.85-8.48,3.01-7.52-.32-12.75-8.4-15.13s-18.85-9.35-30.42-11.25c-11.56-1.9-27.6-1.42-46.26,5.39-21.7,7.92-33.39,20.99-33.39,20.99Z" fill="#758838" stroke="#525d29" stroke-miterlimit="10" stroke-width=".5"/><path d="M326.16,721.45s-12.57-4.28-19.95-7.01-13.08-10.1-19.38-4.16-5.7,9.03-12,10.69c-6.3,1.66-7.72,14.69-1.31,19.17s14.26.6,20.55,4.14,11.17,1.4,16.51-.5,21.74-3.56,24.36-10.81-3.56-9.98-8.79-11.52Z" fill="#758838" stroke="#525d29" stroke-miterlimit="10" stroke-width=".5"/><path d="M541.96,587.31s-31.37,24.36-40.63,32.79c-9.27,8.44-13.07,12.24-27.21,14.61-14.14,2.38-44.79,7.6-55.01,8.44s-29.23,2.61-29.58,16.63c-.36,14.02,8.67,24.95,18.18,24.48s14.5-2.02,18.89-8.67,10.69-12.29,17.58-10.18,8.32,1.15,25.9-3.6c17.58-4.75,32.55-15.8,38.49-20.2s15.63-13.19,21.36-16.99,10.55-10.22,12.71-16.4c2.16-6.18,6.44-7.49,10.36-6.3s10.93,2.58,19.96-1.92,19.92-11.35,18.02-18.48c-1.9-7.13-11.01-9.9-16.16-6.81s-8.4,5.15-10.61,6.73c-2.22,1.58-5.47,2.53-8.24,1.82s-7.68-.63-14.02,4.04Z" fill="#758838" stroke="#525d29" stroke-miterlimit="10" stroke-width=".5"/><path d="M293.19,326.36s-12.51-10.14-14.02-16.4c-1.5-6.26,2.53-14.57-5.78-17.9-8.32-3.33-20.83,4.08-16.91,17.56s15.21,23.47,16.87,31.31,11.25,34.57,21.86,45.82c10.61,11.25,29.07,31.37,39.48,44.04,10.42,12.67,32.75,30.1,40.99,32.48s14.1,3.17,17.43,11.56c3.33,8.4,20.32,30.1,28.51,34.49,8.2,4.4,11.76,4.52,17.11,8.08s21.4,4.16,25.55-1.43,2.25-12.59-3.45-14.14-10.34-4.87-14.5-7.96-5.43-2.5-12.22-6.53c-6.79-4.04-13.92-11.05-17.48-16.63s-15.21-15.21-21.98-19.72-21.74-17.23-29.11-21.86-13.54-10.46-16.51-21.03c-2.97-10.57-6.53-13.9-10.81-19.01s-21.5-26.61-26.38-36.95c-4.87-10.34-12.59-21.86-18.65-25.78Z" fill="#758838" stroke="#525d29" stroke-miterlimit="10" stroke-width=".5"/><path d="M393.86,335.51s-10.1-24.24-12.83-32.32.48-15.8,1.9-20.08,2.14-6.18,5.05-9.27c2.91-3.09,1.09-10.1-4.22-13.66s-13.39-10.93-10.61-19.25c2.77-8.32,9.82-7.88,13.23-4.06s6.81,6.12,9.19,7.78,5.47,7.05,4.99,13.15c-.48,6.1-.83,25.47,1.31,35.8,2.14,10.34,8.2,41.11,12.59,53.35s6.3,21.03,14.61,27.45c8.32,6.42,17.47,13.78,24.83,24.83s16.4,23.52,9.15,33.03-20.32,7.72-26.73,0c-6.42-7.72-15.45-16.28-21.27-22.81s-17.23-19.84-16.04-29.23c1.19-9.39,4.87-21.68,2.26-28.42-2.61-6.75-7.41-16.29-7.41-16.29Z" fill="#758838" stroke="#525d29" stroke-miterlimit="10" stroke-width=".5"/><path d="M672.87,320.7s5.7,52.75,5.23,77.23c-.48,24.48,1.9,40.16-1.43,59.17-3.33,19.01-4.28,37.16-6.18,53.63s-15.45,43.7-28.28,64.66c-12.83,20.96-18.92,39.73-20.04,44.16-1.11,4.44-10.14,10.32-13.79,13.95-3.64,3.63-6.14,7.71-5.78,18.76.36,11.05.36,19.96,11.05,20.79s34.57-6.1,34.93-15.59c.36-9.48-1.9-33.91-.36-38.75s17.12-31.2,30.24-50.1c13.12-18.9,19.18-34.34,17.87-49.19s0-27.56,1.19-34.69c1.19-7.13,7.52-39.6,7.84-54.49.32-14.89,5.23-24.87,7.29-33.74s2.53-31.37,1.9-46.26c-.63-14.89-4.59-38.49-10.06-48.12s-12.24-14.14-20.2-13.9c-7.96.24-13.27,3.64-11.45,32.48Z" fill="#758838" stroke="#525d29" stroke-miterlimit="10" stroke-width=".5"/><path d="M312.26,146.82s-6.59,3.03-6.48,8.73,7.01,10.51,12.71,8.79,9.5-7.25,8.67-11.64-8.79-9.27-14.91-5.88Z" fill="#758838" stroke="#525d29" stroke-miterlimit="10" stroke-width=".5"/><path d="M234.9,219.82l5.42-1.96c.51-.18,1.06.12,1.17.65l3.63,16.46c.02.09.03.18.02.27l-.69,8.01c0,.12,0,.23.04.34l2.91,9.3c.15.49-.14,1.01-.64,1.13l-3.8.91c-.49.12-.98-.19-1.08-.69l-1.23-5.99c-.02-.12-.02-.24,0-.36l1.21-5.81c.03-.16.02-.33-.03-.48l-7.45-20.63c-.17-.46.07-.97.53-1.14Z" fill="#758838" stroke="#525d29" stroke-miterlimit="10" stroke-width=".5"/><path d="M43.13,586.22l1.39.4c.26.07.53,0,.7-.21,1.14-1.31,5.71-6.06,11.8-5.62.31.02.6-.15.7-.44l1.47-4.09c.13-.37-.08-.78-.46-.89l-11.21-3.15c-.35-.1-.72.1-.83.45l-4.02,12.68c-.12.37.09.76.46.86Z" fill="#758838" stroke="#525d29" stroke-miterlimit="10" stroke-width=".5"/><rect x="337.19" y="149.75" width="7.19" height="4.4" rx=".71" ry=".71" transform="translate(-8.47 20.62) rotate(-3.42)" fill="#758838" stroke="#525d29" stroke-miterlimit="10" stroke-width=".5"/><rect x="365.35" y="145.34" width="11.58" height="6.22" rx=".71" ry=".71" transform="translate(-8.2 22.43) rotate(-3.42)" fill="#758838" stroke="#525d29" stroke-miterlimit="10" stroke-width=".5"/><rect x="421.09" y="163.46" width="9.69" height="4.64" rx=".71" ry=".71" transform="translate(-20.98 70.02) rotate(-9.17)" fill="#758838" stroke="#525d29" stroke-miterlimit="10" stroke-width=".5"/><rect x="457.03" y="159.79" width="5.75" height="4.03" rx=".71" ry=".71" transform="translate(-19.91 75.38) rotate(-9.17)" fill="#758838" stroke="#525d29" stroke-miterlimit="10" stroke-width=".5"/><rect x="397" y="149.75" width="6.76" height="9.68" rx=".71" ry=".71" transform="translate(-8.52 24.18) rotate(-3.42)" fill="#758838" stroke="#525d29" stroke-miterlimit="10" stroke-width=".5"/><rect x="239.92" y="151.52" width="10.06" height="5.15" rx=".71" ry=".71" transform="translate(399.05 -90.85) rotate(90)" fill="#758838" stroke="#525d29" stroke-miterlimit="10" stroke-width=".5"/><rect x="241.83" y="171.12" width="11.96" height="8.92" rx=".71" ry=".71" transform="translate(338.8 -114.18) rotate(72.12)" fill="#758838" stroke="#525d29" stroke-miterlimit="10" stroke-width=".5"/><rect x="250.45" y="274.56" width="6.15" height="4.4" rx=".71" ry=".71" transform="translate(429.74 -54.64) rotate(70.49)" fill="#758838" stroke="#525d29" stroke-miterlimit="10" stroke-width=".5"/><rect x=".61" y="607.29" width="17.29" height="6.01" rx=".71" ry=".71" transform="translate(-509.12 288.06) rotate(-57.27)" fill="#758838" stroke="#525d29" stroke-miterlimit="10" stroke-width=".5"/><rect x="167.34" y="643.84" width="18.19" height="8.36" rx=".71" ry=".71" transform="translate(159.56 -23.38) rotate(13.79)" fill="#758838" stroke="#525d29" stroke-miterlimit="10" stroke-width=".5"/><rect x="137.77" y="658.39" width="14.75" height="6.33" rx=".71" ry=".71" transform="translate(161.89 -15.53) rotate(13.79)" fill="#758838" stroke="#525d29" stroke-miterlimit="10" stroke-width=".5"/><rect x="204.11" y="665.87" width="12.39" height="6.33" rx=".71" ry=".71" fill="#758838" stroke="#525d29" stroke-miterlimit="10" stroke-width=".5"/><rect x="223.37" y="682.57" width="12.39" height="7.9" rx=".71" ry=".71" transform="translate(-83.37 33.77) rotate(-7.12)" fill="#758838" stroke="#525d29" stroke-miterlimit="10" stroke-width=".5"/><rect x="283.79" y="673.33" width="12.83" height="7.84" rx=".71" ry=".71" transform="translate(-81.75 41.22) rotate(-7.12)" fill="#758838" stroke="#525d29" stroke-miterlimit="10" stroke-width=".5"/><rect x="323.28" y="659.76" width="7.05" height="5.62" rx=".71" ry=".71" transform="translate(-79.65 45.65) rotate(-7.12)" fill="#758838" stroke="#525d29" stroke-miterlimit="10" stroke-width=".5"/><rect x="271.73" y="696.07" width="8.38" height="4.46" rx=".71" ry=".71" transform="translate(-212.12 127.71) rotate(-18.98)" fill="#758838" stroke="#525d29" stroke-miterlimit="10" stroke-width=".5"/><rect x="258.48" y="708.31" width="20.07" height="3.1" rx=".71" ry=".71" transform="translate(-168.98 89.7) rotate(-14.48)" fill="#758838" stroke="#525d29" stroke-miterlimit="10" stroke-width=".5"/><rect x="155.62" y="672.82" width="16.89" height="7.16" rx=".71" ry=".71" transform="translate(165.97 -19.61) rotate(13.79)" fill="#758838" stroke="#525d29" stroke-miterlimit="10" stroke-width=".5"/><rect x="839.29" y="41.86" width="9.37" height="7.19" rx=".71" ry=".71" transform="translate(90.34 428.08) rotate(-30)" fill="#758838" stroke="#525d29" stroke-miterlimit="10" stroke-width=".5"/><rect x="822.82" y="53.43" width="9.37" height="7.19" rx=".71" ry=".71" transform="translate(82.35 421.39) rotate(-30)" fill="#758838" stroke="#525d29" stroke-miterlimit="10" stroke-width=".5"/><rect x="800.11" y="63.79" width="18.39" height="5.29" rx=".71" ry=".71" transform="translate(75.21 413.56) rotate(-30)" fill="#758838" stroke="#525d29" stroke-miterlimit="10" stroke-width=".5"/><rect x="791.3" y="73.66" width="8.07" height="3.74" rx=".71" ry=".71" transform="translate(68.79 407.79) rotate(-30)" fill="#758838" stroke="#525d29" stroke-miterlimit="10" stroke-width=".5"/><rect x="653.05" y="201.33" width="5.96" height="6.87" rx=".71" ry=".71" transform="translate(-20.33 82.94) rotate(-7.12)" fill="#758838" stroke="#525d29" stroke-miterlimit="10" stroke-width=".5"/><rect x="670.13" y="161.62" width="5.78" height="16.05" rx=".71" ry=".71" transform="translate(-15.84 84.78) rotate(-7.12)" fill="#758838" stroke="#525d29" stroke-miterlimit="10" stroke-width=".5"/><rect x="674.28" y="233.43" width="8.87" height="6.98" rx=".71" ry=".71" fill="#758838" stroke="#525d29" stroke-miterlimit="10" stroke-width=".5"/><rect x="702.24" y="268.57" width="5.98" height="5.98" rx=".71" ry=".71" transform="translate(49.02 -103.26) rotate(8.67)" fill="#758838" stroke="#525d29" stroke-miterlimit="10" stroke-width=".5"/><rect x="514.92" y="504.58" width="13.6" height="7.9" rx=".71" ry=".71" transform="translate(741.75 -186) rotate(63.31)" fill="#758838" stroke="#525d29" stroke-miterlimit="10" stroke-width=".5"/><rect x="507.02" y="477.81" width="9.01" height="6.82" rx=".71" ry=".71" transform="translate(642.5 -208.76) rotate(57.5)" fill="#758838" stroke="#525d29" stroke-miterlimit="10" stroke-width=".5"/><rect x="502.79" y="516.99" width="8.18" height="5.99" rx=".71" ry=".71" transform="translate(703.76 -178.98) rotate(60)" fill="#758838" stroke="#525d29" stroke-miterlimit="10" stroke-width=".5"/><rect x="545.69" y="533.65" width="5.99" height="4.89" rx=".71" ry=".71" transform="translate(738.62 -207.13) rotate(60)" fill="#758838" stroke="#525d29" stroke-miterlimit="10" stroke-width=".5"/><rect x="519.45" y="526.37" width="14.09" height="7" rx=".71" ry=".71" transform="translate(722.13 -191.02) rotate(60)" fill="#758838" stroke="#525d29" stroke-miterlimit="10" stroke-width=".5"/><rect x="469.51" y="552.36" width="7.48" height="5.48" rx=".71" ry=".71" transform="translate(-24.22 21.6) rotate(-2.55)" fill="#758838" stroke="#525d29" stroke-miterlimit="10" stroke-width=".5"/><rect x="495.88" y="540.17" width="10.81" height="8.9" rx=".71" ry=".71" transform="translate(-23.73 22.83) rotate(-2.55)" fill="#758838" stroke="#525d29" stroke-miterlimit="10" stroke-width=".5"/><rect x="537.36" y="544.19" width="15.34" height="6.77" rx=".71" ry=".71" transform="translate(-23.81 24.78) rotate(-2.55)" fill="#758838" stroke="#525d29" stroke-miterlimit="10" stroke-width=".5"/><rect x="531.89" y="556.77" width="14.94" height="4.73" rx=".71" ry=".71" transform="translate(49 -43.43) rotate(4.83)" fill="#758838" stroke="#525d29" stroke-miterlimit="10" stroke-width=".5"/><path d="M661.97,670.12l4.46.19c2.48.11,4.92-.62,6.94-2.07l2.57-1.84c.16-.12.36-.18.56-.18h2.85c.57,0,1.01.49.96,1.05l-.72,8.31c-.05.54-.52.93-1.06.88l-16.96-1.72c-.53-.05-.91-.52-.87-1.05l.25-2.69c.05-.51.49-.9,1.01-.88Z" fill="#758838" stroke="#525d29" stroke-miterlimit="10" stroke-width=".5"/><path d="M631.47,680.52l12.85-2.47c.45-.09.84.32.73.76-.32,1.28-1.09,3.58-2.78,5.18-2.26,2.15-7.51,1.87-10.15,1.98-.33.01-.6-.23-.64-.55l-.51-4.21c-.04-.33.18-.63.5-.69Z" fill="#758838" stroke="#525d29" stroke-miterlimit="10" stroke-width=".5"/><rect x="401.74" y="725.61" width="5.29" height="6.27" rx=".71" ry=".71" transform="translate(-60.76 37.2) rotate(-4.9)" fill="#758838" stroke="#525d29" stroke-miterlimit="10" stroke-width=".5"/><rect x="418.46" y="726.9" width="9.78" height="6.27" rx=".71" ry=".71" transform="translate(61.44 -32.33) rotate(4.71)" fill="#758838" stroke="#525d29" stroke-miterlimit="10" stroke-width=".5"/><rect x="439.12" y="716.37" width="13.29" height="9.36" rx=".71" ry=".71" transform="translate(-28.9 18.69) rotate(-2.33)" fill="#758838" stroke="#525d29" stroke-miterlimit="10" stroke-width=".5"/><rect x="459.3" y="716.37" width="13.29" height="8.59" rx=".71" ry=".71" transform="translate(-28.87 19.51) rotate(-2.33)" fill="#758838" stroke="#525d29" stroke-miterlimit="10" stroke-width=".5"/><rect x="731.36" y="879.6" width="8.26" height="6.15" rx=".71" ry=".71" fill="#758838" stroke="#525d29" stroke-miterlimit="10" stroke-width=".5"/><rect x="789.57" y="876.91" width="14.07" height="6.35" rx=".71" ry=".71" fill="#758838" stroke="#525d29" stroke-miterlimit="10" stroke-width=".5"/><path d="M784.64,877.43v4.9c0,.21-.12.4-.32.48l-11.17,4.83c-.06.03-.13.04-.2.04l-26.33.52c-.29,0-.54-.23-.54-.53v-4.6c0-.29.24-.53.53-.53h24.38c.11,0,.21-.03.3-.09l7.35-5c.54-.37,1.18-.57,1.84-.57h3.64c.29,0,.53.24.53.53Z" fill="#758838" stroke="#525d29" stroke-miterlimit="10" stroke-width=".5"/><rect x="1475.24" y="1010.42" width="7.27" height="6.27" rx=".71" ry=".71" transform="translate(476.05 -472.62) rotate(21.56)" fill="#758838" stroke="#525d29" stroke-miterlimit="10" stroke-width=".5"/><rect x="1498.37" y="1018.81" width="16.15" height="6.27" rx=".71" ry=".71" transform="translate(559.68 -532.85) rotate(24.51)" fill="#758838" stroke="#525d29" stroke-miterlimit="10" stroke-width=".5"/><rect x="1521.55" y="1025.86" width="14.97" height="6.26" rx=".71" ry=".71" transform="translate(564.63 -541.58) rotate(24.51)" fill="#758838" stroke="#525d29" stroke-miterlimit="10" stroke-width=".5"/><rect x="1550.18" y="1031.45" width="16.31" height="6.69" rx=".71" ry=".71" transform="translate(569.68 -553.21) rotate(24.51)" fill="#758838" stroke="#525d29" stroke-miterlimit="10" stroke-width=".5"/><path d="M1195.07,913.31l19.05,5.48c.51.15.81.66.68,1.18l-1.68,6.77c-.13.52-.66.84-1.18.72l-11.79-2.86c-.53-.13-.85-.67-.72-1.2l.21-.81c.14-.53-.18-1.07-.71-1.2l-5.64-1.37c-.53-.13-.85-.67-.71-1.2l1.28-4.82c.14-.53.69-.84,1.22-.69Z" fill="#758838" stroke="#525d29" stroke-miterlimit="10" stroke-width=".5"/><rect x="1125.96" y="897.23" width="5.9" height="4.65" rx=".71" ry=".71" transform="translate(133.74 -146.04) rotate(7.87)" fill="#758838" stroke="#525d29" stroke-miterlimit="10" stroke-width=".5"/><rect x="1142.11" y="907.72" width="8.74" height="4.59" rx=".71" ry=".71" transform="translate(135.34 -148.35) rotate(7.87)" fill="#758838" stroke="#525d29" stroke-miterlimit="10" stroke-width=".5"/><rect x="1167.34" y="925.28" width="9.77" height="6.8" rx=".71" ry=".71" transform="translate(255.23 -252.71) rotate(13.79)" fill="#758838" stroke="#525d29" stroke-miterlimit="10" stroke-width=".5"/><path d="M1012.19,686.21l7.73-7.35c.59-.56,1.52-.54,2.08.03l21.43,21.72c.61.62.56,1.64-.11,2.19l-4.96,4.09c-.57.47-1.4.45-1.95-.05l-3.77-3.42c-.23-.21-.51-.34-.81-.37l-7.06-.89c-.36-.05-.69-.22-.93-.5l-11.74-13.4c-.53-.6-.48-1.51.09-2.06Z" fill="#758838" stroke="#525d29" stroke-miterlimit="10" stroke-width=".5"/><rect x="1028.66" y="720.7" width="6.7" height="4.56" rx=".71" ry=".71" transform="translate(1017.71 -536.99) rotate(54.34)" fill="#758838" stroke="#525d29" stroke-miterlimit="10" stroke-width=".5"/><rect x="1030.05" y="647.64" width="17.02" height="5.58" rx=".71" ry=".71" transform="translate(-184.44 727.49) rotate(-35.66)" fill="#758838" stroke="#525d29" stroke-miterlimit="10" stroke-width=".5"/><rect x="1374.62" y="486.64" width="14.74" height="7.61" rx=".71" ry=".71" transform="translate(993.54 1904.49) rotate(-94.18)" fill="#758838" stroke="#525d29" stroke-miterlimit="10" stroke-width=".5"/><rect x="1384.44" y="513.42" width="5.58" height="5.13" rx=".71" ry=".71" transform="translate(973.68 1937.12) rotate(-94.18)" fill="#758838" stroke="#525d29" stroke-miterlimit="10" stroke-width=".5"/><rect x="1360.83" y="443.97" width="16.46" height="6.94" rx=".71" ry=".71" transform="translate(1101.11 1862.61) rotate(-97.38)" fill="#758838" stroke="#525d29" stroke-miterlimit="10" stroke-width=".5"/><rect x="1305.09" y="737.97" width="21.57" height="16.7" rx=".71" ry=".71" transform="translate(1014.99 -736.25) rotate(48.97)" fill="#758838" stroke="#525d29" stroke-miterlimit="10" stroke-width=".5"/><rect x="1318" y="770.91" width="29.53" height="5.37" rx=".71" ry=".71" transform="translate(1041.36 -739.61) rotate(48.97)" fill="#758838" stroke="#525d29" stroke-miterlimit="10" stroke-width=".5"/><rect x="1348.37" y="791.32" width="6.24" height="6.24" rx=".71" ry=".71" transform="translate(1063.53 -746.58) rotate(48.97)" fill="#758838" stroke="#525d29" stroke-miterlimit="10" stroke-width=".5"/><rect x="1445.31" y="812.04" width="14.72" height="7.44" rx=".71" ry=".71" transform="translate(821 -725.9) rotate(38.4)" fill="#758838" stroke="#525d29" stroke-miterlimit="10" stroke-width=".5"/><rect x="1457.86" y="825.57" width="22.68" height="10.59" rx=".71" ry=".71" transform="translate(833.96 -732.9) rotate(38.4)" fill="#758838" stroke="#525d29" stroke-miterlimit="10" stroke-width=".5"/></g><g id="sand"><path d="M1011.8,714.44s-.83.71-1.99.68-6.42-.45-7.51,2.05c-1.1,2.5,2.38,4.46,4.22,3.77s2.7-.83,4.13.53,2.85,1.75,4.69.77,2.38-3.03,1.04-5.17c-1.34-2.14-3.24-3.36-4.57-2.64Z" fill="#F3EE95" stroke="#f5ec99" stroke-miterlimit="10" stroke-width=".75"/><path d="M991.63,714.5s-3.48.18-4.01,1.69,1.75,2.94,3.65,3.12,3.98.03,4.16-1.93-.95-2.82-3.8-2.88Z" fill="#F3EE95" stroke="#f5ec99" stroke-miterlimit="10" stroke-width=".75"/><path d="M1558.01,989.14s-2.32-.67-3.06,1.05-.86,3.56,1.53,4.24c2.39.68,3.7.15,4.17-1.51s-.27-3.24-2.64-3.77Z" fill="#F3EE95" stroke="#f5ec99" stroke-miterlimit="10" stroke-width=".75"/><path d="M1545.19,986.72s-1.62,1.07-1.43,2.69,1.54,1.23,3.19,1.74,3.15-.1,3.11-2.14-1.84-3.92-4.87-2.3Z" fill="#F3EE95" stroke="#f5ec99" stroke-miterlimit="10" stroke-width=".75"/><path d="M1529.98,1000.1s-1.9.21-2.05,1.81.98,2.38,1.87,2.52,2.2-.68,2.29-2.17-1.16-2.2-2.11-2.17Z" fill="#F3EE95" stroke="#f5ec99" stroke-miterlimit="10" stroke-width=".75"/><path d="M1535.71,1009.52s-3.15.83-2.7,3.59,3.36,2.91,4.31,2.52c.95-.39,2.29-1.28,1.63-3.92s-2.82-2.44-3.24-2.2Z" fill="#F3EE95" stroke="#f5ec99" stroke-miterlimit="10" stroke-width=".75"/><path d="M1467.01,894.27s-2.73,1.99-1.19,4.78,4.37,3.15,6.36,1.96,2.64-3.12,1.46-5.52-4.69-2.79-6.62-1.22Z" fill="#F3EE95" stroke="#f5ec99" stroke-miterlimit="10" stroke-width=".75"/><path d="M1469.42,883.52s-2.5,1.07-1.6,4.22,3.98,3.8,5.88,3.06,3-3.48,2.08-5.64-3.89-3.24-6.36-1.63Z" fill="#F3EE95" stroke="#f5ec99" stroke-miterlimit="10" stroke-width=".75"/><path d="M1352.07,969.08s.09,1.57-.68,3.09-2.02,5.88,1.4,7.34c3.42,1.46,6.68,0,7.78-2.76s3-8.02.18-10.4-8.41-3.5-8.67,2.73Z" fill="#F3EE95" stroke="#f5ec99" stroke-miterlimit="10" stroke-width=".75"/><path d="M1269.23,955.2s-2.26-2.44-4.54-.8-1.07,3.8,0,5.05c1.07,1.25,3.8,2.47,5.32,1.04,1.51-1.43.68-4.13-.77-5.29Z" fill="#F3EE95" stroke="#f5ec99" stroke-miterlimit="10" stroke-width=".75"/><path d="M1264.9,930.49s-2.55-.98-4.34,1.04-1.1,3.8.95,5.02,4.75,1.25,5.76-.86.86-4.31-2.38-5.2Z" fill="#F3EE95" stroke="#f5ec99" stroke-miterlimit="10" stroke-width=".75"/><path d="M1197.95,956.93s.62,4.49,3.42,4.34c2.79-.15,3.3-2.67,3.24-4.34s-.68-4.61-3.09-4.83c-2.41-.22-4.1,2.78-3.56,4.83Z" fill="#F3EE95" stroke="#f5ec99" stroke-miterlimit="10" stroke-width=".75"/><path d="M1181.26,947.21s-2.64.71-2.41,3.18,2.05,3.12,3.27,3.12,3-1.4,2.85-3.42c-.15-2.02-1.75-3.45-3.71-2.88Z" fill="#F3EE95" stroke="#f5ec99" stroke-miterlimit="10" stroke-width=".75"/><path d="M1184.33,965.58s-2.2,1.2-1.72,3.54,3.12,2.5,4.01,2.26,2.61-1.6,1.96-3.89-2.88-2.57-4.25-1.91Z" fill="#F3EE95" stroke="#f5ec99" stroke-miterlimit="10" stroke-width=".75"/><path d="M1176.64,975.51s-1.78,1.16-1.43,2.76,2.11,1.78,3,1.54,1.96-1.28,1.66-2.91-2.67-1.72-3.24-1.4Z" fill="#F3EE95" stroke="#f5ec99" stroke-miterlimit="10" stroke-width=".75"/><path d="M1360.75,755.12s-3.24.68-3.03,3.8,2.44,3.89,4.4,3.92,3.5-1.99,3.45-4.01-2.35-4.25-4.81-3.71Z" fill="#F3EE95" stroke="#f5ec99" stroke-miterlimit="10" stroke-width=".75"/><path d="M1384.43,761.54s-1.19,1.34-2.44,1.84-2.73,1.34-2.44,3.15,3.42,2.76,5.52,2.11,2.94-3.06,3.24-4.04.42-2.32-.74-3.06-2.67-.68-3.15,0Z" fill="#F3EE95" stroke="#f5ec99" stroke-miterlimit="10" stroke-width=".75"/><path d="M1366.81,735.05s-2.14.12-2.11,2.11,2.44,3.56,3.86,2.38.82-2.73.3-3.59c-.62-1.04-2.05-.89-2.05-.89Z" fill="#F3EE95" stroke="#f5ec99" stroke-miterlimit="10" stroke-width=".75"/><path d="M1374.39,737.49s-1.4,1.95-.12,3.59,3,1.51,4.31.24,1.34-3.18.15-4.25-3.48-.93-4.34.42Z" fill="#F3EE95" stroke="#f5ec99" stroke-miterlimit="10" stroke-width=".75"/><path d="M1429.56,768.26s-.69-.42-1.92-.42-2.77-.48-2.61-1.92,1.54-2.3,3.68-2,3.03,1.86,2.77,3.23-1.09,1.76-1.92,1.11Z" fill="#F3EE95" stroke="#f5ec99" stroke-miterlimit="10" stroke-width=".75"/><path d="M1428.7,779.43s-1.72.46-1.52,2.5,1.31,2.48,2.48,2.36,2.02-1.17,2-2.63-1.52-2.67-2.95-2.22Z" fill="#F3EE95" stroke="#f5ec99" stroke-miterlimit="10" stroke-width=".75"/><path d="M1453.41,759.32s-2.29.34-2.23,2.24,1.51,3,3.03,2.94,2.32-1.72,2.29-3.06-1.51-2.46-3.09-2.12Z" fill="#F3EE95" stroke="#f5ec99" stroke-miterlimit="10" stroke-width=".75"/><path d="M1434.31,713.65s-.68,1.57-.71,2.64-.65,2.88-2.79,2.52-2.91-3.53-2.35-5.85,3.56-3.09,4.72-2.41,1.63,1.72,1.13,3.09Z" fill="#F3EE95" stroke="#f5ec99" stroke-miterlimit="10" stroke-width=".75"/><path d="M1405.33,638.74s-3.76.16-4.16,3.56,1.7,5.19,4.16,5.54,4.4-1.7,4.44-4.36-.67-4.95-4.44-4.75Z" fill="#F3EE95" stroke="#f5ec99" stroke-miterlimit="10" stroke-width=".75"/><path d="M1410.6,622.03s-4.08.55-4.2,4.16,2.53,4.87,4.2,5.03,4.75-.91,4.95-4.36c.2-3.45-2.81-5.15-4.95-4.83Z" fill="#F3EE95" stroke="#f5ec99" stroke-miterlimit="10" stroke-width=".75"/><path d="M1314.33,451.31s-1.9.36-2,2.02,1.07,2.75,2,2.87,2.06-.75,2.2-2.32-1.21-2.93-2.2-2.57Z" fill="#F3EE95" stroke="#f5ec99" stroke-miterlimit="10" stroke-width=".75"/><path d="M1300.66,458.99s-2.67-.09-3.09,2.73,1.84,4.72,3.45,4.81,2.91-1.6,3.06-3.3-1.69-4.57-3.42-4.25Z" fill="#F3EE95" stroke="#f5ec99" stroke-miterlimit="10" stroke-width=".75"/><path d="M1308.05,490.26s-2.64.24-2.88,2.47,1.51,3.06,2.7,3.15,3.06-.62,3.03-2.81-1.72-2.93-2.85-2.81Z" fill="#F3EE95" stroke="#f5ec99" stroke-miterlimit="10" stroke-width=".75"/><path d="M1295.19,491.33s-1.84,1.37-1.25,2.91,2.52,1.72,3.5,1.1,1.66-2.2.92-3.48-2.5-1.16-3.18-.53Z" fill="#F3EE95" stroke="#f5ec99" stroke-miterlimit="10" stroke-width=".75"/><path d="M1191.24,550.33s-1.7,3.29.36,5.15,5.15.55,6.26-1.07c1.11-1.62.32-5.27-1.15-6.3s-4.36-.32-5.47,2.22Z" fill="#F3EE95" stroke="#f5ec99" stroke-miterlimit="10" stroke-width=".75"/><path d="M1185.18,564.39s-2.38,2.65-1.11,5.5c1.27,2.85,5.01,2.69,6.51,1.43,1.49-1.27,3.08-4.4,1.22-6.93s-5.74-1.43-6.61,0Z" fill="#F3EE95" stroke="#f5ec99" stroke-miterlimit="10" stroke-width=".75"/><path d="M1140.98,596.87s-2.89.67-3.33,3.64,1.35,4.28,3.09,4.55,3.76-.67,4.36-3.72-1.7-5.15-4.12-4.48Z" fill="#F3EE95" stroke="#f5ec99" stroke-miterlimit="10" stroke-width=".75"/><path d="M971.81,863.1s-2.94.62-4.28-.42c-1.34-1.04-3.21-2.05-4.34-1.1s-1.37,3.27,1.22,5.88c2.58,2.61,7.93,2.23,9.68,1.01s2.41-3.06,1.84-4.57c-.56-1.51-3.06-1.34-4.13-.8Z" fill="#F3EE95" stroke="#f5ec99" stroke-miterlimit="10" stroke-width=".75"/><path d="M1020.85,734.56c.07.11,2.81,2.26,2.61,3.96s-.95,7.6,1.98,7.8,5.07-3.13,5.03-8.28c-.04-5.15-3.8-8.87-6.3-9.39s-6.14,1.31-3.33,5.9Z" fill="#F3EE95" stroke="#f5ec99" stroke-miterlimit="10" stroke-width=".75"/><path d="M978.35,740.89s.8,3.68,3.18,4.04,3.48-2.61,3.42-4.43-1.22-3.65-3.3-3.68-3.6,2.38-3.3,4.07Z" fill="#F3EE95" stroke="#f5ec99" stroke-miterlimit="10" stroke-width=".75"/><path d="M984.17,750.81s-1.99,1.6-.59,3.71c1.4,2.11,4.31,2.26,5.64.89s1.37-2.79-.3-4.4-3.8-1.46-4.75-.21Z" fill="#F3EE95" stroke="#f5ec99" stroke-miterlimit="10" stroke-width=".75"/><path d="M870.65,895.78s-2.23,1.37-1.9,3.27c.33,1.9,2.58,2.76,4.51,1.81,1.93-.95,2.64-1.69,2.32-3.59-.33-1.9-2.29-2.58-4.93-1.49Z" fill="#F3EE95" stroke="#f5ec99" stroke-miterlimit="10" stroke-width=".75"/><path d="M846.29,901.25s-1.31,1.75-2.44,1.16-2.8-1.22-4.11-.33-1.79,2.08,0,3.92c1.79,1.84,5.92.98,7.67,0,1.75-.98,2.7-3.15,2.02-4.51-.68-1.37-2.38-1.24-3.15-.23Z" fill="#F3EE95" stroke="#f5ec99" stroke-miterlimit="10" stroke-width=".75"/><path d="M839.16,878.69s-2.38-.03-2.91,1.87,1.01,2.64,2.76,2.7,4.01-1.25,4.01-2.76-2.02-1.93-3.86-1.81Z" fill="#F3EE95" stroke="#f5ec99" stroke-miterlimit="10" stroke-width=".75"/><path d="M924.75,719.79s-1.99.21-2.76-1.51-2.41-2.88-3.68-2.02-1.07,3.39.62,5.61c1.69,2.23,5.32,2.38,6.92,1.1s1.49-3.68-1.1-3.18Z" fill="#F3EE95" stroke="#f5ec99" stroke-miterlimit="10" stroke-width=".75"/><path d="M890.93,715.48s-.93-1.54-.63-2.71.3-4.08-2.11-4.55-4.81,1.04-4.49,5.29c.33,4.25,3.56,6.36,5.88,5.85s2.63-2.51,1.35-3.87Z" fill="#F3EE95" stroke="#f5ec99" stroke-miterlimit="10" stroke-width=".75"/><path d="M860.45,707.59s-2.26-1.16-3.12-2.52c-.86-1.37-3.68-3.45-5.23-2.26s-1.34,2.82-.42,4.34c.92,1.51,1.9,3.95,3.48,4.01s.98.03,2.41.3,2.47-.06,3.27-1.07.83-1.9-.39-2.79Z" fill="#F3EE95" stroke="#f5ec99" stroke-miterlimit="10" stroke-width=".75"/><path d="M592.18,900.11s-3.68.48-3.96,2.97c-.28,2.5,1.78,3.8,3.76,3.96s3.84-1.9,3.76-3.47c-.08-1.56-2.3-3.7-3.56-3.47Z" fill="#F3EE95" stroke="#f5ec99" stroke-miterlimit="10" stroke-width=".75"/><path d="M456,847.48s-1.99,1.28-3,0-2.11-2.23-3.18-1.46-.39,3.12,1.6,4.6c1.99,1.49,5.67-.03,6.62-1.13s-.56-2.97-2.05-2.02Z" fill="#F3EE95" stroke="#f5ec99" stroke-miterlimit="10" stroke-width=".75"/><path d="M479.05,833.43s-.42,3.03,1.31,3.48,3.83-.77,3.03-2.79c-.8-2.02-4.07-3.65-4.34-.68Z" fill="#F3EE95" stroke="#f5ec99" stroke-miterlimit="10" stroke-width=".75"/><path d="M596.44,854.23s-1.15,1.15-1.23,2.69c-.08,1.54-1.35,2.18-2.61,3.29-1.27,1.11-3.68,3.84-1.78,6.14s5.23.4,7.8-.51,5.39-1.62,6.18-3.45,1.78-4.04.4-7.49c-1.39-3.45-6.14-3.09-8.75-.67Z" fill="#F3EE95" stroke="#f5ec99" stroke-miterlimit="10" stroke-width=".75"/><path d="M613.31,633.82s-2.97,1.94-3.68,3.45-1.15,2.53-2.3,3.21-1.74,4.91.44,5.82,3.33-1.11,4.2-2.57c.87-1.47,3.64-4.08,4.12-6.26s-1.58-4.91-2.77-3.64Z" fill="#F3EE95" stroke="#f5ec99" stroke-miterlimit="10" stroke-width=".75"/><path d="M644.99,654.02s-.48-3.09-.75-4.99c-.28-1.9-3.41-3.64-5.43-1.66s-1.5,5.35-.44,6.85c1.07,1.5,1.86,5.23,4.12,5.31s2.97-2.06,2.5-5.5Z" fill="#F3EE95" stroke="#f5ec99" stroke-miterlimit="10" stroke-width=".75"/><path d="M750.34,7.34s-.77,1.07-1.69,1.78-1.81,1.6-.74,2.7,3.18.86,4.54-.56,1.69-2.76.77-4.19c-.92-1.43-2.41-.48-2.88.27Z" fill="#F3EE95" stroke="#f5ec99" stroke-miterlimit="10" stroke-width=".75"/><path d="M756.31,28.55s-2.38-1.28-3.83-1.49-3.27.53-3.95,1.75c-.68,1.22.74,3.06,2.61,3.77s4.93,1.16,5.97-.45c1.04-1.6.59-2.88-.8-3.59Z" fill="#F3EE95" stroke="#f5ec99" stroke-miterlimit="10" stroke-width=".75"/><path d="M746.24,39.93s-1.96-1.34-3.21-1.81-2.73.06-3.61,1.37c-.88,1.31-.17,3.3,1.5,4.43s5.17,2.32,6.12.5.45-3.8-.8-4.49Z" fill="#F3EE95" stroke="#f5ec99" stroke-miterlimit="10" stroke-width=".75"/><path d="M731.57,27.54c-.04-.1-1.69-3.21-2.76-4.49s-4.9-.71-6.59.68c-1.69,1.4-2.61,3.8.18,3.8s3.92,1.26,4.6,2.59c.68,1.33,2.02,2.93,3.59,2.25s2.14-1.81.98-4.84Z" fill="#F3EE95" stroke="#f5ec99" stroke-miterlimit="10" stroke-width=".75"/><path d="M719.57,119.14s-1.69,1.25-1.07,3.12,2.26,2.38,3.71,1.66,1.99-2.23,1.43-3.74c-.56-1.51-2.79-1.81-4.07-1.04Z" fill="#F3EE95" stroke="#f5ec99" stroke-miterlimit="10" stroke-width=".75"/><path d="M720.55,126.21s-1.49,1.01-1.01,2.94,2.47,2.47,3.77,1.84,1.75-2.14,1.16-3.68-3.12-1.75-3.92-1.1Z" fill="#F3EE95" stroke="#f5ec99" stroke-miterlimit="10" stroke-width=".75"/><path d="M706.13,106.05s-2.89,1.7-5.7,2.77-6.85,3.56-8.71,5.15-3.96,3.6-2.65,5.78,4.48,1.47,6.53-1.03c2.06-2.5,4.99-4.53,7.33-5.18s7.25-.77,7.92-4.25-.44-5.62-4.71-3.25Z" fill="#F3EE95" stroke="#f5ec99" stroke-miterlimit="10" stroke-width=".75"/><path d="M398.66,237.5s-1.9-1.66-3.01-3.56c-1.11-1.9-3.68-3.68-6.06-2.26s-1.15,4.4,0,6.65c1.15,2.26,5.35,5.03,7.96,4.04s3.29-2.89,1.11-4.87Z" fill="#F3EE95" stroke="#f5ec99" stroke-miterlimit="10" stroke-width=".75"/><path d="M378.97,262.65s-3.88,3.4-3.72,4.75c.16,1.35,1.47,3.49,6.38,3.45s7.6-2.61,5.78-5.31c-1.82-2.69-4.22-4.71-5.8-4.12s-2.64,1.23-2.64,1.23Z" fill="#F3EE95" stroke="#f5ec99" stroke-miterlimit="10" stroke-width=".75"/><path d="M395.1,354.57s-1.43,2.14-.3,3.83,3.06,1.57,4.22.59,1.54-3.21.27-4.43c-1.28-1.22-3.53-1.22-4.19,0Z" fill="#F3EE95" stroke="#f5ec99" stroke-miterlimit="10" stroke-width=".75"/><path d="M417.23,347.23s-.98,2.61.86,3.92,3.53.39,4.13-.71,1.04-3.53-.62-4.51-3.65-.59-4.37,1.31Z" fill="#F3EE95" stroke="#f5ec99" stroke-miterlimit="10" stroke-width=".75"/><path d="M189.8,185.53s-.3,2.73,1.13,3.12,2.73-.89,3.3-2.14c.56-1.25.65-3.3-.92-3.77s-3.33.59-3.5,2.79Z" fill="#F3EE95" stroke="#f5ec99" stroke-miterlimit="10" stroke-width=".75"/><path d="M195.5,202.61c-.22-.45-1.37-2.7-1.81-3.98-.45-1.28-2.29-1.75-3.45-.42-1.16,1.34-.89,3.27,0,5.14s2.38,3.24,4.04,2.64,1.9-2.02,1.22-3.39Z" fill="#F3EE95" stroke="#f5ec99" stroke-miterlimit="10" stroke-width=".75"/><path d="M224.1,206.64s-1.62,1.13-2.3,1.94-.93,2.12-.26,3.29c.67,1.17,2.28,1.31,3.41.53s3.3-3.94,2.71-5.19-2.77-1.37-3.56-.57Z" fill="#F3EE95" stroke="#f5ec99" stroke-miterlimit="10" stroke-width=".75"/><path d="M214.95,213.63s-3.06,0-4.6-.18-2.79.12-2.29,1.99c.5,1.87,2.32,2.82,5.14,2.94s4.22-.65,4.37-2.08c.15-1.43-.89-2.58-2.61-2.67Z" fill="#F3EE95" stroke="#f5ec99" stroke-miterlimit="10" stroke-width=".75"/><path d="M563.7,569.09s-3.74,2.11-5.2,4.57c-1.46,2.47-3.5,5.35-.86,7.49,2.64,2.14,4.9.53,5.47-1.9s.92-3.36,2.85-3.03,4.1-1.22,4.57-3.42-2.29-3.59-3.27-4.04-3.56.33-3.56.33Z" fill="#F3EE95" stroke="#f5ec99" stroke-miterlimit="10" stroke-width=".75"/><path d="M582.19,596.71s-1.27,1.9-3.54,2.61-2.9,1.84-2.5,3.31c.4,1.47,1.59,1.82,3.69,1.17s6.1-2.65,5.92-3.92-.36-2.22-.51-2.93-1.9-1.82-3.05-.24Z" fill="#F3EE95" stroke="#f5ec99" stroke-miterlimit="10" stroke-width=".75"/><path d="M552.81,607.48s-2.55-3.45-4.93-2.55-1.99,4.9-1.07,6.42c.92,1.51,4.16,1.96,6.27.92s.89-3.21-.27-4.78Z" fill="#F3EE95" stroke="#f5ec99" stroke-miterlimit="10" stroke-width=".75"/><path d="M442.09,670.7s-1.9,1.37-2.14,3.5-2.26,5.38-5.82,3.5-3.98-5.14-1.96-7.9,6.62-4.9,8.79-4.31,3.42,1.84,1.13,5.2Z" fill="#F3EE95" stroke="#f5ec99" stroke-miterlimit="10" stroke-width=".75"/><path d="M289.73,744.28h-2.3c-1.45,0-2.79,1.01-2.85,2.48s1.33,2.36,3.72,1.86,3.5-1.68,3.33-3.05-1.9-1.29-1.9-1.29Z" fill="#F3EE95" stroke="#f5ec99" stroke-miterlimit="10" stroke-width=".75"/><path d="M298.42,738.72s-1.54,1.56-.61,2.98c.93,1.42,3.92,1.14,4.55.25s1.13-3.01.18-3.94-3.39-.14-4.12.71Z" fill="#F3EE95" stroke="#f5ec99" stroke-miterlimit="10" stroke-width=".75"/><path d="M306.94,724.06s1.57,1.22.8,2.88-1.25,3.98.8,4.31,3.89-2.11,4.72-4.22,1.25-4.34-.98-5.67-4.01-.86-4.99-.24-1.69,1.9-.36,2.94Z" fill="#F3EE95" stroke="#f5ec99" stroke-miterlimit="10" stroke-width=".75"/><path d="M294.78,712.41s-3.12-.92-4.54-.92-2.2.33-2.97,1.72-2.11,3.18-.71,4.22c1.4,1.04,5.47,2.26,6.83,1.16s2.26-1.9,2.58-3.09.21-2.67-1.19-3.09Z" fill="#F3EE95" stroke="#f5ec99" stroke-miterlimit="10" stroke-width=".75"/><path d="M360.65,583.44s-1.63,1.13-1.28,3.27,0,3.27-.33,4.87c-.33,1.6-.42,4.78,2.44,5.11s3.95-2.44,4.75-4.78.68-3.77.15-5.44-.45-3.83-2.23-3.89-3.5.86-3.5.86Z" fill="#F3EE95" stroke="#f5ec99" stroke-miterlimit="10" stroke-width=".75"/><path d="M375.52,577.7s-2.76,1.19-2.79,3.56c-.03,2.38,4.1,1.93,4.28,3.53s.18,4.01,2.97,4.49,3.83-2.5,4.13-3.95.5-3.5-1.57-5.41-5.02-3.48-7.01-2.23Z" fill="#F3EE95" stroke="#f5ec99" stroke-miterlimit="10" stroke-width=".75"/><path d="M244.89,644.63s-2.14,1.39-2.02,3.21-1.78,4.32.36,5.43,6.46.4,7.72-1.15c1.27-1.54-1.07-5.74-2.18-7.09s-3.05-1.15-3.88-.4Z" fill="#F3EE95" stroke="#f5ec99" stroke-miterlimit="10" stroke-width=".75"/><path d="M243.11,630.41s-3.41-.4-4.87.67c-1.47,1.07-2.06,3.45.51,4.67s6.02.79,6.42-1.62-.71-3.64-2.06-3.72Z" fill="#F3EE95" stroke="#f5ec99" stroke-miterlimit="10" stroke-width=".75"/><path d="M4.54,628.43s1.07,2.14.5,2.76-2.85,2.7-.98,4.51c1.87,1.81,4.54.3,5.26-1.75s1.25-2.91,2.38-3.89,1.43-2.41-.83-3.36-5.55-1.4-6.18-.5-.68,1.57-.15,2.23Z" fill="#F3EE95" stroke="#f5ec99" stroke-miterlimit="10" stroke-width=".75"/><path d="M22.04,621.42s-2.58.74-2.52,2.2,2.14,3.16,3.89,2.86,3.3-1.97,3.12-3.51-1.96-2.14-4.49-1.54Z" fill="#F3EE95" stroke="#f5ec99" stroke-miterlimit="10" stroke-width=".75"/><path d="M39.31,629.68s-1.5.3-1.6,1.27.32,1.76,1.37,1.9,1.72-.59,1.72-1.41-.63-1.96-1.49-1.76Z" fill="#F3EE95" stroke="#f5ec99" stroke-miterlimit="10" stroke-width=".75"/><path d="M39.07,640.32s-.77,1.45.17,2.48c.94,1.03,2.26-.02,2.74-.79s.63-1.76-.18-2.4-2.18-.44-2.73.71Z" fill="#F3EE95" stroke="#f5ec99" stroke-miterlimit="10" stroke-width=".75"/><path d="M29.19,647.93s-1.34,1.4-2.76,1.69-3.2.21-3.32,2.17,1.95,3.18,3.32,2.11,1.87-1.43,3.3-1.49,2.58-.42,2.79-2.35-1.87-3.3-3.33-2.14Z" fill="#F3EE95" stroke="#f5ec99" stroke-miterlimit="10" stroke-width=".75"/><path d="M125.9,403.52s1.78,1.56,1.7,2.4-.5,4.68,1.49,5.13,4.13-1.81,4.1-5.52c-.03-3.71-2.44-7.49-4.75-6.71s-3.67,3.28-2.53,4.71Z" fill="#F3EE95" stroke="#f5ec99" stroke-miterlimit="10" stroke-width=".75"/><path d="M179.01,266.89s-.48,1.43-3.49,1.35-5.23,1.19-5.15,3.45c.08,2.26,1.9,4.48,5.43,4.08s5.66-1.5,7.29-2.3,2.61-1.94,1.78-4.16-4.32-4.51-5.86-2.42Z" fill="#F3EE95" stroke="#f5ec99" stroke-miterlimit="10" stroke-width=".75"/><path d="M157.27,285.59s-1.78,3.49-.32,5.47c1.47,1.98,4.59,1.66,6.53-.44,1.94-2.1,2.26-5.5.67-6.93s-5.54-1.11-6.89,1.9Z" fill="#F3EE95" stroke="#f5ec99" stroke-miterlimit="10" stroke-width=".75"/></g><g id="clubHouse"><polygon points="994.82 606.03 995.61 614.75 983.06 615.34 971.15 594.76 966.53 581.23 972.15 578.76 976.15 567.79 974.31 562.46 998.53 554.56 1001.14 562.12 977.64 570.21 977.22 571.61 979.47 572.54 977.15 578.63 975.07 577.95 974.48 579.52 978.89 591.72 978.03 592.04 981.06 597.33 996.62 596.54 1008.34 582.84 1007.19 566.24 1016.7 565.77 1018 585.19 1016.48 587 1018.14 588.49 1003.95 604.71 1002.4 603.36 1000.14 605.22 994.82 606.03" fill="#4e4e4e"/><polygon points="945.88 653.86 940.44 660.23 952.76 671.92 953.47 671.12 960.36 678.57 959.65 678.57 960.36 685.27 977.35 683.56 974.95 663.44 976.3 663.29 974.12 640.44 964.54 641.43 966.63 663.25 958.24 664.2 945.88 653.86" fill="#4e4e4e"/></g><g id="green"><path d="M760.38,6.14s-2.53,6.26-6.26,7.72-13.78,1.66-14.61,6.69,5.15,6.81,9.19,4.87,8.16-1.31,10.53-1.11,6.22-.4,9.31-3.96,9.54-3.72,9.39-10.34-10.1-12.95-17.54-3.88Z" fill="#a6ad4c" stroke="#f5ec99" stroke-miterlimit="10" stroke-width=".5"/><path d="M708.58,136.28s-3.68-.15-6.06,2.17-6.18,4.99-9.39,1.84-2.91-7.54,2.67-14.5c5.58-6.95,11.11-9.92,15.62-7.6s5.76,7.19,4.46,11.7-3.09,5.82-7.31,6.39Z" fill="#a6ad4c" stroke="#f5ec99" stroke-miterlimit="10" stroke-width=".5"/><path d="M197.21,195.16s.71,3.56,1.03,5.82.3,8.38,6.42,9.09c6.12.71,11.64-2.44,12.89-6.36s3.45-5.7,5.47-9.03,4.16-10.34-3.03-13.9c-7.19-3.56-23.56-1.78-22.77,14.38Z" fill="#a6ad4c" stroke="#f5ec99" stroke-miterlimit="10" stroke-width=".5"/><path d="M27.34,627.15s-1.9.87-4.67,1.43-10.69,1.94-11.96,10.89c-1.27,8.95,3.01,11.41,6.34,10.81s4.67-2.93,9.31-4.71,8.99-2.85,9.35-8.4c.36-5.54-1.9-12.99-8.36-10.02Z" fill="#a6ad4c" stroke="#f5ec99" stroke-miterlimit="10" stroke-width=".5"/><path d="M846,884.91s-4.63,1.99-9.62,2.41-13.22,1.37-14.47,7.07c-1.25,5.7,4.63,9.92,9.62,7.6s10.63-4.87,14.97-4.93,10.16-1.49,11.11-6.53-3.03-9.03-11.61-5.61Z" fill="#a6ad4c" stroke="#f5ec99" stroke-miterlimit="10" stroke-width=".5"/><path d="M1013.24,729.39s-8.01-8.08-17.79-2.85c-9.78,5.23-7.46,14.67-3.18,20.02s15.56,8.85,21.62,4.04,7.49-13.9-.65-21.21Z" fill="#a6ad4c" stroke="#f5ec99" stroke-miterlimit="10" stroke-width=".5"/><path d="M1315.99,458.76s-8.85,5.88-6.3,13.96c2.55,8.08,12,7.07,16.87,3.98s11.17-8.38,7.72-15.68-11.82-6.71-18.3-2.26Z" fill="#a6ad4c" stroke="#f5ec99" stroke-miterlimit="10" stroke-width=".5"/><path d="M1381.75,749.65s-7.43-2.14-12.36-4.81-10.62-2.14-12.92,1.31-.09,6.42,3.35,6.71,6.71,2.85,10.4,4.63,11.47,4.1,14.38,0,1.43-7.25-2.85-7.84Z" fill="#a6ad4c" stroke="#f5ec99" stroke-miterlimit="10" stroke-width=".5"/><path d="M1436.07,765.71s.28,3.56-.24,6.5-1.54,13.98,6.12,16.59,12.71-1.9,14.61-6.65,1.07-9.45-2.85-13.19-5.94-9.09-9.98-9.56-7.96,1.47-7.66,6.32Z" fill="#a6ad4c" stroke="#f5ec99" stroke-miterlimit="10" stroke-width=".5"/><path d="M1557.42,996.92s-9.23-.71-12.28-2.42c-3.05-1.7-5.39-5.47-8.71-3.96-3.33,1.5-4.81,5.62,1.49,14.06,6.3,8.44,13.41,12.06,19.5,10.16s8.48-6.83,8.36-10.81-3.35-6.75-8.36-7.03Z" fill="#a6ad4c" stroke="#f5ec99" stroke-miterlimit="10" stroke-width=".5"/><path d="M1161.36,956.64s-9.21,2.79-12.95,7.01-3.39,10.16,0,13.25c3.39,3.09,9.33,2.2,12,.59s6.3-2.79,10.16-4.4,10.63-6.48,9.62-11.76c-1.01-5.29-9.27-8.55-18.83-4.69Z" fill="#a6ad4c" stroke="#f5ec99" stroke-miterlimit="10" stroke-width=".5"/><path d="M466.85,824.92s-5.19-2.53-6.69-3.25-9.92-2.48-14.02,3.25-1.78,12.67,1.78,15.29,9.56,4.93,12.65,5.82,10.16.95,11.64-5.23.67-13.17-5.37-15.88Z" fill="#a6ad4c" stroke="#f5ec99" stroke-miterlimit="10" stroke-width=".5"/><path d="M620.25,641.35s-1.19,2.97-3.09,5.52-6.93,8.26-4.16,15.21c2.77,6.95,15.8,5.11,18.77,1.07s1.6-9.68,2.73-12.83,3.8-9.03-.36-12.12-11.17-2.5-13.9,3.15Z" fill="#a6ad4c" stroke="#f5ec99" stroke-miterlimit="10" stroke-width=".5"/><path d="M573.06,577.5c-1,.68-1.99,1.37-3.07,1.91-2.62,1.32-7.76,4.66-7.14,10.31.83,7.54,9.15,9.98,16.22,5.7s11.64-9.21,10.16-14.67c-1.38-5.07-9.16-8.07-16.16-3.25Z" fill="#a6ad4c" stroke="#f5ec99" stroke-miterlimit="10" stroke-width=".5"/><path d="M291.78,722.92s-3.41.51-5.7,0-12.38-1.43-13.33,6.42,8.44,12.18,13.6,12.36,8.79-3.68,10.4-5.64,2.91-6.06,2.61-8.73-2.4-5.29-7.58-4.4Z" fill="#a6ad4c" stroke="#f5ec99" stroke-miterlimit="10" stroke-width=".5"/><path d="M232.09,652.5s-4.71.99-7.01,2.14-9.43,2.3-10.89-1.62c-1.47-3.92-.16-11.84,8.2-12.79s11.05-.67,13.15-.63,5.7,1.27,5.78,3.92c.08,2.65-2.5,7.84-9.23,8.99Z" fill="#a6ad4c" stroke="#f5ec99" stroke-miterlimit="10" stroke-width=".5"/><path d="M458.53,502.98s-4.16-.24-7.96-3.27-10.46-4.57-14.38,1.19c-3.92,5.76-2.67,12.89,7.01,16.51,9.68,3.62,18.12.36,20.08-4.04s1.37-9.62-4.75-10.4Z" fill="#a6ad4c" stroke="#f5ec99" stroke-miterlimit="10" stroke-width=".5"/><path d="M393.36,244.68s-4.24-3.01-6.02-5.19-5.31-4.79-9.31-2.5-5.09,8.87-1.17,14.57c3.92,5.7,7.9,5.94,10.57,10.16s4.63,6.48,8.61,5.41,3.56-4.63,3.03-10.28-1.17-8.91-5.72-12.18Z" fill="#a6ad4c" stroke="#f5ec99" stroke-miterlimit="10" stroke-width=".5"/></g><g id="lines"><polyline points="1032 723.49 1137.59 573.46 1322.25 467.21" fill="none" stroke="#991B1E" stroke-dasharray="3" stroke-miterlimit="10" stroke-width=".5"/><polyline points="1369.07 447.43 1381.99 605.11 1446.51 774.44" fill="none" stroke="#991B1E" stroke-dasharray="3" stroke-miterlimit="10" stroke-width=".5"/><line x1="1469.2" y1="830.86" x2="1370.83" y2="751.46" fill="#991B1E" stroke="#991B1E" stroke-dasharray="3" stroke-miterlimit="10" stroke-width=".5"/><polyline points="1315.88 746.32 1435.48 889.03 1549.67 1002.72" fill="none" stroke="#991B1E" stroke-dasharray="3" stroke-miterlimit="10" stroke-width=".5"/><polyline points="1558.33 1034.8 1369.56 939.81 1217.32 948.36 1163.01 964.45" fill="none" stroke="#991B1E" stroke-dasharray="3" stroke-miterlimit="10" stroke-width=".5"/><polyline points="1205.56 921.63 1049.43 895.25 839.75 893.13" fill="none" stroke="#991B1E" stroke-dasharray="3" stroke-miterlimit="10" stroke-width=".5"/><polyline points="796.61 880.08 625.55 893.13 458.41 833.65" fill="none" stroke="#991B1E" stroke-dasharray="3" stroke-miterlimit="10" stroke-width=".5"/><line x1="465.95" y1="720.66" x2="286.04" y2="732.14" fill="#991B1E" stroke="#991B1E" stroke-dasharray="3" stroke-miterlimit="10" stroke-width=".5"/><polyline points="210.3 669.03 415.72 662.57 576.15 586.3" fill="none" stroke="#991B1E" stroke-dasharray="3" stroke-miterlimit="10" stroke-width=".5"/><polyline points="545.03 547.57 370.72 556.21 227.5 647.63" fill="none" stroke="#991B1E" stroke-dasharray="3" stroke-miterlimit="10" stroke-width=".5"/><line x1="176.43" y1="648.02" x2="23.1" y2="636.42" fill="#991B1E" stroke="#991B1E" stroke-dasharray="3" stroke-miterlimit="10" stroke-width=".5"/><polyline points="9.25 610.29 103.81 474.06 142.71 276.75 211.07 194.71" fill="none" stroke="#991B1E" stroke-dasharray="3" stroke-miterlimit="10" stroke-width=".5"/><polyline points="244.95 154.1 302.46 371.97 449.2 507.99" fill="none" stroke="#991B1E" stroke-dasharray="3" stroke-miterlimit="10" stroke-width=".5"/><polyline points="548.68 536.1 428.57 398.9 386.92 249.48" fill="none" stroke="#991B1E" stroke-dasharray="3" stroke-miterlimit="10" stroke-width=".5"/><polyline points="340.78 151.95 501.12 145.04 648.79 113.05 763.93 13.91" fill="none" stroke="#991B1E" stroke-dasharray="3" stroke-miterlimit="10" stroke-width=".5"/><line x1="843.98" y1="45.46" x2="703.72" y2="129.57" fill="#991B1E" stroke="#991B1E" stroke-dasharray="3" stroke-miterlimit="10" stroke-width=".5"/><polyline points="673.02 169.65 694.07 362.73 683.15 532.54 624.29 651.55" fill="none" stroke="#991B1E" stroke-dasharray="3" stroke-miterlimit="10" stroke-width=".5"/><polyline points="638.02 682 872.59 687.31 1003.74 738.83" fill="none" stroke="#991B1E" stroke-dasharray="3" stroke-miterlimit="10" stroke-width=".5"/></g><g id="numberContainer"><path d="M1381.99,592.15c4.85,0,8.78,3.93,8.78,8.78s-3.93,8.78-8.78,8.78-8.78-3.93-8.78-8.78,3.93-8.78,8.78-8.78Z" fill="#ffffff" stroke="#991B1E" stroke-miterlimit="10" stroke-width=".25"/><path d="M1413.39,777.41c4.85,0,8.78,3.93,8.78,8.78s-3.93,8.78-8.78,8.78-8.78-3.93-8.78-8.78,3.93-8.78,8.78-8.78Z" fill="#ffffff" stroke="#991B1E" stroke-miterlimit="10" stroke-width=".25"/><path d="M1371.24,931.08c5.04,0,9.12,4.08,9.12,9.12s-4.08,9.12-9.12,9.12-9.12-4.08-9.12-9.12,4.08-9.12,9.12-9.12Z" fill="#ffffff" stroke="#991B1E" stroke-miterlimit="10" stroke-width=".25"/><path d="M1051.83,884.35c4.85,0,8.78,3.93,8.78,8.78s-3.93,8.78-8.78,8.78-8.78-3.93-8.78-8.78,3.93-8.78,8.78-8.78Z" fill="#ffffff" stroke="#991B1E" stroke-miterlimit="10" stroke-width=".25"/><path d="M1435.48,880.84c4.85,0,8.78,3.93,8.78,8.78s-3.93,8.78-8.78,8.78-8.78-3.93-8.78-8.78,3.93-8.78,8.78-8.78Z" fill="#ffffff" stroke="#991B1E" stroke-miterlimit="10" stroke-width=".25"/><path d="M627.97,883.55c4.85,0,8.78,3.93,8.78,8.78s-3.93,8.78-8.78,8.78-8.78-3.93-8.78-8.78,3.93-8.78,8.78-8.78Z" fill="#ffffff" stroke="#991B1E" stroke-miterlimit="10" stroke-width=".25"/><path d="M366.81,717.97c4.85,0,8.78,3.93,8.78,8.78s-3.93,8.78-8.78,8.78-8.78-3.93-8.78-8.78,3.93-8.78,8.78-8.78Z" fill="#ffffff" stroke="#991B1E" stroke-miterlimit="10" stroke-width=".25"/><path d="M1137.34,564.29c4.85,0,8.78,3.93,8.78,8.78s-3.93,8.78-8.78,8.78-8.78-3.93-8.78-8.78,3.93-8.78,8.78-8.78Z" fill="#ffffff" stroke="#991B1E" stroke-miterlimit="10" stroke-width=".25"/><path d="M415.47,653.4c4.85,0,8.78,3.93,8.78,8.78s-3.93,8.78-8.78,8.78-8.78-3.93-8.78-8.78,3.93-8.78,8.78-8.78Z" fill="#ffffff" stroke="#991B1E" stroke-miterlimit="10" stroke-width=".25"/><path d="M370.25,547.57c5.04,0,9.12,4.08,9.12,9.12s-4.08,9.12-9.12,9.12-9.12-4.08-9.12-9.12,4.08-9.12,9.12-9.12Z" fill="#ffffff" stroke="#991B1E" stroke-miterlimit="10" stroke-width=".25"/><path d="M110.48,633.1c5.04,0,9.12,4.08,9.12,9.12s-4.08,9.12-9.12,9.12-9.12-4.08-9.12-9.12,4.08-9.12,9.12-9.12Z" fill="#ffffff" stroke="#991B1E" stroke-miterlimit="10" stroke-width=".25"/><path d="M103.81,466.73c5.04,0,9.12,4.08,9.12,9.12s-4.08,9.12-9.12,9.12-9.12-4.08-9.12-9.12,4.08-9.12,9.12-9.12Z" fill="#ffffff" stroke="#991B1E" stroke-miterlimit="10" stroke-width=".25"/><path d="M302.29,363.14c5.04,0,9.12,4.08,9.12,9.12s-4.08,9.12-9.12,9.12-9.12-4.08-9.12-9.12,4.08-9.12,9.12-9.12Z" fill="#ffffff" stroke="#991B1E" stroke-miterlimit="10" stroke-width=".25"/><path d="M430.31,391.52c5.04,0,9.12,4.08,9.12,9.12s-4.08,9.12-9.12,9.12-9.12-4.08-9.12-9.12,4.08-9.12,9.12-9.12Z" fill="#ffffff" stroke="#991B1E" stroke-miterlimit="10" stroke-width=".25"/><path d="M504.04,134.45c5.04,0,9.12,4.08,9.12,9.12s-4.08,9.12-9.12,9.12-9.12-4.08-9.12-9.12,4.08-9.12,9.12-9.12Z" fill="#ffffff" stroke="#991B1E" stroke-miterlimit="10" stroke-width=".25"/><path d="M763.93,84.6c5.04,0,9.12,4.08,9.12,9.12s-4.08,9.12-9.12,9.12-9.12-4.08-9.12-9.12,4.08-9.12,9.12-9.12Z" fill="#ffffff" stroke="#991B1E" stroke-miterlimit="10" stroke-width=".25"/><path d="M694.07,352.09c5.04,0,9.12,4.08,9.12,9.12s-4.08,9.12-9.12,9.12-9.12-4.08-9.12-9.12,4.08-9.12,9.12-9.12Z" fill="#ffffff" stroke="#991B1E" stroke-miterlimit="10" stroke-width=".25"/><path d="M873.43,678.03c5.04,0,9.12,4.08,9.12,9.12s-4.08,9.12-9.12,9.12-9.12-4.08-9.12-9.12,4.08-9.12,9.12-9.12Z" fill="#ffffff" stroke="#991B1E" stroke-miterlimit="10" stroke-width=".25"/></g><g id="number"><path d="M1379.92,605.49c-.24,0-.48.01-.69.03-.21.01-.37.03-.43.03-.07,0-.11,0-.15-.08-.04-.1-.03-.14.04-.21.65-.61,1.87-1.68,2.98-2.87s1.75-2.26,1.7-3.46c-.04-1.23-.79-1.97-1.79-1.95-1.18.01-1.62.93-1.86,1.34-.06.1-.1.11-.17.07l-.19-.08s-.06-.07,0-.19c.22-.54.9-2.08,2.77-2.08,1.16,0,2.42.96,2.42,2.52,0,1.18-.47,2.18-1.72,3.58-.94,1.08-2.04,1.88-2.65,2.42h2.81c.94,0,1.3-.65,1.61-1.16.07-.12.11-.14.25-.07.11.06.17.11.11.19l-.9,2.16c-.07.15.04.15-.21.15-.12,0-.12-.01-.18-.14-.08-.18-.35-.19-.76-.19h-3.01Z" fill="#991B1E"/><path d="M1410.45,789.88c0-.36.22-.6.46-.6.46,0,.54.54.57.61.07.15.32.57,1.29.57,1.27,0,2.04-.93,2.04-1.9,0-1.4-.87-2.22-2-2.48-.25-.05-.25-.01-.25-.21,0-.14.04-.17.17-.19.89-.17,1.8-.9,1.8-1.97,0-.89-.54-1.55-1.41-1.55-1.03,0-1.55.72-1.84,1.51-.04.11-.08.15-.14.14l-.25-.06s-.04-.08-.01-.21c.19-.96,1.04-2.24,2.6-2.24s2.05,1.11,2.05,1.81c0,1.19-.83,1.94-1.55,2.38.94.24,2.02,1.21,2.02,2.42,0,1.79-1.59,3.05-3.46,3.05-1.63,0-2.08-.69-2.08-1.09Z" fill="#991B1E"/><path d="M1369.92,938.76c.36-.03,1.32.07,1.64.16,1.41.37,2.22,1.38,2.22,2.68.01,2.06-1.67,3.57-3.63,3.57-1.06,0-1.87-.39-1.87-.81,0-.2.13-.37.32-.37.26,0,.5.16.72.29s.71.27,1.14.27c1.12,0,2.24-.95,2.24-2.22,0-1.01-.33-1.8-1.27-2.2-.78-.34-1.5-.34-1.87-.32-.09.01-.16.03-.26-.03-.07-.03-.09-.07-.07-.16l.52-4.06c.01-.17.04-.23.23-.23h3.08c.5,0,.63-.24.88-.72.04-.09.09-.1.17-.07.16.07.23.09.2.17l-.52,1.44c-.1.23-.17.29-.62.29h-2.99l-.26,2.32Z" fill="#991B1E"/><path d="M1049.9,897.14c-.69-.75-.89-1.83-.89-2.55,0-1.73.64-3.44,2.11-4.86.67-.64,1.41-1.09,2.04-1.34.22-.1.42-.15.51-.15.08,0,.17.04.17.14,0,.11-.04.18-.12.22-1.11.5-2.94,2.02-3.28,4.29.44-.39,1.04-.64,1.84-.64,1.73,0,2.45,1.54,2.45,2.44,0,1.29-.38,1.88-.86,2.38-.51.55-1.09.83-1.97.83-.93,0-1.58-.26-2-.76ZM1053.55,895.12c0-1.23-.61-2.27-1.68-2.27-.82,0-1.21.33-1.37.68-.19.36-.3.93-.3,1.51,0,.71.11,2.42,1.79,2.42.3,0,1.57-.15,1.57-2.34Z" fill="#991B1E"/><path d="M1436.56,894.19c-.12,0-.17-.03-.17-.15v-2.44h-3.87c-.12,0-.21-.06-.21-.17,0-.08.04-.14.14-.28l4.5-6.21c.08-.11.19-.22.31-.22.12,0,.18.1.18.42v5.54h1.12c.1,0,.17.03.17.11v.67c0,.08-.04.14-.22.14h-1.07v2.4c0,.15-.03.19-.19.19h-.69ZM1436.41,886.95c0-.22-.14-.26-.26-.08l-2.55,3.52c-.17.24-.15.37.1.37h2.72v-3.81Z" fill="#991B1E"/><path d="M631.15,887.64c.07,0,.14.04.14.12,0,.07-.01.11-.1.25s-1.21,2.22-1.76,3.59c-.14.32-1.3,2.88-1.87,4.79-.17.57-.44.71-.69.71-.35,0-.54-.21-.54-.51,0-.35.3-.91.49-1.29.24-.47,2.65-5.07,3.44-6.64h-3.28c-.83,0-1.01.37-1.41.97-.07.1-.17.08-.26.03-.12-.07-.12-.08-.08-.21l.86-2.23c.04-.08.06-.1.22-.1.15,0,.21.04.18.25-.03.19.08.26.79.26h3.89Z" fill="#991B1E"/><path d="M364.3,729.54c0-1.19.62-1.9,1.8-2.66-1.04-.58-1.9-1.3-1.9-2.37,0-1.21,1-2.66,2.96-2.66,1.27,0,2.36.87,2.36,1.79,0,1.32-.44,1.93-1.91,2.95,1.11.53,1.95,1.23,1.95,2.49,0,1.08-1.05,2.44-2.73,2.44-1.9,0-2.54-1.09-2.54-1.98ZM368.57,729.36c0-1.12-.91-1.63-2.01-2.22-.89.5-1.39,1.3-1.39,2.17,0,1.21.94,1.73,1.75,1.73,1,0,1.65-.54,1.65-1.69ZM365.29,724.18c0,1,.65,1.4,1.87,2.12.68-.43,1.4-1.25,1.46-2.17.04-1.01-.71-1.7-1.66-1.7s-1.66.79-1.66,1.76Z" fill="#991B1E"/><path d="M1137.05,572.64c0-.18.01-.83,0-1.93-.01-.47-.07-.78-.33-.78-.12,0-.33.04-.55.11l-.97.32c-.06.01-.11.01-.14-.04l-.11-.25c-.03-.05-.01-.11.08-.17l2.87-1.65c.07-.04.12-.08.19-.08.08,0,.1.08.1.19,0,.12-.04,2.3-.04,4.09v.58c0,.17.01,3.1.01,3.28.01.72.07.82.97.82h.5c.1,0,.14.04.14.11v.32c0,.08-.03.11-.12.11-.12,0-2.01-.04-2.13-.04s-2.08.04-2.15.04-.11-.03-.11-.11v-.35c0-.07.08-.08.19-.08h.64c.9,0,.93-.04.96-.78.01-.18.01-2.98.01-3.23v-.5Z" fill="#991B1E"/><path d="M417.61,658.25c.62.71.75,1.8.75,2.23,0,1.86-.62,3.77-2.26,5.21-.69.61-1.23.91-2,1.16-.14.04-.33.1-.43.1-.11,0-.21-.06-.21-.19,0-.1.06-.17.12-.19,1.21-.49,3.05-2,3.35-4.31v-.03c-.39.35-.89.68-1.7.68-1.91,0-2.56-1.45-2.56-2.77,0-.53.5-1.68,1.03-2.13.54-.47,1.18-.72,1.76-.72.98,0,1.52.29,2.15.97ZM413.78,660.07c0,1.3.78,2.24,1.72,2.24.8,0,1.22-.43,1.4-.79.17-.35.21-.8.21-1.37,0-1.22-.35-2.42-1.61-2.42-.82,0-1.72.79-1.72,2.34Z" fill="#991B1E"/><path d="M365.78,556.25c0-.19.01-.86,0-2-.01-.49-.07-.81-.35-.81-.13,0-.34.04-.58.12l-1.01.33c-.06.01-.12.01-.14-.04l-.12-.26c-.03-.06-.01-.12.09-.17l2.98-1.71c.07-.04.13-.09.2-.09.09,0,.1.09.1.2,0,.13-.04,2.39-.04,4.25v.6c0,.17.01,3.22.01,3.41.01.75.07.85,1.01.85h.52c.1,0,.14.04.14.12v.33c0,.09-.03.11-.13.11-.13,0-2.09-.04-2.22-.04s-2.16.04-2.23.04-.11-.03-.11-.11v-.36c0-.07.09-.09.2-.09h.66c.93,0,.96-.04.99-.81.01-.19.01-3.09.01-3.35v-.52Z" fill="#991B1E"/><path d="M370.17,557.12c0-3.29,1.37-5.51,3.21-5.51,2.11,0,3.09,2.75,3.09,4.94,0,3.29-1.22,5.11-3.08,5.11-2.33,0-3.22-2.79-3.22-4.53ZM374.79,560.12c.32-.69.45-1.78.45-3.89s-.72-4.1-1.94-4.1c-.56,0-.96.22-1.29.86-.52,1.01-.58,2.69-.58,3.88,0,1.37.17,2.38.49,3.04.45.95.99,1.22,1.5,1.22.45,0,.99-.17,1.38-1.02Z" fill="#991B1E"/><path d="M106.01,641.77c0-.19.01-.86,0-2-.01-.49-.07-.81-.35-.81-.13,0-.34.04-.58.12l-1.01.33c-.06.01-.12.01-.14-.04l-.12-.26c-.03-.06-.01-.12.09-.17l2.98-1.71c.07-.04.13-.09.2-.09.09,0,.1.09.1.2,0,.13-.04,2.39-.04,4.25v.6c0,.17.01,3.22.01,3.41.01.75.07.85,1.01.85h.52c.1,0,.14.04.14.12v.33c0,.09-.03.12-.13.12-.13,0-2.09-.04-2.22-.04s-2.16.04-2.23.04-.12-.03-.12-.12v-.36c0-.07.09-.09.2-.09h.66c.93,0,.96-.04.99-.81.01-.19.01-3.09.01-3.35v-.52Z" fill="#991B1E"/><path d="M113.21,641.77c0-.19.01-.86,0-2-.01-.49-.07-.81-.35-.81-.13,0-.34.04-.58.12l-1.01.33c-.06.01-.12.01-.14-.04l-.12-.26c-.03-.06-.01-.12.09-.17l2.98-1.71c.07-.04.13-.09.2-.09.09,0,.1.09.1.2,0,.13-.04,2.39-.04,4.25v.6c0,.17.01,3.22.01,3.41.01.75.07.85,1.01.85h.52c.1,0,.14.04.14.12v.33c0,.09-.03.12-.13.12-.13,0-2.09-.04-2.22-.04s-2.16.04-2.23.04-.12-.03-.12-.12v-.36c0-.07.09-.09.2-.09h.66c.93,0,.96-.04.99-.81.01-.19.01-3.09.01-3.35v-.52Z" fill="#991B1E"/><path d="M99.34,475.41c0-.19.01-.86,0-2-.01-.49-.07-.81-.35-.81-.13,0-.34.04-.58.12l-1.01.33c-.06.01-.12.01-.14-.04l-.12-.26c-.03-.06-.01-.12.09-.17l2.98-1.71c.07-.04.13-.09.2-.09.09,0,.1.09.1.2,0,.13-.04,2.39-.04,4.25v.6c0,.17.01,3.22.01,3.41.01.75.07.85,1.01.85h.52c.1,0,.14.04.14.12v.33c0,.09-.03.12-.13.12-.13,0-2.09-.04-2.22-.04s-2.16.04-2.23.04-.12-.03-.12-.12v-.36c0-.07.09-.09.2-.09h.66c.93,0,.96-.04.99-.81.01-.19.01-3.09.01-3.35v-.52Z" fill="#991B1E"/><path d="M104.7,480.6c-.25,0-.5.01-.72.03s-.39.03-.45.03c-.07,0-.11,0-.16-.09-.04-.1-.03-.14.04-.22.68-.63,1.94-1.74,3.09-2.98,1.15-1.24,1.81-2.34,1.77-3.6-.04-1.28-.82-2.04-1.86-2.03-1.22.01-1.68.96-1.93,1.4-.06.1-.1.12-.17.07l-.2-.09s-.06-.07,0-.2c.23-.56.93-2.16,2.88-2.16,1.21,0,2.52.99,2.52,2.62,0,1.22-.49,2.26-1.78,3.71-.98,1.12-2.12,1.96-2.75,2.52h2.92c.98,0,1.35-.68,1.67-1.21.07-.13.12-.14.26-.07.12.06.17.12.12.2l-.94,2.24c-.07.16.04.16-.22.16-.13,0-.13-.01-.19-.14-.09-.19-.36-.2-.79-.2h-3.12Z" fill="#991B1E"/><path d="M297.82,371.81c0-.19.01-.86,0-2-.01-.49-.07-.81-.35-.81-.13,0-.34.04-.58.12l-1.01.33c-.06.01-.12.01-.14-.04l-.12-.26c-.03-.06-.01-.12.09-.17l2.98-1.71c.07-.04.13-.09.2-.09.09,0,.1.09.1.2,0,.13-.04,2.39-.04,4.25v.6c0,.17.01,3.22.01,3.41.01.75.07.85,1.01.85h.52c.1,0,.14.04.14.12v.33c0,.09-.03.11-.13.11-.13,0-2.09-.04-2.22-.04s-2.16.04-2.23.04-.11-.03-.11-.11v-.36c0-.07.09-.09.2-.09h.66c.93,0,.96-.04.99-.81.01-.19.01-3.09.01-3.35v-.52Z" fill="#991B1E"/><path d="M302.27,376.08c0-.37.23-.62.47-.62.47,0,.56.56.59.63.07.16.33.59,1.34.59,1.32,0,2.12-.96,2.12-1.97,0-1.45-.91-2.3-2.07-2.58-.26-.06-.26-.01-.26-.22,0-.14.04-.17.17-.2.92-.17,1.87-.94,1.87-2.04,0-.92-.56-1.61-1.47-1.61-1.07,0-1.61.75-1.91,1.57-.04.12-.09.16-.14.14l-.26-.06s-.04-.09-.01-.22c.2-.99,1.08-2.33,2.71-2.33s2.13,1.15,2.13,1.88c0,1.24-.86,2.01-1.61,2.47.98.25,2.1,1.25,2.1,2.52,0,1.86-1.65,3.17-3.6,3.17-1.7,0-2.16-.72-2.16-1.14Z" fill="#991B1E"/><path d="M425.84,400.19c0-.19.01-.86,0-2-.01-.49-.07-.81-.35-.81-.13,0-.34.04-.58.12l-1.01.33c-.06.01-.12.01-.14-.04l-.12-.26c-.03-.06-.01-.12.09-.17l2.98-1.71c.07-.04.13-.09.2-.09.09,0,.1.09.1.2,0,.13-.04,2.39-.04,4.25v.6c0,.17.01,3.22.01,3.41.01.75.07.85,1.01.85h.52c.1,0,.14.04.14.12v.33c0,.09-.03.11-.13.11-.13,0-2.09-.04-2.22-.04s-2.16.04-2.23.04-.11-.03-.11-.11v-.36c0-.07.09-.09.2-.09h.66c.93,0,.96-.04.99-.81.01-.19.01-3.09.01-3.35v-.52Z" fill="#991B1E"/><path d="M434.46,405.38c-.13,0-.17-.03-.17-.16v-2.53h-4.01c-.13,0-.22-.06-.22-.17,0-.09.04-.14.14-.29l4.68-6.45c.09-.11.2-.23.32-.23.13,0,.19.1.19.43v5.75h1.17c.1,0,.17.03.17.12v.69c0,.09-.04.14-.23.14h-1.11v2.49c0,.16-.03.2-.2.2h-.72ZM434.3,397.86c0-.23-.14-.27-.27-.09l-2.65,3.65c-.17.25-.16.39.1.39h2.82v-3.96Z" fill="#991B1E"/><path d="M499.57,143.12c0-.19.01-.86,0-2-.01-.49-.07-.81-.35-.81-.13,0-.34.04-.58.12l-1.01.33c-.06.01-.12.01-.14-.04l-.12-.26c-.03-.06-.01-.12.09-.17l2.98-1.71c.07-.04.13-.09.2-.09.09,0,.1.09.1.2,0,.13-.04,2.39-.04,4.25v.6c0,.17.01,3.22.01,3.41.01.75.07.85,1.01.85h.52c.1,0,.14.04.14.12v.33c0,.09-.03.11-.13.11-.13,0-2.09-.04-2.22-.04s-2.16.04-2.23.04-.12-.03-.12-.11v-.36c0-.07.09-.09.2-.09h.66c.93,0,.96-.04.99-.81.01-.19.01-3.09.01-3.35v-.52Z" fill="#991B1E"/><path d="M505.54,142.13c.36-.03,1.32.07,1.64.16,1.41.37,2.22,1.38,2.22,2.68.01,2.06-1.67,3.57-3.63,3.57-1.06,0-1.87-.39-1.87-.81,0-.2.13-.37.32-.37.26,0,.5.16.72.29s.71.27,1.14.27c1.12,0,2.24-.95,2.24-2.22,0-1.01-.33-1.8-1.27-2.2-.78-.35-1.5-.35-1.87-.32-.09.01-.16.03-.26-.03-.07-.03-.09-.07-.07-.16l.52-4.06c.01-.17.04-.23.23-.23h3.08c.5,0,.63-.24.88-.72.04-.09.09-.1.17-.07.16.07.23.09.2.17l-.52,1.44c-.1.23-.17.29-.62.29h-2.99l-.26,2.32Z" fill="#991B1E"/><path d="M759.46,93.28c0-.19.01-.86,0-2-.01-.49-.07-.81-.35-.81-.13,0-.34.04-.58.12l-1.01.33c-.06.01-.12.01-.14-.04l-.12-.26c-.03-.06-.01-.12.09-.17l2.98-1.71c.07-.04.13-.09.2-.09.09,0,.1.09.1.2,0,.13-.04,2.39-.04,4.25v.6c0,.17.01,3.22.01,3.41.01.75.07.85,1.01.85h.52c.1,0,.14.04.14.12v.33c0,.09-.03.12-.13.12-.13,0-2.09-.04-2.22-.04s-2.16.04-2.23.04-.11-.03-.11-.12v-.36c0-.07.09-.09.2-.09h.66c.93,0,.96-.04.99-.81.01-.19.01-3.09.01-3.35v-.52Z" fill="#991B1E"/><path d="M764.96,97.89c-.72-.78-.92-1.9-.92-2.65,0-1.8.66-3.57,2.19-5.05.69-.66,1.47-1.14,2.12-1.4.23-.1.43-.16.53-.16.09,0,.17.04.17.14,0,.11-.04.19-.13.23-1.15.52-3.05,2.1-3.41,4.46.46-.4,1.08-.66,1.91-.66,1.8,0,2.55,1.6,2.55,2.53,0,1.34-.39,1.96-.89,2.48-.53.58-1.14.86-2.04.86-.96,0-1.64-.27-2.07-.79ZM768.74,95.79c0-1.28-.63-2.36-1.74-2.36-.85,0-1.25.34-1.42.71-.2.37-.32.96-.32,1.57,0,.73.12,2.52,1.86,2.52.32,0,1.63-.16,1.63-2.43Z" fill="#991B1E"/><path d="M689.6,360.76c0-.19.01-.86,0-2-.01-.49-.07-.81-.35-.81-.13,0-.34.04-.58.12l-1.01.33c-.06.01-.12.01-.14-.04l-.12-.26c-.03-.06-.01-.12.09-.17l2.98-1.71c.07-.04.13-.09.2-.09.09,0,.1.09.1.2,0,.13-.04,2.39-.04,4.25v.6c0,.17.01,3.22.01,3.41.01.75.07.85,1.01.85h.52c.1,0,.14.04.14.12v.33c0,.09-.03.11-.13.11-.13,0-2.09-.04-2.22-.04s-2.16.04-2.23.04-.12-.03-.12-.11v-.36c0-.07.09-.09.2-.09h.66c.93,0,.96-.04.99-.81.01-.19.01-3.09.01-3.35v-.52Z" fill="#991B1E"/><path d="M700.39,356.35c.07,0,.14.04.14.13,0,.07-.01.12-.1.26-.09.14-1.25,2.3-1.83,3.73-.14.33-1.35,2.99-1.94,4.98-.17.59-.46.73-.72.73-.36,0-.56-.22-.56-.53,0-.36.32-.95.5-1.34.24-.49,2.75-5.27,3.57-6.89h-3.41c-.86,0-1.05.39-1.47,1.01-.07.1-.17.09-.27.03-.13-.07-.13-.09-.09-.22l.89-2.32c.04-.09.06-.1.23-.1.16,0,.22.04.19.26-.03.2.09.27.82.27h4.04Z" fill="#991B1E"/><path d="M868.96,686.71c0-.19.01-.86,0-2-.01-.49-.07-.81-.35-.81-.13,0-.34.04-.58.12l-1.01.33c-.06.01-.12.01-.14-.04l-.12-.26c-.03-.06-.01-.12.09-.17l2.98-1.71c.07-.04.13-.09.2-.09.09,0,.1.09.1.2,0,.13-.04,2.39-.04,4.25v.6c0,.17.01,3.22.01,3.41.01.75.07.85,1.01.85h.52c.1,0,.14.04.14.12v.33c0,.09-.03.12-.13.12-.13,0-2.09-.04-2.22-.04s-2.16.04-2.23.04-.12-.03-.12-.12v-.36c0-.07.09-.09.2-.09h.66c.93,0,.96-.04.99-.81.01-.19.01-3.09.01-3.35v-.52Z" fill="#991B1E"/><path d="M873.85,690.06c0-1.24.65-1.97,1.87-2.76-1.08-.6-1.97-1.35-1.97-2.46,0-1.25,1.04-2.76,3.08-2.76,1.32,0,2.45.91,2.45,1.86,0,1.37-.46,2-1.99,3.06,1.15.55,2.03,1.28,2.03,2.59,0,1.12-1.09,2.53-2.83,2.53-1.97,0-2.63-1.14-2.63-2.06ZM878.29,689.87c0-1.17-.95-1.7-2.09-2.3-.92.52-1.44,1.35-1.44,2.26,0,1.25.98,1.8,1.81,1.8,1.04,0,1.71-.56,1.71-1.76ZM874.88,684.49c0,1.04.68,1.45,1.94,2.2.71-.45,1.45-1.29,1.51-2.26.04-1.05-.73-1.77-1.73-1.77s-1.73.82-1.73,1.83Z" fill="#991B1E"/></g></svg>