<svg id="Layer_2" xmlns="http://www.w3.org/2000/svg" width="433.73mm" height="299.7mm" viewBox="0 0 1229.47 849.55"><g id="fairway"><path d="M94.68,804.02s-3.14,1.61-2.19,4.79c.95,3.18,4.65,2.82,6.1,1.97s2.76-2.86,1.78-5.32c-.98-2.46-4.2-2.21-5.69-1.45Z" fill="#758838" stroke="#525d29" stroke-miterlimit="10" stroke-width=".5"/><path d="M51.31,798.94s-7.57,4.11-8.78,8.78c-1.21,4.67-5.23,4.43-8.38,1.05-3.14-3.38-17.36-1.25-25.33,8.3-7.97,9.54-6.33,20.49,0,26.09,6.33,5.6,15.4,2.36,18,.24,2.6-2.11,7.37-4.53,11.17-4.83,3.81-.3,5.26-3.93,5.26-8.21s6.7-5.65,9.97-4.76,6.82,1.38,11.86-6.84c5.05-8.21,5.89-12.6,2.67-17.36-3.22-4.75-10.19-6.28-16.45-2.46Z" fill="#758838" stroke="#525d29" stroke-miterlimit="10" stroke-width=".5"/><path d="M104,731.05s-3.38,3.38-4.67,5.11c-1.29,1.73-1.81,3.3-.44,4.75,1.37,1.45,3.5.44,4.59-.68s4.03-4.71,5.03-6.12,1.77-3.5.68-4.39-3.22-.32-5.19,1.33Z" fill="#758838" stroke="#525d29" stroke-miterlimit="10" stroke-width=".5"/><path d="M123.57,709.11s-2.54,3.38-3.99,5.92-2.11,4.41.42,6.4,5.38,1.09,6.7-.79,3.02-5.19,3.74-6.95c.72-1.75,1.09-4.47-1.27-5.68s-4.25-.81-5.62,1.09Z" fill="#758838" stroke="#525d29" stroke-miterlimit="10" stroke-width=".5"/><path d="M205.22,720.36s4.19-3.62,6.12-7.65,5.23-8.38,8.94-6.77,19.97,12.7,30.48,7.04c10.51-5.67,11.23-7.24,19.57-8.32s14.13-4.83,17.64-9.66c3.5-4.83,14.01-4.83,19.69-11.11,5.68-6.28,17.64-11.99,28.27-15.21,10.63-3.23,23.21-6.13,30.29-11.28,7.08-5.15,12.27-3.3,21.46-7.89,9.18-4.59,10.75-4.71,15.64-5.19s8.04-2.71,11.66-5.4c3.62-2.69,10.71-8.29,21.83-7.08s16.55-1.69,20.42-4.71,4.83-4.47,9.66-4.59,12.61-1.33,15.43-12.44c2.81-11.11,5.71-19.45,16.46-18.48s26.58,3.87,33.58-3.38c7.01-7.25,8.21-13.17,15.46-14.62s10.35,2.9,17.32,1.93,9.48-5.92,11.12-15.1c1.64-9.18,7.8-15.83,15.17-17.28,7.37-1.45,9.48-4.95,10.36-8.7.88-3.74-.7-6.52-4.56-7.73s-7.73-4.71-9.42-7.49-5.68-4.23-12.08-4.83-12.56,0-16.55,4.47c-3.99,4.47-7.13,6.16-10.75,5.92s-10.63,1.09-17.03,11.48c-6.4,10.39-16.21,24.77-24.35,25.61s-16.96-5.56-24.21,0c-7.25,5.56-9.42,6.16-15.7,8.09-6.28,1.93-11.06,8.34-13.02,13.65s-13.2,12.39-22.62,14.85-22.61,16.48-33.77,11.89-13.22-18.12,1.03-22.47,27.95-13.06,35.19-23.12c7.25-10.06,12.56-11.03,18.85-13.28s9.83-5.16,13.85-11.2c4.03-6.04,7.65-6.45,12.36-8.26,4.71-1.81,5.19-4.8,7.13-8.2s6.99-4.96,11.59-7.26c4.6-2.3,8.6-7.15,11.68-14.86,3.07-7.71,4.52-9.51,12.5-11.04s13.77-7.62,10.15-17.13c-3.62-9.52-13.17-15.68-28.27-12.3s-18.6,9.52-22.11,15.99-9.79,10.83-16.67,12.16-14.62,3.62-21.62,15.1c-7.01,11.48-14.67,19.21-24.31,24.04s-17.42,11.12-24.1,15.58-9.09,6.52-11.27,11.6c-2.17,5.07-6.36,8.09-15.5,9.91s-13.82,6.88-20.02,13.77c-6.2,6.89-18.92,11.08-29.07,20.1-10.15,9.02-20.46,19.33-28.35,24.64-7.89,5.32-19.17,10.47-26.9,17.23s-13.53,10.31-19.65,13.05c-6.12,2.74-20.78,12.08-27.06,19.01-6.28,6.93-11.44,10.57-16.59,12.45s-10.19,7.6-13.93,15.21-12.24,12.56-20.74,16.55-8.57,9.54-18.38,13.77-9.57,13.29-5.1,20.3,10.39,6.04,19.57,3.62,16.19-5.07,18.24-10.63,6.16-11.09,10.99-14.12c4.83-3.03,8.78-4.14,14.01-10.2Z" fill="#758838" stroke="#525d29" stroke-miterlimit="10" stroke-width=".5"/><path d="M173.61,770.31s-6,3.3-8.3,4.67-3.06,2.86-1.97,4.71c1.09,1.85,3.3,1.01,4.27.52s7.05-4.15,8.42-4.91,2.87-1.49,1.81-3.7c-1.25-2.62-3.17-1.87-4.23-1.29Z" fill="#758838" stroke="#525d29" stroke-miterlimit="10" stroke-width=".5"/><path d="M220.1,743.05s-1.97,1.33-3.46,2.66c-1.49,1.33-2.62,2.3-1.69,4.27.93,1.97,2.94,2.05,4.43,1.09,1.49-.97,3.71-2.65,4.6-3.4,1.09-.93,1.56-3,.11-4.61s-3.18-.56-3.99,0Z" fill="#758838" stroke="#525d29" stroke-miterlimit="10" stroke-width=".5"/><path d="M270.44,713.15s-2.78,2.69-1.9,4.5,3.64,1.19,4.77-.3c1.21-1.6,2.66-3.17,1.24-4.59s-2.63-1.06-4.11.39Z" fill="#758838" stroke="#525d29" stroke-miterlimit="10" stroke-width=".5"/><path d="M587.42,453.75s3.62,3.06,1.45,8.05c-2.17,4.99-4.03,7.57-9.99,9.1-5.96,1.53-13.21,5.64-13.75,15.66-.54,10.03,6.74,18.48,11.5,20.25s6.62-3.7,12.94-3.95,9.86-1.61,15.65-8.3c5.8-6.68,14.34-25.01,13.29-34.29s-9.91-13.01-20.21-14.84c-9.87-1.75-11.37.42-12.43,2.3s.74,5.07,1.56,6Z" fill="#758838" stroke="#525d29" stroke-miterlimit="10" stroke-width=".5"/><path d="M503.96,452.58s-3.5,1.54-2.87,4.14,3.54,1.86,4.96,1.55,3.83-1.37,3.04-3.91c-.71-2.31-2.9-2.78-5.13-1.78Z" fill="#758838" stroke="#525d29" stroke-miterlimit="10" stroke-width=".5"/><path d="M533.75,415.51s-6,5.15-7.97,6.64c-1.97,1.49-2.21,3.62-1.01,5.44,1.21,1.81,3.74,1.37,5.52,0,1.77-1.37,5.88-5.36,7.25-6.52,1.37-1.17,2.62-3.38,1.29-5.19s-3.3-1.88-5.07-.36Z" fill="#758838" stroke="#525d29" stroke-miterlimit="10" stroke-width=".5"/><path d="M592.7,378.45s-3.02,3.02-4.53,4.56-3.07,3.6-1.7,5.82c1.37,2.21,4.59.97,5.96-.32s4.71-4.59,6.12-6c1.41-1.41,1.44-3.34,0-4.91-1.65-1.8-4.01-.99-5.85.86Z" fill="#758838" stroke="#525d29" stroke-miterlimit="10" stroke-width=".5"/><path d="M622.91,356.5s-2.5,4.59-.28,7.01c2.21,2.42,5.8.12,7.13-2.54s2.82-6.36.28-8.21-6.03.51-7.13,3.74Z" fill="#758838" stroke="#525d29" stroke-miterlimit="10" stroke-width=".5"/><path d="M630.76,336.16s-2.62,7.07,1.45,8.85,6.28-2.85,7.29-5.59c1.01-2.74,2.3-7.25-1.33-8.7s-6.44,2.05-7.41,5.44Z" fill="#758838" stroke="#525d29" stroke-miterlimit="10" stroke-width=".5"/><path d="M1184.25,31.67s-5.56-2.3-8.76-6.77-7.25-7.19-9.91-5.07-1.93,5.38,0,7.01,4.41,4.59,8.03,7.01,11.48,5.32,12.99,2.96.36-4.23-2.36-5.13Z" fill="#758838" stroke="#525d29" stroke-miterlimit="10" stroke-width=".5"/><path d="M1202.78,49.71s-3.42.68-3.18,3.22,2.7,2.66,4.39,2.46,4.15-1.41,3.95-3.5-2.66-3.02-5.15-2.17Z" fill="#758838" stroke="#525d29" stroke-miterlimit="10" stroke-width=".5"/><path d="M1220.69,64.25s-7.43.91-7.79,5.26,4.53,5.44,8.28,5.32,8.21-1.87,8.03-5.74-3.68-5.38-8.52-4.83Z" fill="#758838" stroke="#525d29" stroke-miterlimit="10" stroke-width=".5"/><path d="M1163.55,148.49s-3.54,6.85-.32,10.95,12.64.08,14.98-2.58,1.29-7.97-2.82-11.28-9.58-1.21-11.84,2.9Z" fill="#758838" stroke="#525d29" stroke-miterlimit="10" stroke-width=".5"/><path d="M1148.57,193.79s4.55,12.93,15.54,10.87c10.99-2.05,13.36-11.72,10.85-18.72-2.51-7.01-9.64-11.72-17.37-8.34-7.73,3.38-10.67,10.39-9.02,16.19Z" fill="#758838" stroke="#525d29" stroke-miterlimit="10" stroke-width=".5"/><path d="M975.42,203.36s-5.5,1.75-8.21,2.96c-2.72,1.21-4.77,2.36-4.29,5.26s3.62,3.32,5.74,2.84,8.28-2.42,10.03-2.96,3.81-2.17,3.02-5.32-3.82-3.59-6.28-2.78Z" fill="#758838" stroke="#525d29" stroke-miterlimit="10" stroke-width=".5"/><path d="M947.15,181.93s-4.95,2.09-4.31,4.27c.91,3.08,3.3,2.42,6.16,1.09s5.08-2.44,4.31-4.67c-.93-2.7-3.88-2-6.16-.68Z" fill="#758838" stroke="#525d29" stroke-miterlimit="10" stroke-width=".5"/><path d="M794.62,429.3s-2.94,2.5-2.17,5.03,4.51,1.81,6.4.28c1.89-1.53,4.67-4.39,3.14-6.77-1.53-2.38-5.07-1.09-7.37,1.45Z" fill="#758838" stroke="#525d29" stroke-miterlimit="10" stroke-width=".5"/><path d="M809.72,418.51s-3.84,3.46-2.26,5.68,4.39,1.25,6.17-.24c1.77-1.49,4.5-4.17,3.3-6.48-1.33-2.58-4.02-2.13-7.21,1.05Z" fill="#758838" stroke="#525d29" stroke-miterlimit="10" stroke-width=".5"/><path d="M825,301.55s-5.44.06-5.86,2.72,2.05,3.62,5.86,3.56,7.19-1.39,7.37-3.99c.18-2.6-4.76-2.62-7.37-2.3Z" fill="#758838" stroke="#525d29" stroke-miterlimit="10" stroke-width=".5"/><path d="M719.84,302.52s-.64,5.4-5.15,4.67-7.73.56-9.1,4.27c-1.37,3.7-6.93,4.67-12.97,1.29-6.04-3.38-16.51-1.87-27.14,6.35-10.63,8.22-17.76,16.61-14.62,26.31,3.14,9.7,14.86,3.78,21.74,3.3s15.45-6.29,20.71-7.92c5.26-1.63,9.49-2.35,12.99-6.1s14.13-1.74,19.57-9.21,8.58-11.45,15.1-10.24,12.15-1.57,15.38-7.01c3.23-5.44,17.43-9.18,22.83-9.06s11.32-3.63,15.79-8.4,8.34-3.56,15.34-5.86c7.01-2.3,18.72-9.16,25.01-26.33,6.28-17.16.85-26.59-8.82-27.43s-19.93,5.19-19.93,14.74.85,15.95-9.66,13.89c-10.51-2.05-25.65,1.45-30.34,8.09-4.69,6.64-12.06,5.8-17.98,7.73s-7.21,6.64-3.91,11.53c3.3,4.9,3.78,10.66-5.88,8.62-9.66-2.04-17.1-1.91-18.97,6.74Z" fill="#758838" stroke="#525d29" stroke-miterlimit="10" stroke-width=".5"/><path d="M901.45,279.44s-5.36,2.17-7.41,3.34c-2.05,1.17-2.78,2.23-2.17,4.26s2.98,2.35,4.39,1.66,7.33-3.18,8.62-3.99,2.26-1.65,1.29-4.11-3.65-1.61-4.71-1.17Z" fill="#758838" stroke="#525d29" stroke-miterlimit="10" stroke-width=".5"/><path d="M742.59,358.81s-.72,3.81-1.45,8.61c-.72,4.8-3.06,6.38-8.84,5.29-5.78-1.09-10.88,3.62-13.16,8.94-2.28,5.32-11.41,7.61-17.35,8.7s-10.78-.48-19.11,10.03c-8.34,10.51-21.39,24.64-27.67,27.66s-10.87,3.26-18.6,3.14-12.93,4.66-14.13,11.21c-1.21,6.55,4.47,8.6,7.37,12.47s-2.05,15.46,6.28,21.38c8.34,5.92,21.26,1.09,26.34-9.79,5.07-10.87,18.65-35.2,30.44-44.52,11.79-9.32,23.19-10.81,28.15-12.14s9.91-4.23,14.74-11.72,12.94-16.74,24.35-21.36c11.41-4.61,22.77-12.71,29.29-16.57,6.52-3.87,15.51-5.19,20.5-2.66s15.5,2.42,22.02-5.32c6.52-7.73,4.63-15.79,0-19.73s-6.89-6.68-8.98-9.02c-2.09-2.34-6.36-2.58-8.86,0-2.5,2.58-5.8,3.38-8.86,3.79s-5.76,2.42-7.15,5.4c-1.39,2.98-5.17,4.75-11.94,5.07s-13.21,1.61-15.95,5.64-9.36,4.67-14.46,4.99-11.51,1.9-12.96,10.51Z" fill="#758838" stroke="#525d29" stroke-miterlimit="10" stroke-width=".5"/><path d="M969.14,303.6s-1.81,1.61-.93,3.5,3.66.81,4.79-.2,2.54-2.58,1.29-4.27c-1.25-1.69-4.03-.12-5.15.97Z" fill="#758838" stroke="#525d29" stroke-miterlimit="10" stroke-width=".5"/><path d="M937.81,334.47s-3.62,2.83-2.42,5.48c1.51,3.3,5.32,2.05,7.05.48,1.73-1.57,3.99-3.87,2.42-6.4-1.57-2.54-5.05-1.48-7.05.44Z" fill="#758838" stroke="#525d29" stroke-miterlimit="10" stroke-width=".5"/><path d="M915.16,357.78s-5.88,3.42-7.41,4.51-2.5,1.89-1.77,3.62c.72,1.73,2.54,1.17,3.5.72s7.45-4.11,8.82-4.95,2.03-1.95,1.25-3.38c-.97-1.77-2.81-1.45-4.39-.52Z" fill="#758838" stroke="#525d29" stroke-miterlimit="10" stroke-width=".5"/><path d="M898.41,304.35s-1.77,2.09-3.46,5.8c-1.69,3.7-1.85,4.35-4.67,4.91s-4.43,3.31-5.56,6.4c-1.13,3.1-9.83,3.74-12.16,10.11s2.58,12.16,10.07,15.87c7.49,3.7,13.61-1.05,16.11-6.04s2.79-7.09,9.25-7.01,8.15-1.77,9.92-5.8,4.49-3.62,8.16-4.99c3.67-1.37,3.35-5.38,1.66-11.67-1.69-6.29-3.46-11.77-11.44-12.65s-14.42-.72-17.88,5.07Z" fill="#758838" stroke="#525d29" stroke-miterlimit="10" stroke-width=".5"/><path d="M973.43,153.46s-6.77-8.34-11.11-6.4c-4.35,1.93-4.35,4.33-5.92,9.77-1.57,5.45-10.39,8.83-18.36,5.57-7.97-3.26-5.44-8.78-5.92-12.79s-6.77-7.35-10.03,0c-3.26,7.35-9.66,18.22-22.35,17.13-12.68-1.09-16.91-9.66-15.46-18.36,1.45-8.7,9.42-12.81,18.48-11.72s11.11,1.33,14.62-3.5c3.5-4.83,14.26-6.28,18.12-1.21,3.87,5.07,12.08,8.34,15.34,2.3s9.52-5.15,13.77-5.47,3.69-6.78,14.98-8.42,17.28-3.74,21.5-11.48c4.23-7.73,6.08-17.76,19.53-18,13.45-.24,26.62-2.42,32.29-10.15,5.68-7.73,15.58-10.99,21.87-7.49,6.28,3.5,9.66,11.96,4.11,18.85s-16.87,2.84-25.85,7.01-10.27,7.33-12.56,12.48-5.07,7.81-9.79,7.09-8.05.6-10.07,5.32c-2.01,4.71-9.38,1.93-13.37,2.05s-7.13,1.09-9.18,9.54-2.94,16.05-11.84,19.09c-9.91,3.38-12.81-1.21-12.81-1.21Z" fill="#758838" stroke="#525d29" stroke-miterlimit="10" stroke-width=".5"/><path d="M1119.28,145.81s-1.45,6.6-4.83,8.86-5.72,3.95-5.84,10.95c-.12,7.01-3.74,23.19-11.84,26.7-8.09,3.5-18.24,3.26-24.28,11.6-6.04,8.34-10.63,11.11-17.15,11.36s-12.08,3.38-15.22,7.37-7.37,5.56-11.48,7.01-11.36,8.82-15.34,14.01-12.2,5.8-16.79,6.4-11.06,4.71-21.72,14.5c-10.66,9.79-16.09,15.58-11.86,23.44,4.23,7.85,12.68,10.27,24.77,1.09,12.08-9.18,26.09-16.19,40.59-15.34s33.83,0,37.33-13.77c3.5-13.77,7.85-29.82,20.3-34.91s16.31-5.93,18.85-10.28,6.16-5.8,13.65-5.92,11.88-2.42,15.73-12.32,8.56-18.6,8.31-24.52.9-9.06,3.53-11.23,9.11-9.18,6.3-16.83-10.23-11.03-14.82-7.49-6.68,4.59-9.58,3.87-7.33.08-8.58,5.48Z" fill="#758838" stroke="#525d29" stroke-miterlimit="10" stroke-width=".5"/><path d="M1090.71,88.59s-4.39,1.93-6,2.74-3.26,2.01-2.16,4.6,3.28,2.05,5.06,1.24,5.42-2.3,7.37-3.14,2.82-2.58,1.73-4.71-3.45-1.86-6-.72Z" fill="#758838" stroke="#525d29" stroke-miterlimit="10" stroke-width=".5"/><path d="M1133.14,53.19s-1.83.04-2.28,1.83,1.07,2.68,2.28,2.66c1.14-.03,2.38-.56,2.54-2.34s-1.83-2.29-2.54-2.15Z" fill="#758838" stroke="#525d29" stroke-miterlimit="10" stroke-width=".5"/><path d="M591.45,561.97s-1.69,3.79-3.34,5.96-3.95,3.95-2.58,5.76c1.37,1.81,3.79,2.66,5.92,0s3.99-5.64,4.87-7.73,1.29-4.23-.44-5.36-3.55-.46-4.43,1.37Z" fill="#758838" stroke="#525d29" stroke-miterlimit="10" stroke-width=".5"/><path d="M563.24,590.15s-2.78,3.06-4.07,4.71,0,3.7,2.03,4.51c2.03.81,5.09-1.29,6.58-3.5s2.66-4.51.81-6.16-3.68-1.43-5.36.44Z" fill="#758838" stroke="#525d29" stroke-miterlimit="10" stroke-width=".5"/></g><g id="sand"><path d="M925.26,148.38s-1.01,1.13-.81,2.21,1.87,1.73,2.96,1.17,1.83-1.41,1.29-2.6-2.34-1.97-3.44-.79Z" fill="#F3EE95" stroke="#f5ec99" stroke-miterlimit="10" stroke-width=".75"/><path d="M1173.48,162.41s-1.69,1.63-.7,3.32,3.01.45,3.62,0c1-.72,1.45-2.15.7-3.42s-2.6-.81-3.62.1Z" fill="#F3EE95" stroke="#f5ec99" stroke-miterlimit="10" stroke-width=".75"/><path d="M1144.53,165.1s-1.81,1.97-.95,3.24,2.76.34,3.66-.22,1.89-2.01.93-3.28-2.44-1.07-3.64.26Z" fill="#F3EE95" stroke="#f5ec99" stroke-miterlimit="10" stroke-width=".75"/><path d="M1131.46,164.87s-1.77,1.27-1.07,2.64,2.58,1.07,3.46.54,1.57-1.95,1.15-3.1-2.72-.92-3.54-.08Z" fill="#F3EE95" stroke="#f5ec99" stroke-miterlimit="10" stroke-width=".75"/><path d="M922.03,317.72s-1.53,1.85-.93,3.02,2.82.72,3.58.08,1.89-1.89,1.11-3.1-2.35-1.65-3.76,0Z" fill="#F3EE95" stroke="#f5ec99" stroke-miterlimit="10" stroke-width=".75"/><path d="M910.01,328.02s-1.99.68-2.03,2.26c-.04,1.57,1.47,2.11,2.52,2.03s2.76-.97,2.72-2.4c-.04-1.43-1.69-2.44-3.2-1.89Z" fill="#F3EE95" stroke="#f5ec99" stroke-miterlimit="10" stroke-width=".75"/><path d="M800.29,257.68s1.99,2.3,3.56,1.15,1.09-3.08.15-4.11c-.94-1.03-2.23-2.05-3.71-1.21s-1.12,2.81,0,4.17Z" fill="#F3EE95" stroke="#f5ec99" stroke-miterlimit="10" stroke-width=".75"/><path d="M793.92,296.16s-1.77,1.53-2.38,2.13-.99,1.23-.44,1.99,2.74.22,3.5-.6,1.53-1.99,1.25-3-1.18-1.18-1.93-.52Z" fill="#F3EE95" stroke="#f5ec99" stroke-miterlimit="10" stroke-width=".75"/><path d="M745.87,291.92s-1.54-1.72-2.81-.94-.57,2.66,0,3.5,2.23,1.75,3.35,1.09.57-2.42-.54-3.65Z" fill="#F3EE95" stroke="#f5ec99" stroke-miterlimit="10" stroke-width=".75"/><path d="M698.57,307.75s-1.74-1.66-3.22-.82-.42,3.47.39,4.26,2.87.97,3.87.3.58-2.39-1.04-3.74Z" fill="#F3EE95" stroke="#f5ec99" stroke-miterlimit="10" stroke-width=".75"/><path d="M670.57,352.8s-1.66,1.36-.94,2.51c.72,1.15,2.63,1.06,3.65.54s1.6-1.48.88-2.9-2.36-1.09-3.59-.15Z" fill="#F3EE95" stroke="#f5ec99" stroke-miterlimit="10" stroke-width=".75"/><path d="M593.29,508.83s-1.36-.09-2.69.69-4.23,1.38-5.53-.7.6-3.17,3.17-4.07,4.65-.88,6.22.72,1.33,3.65-1.18,3.35Z" fill="#F3EE95" stroke="#f5ec99" stroke-miterlimit="10" stroke-width=".75"/><path d="M571.92,546.74s-1.84,1.6-1,3.35c.85,1.75,3.56,1.15,4.44.42s1.3-1.99.39-3.53-2.9-.97-3.84-.24Z" fill="#F3EE95" stroke="#f5ec99" stroke-miterlimit="10" stroke-width=".75"/><path d="M1.25,837.96s-1.36,1.3-.69,2.78c.66,1.48,2.23,1.48,3.29,1s2.11-1.87,1.33-3.53c-.79-1.66-3.02-1.33-3.93-.24Z" fill="#F3EE95" stroke="#f5ec99" stroke-miterlimit="10" stroke-width=".75"/><path d="M44.11,827.62s-.08,1.67,1.51,1.61,2.68-1.05,1.91-2.48-3.04-1.93-3.42.87Z" fill="#F3EE95" stroke="#f5ec99" stroke-miterlimit="10" stroke-width=".75"/><path d="M12.74,847.01s-1.86-.2-2.08.98c-.23,1.18.92,1.16,1.92,1.18s1.75.02,2.58-.41,1.07-.82.44-1.68-1.27-.72-1.78-.42-1.07.35-1.07.35Z" fill="#F3EE95" stroke="#f5ec99" stroke-miterlimit="10" stroke-width=".75"/></g><g id="water"><path d="M710.77,434.74s-12.81,12.14-16.92,23.53c-4.11,11.39-3.14,18.39-11.6,26.49-8.46,8.09-17.64,6.7-24.04,7.97-6.4,1.27-12.93,1.45-16.91,6.4s-7.25,7.25-10.99,7.85-7.73,3.5-9.3,9.91c-1.57,6.4-4.55,15.18-9.38,20.09s-8.86,9.91-7.09,13.29c1.77,3.38,6.77-2.58,9.34-6.12,2.58-3.54,7.17-6.04,12.48-4.67s11.44.72,13.29-1.93,6.93-2.34,9.74-5.07c2.82-2.74,4.03-6.53,3.06-9.91s.53-7.65,1.27-11.59,3.64-6.93,5.17-6.6.81,2.74,3.87,1.77,1.61-2.58,1.85-4.51c.24-1.93,7.65-3.79,8.78-1.53s3.72,4.43,6.61,3.14c2.89-1.29.8-6.87,4.1-8.05s8.74-6.04,14.9-11.23c6.16-5.19,10.84-8.46,11.76-13.53s4.91-16.78,12.52-25.73c7.61-8.94,17.49-15.83,22.82-21.51s11.61-13.89,17.89-18.97,14.82-6.93,19.33-6.12,6.92-.4,7.09-2.17c.16-1.77,4.41.38,5.98-1.37s1.18-5.26,4.19-5.19,3.84,2.78,5.38,2.23,1.91-6.46,1-10.15c-.91-3.68-2.48-3.26-5.56-2.9s-5.5-1.33-6.1-2.84-5.51-1.75-6.8,1.21c-1.29,2.96-4.14,6.31-9.32,6.8s-12.51,2.58-17.26,4.84-7.9,6.28-11.82,15.34c-3.92,9.06-12.38,14.38-18.78,17.03s-14.74,8.05-20.55,13.81Z" fill="#CFD9DA"/><path d="M684.25,448.61s.21,3.44,2.3,3.81,3.65-2.42,3.74-3.81-1.15-2.54-2.78-2.72-3.11.94-3.26,2.72Z" fill="#CFD9DA"/><path d="M715.84,422s-3.17.3-3.44,1.72,1.69,2.39,3.44,2.45,4.02-1.3,3.9-2.78c-.12-1.48-2.81-1.58-3.9-1.39Z" fill="#CFD9DA"/><path d="M846.21,377.84s2.42,4.43-1.69,7.01c-4.11,2.58-6.44,1.92-9.91-1.13-3.46-3.05-14.98-4.83-20.3.89-5.32,5.72-3.87,21.91.64,24.72,4.51,2.82,9.34-.16,10.07-4.03.72-3.87,1.05-4.99,5.72-4.43s8.3-.56,9.34-3.14,1.77-3.3,5.32-3.95,2.09-6.77,4.83-8.38c2.74-1.61,7.65,5.8,12.08,3.62,4.43-2.17,3.06-11.53.64-14.42s-8.78-2.65-12.32-1.53-5.1,2.41-4.43,4.75Z" fill="#CFD9DA"/></g><g id="clubHouse"><polygon points="1130.2 235.99 1145.5 252.5 1162.08 236.52 1146.95 220.53 1130.2 235.99" fill="#4e4e4e"/><polygon points="1191.42 4.19 1198.59 21.66 1208.82 17.23 1201.25 0 1191.42 4.19" fill="#4e4e4e"/></g><g id="green"><path d="M900.63,139.43c-7.49.81-12.41,3.05-12.97,10.87-.72,10.23,6.44,13.19,14.74,13.21,10.31.02,15.87-11.19,16.99-16.83,1.13-5.64-10.44-8.14-18.77-7.25Z" fill="#a6ad4c" stroke="#f5ec99" stroke-miterlimit="10" stroke-width=".5"/><path d="M1136.4,140.76s-3.32,2.6-7.55,4.41-11.78,6.24-10.41,13.81c1.37,7.57,11.11,3.22,14.42,1.05s13.37-1.69,15.95-7.01.64-11.76-3.54-13.61-8.86,1.35-8.86,1.35Z" fill="#a6ad4c" stroke="#f5ec99" stroke-miterlimit="10" stroke-width=".5"/><path d="M899.78,307.49s.26,2.7-1.53,4.99c-2.38,3.05-4.45,8.38,1.64,12s12.45-1.69,14.06-4.67,8.54-8.78,8.05-13.29-7.88-4.85-14.58-3.95c-5.4.72-7.37,2.17-7.65,4.91Z" fill="#a6ad4c" stroke="#f5ec99" stroke-miterlimit="10" stroke-width=".5"/><path d="M800.16,348.3s7.61,8.58,17.52,7.37,19.45-13.97,14.54-17.28-7.09-4.83-8.86-9.02c-1.77-4.19-8.42-4.75-11.7-1.45-3.28,3.3-9.72,1.77-12.3,7.57-2.58,5.8-1.37,9.83.81,12.81Z" fill="#a6ad4c" stroke="#f5ec99" stroke-miterlimit="10" stroke-width=".5"/><path d="M669.49,325.27s-3.46,2.17-6.85,3.86-9.18,4.83-6.85,11.84,9.58,5.23,13.29,4.11c3.7-1.13,16.91-2.9,18.68-6.6,1.77-3.7.81-7.93-1.69-9.87-2.5-1.93-1.53-6.54-5.56-7.9-4.03-1.36-7.23,2.33-11.03,4.57Z" fill="#a6ad4c" stroke="#f5ec99" stroke-miterlimit="10" stroke-width=".5"/><path d="M583.23,476.48s-1.29,2.26-5.32,2.9-9.58,3.22-9.34,11.36c.24,8.13,7.81,12.81,12.89,10.87,5.07-1.93,6.52-2.66,10.95-3.3s9.26-6.28,8.54-13.53c-.72-7.25-9.83-15.79-17.72-8.3Z" fill="#a6ad4c" stroke="#f5ec99" stroke-miterlimit="10" stroke-width=".5"/><path d="M578.64,518.44s-12.56-3.38-18.12,2.66c-5.56,6.04,2.35,15.79,6.93,18.52,7.97,4.75,18.52,2.82,21.02-4.51,2.5-7.33-.97-14.58-9.83-16.67Z" fill="#a6ad4c" stroke="#f5ec99" stroke-miterlimit="10" stroke-width=".5"/><path d="M15.65,815.41s-9.79,4.71-8.94,14.74c.85,10.03,10.47,13.93,15.3,11.68,4.83-2.26,7.01-3.7,11.11-4.35,4.11-.64,9.02-7.25,6.93-14.34-2.09-7.09-11.28-14.58-24.4-7.73Z" fill="#a6ad4c" stroke="#f5ec99" stroke-miterlimit="10" stroke-width=".5"/><path d="M157.82,728.15s-1.03,2.78-6.83,4.47c-5.8,1.69-9.99,4.27-9.42,11.84s7.97,11.76,13.69,8.46,5.32-3.22,9.91-5.07c4.59-1.85,12-6.28,10.39-13.45s-11.48-14.34-17.74-6.24Z" fill="#a6ad4c" stroke="#f5ec99" stroke-miterlimit="10" stroke-width=".5"/></g><g id="lines"><polyline points="1175.9 30.42 1020.14 108.7 900.63 149.62" fill="none" stroke="#991B1E" stroke-dasharray="3" stroke-miterlimit="10" stroke-width=".5"/><polyline points="1223.34 69.08 1022.59 107.36 903.51 154.13" fill="none" stroke="#991B1E" stroke-dasharray="3" stroke-miterlimit="10" stroke-width=".5"/><polyline points="949.7 183.91 779.19 281.74 671.96 333.28" fill="none" stroke="#991B1E" stroke-dasharray="3" stroke-miterlimit="10" stroke-width=".5"/><line x1="634.89" y1="336.76" x2="585.87" y2="487.64" fill="#991B1E" stroke="#991B1E" stroke-dasharray="3" stroke-miterlimit="10" stroke-width=".5"/><polyline points="594.05 383.15 408.63 558.28 265.46 657.22 158.38 739.31" fill="none" stroke="#991B1E" stroke-dasharray="3" stroke-miterlimit="10" stroke-width=".5"/><line x1="124.74" y1="714.32" x2="23.6" y2="828.08" fill="#991B1E" stroke="#991B1E" stroke-dasharray="3" stroke-miterlimit="10" stroke-width=".5"/><polyline points="96.96 807.48 352.15 635.46 521.65 572.45 576.26 529.85" fill="none" stroke="#991B1E" stroke-dasharray="3" stroke-miterlimit="10" stroke-width=".5"/><polyline points="565.14 593.89 648.37 448.96 815.41 340.79" fill="none" stroke="#991B1E" stroke-dasharray="3" stroke-miterlimit="10" stroke-width=".5"/><line x1="796.12" y1="432.2" x2="907.97" y2="311.93" fill="#991B1E" stroke="#991B1E" stroke-dasharray="3" stroke-miterlimit="10" stroke-width=".5"/><polyline points="913.21 361.89 1045.06 243.5 1135.13 151.04" fill="none" stroke="#991B1E" stroke-dasharray="3" stroke-miterlimit="10" stroke-width=".5"/></g><g id="numberContainer"><path d="M1019.57,91.9c7.83,0,14.17,6.35,14.17,14.17s-6.35,14.17-14.17,14.17-14.17-6.35-14.17-14.17,6.35-14.17,14.17-14.17Z" fill="#ffffff" stroke="#991B1E" stroke-miterlimit="10" stroke-width=".25"/><path d="M778.79,266.67c7.83,0,14.17,6.35,14.17,14.17s-6.35,14.17-14.17,14.17-14.17-6.35-14.17-14.17,6.35-14.17,14.17-14.17Z" fill="#ffffff" stroke="#991B1E" stroke-miterlimit="10" stroke-width=".25"/><path d="M609.63,400.18c7.83,0,14.17,6.35,14.17,14.17s-6.35,14.17-14.17,14.17-14.17-6.35-14.17-14.17,6.35-14.17,14.17-14.17Z" fill="#ffffff" stroke="#991B1E" stroke-miterlimit="10" stroke-width=".25"/><path d="M649.07,435.61c7.83,0,14.17,6.35,14.17,14.17s-6.35,14.17-14.17,14.17-14.17-6.35-14.17-14.17,6.35-14.17,14.17-14.17Z" fill="#ffffff" stroke="#991B1E" stroke-miterlimit="10" stroke-width=".25"/><path d="M863.05,345.46c7.83,0,14.17,6.35,14.17,14.17s-6.35,14.17-14.17,14.17-14.17-6.35-14.17-14.17,6.35-14.17,14.17-14.17Z" fill="#ffffff" stroke="#991B1E" stroke-miterlimit="10" stroke-width=".25"/><path d="M1045.77,230.55c7.83,0,14.17,6.35,14.17,14.17s-6.35,14.17-14.17,14.17-14.17-6.35-14.17-14.17,6.35-14.17,14.17-14.17Z" fill="#ffffff" stroke="#991B1E" stroke-miterlimit="10" stroke-width=".25"/><path d="M408.64,544.11c7.83,0,14.17,6.35,14.17,14.17s-6.35,14.17-14.17,14.17-14.17-6.35-14.17-14.17,6.35-14.17,14.17-14.17Z" fill="#ffffff" stroke="#991B1E" stroke-miterlimit="10" stroke-width=".25"/><path d="M352.15,621.94c7.83,0,14.17,6.35,14.17,14.17s-6.35,14.17-14.17,14.17-14.17-6.35-14.17-14.17,6.35-14.17,14.17-14.17Z" fill="#ffffff" stroke="#991B1E" stroke-miterlimit="10" stroke-width=".25"/><path d="M73.03,758.72c7.83,0,14.17,6.35,14.17,14.17s-6.35,14.17-14.17,14.17-14.17-6.35-14.17-14.17,6.35-14.17,14.17-14.17Z" fill="#ffffff" stroke="#991B1E" stroke-miterlimit="10" stroke-width=".25"/></g><g id="number"><path d="M1010.73,105.12c0-.17.01-.78,0-1.81-.01-.44-.07-.73-.31-.73-.12,0-.31.04-.52.1l-.91.3c-.05.01-.1.01-.13-.04l-.1-.23c-.03-.05-.01-.1.08-.16l2.69-1.55c.06-.04.12-.08.18-.08.08,0,.09.08.09.18,0,.12-.04,2.16-.04,3.83v.55c0,.16.01,2.91.01,3.08.01.68.06.77.91.77h.47c.09,0,.13.04.13.1v.3c0,.08-.03.1-.12.1-.12,0-1.88-.04-2-.04s-1.95.04-2.02.04-.1-.03-.1-.1v-.33c0-.06.08-.08.18-.08h.6c.84,0,.87-.04.9-.73.01-.17.01-2.8.01-3.03v-.47Z" fill="#991B1E"/><path d="M1018.19,100.47c.04-.08.09-.1.17-.08l.42.17c.08.03.08.1.05.18l-3.89,9.15c-.05.12-.12.13-.17.1l-.44-.22c-.05-.03-.07-.06-.01-.17l3.87-9.14Z" fill="#991B1E"/><path d="M1021.78,105.12c0-.17.01-.78,0-1.81-.01-.44-.07-.73-.31-.73-.12,0-.31.04-.52.1l-.91.3c-.05.01-.1.01-.13-.04l-.1-.23c-.03-.05-.01-.1.08-.16l2.69-1.55c.06-.04.12-.08.18-.08.08,0,.09.08.09.18,0,.12-.04,2.16-.04,3.83v.55c0,.16.01,2.91.01,3.08.01.68.06.77.91.77h.47c.09,0,.13.04.13.1v.3c0,.08-.03.1-.12.1-.12,0-1.88-.04-2-.04s-1.95.04-2.01.04-.1-.03-.1-.1v-.33c0-.06.08-.08.18-.08h.6c.84,0,.87-.04.9-.73.01-.17.01-2.8.01-3.03v-.47Z" fill="#991B1E"/><path d="M1025.74,105.91c0-2.98,1.23-4.98,2.9-4.98,1.91,0,2.8,2.48,2.8,4.46,0,2.98-1.11,4.62-2.78,4.62-2.11,0-2.91-2.52-2.91-4.09ZM1029.92,108.62c.29-.62.4-1.61.4-3.51s-.65-3.71-1.76-3.71c-.51,0-.87.19-1.17.78-.47.91-.52,2.43-.52,3.51,0,1.23.16,2.15.44,2.74.4.86.9,1.1,1.35,1.1.4,0,.9-.16,1.25-.92Z" fill="#991B1E"/><path d="M768.28,284.58c-.22,0-.46.01-.65.03-.2.01-.35.03-.4.03-.06,0-.1,0-.14-.08-.04-.09-.03-.13.04-.2.61-.57,1.75-1.57,2.79-2.69s1.64-2.12,1.6-3.25c-.04-1.16-.74-1.85-1.68-1.83-1.1.01-1.52.87-1.74,1.26-.05.09-.09.1-.16.06l-.18-.08s-.05-.07,0-.18c.21-.51.84-1.95,2.6-1.95,1.09,0,2.27.9,2.27,2.37,0,1.11-.44,2.04-1.61,3.35-.88,1.01-1.91,1.77-2.48,2.27h2.64c.88,0,1.22-.61,1.51-1.09.06-.12.1-.13.23-.06.1.05.16.1.1.18l-.85,2.03c-.06.14.04.14-.19.14-.12,0-.12-.01-.17-.13-.08-.17-.33-.18-.72-.18h-2.82Z" fill="#991B1E"/><path d="M777.41,275.24c.04-.08.09-.1.17-.08l.42.17c.08.03.08.1.05.18l-3.89,9.15c-.05.12-.12.13-.17.1l-.44-.22c-.05-.03-.07-.07-.01-.17l3.87-9.14Z" fill="#991B1E"/><path d="M781,279.89c0-.17.01-.78,0-1.81-.01-.44-.07-.73-.31-.73-.12,0-.31.04-.52.1l-.91.3c-.05.01-.1.01-.13-.04l-.1-.23c-.03-.05-.01-.1.08-.16l2.69-1.55c.06-.04.12-.08.18-.08.08,0,.09.08.09.18,0,.12-.04,2.16-.04,3.83v.55c0,.16.01,2.91.01,3.08.01.68.06.77.91.77h.47c.09,0,.13.04.13.1v.3c0,.08-.03.1-.12.1-.12,0-1.88-.04-2-.04s-1.95.04-2.01.04-.1-.03-.1-.1v-.33c0-.06.08-.08.18-.08h.6c.84,0,.87-.04.9-.73.01-.17.01-2.79.01-3.03v-.47Z" fill="#991B1E"/><path d="M787.5,279.89c0-.17.01-.78,0-1.81-.01-.44-.07-.73-.31-.73-.12,0-.31.04-.52.1l-.91.3c-.05.01-.1.01-.13-.04l-.1-.23c-.03-.05-.01-.1.08-.16l2.69-1.55c.06-.04.12-.08.18-.08.08,0,.09.08.09.18,0,.12-.04,2.16-.04,3.83v.55c0,.16.01,2.91.01,3.08.01.68.06.77.91.77h.47c.09,0,.13.04.13.1v.3c0,.08-.03.1-.12.1-.12,0-1.88-.04-2-.04s-1.95.04-2.01.04-.1-.03-.1-.1v-.33c0-.06.08-.08.18-.08h.6c.84,0,.87-.04.9-.73.01-.17.01-2.79.01-3.03v-.47Z" fill="#991B1E"/><path d="M598.3,417.26c0-.34.21-.56.43-.56.43,0,.51.51.53.57.07.14.3.53,1.21.53,1.2,0,1.91-.87,1.91-1.78,0-1.31-.82-2.08-1.87-2.33-.23-.05-.23-.01-.23-.2,0-.13.04-.16.16-.18.83-.16,1.69-.85,1.69-1.85,0-.83-.51-1.46-1.33-1.46-.96,0-1.46.68-1.73,1.42-.04.1-.08.14-.13.13l-.23-.05s-.04-.08-.01-.2c.18-.9.98-2.11,2.44-2.11s1.92,1.04,1.92,1.7c0,1.12-.78,1.82-1.46,2.24.88.22,1.9,1.13,1.9,2.27,0,1.68-1.5,2.86-3.25,2.86-1.53,0-1.95-.65-1.95-1.03Z" fill="#991B1E"/><path d="M608.25,408.74c.04-.08.09-.1.17-.08l.42.17c.08.03.08.1.05.18l-3.89,9.15c-.05.12-.12.13-.17.1l-.44-.22c-.05-.03-.07-.06-.01-.17l3.87-9.14Z" fill="#991B1E"/><path d="M611.83,413.39c0-.17.01-.78,0-1.81-.01-.44-.07-.73-.31-.73-.12,0-.31.04-.52.1l-.91.3c-.05.01-.1.01-.13-.04l-.1-.23c-.03-.05-.01-.1.08-.16l2.69-1.55c.06-.04.12-.08.18-.08.08,0,.09.08.09.18,0,.12-.04,2.16-.04,3.83v.55c0,.16.01,2.91.01,3.08.01.68.06.77.91.77h.47c.09,0,.13.04.13.1v.3c0,.08-.03.1-.12.1-.12,0-1.88-.04-2-.04s-1.95.04-2.01.04-.1-.03-.1-.1v-.33c0-.07.08-.08.18-.08h.6c.84,0,.87-.04.9-.73.01-.17.01-2.8.01-3.03v-.47Z" fill="#991B1E"/><path d="M616.67,418.09c-.22,0-.46.01-.65.03s-.35.03-.4.03c-.06,0-.1,0-.14-.08-.04-.09-.03-.13.04-.2.61-.57,1.75-1.57,2.79-2.69s1.64-2.12,1.6-3.25c-.04-1.16-.74-1.85-1.68-1.83-1.1.01-1.52.87-1.74,1.26-.05.09-.09.1-.16.07l-.18-.08s-.05-.06,0-.18c.21-.51.84-1.95,2.6-1.95,1.09,0,2.27.9,2.27,2.37,0,1.1-.44,2.04-1.61,3.35-.88,1.01-1.91,1.77-2.48,2.28h2.64c.88,0,1.22-.61,1.51-1.09.06-.12.1-.13.23-.07.1.05.16.1.1.18l-.85,2.03c-.06.14.04.14-.19.14-.12,0-.12-.01-.17-.13-.08-.17-.33-.18-.72-.18h-2.82Z" fill="#991B1E"/><path d="M643.48,444.84c.06,0,.13.04.13.12,0,.06-.01.1-.09.23-.08.13-1.13,2.08-1.65,3.37-.13.3-1.22,2.7-1.75,4.5-.16.53-.42.66-.65.66-.33,0-.51-.19-.51-.48,0-.33.29-.86.46-1.21.22-.44,2.48-4.76,3.22-6.23h-3.08c-.78,0-.95.35-1.33.91-.06.09-.16.08-.25.03-.12-.07-.12-.08-.08-.2l.81-2.09c.04-.08.05-.09.21-.09.14,0,.2.04.17.23-.03.18.08.25.74.25h3.65Z" fill="#991B1E"/><path d="M647.69,444.17c.04-.08.09-.1.17-.08l.42.17c.08.03.08.1.05.18l-3.89,9.15c-.05.12-.12.13-.17.1l-.44-.22c-.05-.03-.07-.07-.01-.17l3.87-9.14Z" fill="#991B1E"/><path d="M651.28,448.83c0-.17.01-.78,0-1.81-.01-.44-.07-.73-.31-.73-.12,0-.31.04-.52.1l-.91.3c-.05.01-.1.01-.13-.04l-.1-.23c-.03-.05-.01-.1.08-.16l2.69-1.55c.06-.04.12-.08.18-.08.08,0,.09.08.09.18,0,.12-.04,2.16-.04,3.83v.55c0,.16.01,2.91.01,3.08.01.68.06.77.91.77h.47c.09,0,.13.04.13.1v.3c0,.08-.03.1-.12.1-.12,0-1.88-.04-2-.04s-1.95.04-2.01.04-.1-.03-.1-.1v-.33c0-.06.08-.08.18-.08h.6c.84,0,.87-.04.9-.73.01-.17.01-2.79.01-3.03v-.47Z" fill="#991B1E"/><path d="M656.24,453c-.65-.7-.83-1.72-.83-2.39,0-1.62.6-3.22,1.98-4.56.62-.6,1.33-1.03,1.91-1.26.21-.09.39-.14.48-.14.08,0,.16.04.16.13,0,.1-.04.17-.12.21-1.04.47-2.76,1.9-3.08,4.03.42-.36.97-.6,1.73-.6,1.62,0,2.3,1.44,2.3,2.29,0,1.21-.35,1.77-.81,2.24-.48.52-1.03.78-1.85.78-.87,0-1.48-.25-1.87-.71ZM659.66,451.1c0-1.16-.57-2.13-1.57-2.13-.77,0-1.13.31-1.29.64-.18.34-.29.87-.29,1.42,0,.66.1,2.27,1.68,2.27.29,0,1.47-.14,1.47-2.2Z" fill="#991B1E"/><path d="M852.13,361.71c0-1.12.58-1.78,1.69-2.5-.97-.55-1.78-1.22-1.78-2.22,0-1.13.94-2.5,2.78-2.5,1.2,0,2.21.82,2.21,1.68,0,1.23-.42,1.81-1.79,2.77,1.04.49,1.83,1.16,1.83,2.34,0,1.01-.99,2.29-2.56,2.29-1.78,0-2.38-1.03-2.38-1.86ZM856.13,361.54c0-1.05-.86-1.53-1.88-2.08-.83.47-1.3,1.22-1.3,2.04,0,1.13.88,1.62,1.64,1.62.94,0,1.55-.51,1.55-1.59ZM853.05,356.68c0,.94.61,1.31,1.75,1.99.64-.4,1.31-1.17,1.37-2.04.04-.95-.66-1.6-1.56-1.6s-1.56.74-1.56,1.65Z" fill="#991B1E"/><path d="M861.67,354.03c.04-.08.09-.1.17-.08l.42.17c.08.03.08.1.05.18l-3.89,9.15c-.05.12-.12.13-.17.1l-.44-.22c-.05-.03-.07-.07-.01-.17l3.87-9.14Z" fill="#991B1E"/><path d="M865.26,358.68c0-.17.01-.78,0-1.81-.01-.44-.07-.73-.31-.73-.12,0-.31.04-.52.1l-.91.3c-.05.01-.1.01-.13-.04l-.1-.23c-.03-.05-.01-.1.08-.16l2.69-1.55c.06-.04.12-.08.18-.08.08,0,.09.08.09.18,0,.12-.04,2.16-.04,3.83v.55c0,.16.01,2.91.01,3.08.01.68.06.77.91.77h.47c.09,0,.13.04.13.1v.3c0,.08-.03.1-.12.1-.12,0-1.88-.04-2-.04s-1.95.04-2.01.04-.1-.03-.1-.1v-.33c0-.06.08-.08.18-.08h.6c.84,0,.87-.04.9-.73.01-.17.01-2.79.01-3.03v-.47Z" fill="#991B1E"/><path d="M875.01,354.69c.06,0,.13.04.13.12,0,.06-.01.1-.09.23-.08.13-1.13,2.08-1.65,3.37-.13.3-1.22,2.7-1.75,4.5-.16.53-.42.66-.65.66-.33,0-.51-.19-.51-.48,0-.33.29-.86.46-1.21.22-.44,2.48-4.76,3.22-6.23h-3.08c-.78,0-.95.35-1.33.91-.07.09-.16.08-.25.03-.12-.07-.12-.08-.08-.2l.81-2.09c.04-.08.05-.09.21-.09.14,0,.2.04.17.23-.03.18.08.25.74.25h3.65Z" fill="#991B1E"/><path d="M1039.2,240.49c.58.66.7,1.69.7,2.09,0,1.74-.58,3.54-2.12,4.89-.65.57-1.16.86-1.87,1.09-.13.04-.31.09-.4.09-.1,0-.2-.05-.2-.18,0-.09.05-.16.12-.18,1.13-.46,2.86-1.87,3.15-4.04v-.03c-.36.33-.83.64-1.6.64-1.79,0-2.41-1.37-2.41-2.6,0-.49.47-1.57.96-2,.51-.44,1.11-.68,1.65-.68.92,0,1.43.27,2.01.91ZM1035.62,242.19c0,1.22.73,2.11,1.61,2.11.75,0,1.14-.4,1.31-.74.16-.33.2-.75.2-1.29,0-1.14-.33-2.28-1.51-2.28-.77,0-1.61.74-1.61,2.2Z" fill="#991B1E"/><path d="M1044.39,239.11c.04-.08.09-.1.17-.08l.42.17c.08.03.08.1.05.18l-3.89,9.15c-.05.12-.12.13-.17.1l-.44-.22c-.05-.03-.07-.07-.01-.17l3.87-9.14Z" fill="#991B1E"/><path d="M1047.98,243.76c0-.17.01-.78,0-1.81-.01-.44-.07-.73-.31-.73-.12,0-.31.04-.52.1l-.91.3c-.05.01-.1.01-.13-.04l-.1-.23c-.03-.05-.01-.1.08-.16l2.69-1.55c.06-.04.12-.08.18-.08.08,0,.09.08.09.18,0,.12-.04,2.16-.04,3.83v.55c0,.16.01,2.91.01,3.08.01.68.06.77.91.77h.47c.09,0,.13.04.13.1v.3c0,.08-.03.1-.12.1-.12,0-1.88-.04-2-.04s-1.95.04-2.01.04-.1-.03-.1-.1v-.33c0-.06.08-.08.18-.08h.6c.84,0,.87-.04.9-.73.01-.17.01-2.79.01-3.03v-.47Z" fill="#991B1E"/><path d="M1052.4,246.79c0-1.12.58-1.78,1.69-2.5-.97-.55-1.78-1.22-1.78-2.22,0-1.13.94-2.5,2.78-2.5,1.2,0,2.21.82,2.21,1.68,0,1.23-.42,1.81-1.79,2.77,1.04.49,1.83,1.16,1.83,2.34,0,1.01-.99,2.29-2.56,2.29-1.78,0-2.38-1.03-2.38-1.86ZM1056.4,246.62c0-1.05-.86-1.53-1.88-2.08-.83.47-1.3,1.22-1.3,2.04,0,1.13.88,1.62,1.64,1.62.94,0,1.55-.51,1.55-1.59ZM1053.32,241.76c0,.94.61,1.31,1.75,1.99.64-.4,1.31-1.17,1.37-2.04.04-.95-.66-1.6-1.56-1.6s-1.56.74-1.56,1.65Z" fill="#991B1E"/><path d="M401.08,562.02c-.12,0-.16-.03-.16-.14v-2.29h-3.63c-.12,0-.2-.05-.2-.16,0-.08.04-.13.13-.26l4.23-5.82c.08-.1.18-.21.29-.21.12,0,.17.09.17.39v5.2h1.05c.09,0,.16.03.16.1v.62c0,.08-.04.13-.21.13h-1v2.25c0,.14-.03.18-.18.18h-.65ZM400.94,555.22c0-.21-.13-.25-.25-.08l-2.39,3.3c-.16.22-.14.35.09.35h2.55v-3.58Z" fill="#991B1E"/><path d="M407.26,552.67c.04-.08.09-.1.17-.08l.42.17c.08.03.08.1.05.18l-3.89,9.15c-.05.12-.12.13-.17.1l-.44-.22c-.05-.03-.07-.06-.01-.17l3.87-9.14Z" fill="#991B1E"/><path d="M410.85,557.32c0-.17.01-.78,0-1.81-.01-.44-.07-.73-.31-.73-.12,0-.31.04-.52.1l-.91.3c-.05.01-.1.01-.13-.04l-.1-.23c-.03-.05-.01-.1.08-.16l2.69-1.55c.06-.04.12-.08.18-.08.08,0,.09.08.09.18,0,.12-.04,2.16-.04,3.83v.55c0,.16.01,2.91.01,3.08.01.68.06.77.91.77h.47c.09,0,.13.04.13.1v.3c0,.08-.03.1-.12.1-.12,0-1.88-.04-2-.04s-1.95.04-2.01.04-.1-.03-.1-.1v-.33c0-.07.08-.08.18-.08h.6c.84,0,.87-.04.9-.73.01-.17.01-2.8.01-3.03v-.47Z" fill="#991B1E"/><path d="M414.86,561.19c0-.34.21-.56.43-.56.43,0,.51.51.53.57.07.14.3.53,1.21.53,1.2,0,1.91-.87,1.91-1.78,0-1.31-.82-2.08-1.87-2.33-.23-.05-.23-.01-.23-.2,0-.13.04-.16.16-.18.83-.16,1.69-.85,1.69-1.85,0-.83-.51-1.46-1.33-1.46-.96,0-1.46.68-1.73,1.42-.04.1-.08.14-.13.13l-.23-.05s-.04-.08-.01-.2c.18-.9.98-2.11,2.44-2.11s1.92,1.04,1.92,1.7c0,1.12-.78,1.82-1.46,2.24.88.22,1.9,1.13,1.9,2.27,0,1.68-1.5,2.86-3.25,2.86-1.53,0-1.95-.65-1.95-1.03Z" fill="#991B1E"/><path d="M341.78,639.33c-.65-.7-.83-1.72-.83-2.39,0-1.62.6-3.22,1.98-4.56.62-.6,1.33-1.03,1.91-1.26.21-.09.39-.14.48-.14.08,0,.16.04.16.13,0,.1-.04.17-.12.21-1.04.47-2.76,1.9-3.08,4.03.42-.36.97-.6,1.73-.6,1.62,0,2.3,1.44,2.3,2.29,0,1.21-.35,1.77-.81,2.24-.48.52-1.03.78-1.85.78-.87,0-1.48-.25-1.87-.71ZM345.2,637.43c0-1.16-.57-2.13-1.57-2.13-.77,0-1.13.31-1.29.64-.18.34-.29.87-.29,1.42,0,.66.1,2.28,1.68,2.28.29,0,1.47-.14,1.47-2.2Z" fill="#991B1E"/><path d="M350.77,630.5c.04-.08.09-.1.17-.08l.42.17c.08.03.08.1.05.18l-3.89,9.15c-.05.12-.12.13-.17.1l-.44-.22c-.05-.03-.07-.06-.01-.17l3.87-9.14Z" fill="#991B1E"/><path d="M354.36,635.15c0-.17.01-.78,0-1.81-.01-.44-.07-.73-.31-.73-.12,0-.31.04-.52.1l-.91.3c-.05.01-.1.01-.13-.04l-.1-.23c-.03-.05-.01-.1.08-.16l2.69-1.55c.06-.04.12-.08.18-.08.08,0,.09.08.09.18,0,.12-.04,2.16-.04,3.83v.55c0,.16.01,2.91.01,3.08.01.68.06.77.91.77h.47c.09,0,.13.04.13.1v.3c0,.08-.03.1-.12.1-.12,0-1.88-.04-2-.04s-1.95.04-2.01.04-.1-.03-.1-.1v-.33c0-.07.08-.08.18-.08h.6c.84,0,.87-.04.9-.73.01-.17.01-2.8.01-3.03v-.47Z" fill="#991B1E"/><path d="M359.75,634.26c.33-.03,1.2.06,1.48.14,1.27.34,2,1.25,2,2.42.01,1.86-1.51,3.22-3.28,3.22-.96,0-1.69-.35-1.69-.73,0-.18.12-.34.29-.34.23,0,.46.14.65.26.2.12.64.25,1.03.25,1.01,0,2.03-.86,2.03-2,0-.91-.3-1.62-1.14-1.99-.7-.31-1.35-.31-1.69-.29-.08.01-.14.03-.23-.03-.07-.03-.08-.06-.07-.14l.47-3.67c.01-.16.04-.21.21-.21h2.78c.46,0,.57-.22.79-.65.04-.08.08-.09.16-.07.14.07.21.08.18.16l-.47,1.3c-.09.21-.16.26-.56.26h-2.7l-.23,2.09Z" fill="#991B1E"/><path d="M63.09,771.05c.33-.03,1.2.07,1.48.14,1.27.34,2,1.25,2,2.42.01,1.86-1.51,3.22-3.28,3.22-.96,0-1.69-.35-1.69-.73,0-.18.12-.34.29-.34.23,0,.46.14.65.26s.64.25,1.03.25c1.01,0,2.03-.86,2.03-2,0-.91-.3-1.62-1.14-1.99-.7-.31-1.35-.31-1.69-.29-.08.01-.14.03-.23-.03-.07-.03-.08-.07-.07-.14l.47-3.67c.01-.16.04-.21.21-.21h2.78c.46,0,.57-.22.79-.65.04-.08.08-.09.16-.06.14.06.21.08.18.16l-.47,1.3c-.09.21-.16.26-.56.26h-2.7l-.23,2.09Z" fill="#991B1E"/><path d="M71.65,767.29c.04-.08.09-.1.17-.08l.42.17c.08.03.08.1.05.18l-3.89,9.15c-.05.12-.12.13-.17.1l-.44-.22c-.05-.03-.07-.07-.01-.17l3.87-9.14Z" fill="#991B1E"/><path d="M75.24,771.94c0-.17.01-.78,0-1.81-.01-.44-.07-.73-.31-.73-.12,0-.31.04-.52.1l-.91.3c-.05.01-.1.01-.13-.04l-.1-.23c-.03-.05-.01-.1.08-.16l2.69-1.55c.06-.04.12-.08.18-.08.08,0,.09.08.09.18,0,.12-.04,2.16-.04,3.83v.55c0,.16.01,2.91.01,3.08.01.68.06.77.91.77h.47c.09,0,.13.04.13.1v.3c0,.08-.03.1-.12.1-.12,0-1.88-.04-2-.04s-1.95.04-2.01.04-.1-.03-.1-.1v-.33c0-.06.08-.08.18-.08h.6c.84,0,.87-.04.9-.73.01-.17.01-2.79.01-3.03v-.47Z" fill="#991B1E"/><path d="M83.03,776.64c-.12,0-.16-.03-.16-.14v-2.29h-3.63c-.12,0-.2-.05-.2-.16,0-.08.04-.13.13-.26l4.23-5.82c.08-.1.18-.21.29-.21.12,0,.17.09.17.39v5.2h1.05c.09,0,.16.03.16.1v.62c0,.08-.04.13-.21.13h-1v2.25c0,.14-.03.18-.18.18h-.65ZM82.89,769.84c0-.21-.13-.25-.25-.08l-2.39,3.3c-.16.22-.14.35.09.35h2.55v-3.58Z" fill="#991B1E"/></g></svg>