<svg id="Layer_2" xmlns="http://www.w3.org/2000/svg" width="250.97mm" height="125.84mm" viewBox="0 0 711.41 356.73"><g id="fairway"><path d="M299.02,21.3s-1.75-.69-3.58-.89-7.05-1.58-9.39.45-1.86,6.29,2.18,8.49c4.04,2.2,6.87,8.19,3.53,14.58-3.34,6.4-9.94,10.32-14.35,13.41-4.4,3.1-17.61,12-22.56,16.56s-13.62,13.02-20.7,12.47-10.26-5.02-7.05-9.42c3.2-4.4,12.21-12.59,15.51-15.75,3.3-3.16,12.66-10.48,17.75-13.22s5.64-4.19,5.57-8.59c-.07-4.4,2.06-8.25,6.81-12.59s5.57-5.98,6.4-9.15,2.99-6.09,9.34-6.91,12.33-1.29,14.86,2.42,1.99,10.18-4.32,8.13Z" fill="#4D4E4E" stroke="#2a2a2a" stroke-miterlimit="10" stroke-width=".21"/><path d="M191.2,111.41s2.09,3.3,4.49,1.37,1.29-3.46.59-4.44-2.27-2.19-4.18-.8c-1.91,1.39-1.6,3.02-.9,3.87Z" fill="#4D4E4E" stroke="#2a2a2a" stroke-miterlimit="10" stroke-width=".21"/><path d="M10.97,35.92s-.57,2.19-2.61,1.92-6.58-1.03-7.99,3,2.91,7.58,7.38,7.14,4.57,3.16,6.47,3.2,3.44,5.43,5.23,4.16.27-2.79-1.26-4.13-2.66-3.23-1.46-5.33c1.2-2.1,6.81-5.88,11.31-3.3s6.16,6.28,4.51,9.53c-1.65,3.25-2.99,7.74,2.06,8.51s5.93,2.84,8.25,5.26c2.32,2.42,7.69,5.37,10.27,2.42s3.53-8.22-.74-13.65c-4.26-5.43-11.97-16.23-14.51-19.53s-6-6.64-10.64-4.16-6.81,2.53-9.7,2.22-5.66.09-6.57,2.75Z" fill="#4D4E4E" stroke="#2a2a2a" stroke-miterlimit="10" stroke-width=".21"/><path d="M91.91,96.22s.36,6.86,3.15,11.04c2.79,4.18,4.44,8.45,3.16,10.95-1.28,2.5-6.08,2.61-6.3,5.16s-.84,3.47-1.87,4.95c-1.03,1.48-.52,4.99,2.85,5.61,3.37.62,4.51-1.58,5.5-3.34s2.17-2.3,4.16-2.51,1.43-1.62,3.39-1.89,3.66-2.75,2.84-6.47-1.24-5.1,1.13-7.12,4.23-5.01,0-7.84c-4.23-2.84-9.08-4.3-9.34-8.55-.26-4.25-.88-7.35-4.38-7.6-3.3-.23-5.05,2.55-4.28,7.6Z" fill="#4D4E4E" stroke="#2a2a2a" stroke-miterlimit="10" stroke-width=".21"/><path d="M469.81,55.2s-2.23-3.24-3.83-6.02-4.09-6.22-9.18-3.95c-5.08,2.27-10.9,6.13-18.05,3.27-7.15-2.86-23.46-6.99-31.09-8.12s-23.42-6.09-30.23-6.14-11.25-2.24-15.06-4.34c-3.82-2.11-10.15-3.1-9.66-9.14.48-6.04,5.3-7.55,16.58-4.52,11.28,3.03,27.31,5.98,34.12,6.47s23.25,1.41,26.98,2.99c3.73,1.58,5.31,1.31,9.1,1.24s10.8,3.1,15.48,6.47,14.89,7.08,19.24,10.04c4.35,2.96,13.29,9.15,16.11,11.63,2.82,2.47,5.8,1.51,8.58,1.2s5.73-.1,7.74,4.02c2.01,4.13,4.6,9.34,2.04,12.1-2.56,2.76-7.31,1.13-9.24-1.92-1.93-3.06-3.5-5.93-8.24-6.07s-10.58-.96-14.91-3.16-6.47-6.04-6.47-6.04Z" fill="#4D4E4E" stroke="#2a2a2a" stroke-miterlimit="10" stroke-width=".21"/><path d="M401.13,204.55s-8.13-2.6-9.16-3.34-4.27-2.75-6.34-1.2c-2.07,1.55-2.9,2.94-5.63,2.99s-6.19,1.39-6.81,4.69c-.62,3.3.74,5.43,5.55,6.9,4.81,1.46,6.36,1.56,10.44,1.36s8.56.06,11.94.08,6.32-.54,6.16-4.21-1.93-5.87-6.16-7.27Z" fill="#4D4E4E" stroke="#2a2a2a" stroke-miterlimit="10" stroke-width=".21"/><path d="M652.68,126.44s-.95,4.59-.45,6.76.6,4.64-.15,6.01-1.33,3.64.15,4.75,2.82,3.43,2.67,5.91c-.15,2.48,2.79,3.92,5,3.51s3.2-4.28,2.58-6.81-1.44-5.83-.46-7.35,3.04-3.07,1.24-6.22-3.95-7.33-5.61-8.92-4.44-1.25-4.96,2.37Z" fill="#4D4E4E" stroke="#2a2a2a" stroke-miterlimit="10" stroke-width=".21"/><path d="M601.13,93.56s1.39,3.93,4.28,5.34,4.13,3.12,4.54,4.77,2.06,1.89,3.4,3.78c1.34,1.89,1.96,5.09,3.92,7.16s6.35,2.89,7.58,1.19c1.24-1.7.04-5.19.51-6.95s1.92-2.69,1.35-4.4c-.57-1.7-3.25-.93-4.85-2.79s-1.91-2.54-4.64-3.2-2.02-4.08-2.69-5.57c-1.3-2.87-3.6-4.49-9.07-5.42-5.47-.93-12.21-3.4-16.54-5.79s-6.95-8.59-11.69-10.79c-4.75-2.2-19.6-10.94-22.49-12.72-2.89-1.79-8.01-3.56-10.01-.53-1.99,3.03-.79,5.9,2.85,7.96,3.65,2.06,13.96,8.12,17.26,12.21s8.25,12.14,17.06,11.72,14.94-1.32,19.23,4.02Z" fill="#4D4E4E" stroke="#2a2a2a" stroke-miterlimit="10" stroke-width=".21"/><path d="M535.01,84.61s-5.64.41-8.05-.28-5.19-2.06-7.88-.93-3.61.34-5.78.46-4.71.47-4.33,5.52,4.6,6.02,6.38,5.16c1.78-.86,3.12-.96,5.52-.52s5.52.52,6.68-.62,8.11,1.22,10.84,3.12c2.73,1.9,5.73,4.84,8.05,7.01s7.02,6.14,12.9,6.6,9.44,3.2,10.37,7.17,1.19,6.16,10.13,12.63c8.94,6.47,18.53,13.63,25.5,11.29s6.35-9.7,1.67-14.24-13.64-10.58-20.99-11.93-16.57-7.45-20.76-12.17c-4.2-4.72-10.57-11.78-17.26-15.04-8.19-3.99-12.98-3.25-12.98-3.25Z" fill="#4D4E4E" stroke="#2a2a2a" stroke-miterlimit="10" stroke-width=".21"/><path d="M431.39,122.69s-4.9,1.03-7.89.31c-2.99-.72-6.92-1.67-13.67.72s-10.16,4.6-10.32,8.46c-.15,3.87,3.9,4.74,7.06,3.87s5.94-.15,9.4.57,7.17-.21,9.85-2.12,7.69-2.79,9.75-3.61,3.78-2.63,3.18-5.83c-.6-3.2-5.81-2.64-7.36-2.37Z" fill="#4D4E4E" stroke="#2a2a2a" stroke-miterlimit="10" stroke-width=".21"/><path d="M463.65,176s-1.72,1.24-2.2,2.44c-.48,1.2-1.9,1.55-2.74,2.72s-3.11,1.31-3.97,2.96c-.86,1.65-2.17,3.4-3.61,4.71-1.44,1.31-3.3,3.99-1.34,6.09s7.22-.45,10.68-1.86c3.46-1.41,4.42-2.58,5.38-4.33s1.82-3.3,4.06-2.51c2.24.79,7.21,1.53,11.23-.36,4.02-1.89,9.96.04,10.81,3.31.85,3.26,2.55,9.97,6.47,13.84,3.92,3.87,10.34,9.08,13.3,12.18s8.27,8.62,13.12,9.65,8.41-1.03,9.34-3.92c.93-2.89-2.22-7.5-6.04-9.75-3.43-2.02-10.83-4.59-11.66-9.7-.83-5.11-1.24-8.88-5.47-10.86-4.23-1.98-8.05-4.15-9.9-8.17-1.86-4.02-5.16-6.86-10.24-6.04-5.08.83-11.73,2.33-16.89-.15-5.16-2.48-8.38-2.18-10.32-.24Z" fill="#4D4E4E" stroke="#2a2a2a" stroke-miterlimit="10" stroke-width=".21"/><path d="M607.36,331.27s2.73,2.27,2.68,4.7c-.05,2.42-.27,4.18.97,5.83,1.24,1.65,1.55,4.38,1.71,7.27.15,2.89.02,5.47,4.19,6.96s4.32-.31,6.49-.67c2.17-.36,4.38-2.82,2.14-5.12-2.24-2.3-3.63-4.91-3.06-7.92s.77-6.37-.31-8.07c-1.08-1.7.21-7.89-2.42-9.79s-8.25-2.12-11.5-5.93c-3.25-3.82-6.76-10.99-7.63-13.93-.88-2.94-4.64-6.35-9.75-8.31s-9.59-5.47-12.71-12.42c-3.11-6.95-5.73-10.18-12.4-13.21s-12.68-3.51-16,1.24c-3.32,4.75-.9,12.11,6.8,18.64,7.7,6.53,20.83,14.38,26.06,16.44,5.23,2.06,10.52,3.65,14.17,7.43,3.65,3.78,4.11,6.11,5.09,9.56,1.17,4.13,5.5,7.29,5.5,7.29Z" fill="#4D4E4E" stroke="#2a2a2a" stroke-miterlimit="10" stroke-width=".21"/><path d="M350.74,55.73s-7.02-2.68-11.45-2.06c-4.44.62-7.34,3.3-11.04,3.1s-9.6,5.47-14.29,3.71-4.75-6.5-1.19-7.84,6.84-2.48,8.27-5.21,8.6-5.31,16.54-4.95c7.94.36,15.32,2.84,21,4.23s13.15,2.26,16.46,5.62,9.7,7.54,17.13,5.27c7.43-2.27,14.65-4.54,20.64-2.53,5.98,2.01,12.9,4.49,15.94,5.98,3.04,1.5,7.27,4.28,6.14,9.29-1.13,5-11.92,8.27-21.89,5.21-9.97-3.06-14.82-7.53-24.54-6.57s-20.24-3.44-24.64-6.81c-4.4-3.37-10.94-5.71-13.07-6.43Z" fill="#4D4E4E" stroke="#2a2a2a" stroke-miterlimit="10" stroke-width=".21"/><path d="M564.28,168.97s-3.25-4.33-6.04-5.88-4.37-2.32-5.28-4.85c-.91-2.53-3.13-3.36-7.05-2.74s-5.59-.17-8.25-1.13-5.18.12-6.14,3.3,2.53,4,3.92,4.74,1.67,3.1,2.27,4.2c.6,1.1,2.42-.06,3.1,2.37.67,2.42,1.7,4.07,5.11,5.49,3.4,1.42,7.17,5.08,11.04,7.51,3.87,2.42,5.83,5.06,7.33,8.63,1.5,3.56,2.46,8.07,8.86,8.86s8.66-.28,11.5,4.68c2.84,4.95,1.71,11.25-.25,14.75-1.96,3.51-2.89,4.62,0,10,2.89,5.38,2.27,7.89,1.34,11.27-.93,3.39-.89,7.97.38,12.34,1.27,4.36,1.79,10.04,1.89,15.09.1,5.06,1.03,8.25,7.02,12.28,5.98,4.02,12.79,8.36,18.06,13.62s9.73,8.87,14.14,6.33c4.4-2.54,3.98-12.21-.73-19.64-4.71-7.43-12.6-9.84-19.07-13.98-6.47-4.14-13.01-12.12-13.56-15.56-.55-3.44-.02-7.95-.29-11.68-.26-3.73,1.4-7.1,3.42-9.78s4.83-5.5,2.05-11.69c-2.78-6.19-5.94-10.46-8.49-13.96s-4.52-5.64-5.9-8.53c-1.39-2.89-5.03-4.95-10.05-7.08-5.02-2.13-9.63-5.92-9.22-9.35.41-3.44,2.7-5.39-1.08-9.58Z" fill="#4D4E4E" stroke="#2a2a2a" stroke-miterlimit="10" stroke-width=".21"/><path d="M223.18,169.1s-4.76-2.07-8.98-3.05c-4.23-.98-7.06-1.39-10.93-.83s-10.96,1.13-13.24.92-4.42-1.24-6.79,2.37-8.18,2.67-10.25,0c-2.07-2.67-1.13-5.62,0-6.42,1.13-.8,1.26-2.19,1.96-3.4s2.67-.79,4.5-1.48,6.84-5.5,12.17-5.85,12.31,2.1,15.15,4.01c2.84,1.91,6.65,3.66,10.32,1.7,3.66-1.96,7.79-1.34,10.99,0s10.27,4.7,14.14,3.28,11.56-1.93,15.58,0c4.02,1.93,10.97,6.95,15.99,7.85s19.74,4.81,25.52,6.33c5.78,1.51,11.95,3.82,11.49,8.31-.46,4.49-2.22,8.46-11.21,6.59-8.99-1.88-19.93-6.33-27.84-3.44-7.91,2.89-16.25,5.43-23.02,1.31-6.77-4.13-18.39-14-25.54-18.19Z" fill="#4D4E4E" stroke="#2a2a2a" stroke-miterlimit="10" stroke-width=".21"/><path d="M560.94,229.39s-4,3.12-3.74,5.17c.26,2.05,3.58.13,4.54,2.52.96,2.39-1.73,3.87-.55,6.39,1.17,2.53,5.66,3.82,7.62-.57,1.96-4.38,1.32-9.75-.72-12.33s-4.22-4.17-7.15-1.19Z" fill="#4D4E4E" stroke="#2a2a2a" stroke-miterlimit="10" stroke-width=".21"/><path d="M235.03,108.26s-1.99,5.34-5.71,5.89-8.36.2-11.93,4.29c-3.58,4.09-2.61,6.57-1.36,7.88s2.9.83,5.9-.32c2.99-1.16,5.98-.26,9.11-3.53s6.68-5.3,10.28-5.06c3.6.24,7.94-.66,11.45-1.35s9.11-1.86,11.93-1.82,4.68-1.96,7.15-3.1c2.48-1.13,10.58-1.25,12.12,2.57s6.49,11.51,23.42,11.87c16.93.36,26.34-4.13,29.65-6.26s7.02-1.72,8.87.89c1.86,2.61,5.3,3.92,7.6,3.58s12.28,4.68,16.34,6.6,7.08,1.07,8.19-1.53c1.1-2.6-.83-7.14-6.88-10.65s-20.71-9.16-30.34-12.01c-9.63-2.85-33.7-7.32-40.1-7.46-6.4-.14-14.51,1.1-24.9,1.03-10.39-.07-22.29,1.38-29.37,2.68s-9.93.73-11.44,5.79Z" fill="#4D4E4E" stroke="#2a2a2a" stroke-miterlimit="10" stroke-width=".21"/><path d="M455.61,94.5s-3.23,1.44-6.95,1.24-11.35-2.28-23.39-3.51c-12.04-1.23-38.38-6.46-44.98-7.77s-17.49-4.21-20.31-1.05c-2.82,3.16-3.16,7.64,2.75,10.77,5.92,3.13,15.63,7.12,20.78,8.91,5.15,1.79,11.89,1.58,14.64-.69,2.75-2.27,9.97-2.82,19.05-1.58,9.08,1.24,22.97,1.79,30.61,4.54,7.63,2.75,25.86,9.49,33.5,12.24s21.41,7.28,25.38,9.22c3.97,1.94,6.22,5.35,5.58,8.29-.63,2.94-.12,5.54,4.11,6.59s10.15-.81,9.87-4.73.5-8.25,2.25-10.63,2.24-6.81-4.79-9.13-8.68-3.87-14.09-2.53c-5.42,1.34-10.47-1.08-12.79-3.3s-4.94-5.04-9.75-7.1-12.51-7.39-17.88-9.7c-7.7-3.3-13.6-.07-13.6-.07Z" fill="#4D4E4E" stroke="#2a2a2a" stroke-miterlimit="10" stroke-width=".21"/><path d="M346.88,154.07s-5.85,2.85-11.42,3.74-14.51-10.11-18.85-12.66-17.47-7.06-28.48-8.79c-11.01-1.73-18.78-.33-22.01,5.09-3.23,5.42-.83,11.58,7.63,13.21s18.23,4.8,27.24,8.1c9.01,3.3,25.73,5.71,32.05,7.43s16.1,8.19,28.61,5.78c12.52-2.41,24.56,2.71,27.65,4.9s9.62,4.41,13.38,4.15,7.73-.59,5.7,2.92-3.24,7.74.75,8.4,4.11,6.08,7.06,7.81,9.56.68,7.98-5.17-5.49-4.31-4.67-8.78c.82-4.47-.4-9-4.55-9.7-4.15-.7-5.02-2.82-6.12-4.26-1.1-1.44-7.15-5.98-13.55-7.98-6.4-1.99-17.06-8.25-23.39-10.32s-17.88-7.89-25.04-3.88Z" fill="#4D4E4E" stroke="#2a2a2a" stroke-miterlimit="10" stroke-width=".21"/><path d="M61.32,30.84s.82,2.16,2.49,1.73.81-2.4.43-3.02-1.24-1.97-2.53-1.24c-1.37.77-.39,2.53-.39,2.53Z" fill="#4D4E4E" stroke="#2a2a2a" stroke-miterlimit="10" stroke-width=".21"/><path d="M65.04,42.2s-2.69,3.68,0,5.61c2.94,2.1,4.51-1.51,5.19-2.65.69-1.13,1.53-4.07-.21-5.12-1.96-1.19-3.58.12-4.99,2.17Z" fill="#4D4E4E" stroke="#2a2a2a" stroke-miterlimit="10" stroke-width=".21"/><path d="M76.82,70.76s-.38,3.23,1.44,3.4,2.3-1.55,2.54-2.92-.72-2.68-1.69-2.82-1.99.58-2.3,2.34Z" fill="#4D4E4E" stroke="#2a2a2a" stroke-miterlimit="10" stroke-width=".21"/><path d="M86.16,65.62s.17,3.2,2.3,3.68,2.85-1.72,2.72-3.68-.81-3.65-2.5-3.65-2.62,2.1-2.52,3.65Z" fill="#4D4E4E" stroke="#2a2a2a" stroke-miterlimit="10" stroke-width=".21"/><path d="M93.85,79.43s.28,3.4,2.99,3.23,3.06-2.82,2.61-4.2-1.65-2.37-3.54-2.03-2.17,2.35-2.06,2.99Z" fill="#4D4E4E" stroke="#2a2a2a" stroke-miterlimit="10" stroke-width=".21"/><path d="M221.73,97.31s.38,2.2,2.1,1.99,1.81-1.93,1.69-2.75-1-1.93-2.3-1.72-1.7,1.76-1.48,2.48Z" fill="#4D4E4E" stroke="#2a2a2a" stroke-miterlimit="10" stroke-width=".21"/><path d="M185.45,117.68s-2.3,1.88-3.46,2.91-1.86,1.88-.77,3.04c.95,1.02,2.24.31,2.84-.21s2.95-2.35,3.74-2.97c1.5-1.16,1.42-2.01.62-2.97s-1.81-.58-2.97.18Z" fill="#4D4E4E" stroke="#2a2a2a" stroke-miterlimit="10" stroke-width=".21"/><path d="M176.49,125.18s-2.01,1.13-1.31,2.84c.71,1.7,2.3,1.44,3.22.86s2.1-1.56,1.39-2.96c-.71-1.39-2.13-1.51-3.3-.74Z" fill="#4D4E4E" stroke="#2a2a2a" stroke-miterlimit="10" stroke-width=".21"/><path d="M66.45,107.57s2.75,2.92,4.37,1.55.55-3.3-.65-4.54-3.34-2.96-4.92-1.41.75,3.97,1.2,4.4Z" fill="#4D4E4E" stroke="#2a2a2a" stroke-miterlimit="10" stroke-width=".21"/><path d="M79.71,131.71s1.65,4.16,3.68,3.96,1.65-3.4,1.44-5.23-1.1-4.71-3.68-4.23-1.88,4.57-1.44,5.5Z" fill="#4D4E4E" stroke="#2a2a2a" stroke-miterlimit="10" stroke-width=".21"/><path d="M83.87,139.62s1.13,1.65,1.68,3.1c.54,1.44,1.81,3.38,3.2,2.53s1.91-2.32.54-5.08c-1.37-2.76-2.17-4.13-3.92-3.35s-2.05,1.95-1.5,2.81Z" fill="#4D4E4E" stroke="#2a2a2a" stroke-miterlimit="10" stroke-width=".21"/><path d="M83.32,153.62s1.75,3.3,4.02,2.37,1.65-3.16.93-4.71-1.79-2.63-3.65-1.72c-1.62.79-2.41,1.96-1.31,4.06Z" fill="#4D4E4E" stroke="#2a2a2a" stroke-miterlimit="10" stroke-width=".21"/><path d="M178.73,137.86s-1.63-.23-2.04,1.13.21,2.24,1.15,2.5,2.36-.25,2.46-1.57c.1-1.32-.54-1.91-1.57-2.07Z" fill="#4D4E4E" stroke="#2a2a2a" stroke-miterlimit="10" stroke-width=".21"/><path d="M193.14,136.35s-2.17-.26-3.49-.26-1.93.38-2.1,1.62c-.17,1.24.43,1.91,1.72,2.05s2.65.16,3.68.17,1.6-.61,1.63-1.84c.03-1.22-.5-1.64-1.44-1.74Z" fill="#4D4E4E" stroke="#2a2a2a" stroke-miterlimit="10" stroke-width=".21"/><path d="M203.79,137.13s-3.12-.72-3.82.62-.18,3.28,2.48,3.61,3.92.18,4.26-1.43-.67-2.48-2.91-2.8Z" fill="#4D4E4E" stroke="#2a2a2a" stroke-miterlimit="10" stroke-width=".21"/><path d="M212.82,138.32s-2.76-.41-3.2,1.29c-.44,1.7.88,2.32,2.12,2.48s3.87.26,4.08-1.34-1.56-2.43-2.99-2.42Z" fill="#4D4E4E" stroke="#2a2a2a" stroke-miterlimit="10" stroke-width=".21"/><path d="M231.97,140.12s-2.94-.44-3.59,1.26c-.64,1.7.85,3.1,2.55,3.35s3.89-.39,4-1.93c.1-1.55-1.11-2.53-2.97-2.68Z" fill="#4D4E4E" stroke="#2a2a2a" stroke-miterlimit="10" stroke-width=".21"/><path d="M250.29,143.24s-2.3-.31-2.86,1.08c-.57,1.39.9,2.42,2.04,2.48s2.97-.23,3.02-1.63c.05-1.39-1.12-1.94-2.19-1.93Z" fill="#4D4E4E" stroke="#2a2a2a" stroke-miterlimit="10" stroke-width=".21"/><path d="M319.23,181.17s-2.63-.85-3.51.7c-.88,1.55-.08,3.22,1.75,3.84s4.13.52,4.51-1.08c.39-1.6-.49-2.84-2.76-3.46Z" fill="#4D4E4E" stroke="#2a2a2a" stroke-miterlimit="10" stroke-width=".21"/><path d="M332.35,189.25s-3.78-.72-4.81,1.13,1.03,3.85,3.4,4.26,4.99-.07,5.3-1.72c.31-1.65-1.13-3.3-3.89-3.68Z" fill="#4D4E4E" stroke="#2a2a2a" stroke-miterlimit="10" stroke-width=".21"/><path d="M348.83,198.62s-2.61-.89-3.44.86-.17,3.44,1.72,3.99,4.06.41,4.51-1.51-.99-3.13-2.79-3.34Z" fill="#4D4E4E" stroke="#2a2a2a" stroke-miterlimit="10" stroke-width=".21"/><path d="M358.9,198.6s-2.45.26-2.66,2.71,1.75,3.78,3.28,3.61,3.15-.99,3.12-3.15c-.03-2.16-2.09-3.68-3.74-3.17Z" fill="#4D4E4E" stroke="#2a2a2a" stroke-miterlimit="10" stroke-width=".21"/><path d="M395.08,234.65s1.29,3.61,3.46,2.63,2.12-3.46.75-4.9c-1.37-1.44-3.07-1.88-4.05-1.13s-.56,2.52-.15,3.4Z" fill="#4D4E4E" stroke="#2a2a2a" stroke-miterlimit="10" stroke-width=".21"/><path d="M281.2.34s-2.69-1-3.16,1.12c-.19.87-1.02,2.29,1.53,2.93s3.1.05,3.43-1.44c.34-1.5,0-2.19-1.81-2.61Z" fill="#4D4E4E" stroke="#2a2a2a" stroke-miterlimit="10" stroke-width=".21"/><path d="M308.08,6.04s-3.3-.58-4.46-.76-1.6.18-1.83,1.24-.54,2.04.95,2.58,4.05.88,5,1.07,2.01-.07,2.19-1.69c.18-1.63-.1-2.14-1.86-2.44Z" fill="#4D4E4E" stroke="#2a2a2a" stroke-miterlimit="10" stroke-width=".21"/><path d="M261.09,84.54s-1.42.9-.88,2.35,2.19,1.42,3.25.72,1.83-1.78,1.08-3.07c-.75-1.29-2.48-.88-3.46,0Z" fill="#4D4E4E" stroke="#2a2a2a" stroke-miterlimit="10" stroke-width=".21"/><path d="M276.41,80.72s-2.32-.08-2.84,1.83c-.52,1.91,1.08,2.71,2.66,2.79s3.25-.67,3.35-2.31c.1-1.64-1.42-2.36-3.17-2.31Z" fill="#4D4E4E" stroke="#2a2a2a" stroke-miterlimit="10" stroke-width=".21"/><path d="M297.33,78.17s-3.68-.1-6.09,0-2.99.89-3.13,1.93.21,2.2,2.48,2.48,5.81-.03,6.74,0,1.93-1.03,1.93-2.3-.38-2.07-1.93-2.1Z" fill="#4D4E4E" stroke="#2a2a2a" stroke-miterlimit="10" stroke-width=".21"/><path d="M314.95,16.14s-1.63-.54-2.4.85-.41,2.19.88,2.86,2.4.52,3.02-.8.05-2.4-1.5-2.91Z" fill="#4D4E4E" stroke="#2a2a2a" stroke-miterlimit="10" stroke-width=".21"/><path d="M328.29,6.85s-2.71-1.11-3.79,0c-1.08,1.11-.18,2.66,1.57,3.56s3.87,1.08,4.46-.36c.59-1.44-.74-2.78-2.24-3.2Z" fill="#4D4E4E" stroke="#2a2a2a" stroke-miterlimit="10" stroke-width=".21"/><path d="M352.27,6.94s-2.42-.59-3.12.49.34,2.86,2.22,3.3,3.12-.13,3.56-1.39-1.24-2.09-2.66-2.4Z" fill="#4D4E4E" stroke="#2a2a2a" stroke-miterlimit="10" stroke-width=".21"/><path d="M327.2,77.74s-6.91-1.03-10.83-.31-5.06,1.2-5,2.98c.05,1.77,1.91,2.18,3.82,1.72s7.17.62,10.01,1.44c2.84.83,5.06.1,5.47-1.7s-.05-3.75-3.46-4.13Z" fill="#4D4E4E" stroke="#2a2a2a" stroke-miterlimit="10" stroke-width=".21"/><path d="M342.85,81.33s-2.86-.9-3.64.34.58,2.79,1.62,3.35,3.49.7,4.08-.7c.59-1.39-.82-2.73-2.06-2.99Z" fill="#4D4E4E" stroke="#2a2a2a" stroke-miterlimit="10" stroke-width=".21"/><path d="M451.07,12.7s-.83-1.1-1.96-.48-.6,1.51-.17,2.06,1.29,1.2,2.03.57.64-1.46.1-2.15Z" fill="#4D4E4E" stroke="#2a2a2a" stroke-miterlimit="10" stroke-width=".21"/><path d="M468.98,16.02s-2.89-1.86-4.57-.31c-1.69,1.55-.03,3.78,1.48,4.78s4.81,1.89,5.95,0c1.13-1.89-1.79-3.94-2.85-4.47Z" fill="#4D4E4E" stroke="#2a2a2a" stroke-miterlimit="10" stroke-width=".21"/><path d="M497.24,25.2s-8.1-3.66-11.45-4.9c-3.35-1.24-5.37-1.44-6.19,0s-.05,3.3,2.22,4.28c2.27.98,7.69,3.35,9.75,4.54,2.06,1.19,5.73,3.04,6.91.46s-.03-3.84-1.24-4.38Z" fill="#4D4E4E" stroke="#2a2a2a" stroke-miterlimit="10" stroke-width=".21"/><path d="M506.52,32.91s-3.56-.13-3.97,1.42.95,2.53,3.53,2.53,4.72-.41,4.85-1.86c.13-1.44-2.48-2.24-4.41-2.09Z" fill="#4D4E4E" stroke="#2a2a2a" stroke-miterlimit="10" stroke-width=".21"/><path d="M526.91,48.21s.52,1.57,2.17,1.42,1.86-1.73,1.55-2.71-1.44-1.73-2.63-1.32-1.5,1.89-1.08,2.61Z" fill="#4D4E4E" stroke="#2a2a2a" stroke-miterlimit="10" stroke-width=".21"/><path d="M615,71.15s-1.43-1.03-2.37-.34-.34,1.74.83,2.48,2.48,1.48,3.22.5-.69-1.96-1.67-2.63Z" fill="#4D4E4E" stroke="#2a2a2a" stroke-miterlimit="10" stroke-width=".21"/><path d="M632.56,73.14s-2.86-.53-5.16,0-2.97,1.9-2.73,3.94c.23,2.04,2.59,1.81,3.92,1.57s2.83.14,4.07.15,2.19-1.17,2.2-3.12c.01-2.14-2.31-2.54-2.31-2.54Z" fill="#4D4E4E" stroke="#2a2a2a" stroke-miterlimit="10" stroke-width=".21"/><path d="M626.33,80.4s-2.17,1.24-1.55,3.35c.62,2.12,3.46,2.48,5.18,1.42s3.33-2.58,2.55-4.28-4.23-2.04-6.19-.49Z" fill="#4D4E4E" stroke="#2a2a2a" stroke-miterlimit="10" stroke-width=".21"/><path d="M632.98,86.51s-.93,1.48-2.48,2.25-1.99,2.03-1.44,3.94,2.55,3.47,5.42,2.13,5.86-2.29,4.75-5.75-4.26-4.75-6.24-2.58Z" fill="#4D4E4E" stroke="#2a2a2a" stroke-miterlimit="10" stroke-width=".21"/><path d="M637.82,83.76s.69,5.23,3.51,4.85,4.16-2.1,3.61-4.85c-.55-2.75-1.99-4.09-4.37-3.51s-3.05,2.13-2.75,3.51Z" fill="#4D4E4E" stroke="#2a2a2a" stroke-miterlimit="10" stroke-width=".21"/><path d="M635.16,101.37s.9,2.48,2.45,2.27,2.35-2.55,2.35-3.79-1.24-1.96-2.86-1.7-2.66,1.91-1.93,3.22Z" fill="#4D4E4E" stroke="#2a2a2a" stroke-miterlimit="10" stroke-width=".21"/><path d="M707.31,204.07s2.22,1.88,3.33.39.75-2.55-.39-3.25-2.35-.85-2.94.28-.8,2.04,0,2.58Z" fill="#4D4E4E" stroke="#2a2a2a" stroke-miterlimit="10" stroke-width=".21"/><path d="M701.53,191.58s-2.55-2.5-4.26-1.08c-1.7,1.42-1.37,2.97.54,4.98,2.27,2.37,4.18,1.78,5.08.67.9-1.11.52-3.04-1.37-4.57Z" fill="#4D4E4E" stroke="#2a2a2a" stroke-miterlimit="10" stroke-width=".21"/><path d="M682.55,173.06s-3.51-2.34-5.64,0-1.38,4.51.72,6.33c2.1,1.82,5.74,2.03,7.12-.24s.31-4.57-2.2-6.09Z" fill="#4D4E4E" stroke="#2a2a2a" stroke-miterlimit="10" stroke-width=".21"/><path d="M649.78,159.68s-3.51-1.17-4.71.28c-1.2,1.44-.21,4.02,2.61,5.06s6.02.41,6.6-1.75-1.48-2.89-4.51-3.58Z" fill="#4D4E4E" stroke="#2a2a2a" stroke-miterlimit="10" stroke-width=".21"/><path d="M640.18,153.53s-3.54-2.3-5.43-.48-.83,3.93,1.2,5.54c2.03,1.61,4.99,2.27,6.36.34,1.38-1.93.55-3.82-2.13-5.4Z" fill="#4D4E4E" stroke="#2a2a2a" stroke-miterlimit="10" stroke-width=".21"/><path d="M70.53,83.92s-3.87,1.29-6.45,4.28-3.56,8.15,0,11.56,11.66,5.67,14.6.46,2.37-13.31-.41-15.42c-2.79-2.12-5.92-1.67-7.74-.88Z" fill="#4D4E4E" stroke="#2a2a2a" stroke-miterlimit="10" stroke-width=".21"/><path d="M386.48,129.14s-2.58-1.19-3.77.28-.41,3.3,1.44,4.15,4.46,1.24,5.06-.54c.59-1.78-.67-3.15-2.73-3.9Z" fill="#4D4E4E" stroke="#2a2a2a" stroke-miterlimit="10" stroke-width=".21"/><path d="M402.99,144.66s-4.44-2.06-5.64-.38-.24,3.78,2.48,5.02,6.43,2.3,7.22.34-.48-3.68-4.06-4.99Z" fill="#4D4E4E" stroke="#2a2a2a" stroke-miterlimit="10" stroke-width=".21"/><path d="M416.82,151.15s-4.47-2.17-6-.17c-1.53,1.99-.64,4.2,2.39,5.74,3.03,1.55,6.74,2.96,7.81.65,1.07-2.3-.45-4.78-4.2-6.22Z" fill="#4D4E4E" stroke="#2a2a2a" stroke-miterlimit="10" stroke-width=".21"/><path d="M428.37,163.11s-2.17-.81-3.33.43c-1.16,1.24-.18,3.5,1.29,4.1,2.24.93,3.97.31,4.46-1.26s-.97-3.01-2.42-3.27Z" fill="#4D4E4E" stroke="#2a2a2a" stroke-miterlimit="10" stroke-width=".21"/><path d="M442.81,167.22s-3.04-.7-3.79.85c-.75,1.55.44,3.48,2.53,3.87s3.74-.44,4.02-2.22-1.7-2.19-2.76-2.5Z" fill="#4D4E4E" stroke="#2a2a2a" stroke-miterlimit="10" stroke-width=".21"/><path d="M459.57,130.15s-3.3-1.03-4.44.93c-1.13,1.96.31,3.68,2.68,4.23s5.52.52,6.05-1.69c.52-2.2-3.08-3.24-4.29-3.47Z" fill="#4D4E4E" stroke="#2a2a2a" stroke-miterlimit="10" stroke-width=".21"/><path d="M483.65,137.02s-4.13-2.45-5.16-2.97-2.66-.93-3.51,0-.7,2.37.98,4.2,4.13,3.38,4.88,3.95,1.96.75,3.04-1.37c1.08-2.12.8-3.04-.23-3.82Z" fill="#4D4E4E" stroke="#2a2a2a" stroke-miterlimit="10" stroke-width=".21"/><path d="M482.46,147.55s.69,5.98,4.06,6.57c3.37.58,3.82-2.68,4.02-4.71s0-7.08-2.68-7.98c-2.68-.89-5.78,1.65-5.4,6.12Z" fill="#4D4E4E" stroke="#2a2a2a" stroke-miterlimit="10" stroke-width=".21"/><path d="M499.64,155.03s-4.47-4.26-7.05-2.13c-2.58,2.13-2.37,6.22.34,8.8s7.05,3.89,9.11,1.41c2.06-2.48.72-5.4-2.41-8.08Z" fill="#4D4E4E" stroke="#2a2a2a" stroke-miterlimit="10" stroke-width=".21"/><path d="M512.61,164.76s-3.25-2.94-5.1-.73c-1.54,1.84-1.09,2.81.51,4.23s5,3.71,6.19,1.7.35-3.69-1.6-5.21Z" fill="#4D4E4E" stroke="#2a2a2a" stroke-miterlimit="10" stroke-width=".21"/><path d="M458.56,68.54s-3.66-1.11-4.67.75c-1.01,1.86-.08,3.57,2.33,4.52,2.41.95,5.2.67,5.74-1.37s-.95-3.46-3.4-3.89Z" fill="#4D4E4E" stroke="#2a2a2a" stroke-miterlimit="10" stroke-width=".21"/><path d="M469.07,71.81s-2.85-.93-4.16,1c-1.31,1.93.58,3.65,2.08,4.57s4.73,1.03,5.62-1.31-1.99-3.89-3.54-4.26Z" fill="#4D4E4E" stroke="#2a2a2a" stroke-miterlimit="10" stroke-width=".21"/><path d="M482.76,78.17s-4.68-2.44-6.02-.38c-1.44,2.22-1.62,4.78.86,6.09,2.48,1.31,7.77,2.27,8.46-.28.69-2.54-.71-4.35-3.3-5.43Z" fill="#4D4E4E" stroke="#2a2a2a" stroke-miterlimit="10" stroke-width=".21"/><path d="M491.64,90.16s2.58,3.89,5.23,1.75c2.65-2.13.62-5.47-.96-6.4s-3.54-1.2-4.61,0c-1.07,1.2-.76,3.71.34,4.64Z" fill="#4D4E4E" stroke="#2a2a2a" stroke-miterlimit="10" stroke-width=".21"/><path d="M500.19,94.99s2.59.68,3.41-.67.34-3.61-1.48-3.85-2.96.45-3.16,1.75c-.21,1.31.52,2.53,1.23,2.76Z" fill="#4D4E4E" stroke="#2a2a2a" stroke-miterlimit="10" stroke-width=".21"/><path d="M525.01,103.05s-2.37-.74-3.13.21c-.76.95-.55,2.3.95,3.23s4.23,1.63,4.87,0-.57-2.96-2.68-3.44Z" fill="#4D4E4E" stroke="#2a2a2a" stroke-miterlimit="10" stroke-width=".21"/><path d="M523.53,175.23s2.22,2.63,3.59,1.42c1.37-1.21.57-2.86-.62-3.92-1.19-1.06-2.53-1.99-3.61-1.24s-.34,2.8.64,3.74Z" fill="#4D4E4E" stroke="#2a2a2a" stroke-miterlimit="10" stroke-width=".21"/><path d="M527.84,180.93s2.74,3.71,4.72,1.65.75-3.59-.52-4.59-3.05-1.99-4.21-.7-.8,2.73,0,3.64Z" fill="#4D4E4E" stroke="#2a2a2a" stroke-miterlimit="10" stroke-width=".21"/><path d="M532.73,186.78s2.31,3.27,3.53,4.77c1.22,1.51,2.99,1.78,4.46.7s2.58-2.82,1.2-4.88-3.48-4.16-4.29-4.68-2.3-1.13-4.03.31c-1.47,1.22-1.65,2.27-.88,3.78Z" fill="#4D4E4E" stroke="#2a2a2a" stroke-miterlimit="10" stroke-width=".21"/><path d="M546.78,196.28s-4.23-2.54-5.88-1.03c-1.65,1.51-.48,4.22,2.13,6.41,2.61,2.19,5.95,3.84,7.46,1.98,1.51-1.86.52-5.09-3.71-7.36Z" fill="#4D4E4E" stroke="#2a2a2a" stroke-miterlimit="10" stroke-width=".21"/><path d="M535.74,229.28s2.61,1.75,4.13.26.46-3.92-1.29-4.54-2.9.09-3.41,1.06-.46,2.69.57,3.22Z" fill="#4D4E4E" stroke="#2a2a2a" stroke-miterlimit="10" stroke-width=".21"/><path d="M570,258.13s-2.91-1.78-4.1-2.55-2.4-.9-3.02,0-.88,1.57.23,2.55,4.64,3.04,5.83,3.74,2.32.62,2.91-.64-.28-2.13-1.86-3.1Z" fill="#4D4E4E" stroke="#2a2a2a" stroke-miterlimit="10" stroke-width=".21"/><path d="M559.03,250.81s-2.99-2.71-4-3.43-2.32-1.42-3.59,0,.03,2.5.93,3.43,3.69,2.89,4.51,3.46,2.09.62,2.91-.49.2-2.1-.77-2.97Z" fill="#4D4E4E" stroke="#2a2a2a" stroke-miterlimit="10" stroke-width=".21"/><path d="M642.99,317.83s1.81,3.61,4,2.42,1.44-3.43.8-4.46c-.64-1.03-2.19-2.01-3.77-1.13s-1.39,2.56-1.03,3.17Z" fill="#4D4E4E" stroke="#2a2a2a" stroke-miterlimit="10" stroke-width=".21"/><path d="M653.13,337.11s.9,3.66,2.24,3.28.9-2.24.49-3.64-.83-3.15-2.14-2.79-.9,2.16-.59,3.15Z" fill="#4D4E4E" stroke="#2a2a2a" stroke-miterlimit="10" stroke-width=".21"/><path d="M661.39,346.65s2.35,3.43,2.67,3.89.79,1.41,0,2.06-1.74.28-2.27-.46-2.37-3.59-2.79-4.16-.65-1.46.22-2.01,1.55-.21,2.16.68Z" fill="#4D4E4E" stroke="#2a2a2a" stroke-miterlimit="10" stroke-width=".21"/><path d="M540.82,255.52s-1.78-.54-2.22.72-.18,1.91.93,2.45,2.32.13,2.73-.7-.18-2.19-1.44-2.48Z" fill="#4D4E4E" stroke="#2a2a2a" stroke-miterlimit="10" stroke-width=".21"/><path d="M517.82,239.19s-6.84-4.37-8.84-5.57-3.16-1.24-4.13-.17-.89,2.75.72,3.99c1.62,1.24,8.22,4.78,9.8,5.78s3.3.83,4.02-.62-.42-2.66-1.58-3.4Z" fill="#4D4E4E" stroke="#2a2a2a" stroke-miterlimit="10" stroke-width=".21"/><path d="M485.02,231.52s-3.3-1.79-4.81.17c-1.51,1.96-.86,4.44,1.48,5.85s5.92,1.79,6.95-.86c1.03-2.65-1.17-4.23-3.61-5.16Z" fill="#4D4E4E" stroke="#2a2a2a" stroke-miterlimit="10" stroke-width=".21"/><path d="M475.19,226.3s-4.54-3.25-6.29-1.2c-1.75,2.05-.13,4.08,2.01,5.67,2.14,1.59,5.16,2.93,6.53.69,1.37-2.24.02-3.89-2.24-5.16Z" fill="#4D4E4E" stroke="#2a2a2a" stroke-miterlimit="10" stroke-width=".21"/><path d="M464.1,219.33s-2.26-1.5-3.65-.4c-1.39,1.11-.49,2.91,1.08,4.2,1.57,1.29,3.35,1.44,4.26,0s.4-2.72-1.69-3.81Z" fill="#4D4E4E" stroke="#2a2a2a" stroke-miterlimit="10" stroke-width=".21"/><path d="M461.68,247.34s-.76,2.85,1.75,3.96,4.37-.14,4.81-1.98c.45-1.84-.58-3.8-2.48-4.14s-4.01.73-4.09,2.17Z" fill="#4D4E4E" stroke="#2a2a2a" stroke-miterlimit="10" stroke-width=".21"/><path d="M460.8,233.28s-2.73-1.26-3.15.1c-.41,1.37-.64,3.1.9,4s4.19.64,4.57-.59c.38-1.24-.95-3.06-2.33-3.51Z" fill="#4D4E4E" stroke="#2a2a2a" stroke-miterlimit="10" stroke-width=".21"/><path d="M443.48,223.06s-1.62-.79-3.16-1.38-2.85-.41-3.61,1.55-.28,3.1,1.17,3.85,2.3.9,3.54,1.16,2.17-.61,2.65-1.88c.48-1.27.59-2.76-.58-3.3Z" fill="#4D4E4E" stroke="#2a2a2a" stroke-miterlimit="10" stroke-width=".21"/><path d="M454.14,231.69s-2.79-.24-3.75-1.75-2.99-4.95-5.3-2.96-2.54,5.45-.52,5.77,3.51,1.14,5.12,2.97c1.62,1.82,4.45,3.43,6.33,1.27,1.44-1.65.58-5.16-1.89-5.3Z" fill="#4D4E4E" stroke="#2a2a2a" stroke-miterlimit="10" stroke-width=".21"/></g><g id="sand"><path d="M626.73,340.49s-1.44-.83-2.63.13-.64,2.58,0,3.33,2.06.85,3.02-.49c.95-1.34.59-2.32-.39-2.97Z" fill="#9B9B9B" stroke="#7a7a7a" stroke-miterlimit="10" stroke-width=".32"/><path d="M628.01,332.11s-1.03-.79-.86-1.65.02-2.94-1.13-3.78-1.82.52-1.99,1.75c-.17,1.24-.15,1.31-.43,1.89s.33,1.44.96,2.06.58,2.41,1.89,2.44,2.43-1.41,1.56-2.72Z" fill="#9B9B9B" stroke="#7a7a7a" stroke-miterlimit="10" stroke-width=".32"/><path d="M609.08,339.5s.53,2.36.92,4.12c.39,1.75.39,2.58.54,3.59s.64,2.68-.54,2.99-2.12-1.11-2.04-2.66c.08-1.55-1.03-3.04-1.44-4.08s-.62-3.87.44-5.29,1.89.28,2.12,1.32Z" fill="#9B9B9B" stroke="#7a7a7a" stroke-miterlimit="10" stroke-width=".32"/><path d="M602.15,329.7s-3.92-4.66-5.3-7.48c-1.38-2.82-2.24-4.13-2.61-4.93s-1.52-1.81-2.48-1.19-.1,1.75.54,2.3,1.75,2.95,2.64,5.94c.89,2.99,1.75,5.54,2.61,6.53s1.13,1.51,1.65,2.96c.52,1.44,1.69,2.79,3.51,1.79,1.82-1,1.82-2.9-.58-5.92Z" fill="#9B9B9B" stroke="#7a7a7a" stroke-miterlimit="10" stroke-width=".32"/><path d="M583.35,269.07s.98,2.06,1.65,2.01,1.44-1.7.93-2.97c-.52-1.26-2.06-1.34-2.58-.96s-.23,1.47,0,1.92Z" fill="#9B9B9B" stroke="#7a7a7a" stroke-miterlimit="10" stroke-width=".32"/><path d="M580.66,253.24s-.23.93-1.19,1.7-1.93,2.19-.88,3.12,1.42,1.75,1.68,2.91c.26,1.16.93,2.68,2.24,2.42s1.32-1.44.95-2.61c-.36-1.16-.52-2.06.21-3.43.72-1.37,1.06-2.79.16-3.89-.9-1.11-2.54-1.38-3.17-.23Z" fill="#9B9B9B" stroke="#7a7a7a" stroke-miterlimit="10" stroke-width=".32"/><path d="M612.42,263.99s-1.16.62-1.7,0-.83-1.73-2.63-1.55-2.27,1.26-1.39,2.61c.88,1.34,2.76,1.11,4.64,2.37s4.22,3.33,5.38,2.22c1.17-1.11-.12-2.61-.92-3.28s-1.5-1.34-1.65-1.93-.95-.69-1.73-.44Z" fill="#9B9B9B" stroke="#7a7a7a" stroke-miterlimit="10" stroke-width=".32"/><path d="M604.71,253.42s-2.61-.54-3.22-1.65-2.53-2.22-3.89-1.37-.26,3.92,1.37,5.31,3.84,3.4,5.37,3.66,3.15-1.11,3.07-2.71c-.08-1.6-.98-2.91-2.68-3.25Z" fill="#9B9B9B" stroke="#7a7a7a" stroke-miterlimit="10" stroke-width=".32"/><path d="M461.39,49.43s-.46-1.15-1.51-1.27-1.58-.89-2.51-.28-.69,1.89.48,2.92,2.89.79,3.39.38c.58-.48.15-1.75.15-1.75Z" fill="#9B9B9B" stroke="#7a7a7a" stroke-miterlimit="10" stroke-width=".32"/><path d="M497.77,51.98s-1.88.52-2.55.13-2.12-.98-2.58-.26.8,2.3,1.83,2.48,1.5-.36,2.27.39,2.66.26,2.68-.95-.23-2.03-1.65-1.78Z" fill="#9B9B9B" stroke="#7a7a7a" stroke-miterlimit="10" stroke-width=".32"/><path d="M501.2,72.71s-2.52-1.99-4.44-3.96-3.53-3.66-4.75-3.12.59,1.91,1.32,2.68,3.97,4.62,5.31,5.83,3.04,1.63,3.79.85-.8-1.94-1.23-2.29Z" fill="#9B9B9B" stroke="#7a7a7a" stroke-miterlimit="10" stroke-width=".32"/><path d="M510.99,68.04s.57,1.88,1.93,1.78,1.08-2.04.36-3.1-2.94-1.55-2.3,1.32Z" fill="#9B9B9B" stroke="#7a7a7a" stroke-miterlimit="10" stroke-width=".32"/><path d="M605.24,241.82s-2.28-1.09-2.67-2.42-.28-2.3-1.19-2.3-1.56,1.13-1.72,3.2,2.03,3.16,3.25,3.53,3.59,1.29,4.06.83.28-1.84-1.73-2.83Z" fill="#9B9B9B" stroke="#7a7a7a" stroke-miterlimit="10" stroke-width=".32"/><path d="M580.33,233.56s.83,1.2.69,2.54.48,4.08,1.81,4.06,2.17-2.84,1.67-4.13c-.5-1.29-.83-1.82-.89-2.72s-1.03-2.29-2.29-2.15-1.44,1.46-.98,2.39Z" fill="#9B9B9B" stroke="#7a7a7a" stroke-miterlimit="10" stroke-width=".32"/><path d="M567.1,228.6s-2.19-1.57-4.08-1.03-3.04,3.46-4.59,3.92-2.61-1.47-2.09-2.73,1.81-1.01,3.12-1.78,3.02-1.95,4.67-2.53,3.7.45,5.17,2.2c1.46,1.75,2.08,2.19,2.16,3.66s1.16,1.68,1.08,3.46.59,3.71,1.08,4.93.83,2.35.15,2.76-.9.62-.75,1.01.13,1.19-.57,1.65-.64,1.39-1.03,2.76-1.68,2.81-3.87,3.02-2.66-1.93-1.34-2.48,4.28-.75,3.79-2.42-.52-2.5.64-3.35,1.26-2.32.77-3.38-.93-1.99-.75-3.46c.18-1.47-.23-3.02-1.26-4.05s-2.32-2.14-2.32-2.14Z" fill="#9B9B9B" stroke="#7a7a7a" stroke-miterlimit="10" stroke-width=".32"/><path d="M558.83,238.58s.43.83.12,1.34-.17,1.34.53,1.43,1.91-1.26,1.67-2.77c-.24-1.51-.88-2.17-1.98-1.99s-.46,1.7-.34,1.99Z" fill="#9B9B9B" stroke="#7a7a7a" stroke-miterlimit="10" stroke-width=".32"/><path d="M528.83,229.24s-4.95-1.77-7.08-2.53-3.39-1.31-5.05-1.41-2.55-2.47-2.97-3.43-5.23-5.23-7.94-7.06-3.71-2.65-4.64-1.96,2.48,5.92,3.27,7.36.86,1.87,2.48,1.66,3.25.37,3.52,2.26c.27,1.89,2.74,3.71,5.22,4.13,2.48.41,4.64.65,5.61,1.96s5.02,4.62,7.88,3.62c2.85-1,3.24-3.22-.28-4.6Z" fill="#9B9B9B" stroke="#7a7a7a" stroke-miterlimit="10" stroke-width=".32"/><path d="M562.03,204.38s1.11,1.91,1.75,2.97,2.24.95,2.73,0,.21-1.88-.93-2.97-2.09-2.19-2.91-1.88-1.13,1.06-.64,1.88Z" fill="#9B9B9B" stroke="#7a7a7a" stroke-miterlimit="10" stroke-width=".32"/><path d="M663.13,147.28s-.72,2.84.52,3.84,3.71-1.06,4.36-3.02c.64-1.96.41-3.69-1.11-4.08s-3.02.9-3.77,3.25Z" fill="#9B9B9B" stroke="#7a7a7a" stroke-miterlimit="10" stroke-width=".32"/><path d="M662.27,141.09s.07,1.86,1.44,2.15,2.25-1.6,1.99-2.37-.46-2.03-1.26-2.2-2.27,1-2.18,2.43Z" fill="#9B9B9B" stroke="#7a7a7a" stroke-miterlimit="10" stroke-width=".32"/><path d="M650.23,138.43s-.7-.59-1.07-.83-.66.45,0,.95,1.34,1.21.95,2.16-.1,1.75,1.44,3.02,2.73,2.37,2.91,4.82c.18,2.45-.85,3.51-2.73,2.48s-1.55-1.88-1.99-2.89-.67-1.16-1.65-1.73-1.57-1.38-1.52-2.46c.05-1.08-.18-1.13-1.29-3.24s-1.44-4.8-.13-6.32,2.53-1.96,2.3-3.95.92-2.76,1.94-2.63,1.33.67,1.64,2.71c.31,2.04.1,2.22-.72,2.04s-.75.54.15,1.16,1.6,1.65,1.34,3.25-.86,2.03-1.58,1.45Z" fill="#9B9B9B" stroke="#7a7a7a" stroke-miterlimit="10" stroke-width=".32"/><path d="M627.16,109.48s.39,2.73-.1,4.08-.75,3.2.54,3.56,2.79-1.73,2.87-3.46c.07-1.73-.74-5.08-1.9-5.57s-1.5.46-1.4,1.39Z" fill="#9B9B9B" stroke="#7a7a7a" stroke-miterlimit="10" stroke-width=".32"/><path d="M607.91,109.64s2.14,1.86,2.91,3.56,1.7,2.24,2.91,1.6,1.01-3.02-.36-4.8c-1.37-1.78-3.51-4.36-5.08-4.72s-2.52.61-1.63,2.3,1.24,2.06,1.24,2.06Z" fill="#9B9B9B" stroke="#7a7a7a" stroke-miterlimit="10" stroke-width=".32"/><path d="M620.37,94.14s-1.24-.21-1.67-.83-1.08-1.34-1.7-.93-.53,1.15,0,1.75.74,1.08.84,1.93c.17,1.38,1.67,1.69,2.75.98,1.08-.71,1.31-2.65-.22-2.91Z" fill="#9B9B9B" stroke="#7a7a7a" stroke-miterlimit="10" stroke-width=".32"/><path d="M600.92,100.38s-2.81-2.84-3.74-4.05-1.63-2.79-3.07-2.17-.39,3.28,1.19,4.98c1.57,1.7,3.64,3.61,4.88,3.74s1.91-1.06.75-2.5Z" fill="#9B9B9B" stroke="#7a7a7a" stroke-miterlimit="10" stroke-width=".32"/><path d="M594.98,78.35s-.76.12-1.53-.28-1.7-.38-1.94.4.58,2.06,1.62,2.84,2.12.28,2.68-.6.57-2.63-.83-2.36Z" fill="#9B9B9B" stroke="#7a7a7a" stroke-miterlimit="10" stroke-width=".32"/><path d="M553.45,78.17s2.89,3.37,4.1,4.9,2.14,2.32,3.15,1.93.85-1.42.23-2.37-1.19-2.4-1.88-3.74-2.35-2.79-2.86-3.22-1.03-.57-1.93.13-1.4,1.68-.8,2.38Z" fill="#9B9B9B" stroke="#7a7a7a" stroke-miterlimit="10" stroke-width=".32"/><path d="M537.22,66.58s3.09,2.43,4.38,4.16c1.29,1.73,2.66,2.37,3.51,1.78s.36-2.27-1.13-4.31c-1.5-2.04-3.53-3.89-5.03-4.33s-2.35.28-2.48,1.05.39,1.35.77,1.65Z" fill="#9B9B9B" stroke="#7a7a7a" stroke-miterlimit="10" stroke-width=".32"/><path d="M526.9,80.67s-1.77.14-2.08-.84-1.07-1.91-2.34-1.32-1.86,2.08-1.01,3.13,1.48.72,2.27.62.71.43,2.15.53,2.01-.41,2.03-1.13-.44-.97-1.01-.98Z" fill="#9B9B9B" stroke="#7a7a7a" stroke-miterlimit="10" stroke-width=".32"/><path d="M602.41,147.25s-5.52.21-11.14-2.42c-5.62-2.63-9.96-6.06-11.5-7.47s-3.44-2.41-4.3-1.51.79,3.54,5.95,7.33,12.69,7.77,17.2,8.15,6.33-.38,6.67-1.82-.96-2.65-2.87-2.25Z" fill="#9B9B9B" stroke="#7a7a7a" stroke-miterlimit="10" stroke-width=".32"/><path d="M9.31,55.18s-.38-1.41-.92-2.39-1.37-3.46.18-4.54,4.2.21,3.48,1.81c-.72,1.6-1.24,3.35-.36,4.9.88,1.55,2.24,1.19,1.91.39s-.54-2.01.83-2.14,2.22.83,2.09,2.35c-.13,1.52-.26,3.04,1.44,3.71s1.99.08,3.3.59,1.65,1.24.72,1.78-3.51.62-4.28,0-1.5-.52-2.06-.57-.9-.8-.88-1.55-.18-1.44-1.16-1.26-1.87-.2-2.73-.9c-1.42-1.16-1.56-2.18-1.56-2.18Z" fill="#9B9B9B" stroke="#7a7a7a" stroke-miterlimit="10" stroke-width=".32"/><path d="M21.96,48.76s-.98-.6-1.43-1.31-1.48-1.75-3.16-1.17-1.44,2.7-.55,3.96c.89,1.26,2.29.71,2.77.28s.79-.38,1.44.05,1.32.09,1.6-.43-.32-1.13-.67-1.38Z" fill="#9B9B9B" stroke="#7a7a7a" stroke-miterlimit="10" stroke-width=".32"/><path d="M23.64,44.17s-1.22.89-.94,2.25,1.65,1.27,2.27,2.14,1.74,2.28,3.4,2.14,1.5-1.43,1.1-1.87-.46-.36-1.75-.58-1.79-.96-1.24-1.41,1.07-1.12.5-2.05-2.24-1.48-3.34-.62Z" fill="#9B9B9B" stroke="#7a7a7a" stroke-miterlimit="10" stroke-width=".32"/><path d="M27.26,52.95s-1.86-.43-2.53-.38-1.45-.56-2.08,0-.76,1.71.87,2.36,3.65.34,4.19-.62-.03-1.36-.46-1.36Z" fill="#9B9B9B" stroke="#7a7a7a" stroke-miterlimit="10" stroke-width=".32"/><path d="M33.24,67.46s0,1.92,1.56,2.54,3.64.44,4.77,1.13,2.55,2.58,3.43,1.88.67-1.73,0-2.3-1.32-1.73-2.04-1.99-1.21-.98-.83-1.42-.15-1.78-1.32-2.53-2.79.08-2.37,1.34-.03,2.06-.93,1.75-.64-.83-.21-1.63-.13-1.6-1.03-1.65-1.76,1.1-1.52,1.78c.19.54.44.69.48,1.07Z" fill="#9B9B9B" stroke="#7a7a7a" stroke-miterlimit="10" stroke-width=".32"/><path d="M78.19,75.08s-.14.96-.77,1.01-1.44-.6-1.94,0,.33,1.93,1.19,2.39.93-.21,1.53-.07,2.58-.74,1.99-2.24-1.67-2.18-1.99-1.1Z" fill="#9B9B9B" stroke="#7a7a7a" stroke-miterlimit="10" stroke-width=".32"/><path d="M86.58,112.62s-.64,1.08-1.42,1.32-2.45,1.83-2.07,4.14c.38,2.3,2.75,3.65,3.22,5.01s-.23,1.7.59,1.99.59.77,1.32,1.93c.72,1.16,1.84.85,2.66-.59s.52-2.63-.52-3.17-2.06-1.76-1.73-3.07.72-3.53.8-4.59.22-1.24-.45-2.27-1.56-1.86-2.4-.69Z" fill="#9B9B9B" stroke="#7a7a7a" stroke-miterlimit="10" stroke-width=".32"/><path d="M92.18,108.69s-.74-.21-1.12-.58-1.08-1.08-1.84-.33-1.29,3.63,0,4.88,3.66.05,4.3-.74c.64-.79-.03-1.53-.17-2.12s-.53-1.19-1.17-1.12Z" fill="#9B9B9B" stroke="#7a7a7a" stroke-miterlimit="10" stroke-width=".32"/><path d="M94.03,112.71s-.86.77-1.72.98-2.28,1.13-2.15,2.96,1.5,1.99,2.37,1.5,1.19-.23,1.5.49,1.06.88,1.83.54.62-.57.41-1.32-.39-.64.17-1.21.01-1.06-.27-1.99-.05-1.97-.53-2.24-1.19-.26-1.61.29Z" fill="#9B9B9B" stroke="#7a7a7a" stroke-miterlimit="10" stroke-width=".32"/><path d="M114.09,116.01s-1.12-.76-1.56-1.43-1.26-1.34-1.75-1-.52.89,0,1.58.57,1.13.98,1.89,1.34,1.38,2.22.86.77-1.24.12-1.91Z" fill="#9B9B9B" stroke="#7a7a7a" stroke-miterlimit="10" stroke-width=".32"/><path d="M100.98,130.61s-1.65.19-1.75,1.29c-.1,1.1.83,1.55,1.56,1.56s1.62-.57,1.63-1.55-.99-1.4-1.44-1.31Z" fill="#9B9B9B" stroke="#7a7a7a" stroke-miterlimit="10" stroke-width=".32"/><path d="M258.06,40.06s-.62,1.42-1.03.98-1.01-1.04-2.32.08-1.52,2.08-1.7,2.78-.57.64-1.32.88-.53,2.01.49,3.2,1.54,1.13,2.21,0c.67-1.13,1.65-2.01,2.68-2.19s2.27-1.6,3.64-1.13,3.17-.23,3.33-1.26-.39-1.65,0-2.19.49-1.21-.1-1.78-1.26-.41-1.75,0-1.19.41-1.99.21-1.76-.24-2.14.44Z" fill="#9B9B9B" stroke="#7a7a7a" stroke-miterlimit="10" stroke-width=".32"/><path d="M292.42,20.07s-1.42-.26-1.81,0-2.17-.21-2.73.36-1.65.9-1.88,1.5-2.24,1.52-.85,3.07,4.13,2.73,4.59,1.44c.46-1.29,1.26-1.7,1.93-1.86s1.06,0,1.19-.93.34-1.47.8-1.91.57-1.68-1.24-1.68Z" fill="#9B9B9B" stroke="#7a7a7a" stroke-miterlimit="10" stroke-width=".32"/><path d="M298.86,21.88s-.46,1.65-1.21.8-1.83-1.73-2.84-.7c-1.01,1.03-.75,2.42-.36,3.22s-.08,1.19-.83.77-1.19-.67-1.16.17-1.52,1.02-1.39,2.1.85,1.11,2.37,1.08,4.57.57,5.13-.39-.21-1.61,1.26-1.95,2.5-.88,2.63-1.61-.67-1.32-.46-1.91,0-1.22-1.03-1.57-1.89-.58-2.12-.03Z" fill="#9B9B9B" stroke="#7a7a7a" stroke-miterlimit="10" stroke-width=".32"/><path d="M317.18,45.53s-1.39,1.26-2.06,1.06-1.55-1.35-2.48-.12c-.93,1.23-1.06,3.47.41,3.94s3.38-.67,4.46-1.83c1.08-1.16,1.78-2.22,1.32-2.89s-1.3-.45-1.65-.15Z" fill="#9B9B9B" stroke="#7a7a7a" stroke-miterlimit="10" stroke-width=".32"/><path d="M331.08,40.15s-1.5-1.29-2.3-.67-1.75.83-2.73-.67-.31-3.12,2.12-4.44,3.59.23,3.69,1.39.75,1.86,1.16,2.73-.35,2.48-1.93,1.65Z" fill="#9B9B9B" stroke="#7a7a7a" stroke-miterlimit="10" stroke-width=".32"/><path d="M331.51,58.11s-5.12,1.82-8.01,2.27-6.19.48-6.53,2.06c-.34,1.58,1.93,3.45,5.4,2.82s4.88-2.21,6.95-2.65,4.2-1.66,4.57-2.87,0-2.42-2.37-1.63Z" fill="#9B9B9B" stroke="#7a7a7a" stroke-miterlimit="10" stroke-width=".32"/><path d="M342.2,60.07s-2.13-1.41-3.68-1.93-2.06-.24-3.1.96-2.58,2.61-1.69,3.54,2.61,1.13,3.82.34,2.54-.58,3.66-.41,1.78-.31,1.95-.79-.04-1.15-.96-1.72Z" fill="#9B9B9B" stroke="#7a7a7a" stroke-miterlimit="10" stroke-width=".32"/><path d="M389.56,50.73s-1.22.21-2.65-.1-2.63-.41-3.28.89c-.65,1.31,1.6,2.34,2.6,2.22s2.13-.1,3.16.31,2.42,0,2.54-1.26c.12-1.26-.71-2.1-2.37-2.06Z" fill="#9B9B9B" stroke="#7a7a7a" stroke-miterlimit="10" stroke-width=".32"/><path d="M397.73,73.59s-2.42,1.16-2.76.44-.75-2.22-2.86-1.47-2.24,2.89-.44,3.61,3.74,1.34,5.06.98,1.68-.34,3.3.34,3.15.13,2.22-1.68-2-2.85-4.51-2.22Z" fill="#9B9B9B" stroke="#7a7a7a" stroke-miterlimit="10" stroke-width=".32"/><path d="M231.21,106.44s-1,1.34-.28,2.13,1.07,1.5.28,1.84-1.55-.22-1.82-1.13c-.28-.91-1.55-1.01-3.08-.72s-1.53.96-1.19,1.43.54.72-.19.79-1.02,1.39.44,2.65,2.96.66,3.63-.17.55-1.23,1.75-1.29,1.67-1.32,2.12-1.99-.15-1.48-.55-2.18-.31-.95-.1-1.46-.28-.95-1.01.12Z" fill="#9B9B9B" stroke="#7a7a7a" stroke-miterlimit="10" stroke-width=".32"/><path d="M212.61,123.18s-1.05,1.08-1.51.57-.69-1.93.09-1.46,1.41.07.62-.79-1.17-.96-1.89-.46-.74,1.26-.41,1.87-.96,1.07-1.79.98-1.94.14-1.91.93-1.58,1.19-1.38,2.53,1.27.96,1.94.55.96.17,1.34,1,.97.72,1.34,0,1.65.21,2.08,1.39,1.27,1.22,1.67.53.84-.96,1.72-.53,1.39-.24.96-.83-.89-.67-.1-1,.72-.96.55-1.38-1.29-.67-1.53-1.2-.76-1.36-.76-2.24-.48-1.24-1.03-.46Z" fill="#9B9B9B" stroke="#7a7a7a" stroke-miterlimit="10" stroke-width=".32"/><path d="M535.94,102.51s-3.75-2.65-5.37-4.68-2.89-2.44-7.29-2.58-6.43-.4-6.74,1.28c-.31,1.68,3.13,2.3,5.95,2.64s6.22,1.31,7.7,2.68c1.48,1.38,4.68,3.85,5.74,4.57s1.44.84,2.3-.12c.86-.96.1-2.35-2.3-3.8Z" fill="#9B9B9B" stroke="#7a7a7a" stroke-miterlimit="10" stroke-width=".32"/><path d="M560.46,115.67s-2.27.44-3.11-.15-.2-2.12-1.59-2.32-3.07,1.75-2.22,3.33,1.44,1.11,2.66,2.12,3.74,1.6,5.16.41,2.14-3.95-.9-3.38Z" fill="#9B9B9B" stroke="#7a7a7a" stroke-miterlimit="10" stroke-width=".32"/><path d="M559.46,189.54s-1.28-1.37-2.92-2.01-3.14-.88-3.53.39,1.91,3.53,3.1,4.38,3.25.57,3.95-.15.25-1.84-.59-2.61Z" fill="#9B9B9B" stroke="#7a7a7a" stroke-miterlimit="10" stroke-width=".32"/><path d="M554.13,184.02s-1.68-1.34-2.37-2.27-2.14-1.86-3.07-2.71-2.22-1.6-3.22-.64c-1.01.95-.03,3.79,1.68,5.06,1.7,1.26,3.04,1.32,4.05,2.3,1.01.98,2.5,1.47,3.38.52.88-.95.55-1.4-.44-2.24Z" fill="#9B9B9B" stroke="#7a7a7a" stroke-miterlimit="10" stroke-width=".32"/><path d="M571.28,177.73s-.95.39-1.25.09.62-1.43-.14-1.93-2.73.67-2.86,3.02,1.37,2.55,2.42,2.61,1.42,1.06,2.71,1.19,2.22-.67,1.42-1.73c-.8-1.06-1.13-1.79-1.22-2.49s-.29-.95-1.08-.76Z" fill="#9B9B9B" stroke="#7a7a7a" stroke-miterlimit="10" stroke-width=".32"/><path d="M557.19,169.94s-.21-.93-.85-1.44-1.06-2.24-2.94-1.83-2.32,2.22-1.77,3.46.84,2.45,2.23,2.32,1.9.08,2.67.28,1.54-.7.66-2.79Z" fill="#9B9B9B" stroke="#7a7a7a" stroke-miterlimit="10" stroke-width=".32"/><path d="M559.7,160.06s-1.21.1-1.52-.67-1.13-2.84-2.5-1.73-1.34,2.73,0,2.97,1.6.52,2.35,1.26,1.5.62,2.06,0,.44-1.74-.39-1.83Z" fill="#9B9B9B" stroke="#7a7a7a" stroke-miterlimit="10" stroke-width=".32"/><path d="M538.8,168.38s-1.96-2.75-2.65-3.65-2.48-2.2-4.16-3.06-2.79-1.58-2.37-2.89c.41-1.31,2.23-2.65,3.13-3.82s2.58-2.1,3.92-1.48,2.82-.03,2.82-1.24-.93-1.96-3.51-1.99-3.96-.1-4.61,1.48c-.65,1.58-2.58,3.03-3.99,5.4s-.48,4.47,1.38,5.67c1.86,1.2,4.78,3.03,5.81,5.02,1.03,1.99,2.06,3.71,3.65,3.34s1.13-2.02.58-2.79Z" fill="#9B9B9B" stroke="#7a7a7a" stroke-miterlimit="10" stroke-width=".32"/><path d="M529.47,131.7s-.74-.76-.83-1.24-.72-1.29-1.69-.83-.88,2.53,0,3.53,2.08.77,2.6.24.18-1.41-.09-1.7Z" fill="#9B9B9B" stroke="#7a7a7a" stroke-miterlimit="10" stroke-width=".32"/><path d="M522.77,122.3s-.64.26-1.19-.31-2.01-1.16-2.58-.41.05,3.02,1.39,3.66,2.73-.08,3.19-1.37-.36-1.78-.82-1.57Z" fill="#9B9B9B" stroke="#7a7a7a" stroke-miterlimit="10" stroke-width=".32"/><path d="M512.77,133.26s-.57-1.01-.54-2.06-1.24-2.97-2.14-2.37-1.55.62-2.61.44-2.04,0-2.53,1.26.1,1.93,1.06,2.3,1.29.36,2.06,1.65,2.32,1.91,3.4,1.26,1.64-1.65,1.29-2.48Z" fill="#9B9B9B" stroke="#7a7a7a" stroke-miterlimit="10" stroke-width=".32"/><path d="M507.03,110.59s-2.09-1.01-3.12-1.93-2.32-1.32-3.12-.23-.26,2.99,1.44,3.33,1.68.34,2.79.83,1.91.41,2.35-.26.18-1.47-.34-1.73Z" fill="#9B9B9B" stroke="#7a7a7a" stroke-miterlimit="10" stroke-width=".32"/><path d="M461.53,114.51s-10.32-3.66-16.51-5.83c-6.19-2.17-10.68-3.94-15.06-3.13s-6.29,2.14-6.14,3.72,3.56,1.61,5.47.56c1.91-1.05,3.71-1.38,8.1,0s15.53,4.78,18.57,6.43,7.57,4.38,9.18,3.73c1.62-.65,1.13-2.79-.38-3.82-1.51-1.03-3.23-1.67-3.23-1.67Z" fill="#9B9B9B" stroke="#7a7a7a" stroke-miterlimit="10" stroke-width=".32"/><path d="M405.29,122.19s-1.65-.13-2.73-.41-3.31-.15-3.97,1.68,1.06,2.79,2.43,3.04,1.96-.15,2.79-1.08,2.71-1.5,2.76-2.12-.14-.99-1.26-1.11Z" fill="#9B9B9B" stroke="#7a7a7a" stroke-miterlimit="10" stroke-width=".32"/><path d="M367.12,100.98s-5.98-2.48-8.74-3.2-4.02-1.41-4.71,0c-.69,1.41,1.24,2.17,3.4,2.65s5.74,1.41,8.08,2.65,3.82,1.55,4.2.7-.6-2.14-2.24-2.8Z" fill="#9B9B9B" stroke="#7a7a7a" stroke-miterlimit="10" stroke-width=".32"/><path d="M479.54,169.75s-1.21.46-2.06-.1-2.45-.98-3.28.28c-.83,1.27-.08,2.17,1.37,2.22s1.6.59,2.84,1.73,2.4,1.04,3.61.15,1.34-1.8.41-2.31-1.24-.93-1.39-1.42-.8-.83-1.5-.54Z" fill="#9B9B9B" stroke="#7a7a7a" stroke-miterlimit="10" stroke-width=".32"/><path d="M456.82,176.48s-.72.96-2.06.86-3.2.33-2.65,1.56.45,2.98-.72,3.12-3.91,2.37-4.41,4.71,2.18,3.82,3.42,2.24c1.24-1.58,1.03-1.86,1.79-2.37s1.17-1.34,1.34-2.54.72-1.38,2.79-2.48c2.06-1.1,2.72-1.82,2.68-3.34-.03-1.51-1.13-2.48-2.17-1.75Z" fill="#9B9B9B" stroke="#7a7a7a" stroke-miterlimit="10" stroke-width=".32"/><path d="M472.32,190.07s-1.07-.8-1.84-1.6-2.19-1.03-3.14.15-1.88,2.55-.75,2.99,3.87.28,4.93.21,1.82-.92.8-1.75Z" fill="#9B9B9B" stroke="#7a7a7a" stroke-miterlimit="10" stroke-width=".32"/><path d="M484.51,189.17s-2.76,1.59-2.84,2.52.98.77,2.24,1.11,1.52.75,1.96,1.37,1.55-.98,2.17-1.75.49-2.3-.34-2.99-1.95-1.05-3.2-.25Z" fill="#9B9B9B" stroke="#7a7a7a" stroke-miterlimit="10" stroke-width=".32"/><path d="M423.18,183.08s-.52.72-.1,1.52.58,1.81-.16,2.35-.97,1.11-.43,1.63.88,1.24.32,2.06-.53,1.52-.2,2.5.21,2.17-.43,2.42-.92-.77-1.64-1.32-1.39-1.63-.8-2.19,1.21-1.16.64-1.88-.77-1.88-.31-2.48.83-2.45.46-3.71-.77-2.58.72-3.02,2.5.72,1.91,2.12Z" fill="#9B9B9B" stroke="#7a7a7a" stroke-miterlimit="10" stroke-width=".32"/><path d="M408.24,167.89s-2.14-.93-3.35-1.65-1.73-.8-2.48.23c-.75,1.03.41,1.99,1.52,1.86s.77.72,1.57,1.5,1.52.08,1.78,1.26,1.32,2.86,2.66,2.63.85-1.81.44-3.04c-.7-2.06-2.14-2.79-2.14-2.79Z" fill="#9B9B9B" stroke="#7a7a7a" stroke-miterlimit="10" stroke-width=".32"/><path d="M412.26,198.24s-.74.12-1.01-.22-.91-.33-1.34.33-.28,1.55,1.27,2.36,2.75.65,2.91-.38-.71-2.22-1.82-2.08Z" fill="#9B9B9B" stroke="#7a7a7a" stroke-miterlimit="10" stroke-width=".32"/><path d="M409.15,196.34s-.4.03-.95-.58-1.24-1.31-2.05-.28c-.81,1.03-.48,2.24.1,2.42s1.13-.74,1.34-.19.91,1.81,1.55,1.01,1.13-2.3,0-2.39Z" fill="#9B9B9B" stroke="#7a7a7a" stroke-miterlimit="10" stroke-width=".32"/><path d="M401.93,192.61s-1.48-.64-1.94-.09-.22,1.19.4,1.74,1.74.55,2.15,0-.03-1.36-.6-1.65Z" fill="#9B9B9B" stroke="#7a7a7a" stroke-miterlimit="10" stroke-width=".32"/><path d="M275.66,112.76s-.7,1.32-1.6,1.08-1.52.34-1.42,1.08,2.79.85,3.92,2.32,1.65,2.68,1.47,3.97c-.18,1.29-.13.85.49,2.04s1.06,2.3,1.08,3.04.95.7,1.44-.54.46-2.45,0-3.02-.88-1.03-.39-1.7.75-2.66.44-3.35-.05-1.47-.67-1.91-.75-.39-.7-1.03,0-1.08-.72-1.01-1.16-.1-1.16-.62-1.53-1.18-2.19-.36Z" fill="#9B9B9B" stroke="#7a7a7a" stroke-miterlimit="10" stroke-width=".32"/><path d="M357.37,127.36c-.88-.72-1.88,1.39-2.42,1.06s-.77-.95-2.17-.36c-1.39.59-1.6,2.24-2.68,1.86-1.08-.38-.46-1.68.13-2.2.59-.52,1.52-.54,1.39-1.03s-1.34,0-1.91-.46c-.57-.46-1.75-.36-2.37.34-.62.7-2.01,1.26-2.48.75-.46-.52-1.03-2.99-1.78-4.62s-2.48-1.83-2.55-1.19.15,1.83.49,2.81c.34.98-1.44,1.86-2.76,1.6-1.32-.26-1.75-.08-2.35.52-.59.59-2.09.62-3.07.44-.98-.18-.39.83.52.8.9-.03.95,1.39,1.52,2.14.57.75-1.44,1.16-2.79.59-1.34-.57-2.3-.03-3.17.9-.88.93-1.21.05-2.19.34-.98.28-2.37-.23-2.14-.88.23-.64.7-.52,2.84-.26,2.14.26,1.81-2.24,1.81-2.24.03-1.6-1.06-1.99-1.57-1.52-.52.46-.52-.7-1.11-.52-.59.18-1.11,0-2.84-.44-1.73-.44-4.75-.34-6.04.9-1.29,1.24-1.42,1.73-3.04,2.09s-2.58,1.99-1.63,2.99,1.78.62,2.14,0,1.63-.72,2.24-1.29c.62-.57,2.32-1.11,3.04.1.72,1.21,1.86,1.42,2.55,1.13.7-.28.83.21,1.32.95.49.75.72,1.26,1.7,1.19.98-.08,1.16-.26,2.06.23s1.08-.41,1.83-1.34,1.19.08,1.19,1.08,1.5,1.03,2.06.54.72-.44,1.03,0c.31.44.36,1.24,1.55.95,1.19-.28,3.07-1.29,3.3-2.09.23-.8,2.45-1.37,4.21-1.63s4.18-.41,5.26.67c1.08,1.08,2.91.26,3.46-.9.54-1.16,2.01-1.21,2.89-.67.88.54,1.52.18,2.14-.8.62-.98.54-1.14,1.24-.93s.03-.9-.85-1.63ZM343.19,129.65c-.21.67-2.04.83-2.66.52-.62-.31-1.57,1.01-2.14.77-.57-.23-.41-1.6.67-1.88,1.08-.28,3.1-.15,3.1-.15.72.03,1.24.08,1.03.75Z" fill="#9B9B9B" stroke="#7a7a7a" stroke-miterlimit="10" stroke-width=".32"/><path d="M401.48,217.17s-.91.69-1.67.64-2.24.79-2.1,2.49c.14,1.7,3.25,3.01,4.16,1.77.91-1.24.93-1.22,1.94-1.63s.88-1.34.31-2.3-1.94-1.82-2.65-.96Z" fill="#9B9B9B" stroke="#7a7a7a" stroke-miterlimit="10" stroke-width=".32"/><path d="M394.29,217.29s-.96.86-1.75.58-1.2-.38-1.7.38-1.53.74-1.56.14-.44-.48-.82-.96-.97-.83-1.75-.05-.14,1.34.09,2.03.1,1.6.96,1.39.98.4,2.15.88,1.62.26,2.35-.38,1.76-1.01,2.57-.38,1.81.62,2.06-.03.19-.98-.33-1.56-.88-.95-.53-1.27.38-.69-.05-.65-.92-.59-1.69-.1Z" fill="#9B9B9B" stroke="#7a7a7a" stroke-miterlimit="10" stroke-width=".32"/><path d="M378.75,214.59s-.77.83-.93.38-.79-1.44-1.93-1.19-1,.58-1.7.84-1.13,1.1-.36,1.55,1.38,1.01,1.01,1.39.33,1.17,1.69,1.27,1.5-.12,2.22.15,1.79.14,1.96-.52.45-.89,1.31-1.1,1.31-.89.83-1.36,0-1.41-1.03-1.31-1.39.02-1.62-.19-.95-.35-1.44.07Z" fill="#9B9B9B" stroke="#7a7a7a" stroke-miterlimit="10" stroke-width=".32"/><path d="M373.15,205.74s1.41.24,1.62-.65.93-1.13,1.93-1.15,1.87-.65,1.27-1.82-1.12-1.38-1.58-.96-1.1.53-1.6-.07-1.41-.67-1.41.21.03,1.62-.62,1.48-1-.22-1.05.43-.45.84-1.44,1.08-1.12,1.65-.48,1.93.55.62.98,1.2.89.15,1.22-.46.69-1.23,1.17-1.2Z" fill="#9B9B9B" stroke="#7a7a7a" stroke-miterlimit="10" stroke-width=".32"/><path d="M379.54,198.61s.91.93.55,1.26-.71,2.1.08,2.82.74-.38,1.48-.28,1.94.04,2.41-1.12-.05-1.29-.69-1.78-.28-.83.17-1.36-.88-1.99-1.84-1.48-1.05-.29-1.63-.31-.9.4-1,.98c-.12.71.46,1.27.46,1.27Z" fill="#9B9B9B" stroke="#7a7a7a" stroke-miterlimit="10" stroke-width=".32"/><path d="M333.01,145.52s-2.96-.88-3.65-1.5-1.26-.83-1.91-.52-1.03.03-1.81-.76-1.28-.71-1.87-.15-1.53-.05-1.94-.6-2.12-1.08-3.05.57.54,3.2,2.19,3.95c1.65.75,3.77,2.14,5.57,2.73s1.91,2.12,3.69,2.48,2.37,1.52,2.5,2.12-.34,3.02,1.7,2.66,2.71-1.75,1.99-2.5-.98-1.13-.62-1.75.56-2.43-.05-4.15c-.7-1.96-2.74-2.56-2.74-2.56Z" fill="#9B9B9B" stroke="#7a7a7a" stroke-miterlimit="10" stroke-width=".32"/><path d="M406.46,184.76s-.76,1.31-2.1,1.05-2.68-.43-3.14.57.26,1.48.52,1.77-.79,1.29-1.46.1c-.67-1.19-1.12-2.48-2.91-2.18s-3.36.46-4.29-.46-2.61-1.75-3.89-1.42-2.27-.59-2.5-1.39-1.55-1.5-3.87-2.06-2.58-.44-3.12,0-2.12.18-1.73-.23.88-1.32-.54-1.21-2.14.26-2.86-.46-2.58-.98-3.51-.15-1.73.26-2.45-.08-2.04-.44-2.37.62,1.01,2.73,2.5,2.63,2.94-.39,4.51.67,2.42,1.28,4.08.98,4.05.75,5.44,1.63,7.12,2.27,8.87,3.43,4.75,2.89,6.4,2.63,2.91-.39,4.05.31,3.02.49,3.58-.67.75-1.01,2.19-2.01,1.93-2.35,1.57-3.38-1.84-1.92-2.98-.66Z" fill="#9B9B9B" stroke="#7a7a7a" stroke-miterlimit="10" stroke-width=".32"/><path d="M302.09,193.69s-1.86,1.24-2.45.83-.77-1.19,0-1.6,1.42-.83.15-.72-2.37-.39-3.77-1.24-3.35-1.7-4.72-.95-1.68.75-2.19.36-.18-.93-1.52-.28-2.5.03-2.4-.54.41-1.34-1.03-1.5-1.6.41-3.28.1-3.58.41-3.91,1.21-1.59,1.26-2.46.52-1.99-1.06-3.77-.17-.89,2.62-.34,3.17,2.76-.38,3.72.34,3.65,1.23,4.47.35,2.22-.26,4.38.56,3.67.26,5.19-.21,2.39.98,4.25,1.03,3.22.91,4.32.81,1.17,1.07,2.3,1.82,3.04-.55,3.63-1.17,1.38.8,1.69,1.4,1.34.94,1.99-.26c.65-1.2,1.62-1.62,1.99-.52.38,1.1,1.58,1.38,2.65,1.17s1.43.19,2.39.57,4.88-.41,5.37-1.51c.48-1.1,1.74-1.61,2.1-1.76s-.1-2.17-.52-1.37-.75,1.01-.75.49-.57-.7-.72-.31-1.06-.41-1.65.44-.93,1.78-1.88,1.68-1.47-.05-1.65.39-1.16.77-1.34-.1.72-.7,1.44-.62,1.91-.31,2.17-1.42c.26-1.11.98-1.63,1.93-1.5s1.86-.28,1.19-1.26c-.67-.98-2.63-1.7-4.46-.7-1.83,1.01-2.66,2.14-2.97,1.6s-1.57-.9-2.53-.52-1.01.58-.93,1.27-1.5.66-1.96.28-1.34-.41-1.52.08-1.34.8-1.44.18-.46-.85-.75-1.08-.41.1-.31.28-.11.39-.11.39Z" fill="#9B9B9B" stroke="#7a7a7a" stroke-miterlimit="10" stroke-width=".32"/><path d="M258.23,178.28s-1.03-.58-1.41-.98-1.79-1.19-2.92,0c-1.13,1.19-.55,2.48.51,3.56,1.06,1.08,2.59,1.89,3.83.79,1.24-1.1,1.04-2.71,0-3.37Z" fill="#9B9B9B" stroke="#7a7a7a" stroke-miterlimit="10" stroke-width=".32"/><path d="M240.36,155.58s-.6.36-1.24.19-1.24.26-1.62,1.03.48,2.17,1.19,3.01,1.27.55,1.77.21,2.24-.19,2.75-1.24,0-2.2-.81-2.8-1.62-.57-2.05-.4Z" fill="#9B9B9B" stroke="#7a7a7a" stroke-miterlimit="10" stroke-width=".32"/><path d="M215.5,153.1s-.97.22-1.5-.13-1.39-.35-2.05.4.28,2.28,1.25,2.86,2.27.06,3-.84c.74-.9.62-2.62-.71-2.3Z" fill="#9B9B9B" stroke="#7a7a7a" stroke-miterlimit="10" stroke-width=".32"/><path d="M218.68,172s.19,1.08-.58,1.58-1.77,1.2-1.29,2.3,1.21,1.05,1.89.26,1.89-.84,1.66-.07-.15,1.51.62,1.51.72.05,1.41.31,1.62.1,1.26-1.2-.38-1.7,0-2.36-.84-2.32-1.7-3.04-1.7-.45-2.36-.38-.98.4-.91,1.08Z" fill="#9B9B9B" stroke="#7a7a7a" stroke-miterlimit="10" stroke-width=".32"/><path d="M210.66,168.2s-1.56.05-1.77,1.19.68,1.54,1.43,1.67c1.26.21,2.2-.83,2.22-1.55s-1.08-1.31-1.87-1.31Z" fill="#9B9B9B" stroke="#7a7a7a" stroke-miterlimit="10" stroke-width=".32"/><path d="M200.26,169.31s.45,1.31,1,1.58.83-.62.58-.79-.38-1.53,1.03-1.67,2.2,1.31,1.75,1.74-.26,1.13-.12,1.51-.05,1.19-1.2,1.65-1.69.6-2.67-.43-1.26-1.31-2.34-.89-2.08.14-2.06-1.03-.41-2.06.34-2.55,1.2,0,1.82-.22,1.75.09,1.86,1.11Z" fill="#9B9B9B" stroke="#7a7a7a" stroke-miterlimit="10" stroke-width=".32"/><path d="M187.1,165.53s.09.67-.62.45-1.79-.29-2.12.81.84,1.94,2.49,2.22,3.49-.83,3.61-1.43-.6-1.76-.98-2.24c-.53-.67-2.18-.97-2.39.18Z" fill="#9B9B9B" stroke="#7a7a7a" stroke-miterlimit="10" stroke-width=".32"/><path d="M188.02,150.38s-.84-.24-1.36-.53-1.46-.46-2.32.27-.31,2.26.89,2.61,2.85-.38,3.27-.88.05-1.17-.48-1.46Z" fill="#9B9B9B" stroke="#7a7a7a" stroke-miterlimit="10" stroke-width=".32"/><path d="M179.51,152.12s-.33.6-.86,1.1-1.26,1.48-.46,2.42,2.1.38,2.72-.17.71-.57,1.48-.98.74-.86-.21-1.75-1.96-1.77-2.67-.62Z" fill="#9B9B9B" stroke="#7a7a7a" stroke-miterlimit="10" stroke-width=".32"/><path d="M195.46,173.31s-.66.64-1.19.38-1.24-.38-1.75.17-.31,1.05.21,1.31.86.76.62,1.08-1.32.12-2.03-.72-.65-1.38-1.55-1.46-1.48.93-1.93,1.69-.24,1.87.96,1.81,1.03.07,2.48.62,4.88-.22,5.62-.77.52-.86.19-1.39-.53-1.07-.28-1.41.22-1.03-.1-1.29-.75-.34-1.25,0Z" fill="#9B9B9B" stroke="#7a7a7a" stroke-miterlimit="10" stroke-width=".32"/><path d="M190.84,169.05s-.36,1.01-1.29,1.13-2.1-.09-2.49.95.64,1.67,1.53,2.05,1.55.12,1.95-.38,2.47-1.1,2.38-2.48c-.09-1.38-1.46-2.49-2.08-1.26Z" fill="#9B9B9B" stroke="#7a7a7a" stroke-miterlimit="10" stroke-width=".32"/><path d="M180.47,170.74s-1.87-.5-2.46.57.14,2.24,1.39,2.94,2.63.6,3.27-.36-.41-2.67-2.2-3.15Z" fill="#9B9B9B" stroke="#7a7a7a" stroke-miterlimit="10" stroke-width=".32"/><path d="M176.26,171.37c-.26-.45-.95-.74-1.58-.19-.64.55-1.27.22-1.19-.55.09-.78.07-.75-.6-1.27-.67-.52-.98-.98-1.17-1.65-.19-.67-.56-.49-.57-.14-.01.36-.02.62-.41.43s-1-.31-1.15.17c-.15.48-.6.62-.98.1-.38-.52-.02-.93.77-1.05.79-.12,1.84.29,2.01-.24.17-.53.12-1.38-.48-1.13-.6.24-1.31-.43-1.2-1.08.1-.65.53-.38,1.26-.74.72-.36,1.34-1.27,1.34-1.27.53-.64.72-1.65.12-2.27-.6-.62-1.46-.38-2.29.64-.83,1.01-1,2.94-1.1,3.97-.1,1.03-.62,1.07-1.79,1.67-1.17.6-.93,2.51,0,3.61.93,1.1,2.42,2.01,3.51,1.94,1.08-.07,2.63.65,3.85,1.41s1.62-.02,1.56-.69c-.05-.67.34-1.22.09-1.67ZM170.93,169.99c-.3.52-.92.99-1.19.57s.8-1.41.8-1.41c.5-.54.68.32.39.84Z" fill="#9B9B9B" stroke="#7a7a7a" stroke-miterlimit="10" stroke-width=".32"/></g><g id="water"><path d="M484.5,204.86s-1.96-7.36-9.03-9.02-15.73.92-18.37,3.29c-2.63,2.37-.46,4.9,4.33,6.55,4.8,1.65,15.73,4.9,19.4,5,3.66.1,4.95-2.88,3.66-5.83Z" fill="#9B9B9B"/><path d="M433.45,132.88s-7.77,4.2-15.27,4.47-15.55-1.44-17.06.41,1.44,5.85,7.02,7.22,11.62,3.37,14.38,8.19,10.11,12.31,16.99,12.52,14.28-4.95,15.46-7.5c1.18-2.54,9.26-3.71,10.47-7.43.76-2.34.36-5.41-4.53-5.66s-11.15-5.27-14.38-8.85c-3.23-3.58-7.65-5.72-13.07-3.37Z" fill="#9B9B9B"/><path d="M265.46,115.24s-8.54.55-12.77,1.58-7.47,1.51-10.7,1.44-6.74.21-9.42,3.16c-2.68,2.96-5.35,4.18-8.34,4.54s-5.78,1.29-6.29,4.08c-.52,2.79,7.24,4.94,16.11,6.04s22.63-1.03,32.33-5.92c9.7-4.88,11.23-8.18,10.76-10.88-.46-2.7-5.56-4.59-11.68-4.04Z" fill="#9B9B9B"/></g><g id="clubHouse"><path d="M159.83,100.7l-1.05-2.04.85-1.81-2.42-1.52-3.3,5.91-1.73-.93,2.89-5.11,1.44.88,3.12-5.8-5.79-3.27-3.18,5.64.65.41-3.1,5.5-1.99-1.13-1.55,2.75-6.12-3.4,3.39-5.86,2.27,1.27,1.46-2.61-1.62-.98.88-1.73-16.78-9.54-3.91,5.95-1.44-.89-2.13,3.2,1.82,1.1-3.23,5.52,2.75,2.05,1.62-.96,11.97,7.15-.92,1.56,7.36,4.19-1.22,2.33,7.5,4.09,2.11-3.48,1.79,1c0,.07-.02.14-.02.21,0,.98.8,1.78,1.78,1.78s1.78-.8,1.78-1.78c0-.54-.25-1.02-.63-1.35l1.4-2.27,1.77,1.07,1.07-1.84-1.81-1.07,2.3-4.18Z" fill="#4e4e4e"/></g><g id="green"><path d="M300.33,11.87s-3.71-1.1-7.94-.14-4.68,3.99-3.75,5.95c.93,1.96,3.54,1.96,6.4,2.1s6.02,2.44,7.98.76,1.75-7.26-2.68-8.67Z" fill="#FFFFFF" stroke="#e6e6e6" stroke-miterlimit="10" stroke-width=".21"/><path d="M231.84,113.83s-2.27,1.74-5.57,1.67-6.02.89-8.63,3.71c-2.61,2.82-2.51,6.05-.31,7.02s2.75-1,5.85-1.38,8.36-3.89,10.15-5.37,2.58-3.44,1.79-4.78-2.1-1.99-3.27-.88Z" fill="#FFFFFF" stroke="#e6e6e6" stroke-miterlimit="10" stroke-width=".21"/><path d="M498.93,67.57s-1.69-2.27-3.2-3.34-3.65-.21-4.16-2.2,1.72-3.61,6.22-4.02c4.51-.41,5.88.38,8.19,3.99,2.3,3.61,3.73,7.67,1.74,9.49s-5.94,1.03-8.79-3.92Z" fill="#FFFFFF" stroke="#e6e6e6" stroke-miterlimit="10" stroke-width=".21"/><path d="M519.7,84.18s-1.17.72-2.72.63-6.64-.67-7.08,2.67c-.45,3.34,1.82,6.78,5.12,6.09s4.16-.41,7.57-.34,6.88-1.51,6.53-4.06c-.34-2.54-2.72-3.89-4.85-4.61s-2.99-.94-4.57-.38Z" fill="#FFFFFF" stroke="#e6e6e6" stroke-miterlimit="10" stroke-width=".21"/><path d="M611.65,104.63s2.34,1.8,3.71,4.22,1.96,5.14,4.44,6.31,4.54,1.75,4.71-2.44-.1-7.53-2.1-9.22-6.68-5.01-8.98-4.54-4.15,3.37-1.79,5.67Z" fill="#FFFFFF" stroke="#e6e6e6" stroke-miterlimit="10" stroke-width=".21"/><path d="M660.76,139.67s-.14,1.82.55,3.44c.69,1.62.96,8.01-1.34,8.98s-4.2-.89-4.3-2.89c-.1-1.99-1.1-3.99-2.17-5.06s-1.72-2.72-.89-4.61.79-3.85.41-5.64.38-3.44,2.96-2.85c2.58.58,4.44,4.02,4.88,5.43.45,1.41-.1,3.2-.1,3.2Z" fill="#FFFFFF" stroke="#e6e6e6" stroke-miterlimit="10" stroke-width=".21"/><path d="M321.42,48.4s-1.72,2.58-4.02,3.13-6.5,2.48-6.09,5.12,4.16,3.71,7.26,2.72,5.74-3.27,8.19-3.37,3.99-3.2,4.06-5.61c.07-2.41-.69-4.02-4.02-3.92s-4.57.58-5.37,1.93Z" fill="#FFFFFF" stroke="#e6e6e6" stroke-miterlimit="10" stroke-width=".21"/><path d="M522.11,128.01s-2.48-.83-3.51-2.54-3.75-3.68-5.81-1.99c-2.06,1.69-1.13,4.44.34,5.98,1.48,1.55.97,5.95,3.72,8.46,2.75,2.51,7.72,1.24,8.4-2.06.43-2.1.57-6.02-3.14-7.84Z" fill="#FFFFFF" stroke="#e6e6e6" stroke-miterlimit="10" stroke-width=".21"/><path d="M617.56,335.41s1.2,1.86,2.48,2.68c1.27.83,2.2,2.82,1.58,4.78-.62,1.96.31,3.96.89,5.16s.21,2.61-.52,3.4-.19,3.54-1.82,4.09-5.54-.96-6.23-4.61c-.69-3.65-.79-7.43-1.99-9.73s-1.38-4.54.17-5.92,4.25-1.39,5.43.14Z" fill="#FFFFFF" stroke="#e6e6e6" stroke-miterlimit="10" stroke-width=".21"/><path d="M561.04,233.77s2.34,2.82,1.82,5.02c-.52,2.2-1.38,4.71,1.03,5.74s5.78-2.51,5.37-7.12-2.61-9.15-5.85-8.46-2.94,4.03-2.37,4.81Z" fill="#FFFFFF" stroke="#e6e6e6" stroke-miterlimit="10" stroke-width=".21"/><path d="M104.83,125.21s-1.82,2.13-3.4,2.41-2.54,1.27-4.13,3.06c-1.58,1.79-3.82,2.1-5.64.79s-.65-4.02.34-4.64-.38-3.03,2.27-4.92c2.65-1.89,3.27-.65,4.85-2.13s4.33-1.31,5.71.48,1,3.95,0,4.95Z" fill="#FFFFFF" stroke="#e6e6e6" stroke-miterlimit="10" stroke-width=".21"/><path d="M12.92,38.61s-2.17,1.79-4.81.79c-2.65-1-4.99-1.41-6.4.55-1.79,2.49,1.03,6.57,4.51,7.19s11.76-.45,11.97-5.23-3.16-4.57-5.26-3.3Z" fill="#FFFFFF" stroke="#e6e6e6" stroke-miterlimit="10" stroke-width=".21"/><path d="M421.67,129.01s-4.63-4.4-9.41-4.16-11.14,3.82-11.59,6.09c-.45,2.27,1.82,4.88,5.43,4.2s5.98-.14,8.56.28,7.33.63,8.22-1.65c1.1-2.82-1.22-4.75-1.22-4.75Z" fill="#FFFFFF" stroke="#e6e6e6" stroke-miterlimit="10" stroke-width=".21"/><path d="M465.53,187.48s-.76.52-1.58,1.99-4.57,3.4-7.36,4.02-4.51.79-5.57-1.07c-1.07-1.86.41-3.13,1.75-4.2s2.03-4.01,3.82-4.57,2.75-3.62,4.85-3.1,4.63,3.06,5.12,3.82c.79,1.2-1.03,3.1-1.03,3.1Z" fill="#FFFFFF" stroke="#e6e6e6" stroke-miterlimit="10" stroke-width=".21"/><path d="M384.13,201.89s-1.62,1.41-4.13,1.58-5.54,1.31-6.36,4.54c-.83,3.23,3.37,6.02,8.08,5.98s10.2-2.6,10.51-5.54c.31-2.94-2.25-4.37-2.63-5.88s-3.51-2.82-5.47-.69Z" fill="#FFFFFF" stroke="#e6e6e6" stroke-miterlimit="10" stroke-width=".21"/><path d="M421.12,196.99s-3.68-2.56-3.11-5.19,1.24-7.17-2.22-9.49c-3.46-2.32-5.62-3.4-6.96-1.6s.85,2.89,1.89,3.92c1.05,1.03.17,2.99-1.12,4.8-1.29,1.81-1.7,4.59.88,5.62,2.58,1.03,4.69,4.38,5.52,6.6.83,2.22,4.54,2.99,6.29.98s1.12-4.06-1.17-5.64Z" fill="#FFFFFF" stroke="#e6e6e6" stroke-miterlimit="10" stroke-width=".21"/><path d="M547.54,157.02s-4.16.38-7.43-.55-5.88-1.75-6.98.31c-1.1,2.06.31,4.09,2.44,4.74s2.06,5.06,5.23,5.26,2.99-.28,5.26,0,5.5-2.41,5.57-5.47c.07-3.06-1.07-5.02-4.09-4.3Z" fill="#FFFFFF" stroke="#e6e6e6" stroke-miterlimit="10" stroke-width=".21"/><path d="M191.28,163.06s-1.79.93-3.68,1.13-3.61,1.03-4.64,3.23-5.78,3.78-8.36,1.51-2.03-5.47-.38-6.91,1.1-3.2,3.1-3.51,3.85-1.13,6.43-2.89,9.12-2.73,10.7,0c1.65,2.85.52,6.29-3.16,7.43Z" fill="#FFFFFF" stroke="#e6e6e6" stroke-miterlimit="10" stroke-width=".21"/></g><g id="lines"><polyline points="178.55 126.49 269.79 52.2 296.22 16.25" fill="none" stroke="#ffffff" stroke-dasharray="1.28" stroke-miterlimit="10" stroke-width=".21"/><polyline points="280.42 2.62 390.74 27.8 476.91 52.29 501.2 63.98" fill="none" stroke="#ffffff" stroke-dasharray="1.28" stroke-miterlimit="10" stroke-width=".21"/><polyline points="449.74 13.19 575.25 78.32 619.02 106.81" fill="none" stroke="#ffffff" stroke-dasharray="1.28" stroke-miterlimit="10" stroke-width=".21"/><line x1="614.53" y1="72.63" x2="657.02" y2="140.73" fill="#ffffff" stroke="#ffffff" stroke-dasharray="1.28" stroke-miterlimit="10" stroke-width=".21"/><polyline points="709.5 202.66 590.85 126.19 519.5 88.76" fill="none" stroke="#ffffff" stroke-dasharray="1.28" stroke-miterlimit="10" stroke-width=".21"/><polyline points="525.25 105.35 410.82 63.98 321.04 53.69" fill="none" stroke="#ffffff" stroke-dasharray="1.28" stroke-miterlimit="10" stroke-width=".21"/><polyline points="262.34 86.39 382.89 92.22 470.48 103.78 518.79 131.89" fill="none" stroke="#ffffff" stroke-dasharray="1.28" stroke-miterlimit="10" stroke-width=".21"/><line x1="510.88" y1="166.84" x2="412.38" y2="129.91" fill="#ffffff" stroke="#ffffff" stroke-dasharray="1.28" stroke-miterlimit="10" stroke-width=".21"/><polyline points="441.85 169.1 309.87 110.43 224.98 119.87" fill="none" stroke="#ffffff" stroke-dasharray="1.28" stroke-miterlimit="10" stroke-width=".21"/><polyline points="86.16 153.93 42.72 53.8 9.67 42.57" fill="none" stroke="#ffffff" stroke-dasharray="1.28" stroke-miterlimit="10" stroke-width=".21"/><line x1="62.88" y1="30.09" x2="98.22" y2="124.14" fill="#ffffff" stroke="#ffffff" stroke-dasharray="1.28" stroke-miterlimit="10" stroke-width=".21"/><polyline points="178.55 139.93 298.7 151.9 357.54 164 414.1 191.89" fill="none" stroke="#ffffff" stroke-dasharray="1.28" stroke-miterlimit="10" stroke-width=".21"/><polyline points="463.13 221.42 566.75 285.7 616.57 344.95" fill="none" stroke="#ffffff" stroke-dasharray="1.28" stroke-miterlimit="10" stroke-width=".21"/><polyline points="661.57 349.67 598.19 271.09 574.15 192.82 543.56 161.17" fill="none" stroke="#ffffff" stroke-dasharray="1.28" stroke-miterlimit="10" stroke-width=".21"/><line x1="525.47" y1="174.46" x2="564.28" y2="234.56" fill="#ffffff" stroke="#ffffff" stroke-dasharray="1.28" stroke-miterlimit="10" stroke-width=".21"/><polyline points="567.83 259.19 505.72 196.18 458.71 187.8" fill="none" stroke="#ffffff" stroke-dasharray="1.28" stroke-miterlimit="10" stroke-width=".21"/><line x1="464.38" y1="248.26" x2="382.89" y2="208.21" fill="#ffffff" stroke="#ffffff" stroke-dasharray="1.28" stroke-miterlimit="10" stroke-width=".21"/><polyline points="397.03 233.51 247.56 168.98 182.62 160.6" fill="none" stroke="#ffffff" stroke-dasharray="1.28" stroke-miterlimit="10" stroke-width=".21"/></g><g id="numberContainer"><path d="M390.74,24.05c2.07,0,3.75,1.68,3.75,3.75s-1.68,3.75-3.75,3.75-3.75-1.68-3.75-3.75,1.68-3.75,3.75-3.75Z" fill="#ffffff" stroke="#1a2b40" stroke-miterlimit="10" stroke-width=".11"/><path d="M577.63,76.45c2.07,0,3.75,1.68,3.75,3.75s-1.68,3.75-3.75,3.75-3.75-1.68-3.75-3.75,1.68-3.75,3.75-3.75Z" fill="#ffffff" stroke="#1a2b40" stroke-miterlimit="10" stroke-width=".11"/><path d="M590.74,122.12c2.15,0,3.9,1.74,3.9,3.9s-1.74,3.9-3.9,3.9-3.9-1.74-3.9-3.9,1.74-3.9,3.9-3.9Z" fill="#ffffff" stroke="#1a2b40" stroke-miterlimit="10" stroke-width=".11"/><path d="M410.71,60.06c2.07,0,3.75,1.68,3.75,3.75s-1.68,3.75-3.75,3.75-3.75-1.68-3.75-3.75,1.68-3.75,3.75-3.75Z" fill="#ffffff" stroke="#1a2b40" stroke-miterlimit="10" stroke-width=".11"/><path d="M638.01,106.39c2.07,0,3.75,1.68,3.75,3.75s-1.68,3.75-3.75,3.75-3.75-1.68-3.75-3.75,1.68-3.75,3.75-3.75Z" fill="#ffffff" stroke="#1a2b40" stroke-miterlimit="10" stroke-width=".11"/><path d="M383.51,88.47c2.07,0,3.75,1.68,3.75,3.75s-1.68,3.75-3.75,3.75-3.75-1.68-3.75-3.75,1.68-3.75,3.75-3.75Z" fill="#ffffff" stroke="#1a2b40" stroke-miterlimit="10" stroke-width=".11"/><path d="M465.33,146.85c2.07,0,3.75,1.68,3.75,3.75s-1.68,3.75-3.75,3.75-3.75-1.68-3.75-3.75,1.68-3.75,3.75-3.75Z" fill="#ffffff" stroke="#1a2b40" stroke-miterlimit="10" stroke-width=".11"/><path d="M270.03,47.98c2.07,0,3.75,1.68,3.75,3.75s-1.68,3.75-3.75,3.75-3.75-1.68-3.75-3.75,1.68-3.75,3.75-3.75Z" fill="#ffffff" stroke="#1a2b40" stroke-miterlimit="10" stroke-width=".11"/><path d="M310.02,106.22c2.07,0,3.75,1.68,3.75,3.75s-1.68,3.75-3.75,3.75-3.75-1.68-3.75-3.75,1.68-3.75,3.75-3.75Z" fill="#ffffff" stroke="#1a2b40" stroke-miterlimit="10" stroke-width=".11"/><path d="M42.05,49.91c2.15,0,3.9,1.74,3.9,3.9s-1.74,3.9-3.9,3.9-3.9-1.74-3.9-3.9,1.74-3.9,3.9-3.9Z" fill="#ffffff" stroke="#1a2b40" stroke-miterlimit="10" stroke-width=".11"/><path d="M85.67,86.96c2.15,0,3.9,1.74,3.9,3.9s-1.74,3.9-3.9,3.9-3.9-1.74-3.9-3.9,1.74-3.9,3.9-3.9Z" fill="#ffffff" stroke="#1a2b40" stroke-miterlimit="10" stroke-width=".11"/><path d="M299.57,148c2.15,0,3.9,1.74,3.9,3.9s-1.74,3.9-3.9,3.9-3.9-1.74-3.9-3.9,1.74-3.9,3.9-3.9Z" fill="#ffffff" stroke="#1a2b40" stroke-miterlimit="10" stroke-width=".11"/><path d="M388.94,236.24c2.15,0,3.9,1.74,3.9,3.9s-1.74,3.9-3.9,3.9-3.9-1.74-3.9-3.9,1.74-3.9,3.9-3.9Z" fill="#ffffff" stroke="#1a2b40" stroke-miterlimit="10" stroke-width=".11"/><path d="M566,281.26c2.15,0,3.9,1.74,3.9,3.9s-1.74,3.9-3.9,3.9-3.9-1.74-3.9-3.9,1.74-3.9,3.9-3.9Z" fill="#ffffff" stroke="#1a2b40" stroke-miterlimit="10" stroke-width=".11"/><path d="M599.03,267.19c2.15,0,3.9,1.74,3.9,3.9s-1.74,3.9-3.9,3.9-3.9-1.74-3.9-3.9,1.74-3.9,3.9-3.9Z" fill="#ffffff" stroke="#1a2b40" stroke-miterlimit="10" stroke-width=".11"/><path d="M548.83,207.28c2.15,0,3.9,1.74,3.9,3.9s-1.74,3.9-3.9,3.9-3.9-1.74-3.9-3.9,1.74-3.9,3.9-3.9Z" fill="#ffffff" stroke="#1a2b40" stroke-miterlimit="10" stroke-width=".11"/><path d="M505.23,192.46c2.15,0,3.9,1.74,3.9,3.9s-1.74,3.9-3.9,3.9-3.9-1.74-3.9-3.9,1.74-3.9,3.9-3.9Z" fill="#ffffff" stroke="#1a2b40" stroke-miterlimit="10" stroke-width=".11"/><path d="M425.37,224.34c2.15,0,3.9,1.74,3.9,3.9s-1.74,3.9-3.9,3.9-3.9-1.74-3.9-3.9,1.74-3.9,3.9-3.9Z" fill="#ffffff" stroke="#1a2b40" stroke-miterlimit="10" stroke-width=".11"/><path d="M248.61,165.56c2.15,0,3.9,1.74,3.9,3.9s-1.74,3.9-3.9,3.9-3.9-1.74-3.9-3.9,1.74-3.9,3.9-3.9Z" fill="#ffffff" stroke="#1a2b40" stroke-miterlimit="10" stroke-width=".11"/></g><g id="number"><path d="M389.86,29.76c-.1,0-.21,0-.29.01-.09,0-.16.01-.18.01-.03,0-.05,0-.07-.04-.02-.04-.01-.06.02-.09.28-.26.8-.72,1.27-1.23.47-.51.75-.96.73-1.48-.02-.53-.34-.84-.76-.83-.5,0-.69.4-.79.57-.02.04-.04.05-.07.03l-.08-.04s-.02-.03,0-.08c.09-.23.38-.89,1.18-.89.5,0,1.04.41,1.04,1.08,0,.5-.2.93-.73,1.53-.4.46-.87.81-1.13,1.04h1.2c.4,0,.56-.28.69-.5.03-.05.05-.06.11-.03.05.02.07.05.05.08l-.38.92c-.03.06.02.06-.09.06-.05,0-.05,0-.08-.06-.04-.08-.15-.08-.33-.08h-1.29Z" fill="#1a2b40"/><path d="M576.38,81.77c0-.15.09-.25.2-.25.2,0,.23.23.24.26.03.06.14.24.55.24.54,0,.87-.4.87-.81,0-.6-.37-.95-.85-1.06-.11-.02-.11,0-.11-.09,0-.06.02-.07.07-.08.38-.07.77-.38.77-.84,0-.38-.23-.66-.6-.66-.44,0-.66.31-.79.65-.02.05-.04.06-.06.06l-.11-.02s-.02-.04,0-.09c.08-.41.44-.96,1.11-.96s.88.47.88.78c0,.51-.36.83-.66,1.02.4.1.86.51.86,1.04,0,.76-.68,1.3-1.48,1.3-.7,0-.89-.3-.89-.47Z" fill="#1a2b40"/><path d="M590.18,125.4c.15-.01.57.03.7.07.6.16.95.59.95,1.14,0,.88-.71,1.52-1.55,1.52-.45,0-.8-.17-.8-.34,0-.09.06-.16.13-.16.11,0,.22.07.31.12s.3.12.49.12c.48,0,.96-.41.96-.95,0-.43-.14-.77-.54-.94-.33-.15-.64-.15-.8-.14-.04,0-.07.01-.11-.01-.03-.01-.04-.03-.03-.07l.22-1.73c0-.07.02-.1.1-.1h1.32c.22,0,.27-.1.38-.31.02-.04.04-.04.07-.03.07.03.1.04.09.07l-.22.61c-.04.1-.07.12-.26.12h-1.28l-.11.99Z" fill="#1a2b40"/><path d="M409.89,65.52c-.3-.32-.38-.78-.38-1.09,0-.74.27-1.47.9-2.08.28-.27.6-.47.87-.57.09-.04.18-.06.22-.06.04,0,.07.02.07.06,0,.05-.02.08-.05.09-.47.21-1.25.86-1.4,1.84.19-.17.44-.27.79-.27.74,0,1.05.66,1.05,1.04,0,.55-.16.81-.37,1.02-.22.24-.47.36-.84.36-.4,0-.68-.11-.85-.33ZM411.45,64.66c0-.53-.26-.97-.72-.97-.35,0-.52.14-.59.29-.08.15-.13.4-.13.65,0,.3.05,1.04.76,1.04.13,0,.67-.07.67-1Z" fill="#1a2b40"/><path d="M638.48,112.09c-.05,0-.07-.01-.07-.06v-1.04h-1.65c-.05,0-.09-.02-.09-.07,0-.04.02-.06.06-.12l1.92-2.65s.08-.09.13-.09c.05,0,.08.04.08.18v2.37h.48s.07.01.07.05v.28s-.02.06-.09.06h-.46v1.02c0,.07-.01.08-.08.08h-.3ZM638.41,108.99c0-.09-.06-.11-.11-.04l-1.09,1.5c-.07.1-.07.16.04.16h1.16v-1.63Z" fill="#1a2b40"/><path d="M384.87,90.22s.06.02.06.05c0,.03,0,.05-.04.11s-.52.95-.75,1.53c-.06.14-.56,1.23-.8,2.05-.07.24-.19.3-.3.3-.15,0-.23-.09-.23-.22,0-.15.13-.39.21-.55.1-.2,1.13-2.17,1.47-2.84h-1.4c-.36,0-.43.16-.6.41-.03.04-.07.04-.11.01-.05-.03-.05-.04-.04-.09l.37-.95s.02-.04.09-.04c.06,0,.09.02.08.11-.01.08.04.11.34.11h1.66Z" fill="#1a2b40"/><path d="M464.26,151.79c0-.51.27-.81.77-1.14-.44-.25-.81-.56-.81-1.01,0-.52.43-1.14,1.27-1.14.54,0,1.01.37,1.01.76,0,.56-.19.82-.82,1.26.47.23.83.53.83,1.07,0,.46-.45,1.04-1.17,1.04-.81,0-1.08-.47-1.08-.85ZM466.08,151.71c0-.48-.39-.7-.86-.95-.38.21-.59.56-.59.93,0,.52.4.74.75.74.43,0,.71-.23.71-.72ZM464.68,149.5c0,.43.28.6.8.91.29-.18.6-.53.62-.93.02-.43-.3-.73-.71-.73s-.71.34-.71.75Z" fill="#1a2b40"/><path d="M269.91,51.54c0-.08,0-.36,0-.82,0-.2-.03-.33-.14-.33-.05,0-.14.02-.24.05l-.42.14s-.05,0-.06-.02l-.05-.11s0-.05.04-.07l1.23-.7s.05-.04.08-.04c.04,0,.04.04.04.08,0,.05-.02.98-.02,1.75v.25c0,.07,0,1.33,0,1.4,0,.31.03.35.42.35h.21s.06.02.06.05v.14s-.01.05-.05.05c-.05,0-.86-.02-.91-.02s-.89.02-.92.02-.05-.01-.05-.05v-.15s.04-.04.08-.04h.27c.38,0,.4-.02.41-.33,0-.08,0-1.27,0-1.38v-.21Z" fill="#1a2b40"/><path d="M310.93,108.29c.27.3.32.77.32.95,0,.79-.27,1.61-.96,2.23-.3.26-.53.39-.85.5-.06.02-.14.04-.18.04-.05,0-.09-.02-.09-.08,0-.04.02-.07.05-.08.52-.21,1.3-.85,1.43-1.84h0c-.16.14-.37.28-.72.28-.82,0-1.1-.62-1.1-1.18,0-.22.21-.72.44-.91.23-.2.5-.31.75-.31.42,0,.65.12.92.41ZM309.3,109.06c0,.56.33.96.73.96.34,0,.52-.18.6-.34.07-.15.09-.34.09-.59,0-.52-.15-1.04-.69-1.04-.35,0-.73.34-.73,1Z" fill="#1a2b40"/><path d="M40.14,53.61c0-.08,0-.37,0-.85,0-.21-.03-.34-.15-.34-.05,0-.15.02-.25.05l-.43.14s-.05,0-.06-.02l-.05-.11s0-.05.04-.07l1.27-.73s.05-.04.09-.04c.04,0,.04.04.04.09,0,.06-.02,1.02-.02,1.81v.26c0,.07,0,1.38,0,1.46,0,.32.03.36.43.36h.22s.06.02.06.05v.14s-.01.05-.06.05c-.06,0-.89-.02-.95-.02s-.92.02-.95.02-.05-.01-.05-.05v-.15s.04-.04.09-.04h.28c.4,0,.41-.02.42-.34,0-.08,0-1.32,0-1.43v-.22Z" fill="#1a2b40"/><path d="M42.02,53.98c0-1.41.58-2.36,1.37-2.36.9,0,1.32,1.17,1.32,2.11,0,1.41-.52,2.18-1.32,2.18-1,0-1.38-1.19-1.38-1.94ZM43.99,55.26c.13-.29.19-.76.19-1.66s-.31-1.75-.83-1.75c-.24,0-.41.09-.55.37-.22.43-.25,1.15-.25,1.66,0,.58.07,1.01.21,1.3.19.41.42.52.64.52.19,0,.42-.07.59-.44Z" fill="#1a2b40"/><path d="M83.76,90.66c0-.08,0-.37,0-.85,0-.21-.03-.34-.15-.34-.05,0-.15.02-.25.05l-.43.14s-.05,0-.06-.02l-.05-.11s0-.05.04-.07l1.27-.73s.05-.04.09-.04c.04,0,.04.04.04.09,0,.06-.02,1.02-.02,1.81v.26c0,.07,0,1.38,0,1.46,0,.32.03.36.43.36h.22s.06.02.06.05v.14s-.01.05-.06.05c-.06,0-.89-.02-.95-.02s-.92.02-.95.02-.05-.01-.05-.05v-.15s.04-.04.09-.04h.28c.4,0,.41-.02.42-.34,0-.08,0-1.32,0-1.43v-.22Z" fill="#1a2b40"/><path d="M86.83,90.66c0-.08,0-.37,0-.85,0-.21-.03-.34-.15-.34-.06,0-.15.02-.25.05l-.43.14s-.05,0-.06-.02l-.05-.11s0-.05.04-.07l1.27-.73s.06-.04.09-.04c.04,0,.04.04.04.09,0,.06-.02,1.02-.02,1.81v.26c0,.07,0,1.38,0,1.46,0,.32.03.36.43.36h.22s.06.02.06.05v.14s-.01.05-.05.05c-.06,0-.89-.02-.95-.02s-.92.02-.95.02-.05-.01-.05-.05v-.15s.04-.04.09-.04h.28c.4,0,.41-.02.42-.34,0-.08,0-1.32,0-1.43v-.22Z" fill="#1a2b40"/><path d="M297.66,151.71c0-.08,0-.37,0-.85,0-.21-.03-.34-.15-.34-.06,0-.15.02-.25.05l-.43.14s-.05,0-.06-.02l-.05-.11s0-.05.04-.07l1.27-.73s.06-.04.09-.04c.04,0,.04.04.04.09,0,.06-.02,1.02-.02,1.81v.26c0,.07,0,1.38,0,1.46,0,.32.03.36.43.36h.22s.06.02.06.05v.14s-.01.05-.06.05c-.05,0-.89-.02-.95-.02s-.92.02-.95.02-.05-.01-.05-.05v-.15s.04-.04.09-.04h.28c.4,0,.41-.02.42-.34,0-.08,0-1.32,0-1.43v-.22Z" fill="#1a2b40"/><path d="M299.95,153.93c-.11,0-.22,0-.31.01-.09,0-.17.01-.19.01-.03,0-.05,0-.07-.04-.02-.04-.01-.06.02-.09.29-.27.83-.74,1.32-1.27s.77-1,.76-1.54c-.02-.55-.35-.87-.79-.87-.52,0-.72.41-.82.6-.03.04-.04.05-.07.03l-.09-.04s-.03-.03,0-.09c.1-.24.4-.92,1.23-.92.52,0,1.08.42,1.08,1.12,0,.52-.21.97-.76,1.59-.42.48-.9.84-1.17,1.08h1.25c.42,0,.58-.29.71-.52.03-.06.05-.06.11-.03.05.02.07.05.05.09l-.4.96c-.03.07.02.07-.09.07-.05,0-.05,0-.08-.06-.04-.08-.15-.09-.34-.09h-1.33Z" fill="#1a2b40"/><path d="M387.03,239.94c0-.08,0-.37,0-.85,0-.21-.03-.34-.15-.34-.06,0-.15.02-.25.05l-.43.14s-.05,0-.06-.02l-.05-.11s0-.05.04-.07l1.27-.73s.06-.04.09-.04c.04,0,.04.04.04.09,0,.06-.02,1.02-.02,1.81v.26c0,.07,0,1.38,0,1.46,0,.32.03.36.43.36h.22s.06.02.06.05v.14s-.01.05-.06.05c-.05,0-.89-.02-.95-.02s-.92.02-.95.02-.05-.01-.05-.05v-.15s.04-.04.09-.04h.28c.4,0,.41-.02.42-.34,0-.08,0-1.32,0-1.43v-.22Z" fill="#1a2b40"/><path d="M388.93,241.77c0-.16.1-.26.2-.26.2,0,.24.24.25.27.03.07.14.25.57.25.57,0,.9-.41.9-.84,0-.62-.39-.98-.89-1.1-.11-.02-.11,0-.11-.09,0-.06.02-.07.07-.09.39-.07.8-.4.8-.87,0-.39-.24-.69-.63-.69-.46,0-.69.32-.82.67-.02.05-.04.07-.06.06l-.11-.02s-.02-.04,0-.09c.09-.42.46-1,1.16-1s.91.49.91.81c0,.53-.37.86-.69,1.06.42.1.9.54.9,1.08,0,.79-.71,1.35-1.54,1.35-.73,0-.92-.31-.92-.49Z" fill="#1a2b40"/><path d="M564.09,284.96c0-.08,0-.37,0-.85,0-.21-.03-.34-.15-.34-.06,0-.15.02-.25.05l-.43.14s-.05,0-.06-.02l-.05-.11s0-.05.04-.07l1.27-.73s.06-.04.09-.04c.04,0,.04.04.04.09,0,.06-.02,1.02-.02,1.81v.26c0,.07,0,1.38,0,1.46,0,.32.03.36.43.36h.22s.06.02.06.05v.14s-.01.05-.05.05c-.06,0-.89-.02-.95-.02s-.92.02-.95.02-.05-.01-.05-.05v-.15s.04-.04.09-.04h.28c.4,0,.41-.02.42-.34,0-.08,0-1.32,0-1.43v-.22Z" fill="#1a2b40"/><path d="M565.99,286.78c0-.16.1-.26.2-.26.2,0,.24.24.25.27.03.07.14.25.57.25.57,0,.9-.41.9-.84,0-.62-.39-.98-.89-1.1-.11-.03-.11,0-.11-.09,0-.06.02-.07.07-.09.39-.07.8-.4.8-.87,0-.39-.24-.69-.63-.69-.46,0-.69.32-.82.67-.02.05-.04.07-.06.06l-.11-.02s-.02-.04,0-.09c.09-.42.46-1,1.16-1s.91.49.91.81c0,.53-.37.86-.69,1.06.42.1.9.54.9,1.08,0,.79-.71,1.35-1.54,1.35-.72,0-.92-.31-.92-.49Z" fill="#1a2b40"/><path d="M597.12,270.89c0-.08,0-.37,0-.85,0-.21-.03-.34-.15-.34-.05,0-.15.02-.25.05l-.43.14s-.05,0-.06-.02l-.05-.11s0-.05.04-.07l1.27-.73s.05-.04.09-.04c.04,0,.04.04.04.09,0,.06-.02,1.02-.02,1.81v.26c0,.07,0,1.38,0,1.46,0,.32.03.36.43.36h.22s.06.02.06.05v.14s-.01.05-.06.05c-.06,0-.89-.02-.95-.02s-.92.02-.95.02-.05-.01-.05-.05v-.15s.04-.04.09-.04h.28c.4,0,.41-.02.42-.34,0-.08,0-1.32,0-1.43v-.22Z" fill="#1a2b40"/><path d="M600.8,273.11c-.06,0-.07-.01-.07-.07v-1.08h-1.72c-.06,0-.09-.02-.09-.07,0-.04.02-.06.06-.12l2-2.75s.09-.1.13-.1c.06,0,.08.04.08.18v2.46h.5s.07.01.07.05v.29s-.02.06-.1.06h-.47v1.06c0,.07-.01.09-.09.09h-.31ZM600.73,269.9c0-.1-.06-.12-.12-.04l-1.13,1.56c-.07.1-.07.17.04.17h1.21v-1.69Z" fill="#1a2b40"/><path d="M546.93,210.98c0-.08,0-.37,0-.85,0-.21-.03-.34-.15-.34-.06,0-.15.02-.25.05l-.43.14s-.05,0-.06-.02l-.05-.11s0-.05.04-.07l1.27-.73s.06-.04.09-.04c.04,0,.04.04.04.09,0,.06-.02,1.02-.02,1.81v.26c0,.07,0,1.38,0,1.46,0,.32.03.36.43.36h.22s.06.02.06.05v.14s-.01.05-.06.05c-.05,0-.89-.02-.95-.02s-.92.02-.95.02-.05-.01-.05-.05v-.15s.04-.04.09-.04h.28c.4,0,.41-.02.42-.34,0-.08,0-1.32,0-1.43v-.22Z" fill="#1a2b40"/><path d="M549.48,210.55c.15-.01.57.03.7.07.6.16.95.59.95,1.14,0,.88-.71,1.52-1.55,1.52-.46,0-.8-.17-.8-.34,0-.09.06-.16.14-.16.11,0,.22.07.31.12s.3.12.49.12c.48,0,.96-.41.96-.95,0-.43-.14-.77-.54-.94-.33-.15-.64-.15-.8-.14-.04,0-.07.01-.11-.01-.03-.01-.04-.03-.03-.07l.22-1.73c0-.07.02-.1.1-.1h1.32c.22,0,.27-.1.38-.31.02-.04.04-.04.07-.03.07.03.1.04.09.07l-.22.61c-.04.1-.07.12-.26.12h-1.28l-.11.99Z" fill="#1a2b40"/><path d="M503.32,196.16c0-.08,0-.37,0-.85,0-.21-.03-.34-.15-.34-.05,0-.15.02-.25.05l-.43.14s-.05,0-.06-.02l-.05-.11s0-.05.04-.07l1.27-.73s.05-.04.09-.04c.04,0,.04.04.04.09,0,.06-.02,1.02-.02,1.81v.26c0,.07,0,1.38,0,1.46,0,.32.03.36.43.36h.22s.06.02.06.05v.14s-.01.05-.06.05c-.06,0-.89-.02-.95-.02s-.92.02-.95.02-.05-.01-.05-.05v-.15s.04-.04.09-.04h.28c.4,0,.41-.02.42-.34,0-.08,0-1.32,0-1.43v-.22Z" fill="#1a2b40"/><path d="M505.67,198.13c-.31-.33-.39-.81-.39-1.13,0-.77.28-1.52.93-2.16.3-.28.63-.49.9-.6.1-.04.18-.07.23-.07.04,0,.07.02.07.06,0,.05-.02.08-.06.1-.49.22-1.3.9-1.46,1.91.2-.17.46-.28.82-.28.77,0,1.09.68,1.09,1.08,0,.57-.17.84-.38,1.06-.23.25-.49.37-.87.37-.41,0-.7-.12-.89-.34ZM507.28,197.23c0-.55-.27-1.01-.74-1.01-.36,0-.53.15-.61.3-.09.16-.14.41-.14.67,0,.31.05,1.08.79,1.08.13,0,.69-.07.69-1.04Z" fill="#1a2b40"/><path d="M423.46,228.05c0-.08,0-.37,0-.85,0-.21-.03-.34-.15-.34-.05,0-.15.02-.25.05l-.43.14s-.05,0-.06-.02l-.05-.11s0-.05.04-.07l1.27-.73s.05-.04.09-.04c.04,0,.04.04.04.09,0,.06-.02,1.02-.02,1.81v.26c0,.07,0,1.38,0,1.46,0,.32.03.36.43.36h.22s.06.02.06.05v.14s-.01.05-.06.05c-.06,0-.89-.02-.95-.02s-.92.02-.95.02-.05-.01-.05-.05v-.15s.04-.04.09-.04h.28c.4,0,.41-.02.42-.34,0-.08,0-1.32,0-1.43v-.22Z" fill="#1a2b40"/><path d="M428.07,226.16s.06.02.06.06c0,.03,0,.05-.04.11-.04.06-.53.98-.78,1.59-.06.14-.58,1.28-.83,2.13-.07.25-.2.31-.31.31-.15,0-.24-.09-.24-.23,0-.15.14-.41.22-.57.1-.21,1.17-2.25,1.52-2.95h-1.46c-.37,0-.45.17-.63.43-.03.04-.07.04-.12.01-.06-.03-.06-.04-.04-.09l.38-.99s.02-.04.1-.04c.07,0,.09.02.08.11-.01.09.04.12.35.12h1.73Z" fill="#1a2b40"/><path d="M246.7,169.26c0-.08,0-.37,0-.85,0-.21-.03-.34-.15-.34-.06,0-.15.02-.25.05l-.43.14s-.05,0-.06-.02l-.05-.11s0-.05.04-.07l1.27-.73s.06-.04.09-.04c.04,0,.04.04.04.09,0,.06-.02,1.02-.02,1.81v.26c0,.07,0,1.38,0,1.46,0,.32.03.36.43.36h.22s.06.02.06.05v.14s-.01.05-.05.05c-.06,0-.89-.02-.95-.02s-.92.02-.95.02-.05-.01-.05-.05v-.15s.04-.04.09-.04h.28c.4,0,.41-.02.42-.34,0-.08,0-1.32,0-1.43v-.22Z" fill="#1a2b40"/><path d="M248.79,170.69c0-.53.28-.84.8-1.18-.46-.26-.84-.58-.84-1.05,0-.53.44-1.18,1.32-1.18.57,0,1.05.39,1.05.79,0,.58-.2.85-.85,1.31.49.23.87.55.87,1.11,0,.48-.47,1.08-1.21,1.08-.84,0-1.13-.49-1.13-.88ZM250.68,170.61c0-.5-.41-.73-.89-.98-.39.22-.62.58-.62.97,0,.53.42.77.77.77.44,0,.73-.24.73-.75ZM249.23,168.31c0,.44.29.62.83.94.3-.19.62-.55.65-.97.02-.45-.31-.76-.74-.76s-.74.35-.74.78Z" fill="#1a2b40"/></g></svg>