<svg id="Layer_2" xmlns="http://www.w3.org/2000/svg" width="406.45mm" height="451.99mm" viewBox="0 0 1152.13 1281.23"><g id="fairway"><path d="M283.86,454.18s-10.54,17.11-24.96,26.61c-14.42,9.5-20.12,16.95-24.24,26.61-4.12,9.66-17.74,26.14-25.66,35.33-7.92,9.19-25.43,24.71-27.05,34.53-1.62,9.82-5.94,27.52-14.49,32.99s-16.63,6.89-20.79,15.92c-4.16,9.03-9.74,11.76-15.56,17.35-5.82,5.58-15.45,13.54-9.15,26.61s28.63,7.25,32.32-2.5,9.47-25.66,13.17-30.12c3.7-4.46,10.48,2.91,17.49-3.62,7.01-6.53,4.16-8.08,13.19-16.4s21.86-14.5,24.48-24.48c2.61-9.98,7.49-32.91,14.26-36,6.77-3.09,16.4-3.92,21.86-11.41,5.47-7.49,14.14-22.1,16.51-24.71s5.64-2.26,8.64-1.54,8.09-1.54,11.13-6.65c3.04-5.11,3.99-10.57,13.37-19.13,9.39-8.55,13.07-16.99,10.69-29.76-2.38-12.77-18.36-32.65-35.2-9.64Z" fill="#4D4E4E" stroke="#2a2a2a" stroke-miterlimit="10" stroke-width=".55"/><rect x="121.46" y="590.39" width="10.13" height="12.97" rx=".99" ry=".99" transform="translate(-87.28 1168.33) rotate(-147.52)" fill="#4D4E4E" stroke="#2a2a2a" stroke-miterlimit="10" stroke-width=".55"/><rect x="161.36" y="508.02" width="12.23" height="12.97" rx=".99" ry=".99" transform="translate(32.45 1038.47) rotate(-147.52)" fill="#4D4E4E" stroke="#2a2a2a" stroke-miterlimit="10" stroke-width=".55"/><rect x="125.57" y="567.88" width="15.22" height="20.05" rx="2.11" ry="2.11" transform="translate(-64.81 1136.94) rotate(-147.52)" fill="#4D4E4E" stroke="#2a2a2a" stroke-miterlimit="10" stroke-width=".55"/><path d="M421.77,72.88c-4.87-3.09-17.82-1.9-23.76,8.79-5.94,10.69-7.49,23.64-11.76,24.95-4.28,1.31-12.32-1.78-19.45,9.15-7.13,10.93-12.04,38.02-17.9,51.01-5.86,12.99-10.46,10.77-19.8,25.03-9.35,14.26-21.07,36.12-29.31,48-8.24,11.88-32.71,49.74-44.08,70.18,0,0-14.73,24.08-17.9,31.52-3.17,7.45-8.08,12.04-12.51,8.71-4.44-3.33-10.26-5.62-15.01-1.11-4.75,4.51-.71,11.64,3.33,16.16,4.04,4.51,3.41,19.3-1.98,33.01-5.39,13.72-8.08,18.4-11.72,27.38s-2.38,23.4,8.08,27.05c10.46,3.64,17.11-2.38,20.12-9.11,3.01-6.73,6.81-10.53,13.15-15.29,6.34-4.75,9.75-7.96,9.21-13.9-.54-5.94-9.21-5.47-9.57-9.62s5.73-9.62,13.56-13.07c7.83-3.45,17.49-12.63,22.09-25.31,4.59-12.67,13.62-38.97,20.12-51.48,6.49-12.51,28.68-53.78,35.49-63.05,6.81-9.27,9.27-17.9,10.93-23.37,1.66-5.47,4.87-10.1,7.13-12.36s10.65-17.62,18.1-27.13c7.45-9.5,9.51-13.15,19.33-15.37,9.82-2.22,20.59-6.02,19.33-19.8-1.27-13.78-4.55-31.33-2.53-36.91,2.02-5.58,12-5.82,20.55-19.37,8.55-13.54,1.66-21.62-3.21-24.71ZM402.27,161.9c-1.49,4.24-8.91,4.67-12.95,5.21-4.04.53-12.06,4.04-12.24-.65-.12-3.22,5.1-7.45,8.39-9.78,1.97-1.4,4.17-2.49,6.52-3.06,9.5-2.32,11.6,4.53,10.28,8.29Z" fill="#4D4E4E" stroke="#2a2a2a" stroke-miterlimit="10" stroke-width=".55"/><path d="M.84,291.27l5.14,6.03c.83.97,2.27,1.12,3.28.35l11.53-8.88c1-.77,2.44-.63,3.27.33l4.5,5.18c.85.97,2.31,1.1,3.31.29l9.87-8c1.01-.82,1.18-2.3.38-3.33l-12.7-16.36c-.84-1.08-2.41-1.24-3.45-.35l-24.88,21.36c-1,.86-1.12,2.36-.26,3.37Z" fill="#4D4E4E" stroke="#2a2a2a" stroke-miterlimit="10" stroke-width=".55"/><rect x="44.76" y="265.23" width="15.12" height="10.65" rx=".99" ry=".99" transform="translate(-120.32 485.34) rotate(-130.26)" fill="#4D4E4E" stroke="#2a2a2a" stroke-miterlimit="10" stroke-width=".55"/><path d="M199.48,125.79s-5.7,1.96-10.75.95-12.65-2.24-17.33,4.42c-4.67,6.65-2.93,11.25-11.64,13.39s-12.83,4.51-12.28,12.67c.55,8.16,7.92,15.05,12.04,16.16,4.12,1.11,8.07,1.66,9.78-3.17,1.71-4.83,5.85-9.74,10.87-11.25,5.02-1.5,9.94-3.96,12.55-6.57,2.61-2.61,6.09-4.2,10.69-4.67s12.59-2.29,12.83-10.06c.24-7.77-8.08-14.54-16.75-11.86Z" fill="#4D4E4E" stroke="#2a2a2a" stroke-miterlimit="10" stroke-width=".55"/><path d="M405.2,33.84h6.61c.55,0,.99.44.99.99v48.31c0,1.84-1.49,3.33-3.33,3.33h-1.93c-1.84,0-3.33-1.49-3.33-3.33v-48.31c0-.55.44-.99.99-.99Z" transform="translate(607.78 421.8) rotate(-127.23)" fill="#4D4E4E" stroke="#2a2a2a" stroke-miterlimit="10" stroke-width=".55"/><path d="M295.56,135.6s-16.87,12.71-21.86,15.09-21.39,9.86-30.89,20.32c-9.5,10.46-27.68,24.45-35.17,30.4-7.49,5.96-18.63,13.68-22.98,15.46s-13.38,1.54-15.51,13.43-.71,14.61-12.12,19.84-22.46,11.05-25.54,13.54c-3.09,2.5-4.16,5.23-4.04,14.38.12,9.15-4.54,15.21-12.67,13.55-8.12-1.67-15.85-7.84-30.94,3.92-15.09,11.76-27.7,22.1-32.03,26.49-4.33,4.4-.45,11.41-6.37,14.38-5.92,2.97-12.93,1.66-21.37,9.27-8.44,7.6-16.87,14.61-10.81,26.97,6.06,12.36,22.22,7.13,29.11-1.55,6.89-8.67,13.78-15.66,16.16-13.41s18.1,13.34,29.62,12.27c11.52-1.07,21.62-26.85,24.24-33.27s4.07-14.85,1.38-23.88c-2.69-9.03,1.47-14.5,8.96-13.07s24.36,2.14,34.81-3.92c10.46-6.06,12-8.79,10.34-17.47-1.66-8.67,2.73-14.73,9.39-13.31,6.65,1.43,15.76,1.78,17.19-7.96s14.5-17.47,21.03-22.69,31.84-26.02,38.85-30.77,12.83-15.45,19.25-16.46c6.42-1.01,19.25-13.08,25.31-18.27s14.06-14.26,17.54-17.83c3.49-3.56,3.33-10.69-.71-15.05-4.04-4.36-11.09-7.13-20.16-.4Z" fill="#4D4E4E" stroke="#2a2a2a" stroke-miterlimit="10" stroke-width=".55"/><path d="M448.84,27.44s-3.33,3.74-5.52,5.29-4.34,1.31-4.51,4.63c-.18,3.33,6.77,5.05,10.4,6.12s10.22,1.66,10.99-2.73-.77-8.38-1.66-11.76-5.64-5.64-9.68-1.54Z" fill="#4D4E4E" stroke="#2a2a2a" stroke-miterlimit="10" stroke-width=".55"/><rect x="440.52" y="52.26" width="9.08" height="15.04" rx=".99" ry=".99" transform="translate(890.12 119.55) rotate(180)" fill="#4D4E4E" stroke="#2a2a2a" stroke-miterlimit="10" stroke-width=".55"/><path d="M429.04,162.73s-3.58,15.92-4.77,22.57-2.72,11.88,2.38,18.65c5.1,6.77,11.28,11.98,5.1,18.35-6.18,6.37-14.14,22.29-18.3,28.47-4.16,6.18-5.47,12.48-1.07,18.89,4.4,6.42,8.91,9.15,7.37,20.32s-4.16,17.94-10.1,25.66-9.98,14.85-9.5,23.52c.48,8.67,12.05,9.98,17.08,12,5.02,2.02,6.37,6.46,2.88,12.55-3.49,6.1-10.77,4.51-13.47-.48s-8.36-8.27-12.02-3.34-8.68,10.92-11.72,13.74c-3.04,2.82-6.12,8.69-1.13,14.31,4.99,5.62,10.14.24,13.11-2.85s9.86-5.15,12.55-2.3c2.69,2.85,3.8,11.33,11.56,12.08s8.16-4.32,8.55-6.93c.4-2.61,5.09-12.4,6.78-15.7s.66-7.75-2.43-11.39c-3.09-3.64-2.61-6.81-.08-9.74,2.53-2.93,5.54-9.27,6.5-17.11s7.52-24.71,11.49-34.69c3.96-9.98,6.18-19.8,6.81-28.2.63-8.4,1.9-13.94,3.96-19.01,2.06-5.07,1.43-20.44,1.58-28.04.16-7.6-.48-26.38,0-36.12.48-9.74,1.19-19.72.95-24.08-.24-4.36-1.98-14.5-15.29-14.89-13.31-.4-16.6,5.07-18.8,13.74Z" fill="#4D4E4E" stroke="#2a2a2a" stroke-miterlimit="10" stroke-width=".55"/><rect x="354.57" y="341.47" width="9.95" height="11.89" rx=".99" ry=".99" transform="translate(476.29 833.56) rotate(-147.52)" fill="#4D4E4E" stroke="#2a2a2a" stroke-miterlimit="10" stroke-width=".55"/><rect x="383.72" y="293.11" width="9.84" height="34.41" rx=".99" ry=".99" transform="translate(549.85 780.8) rotate(-147.52)" fill="#4D4E4E" stroke="#2a2a2a" stroke-miterlimit="10" stroke-width=".55"/><path d="M334.75,477.27l22.15,12.08c.08.04.16.08.25.11l9.89,3.24c.05.02.1.04.15.06l7.48,3.39c.75.34,1.08,1.22.74,1.97l-4.94,10.88c-.29.64-.99.99-1.67.84l-20.71-4.57c-.14-.03-.27-.08-.4-.15l-22.22-12.22c-.74-.41-.99-1.35-.56-2.07l7.85-13.02c.41-.68,1.29-.92,1.99-.54Z" fill="#4D4E4E" stroke="#2a2a2a" stroke-miterlimit="10" stroke-width=".55"/><path d="M473.21,315.06h0c1.81.96,4.07.31,5.09-1.47l6.34-11.01c.19-.34.52-.57.9-.65l16.33-3.45c.78-.16,1.25-.96,1.02-1.72l-5.88-19.54c-1.16-3.86-6.43-4.34-8.27-.75l-17.14,33.49c-.95,1.86-.23,4.13,1.61,5.11Z" fill="#4D4E4E" stroke="#2a2a2a" stroke-miterlimit="10" stroke-width=".55"/><path d="M549.26,459.48s-8.9-14.78-10.99-29.99c-2.08-15.21-5.77-34.22-14.32-40.63-8.55-6.42-23.29-1.78-25.66,12.71-2.38,14.5,7.25,29.58,10.46,37.07,3.21,7.49,5.58,11.29,2.49,17.94-3.09,6.65-8.12,10.1,1.07,25.31,9.19,15.21,12.57,19.96,12.23,28.83-.35,8.87.6,9.82,5.99,12.51,5.39,2.69,8.76,12.2,10.79,22.18,2.04,9.98,6.47,23.21,20.41,34.14,13.94,10.93,25.98,29.94,30.89,39.45,4.91,9.5,32.95,40.71,43.64,52.83s40.32,38.42,52.2,36.51,17.03-2.57,20.12,6.63c3.09,9.21,10.81,18,20.67,19.43,9.86,1.43,15.92-5.82,16.16-13.9s-7.13-17.19-12.59-20.65-9.23-2.47-12.79-2.95-5.23-4.91-5.7-7.29-6.5-10.89-13.62-15.88c-7.13-4.99-31.01-21.98-38.02-26.49-7.01-4.51-21.15-16.4-30.3-28.28-9.15-11.88-29.58-38.97-36-47.88-6.42-8.91-17.94-31.01-22.22-39.56-4.28-8.55-5.7-14.61-6.18-20.2s-3.21-17.35-6.89-25.9-11.84-25.94-11.84-25.94Z" fill="#4D4E4E" stroke="#2a2a2a" stroke-miterlimit="10" stroke-width=".55"/><path d="M698.24,741.27l-1.31,2.88c-.51,1.11-1.85,1.57-2.93.99l-20.92-11.28c-.3-.16-.55-.39-.74-.67l-7.9-11.62c-1.17-1.72-.47-4.08,1.44-4.88l.68-.29c3.23-1.36,6.96.03,8.5,3.18l4.09,8.37c.19.39.49.71.87.92l17.33,9.69c.96.54,1.35,1.72.89,2.72Z" fill="#4D4E4E" stroke="#2a2a2a" stroke-miterlimit="10" stroke-width=".55"/><rect x="609.52" y="717.78" width="9.83" height="11.93" rx=".99" ry=".99" transform="translate(1508.42 1043.31) rotate(150)" fill="#4D4E4E" stroke="#2a2a2a" stroke-miterlimit="10" stroke-width=".55"/><rect x="641.21" y="798.21" width="13.66" height="7.87" rx=".99" ry=".99" transform="translate(1633.04 1107.38) rotate(146.15)" fill="#4D4E4E" stroke="#2a2a2a" stroke-miterlimit="10" stroke-width=".55"/><rect x="655.97" y="786.64" width="12.91" height="8.49" rx=".99" ry=".99" transform="translate(1666.83 1026.38) rotate(143.14)" fill="#4D4E4E" stroke="#2a2a2a" stroke-miterlimit="10" stroke-width=".55"/><rect x="628.13" y="734.91" width="10.53" height="23.85" rx=".99" ry=".99" transform="translate(1555.35 1076.9) rotate(150)" fill="#4D4E4E" stroke="#2a2a2a" stroke-miterlimit="10" stroke-width=".55"/><path d="M474.07,637.95s5.64,9.86,7.66,12.89,4.22,5.23,8.32,3.68,3.21-6.77,2.38-9.09-4.36-10.31-5.41-12.3c-1.66-3.15-5.88-4.28-9.92-2.26s-4.46,4.4-3.03,7.07Z" fill="#4D4E4E" stroke="#2a2a2a" stroke-miterlimit="10" stroke-width=".55"/><path d="M511.42,694.71l-11.45,3.95c-.5.17-1.05-.1-1.21-.61l-10.96-35.52c-.91-2.96.76-6.1,3.73-6.99h0c2.78-.83,5.73.6,6.79,3.29l13.68,34.63c.2.5-.06,1.06-.57,1.24Z" fill="#4D4E4E" stroke="#2a2a2a" stroke-miterlimit="10" stroke-width=".55"/><rect x="306.53" y="781.66" width="14.09" height="39.69" rx=".99" ry=".99" transform="translate(-196.9 1494.44) rotate(-122.25)" fill="#4D4E4E" stroke="#2a2a2a" stroke-miterlimit="10" stroke-width=".55"/><rect x="676.55" y="953.85" width="15.39" height="21.94" rx=".99" ry=".99" transform="translate(90.09 1987.59) rotate(-114.5)" fill="#4D4E4E" stroke="#2a2a2a" stroke-miterlimit="10" stroke-width=".55"/><rect x="681.84" y="993.48" width="15.71" height="11.03" rx=".99" ry=".99" transform="translate(66.69 2040.89) rotate(-114.5)" fill="#4D4E4E" stroke="#2a2a2a" stroke-miterlimit="10" stroke-width=".55"/><rect x="693.52" y="1018.35" width="14.66" height="10.25" rx=".99" ry=".99" transform="translate(60.2 2085.67) rotate(-114.5)" fill="#4D4E4E" stroke="#2a2a2a" stroke-miterlimit="10" stroke-width=".55"/><rect x="575.57" y="1037.18" width="8.09" height="9.53" rx=".99" ry=".99" transform="translate(-32.93 2064.88) rotate(-120)" fill="#4D4E4E" stroke="#2a2a2a" stroke-miterlimit="10" stroke-width=".55"/><rect x="590" y="1093.7" width="37.7" height="16.63" rx=".99" ry=".99" transform="translate(-97.63 2144.13) rotate(-116.95)" fill="#4D4E4E" stroke="#2a2a2a" stroke-miterlimit="10" stroke-width=".55"/><path d="M943.67,1251.53s-2.85,5.98,1.27,11.05c4.12,5.07,11.17,3.21,13.82-2.57,2.65-5.78-.51-12.2-4.24-13.47s-9.03-.04-10.85,4.99Z" fill="#4D4E4E" stroke="#2a2a2a" stroke-miterlimit="10" stroke-width=".55"/><rect x="969.82" y="1268.13" width="36.63" height="8.71" rx=".99" ry=".99" transform="translate(1636.42 2747.39) rotate(-165.9)" fill="#4D4E4E" stroke="#2a2a2a" stroke-miterlimit="10" stroke-width=".55"/><path d="M928.12,1132.59l7.72-4.07c.94-.5,1.28-1.68.74-2.6l-20.46-34.85c-1.88-3.2-6.67-2.64-7.75.91l-1.3,4.23c-.4,1.31-.24,2.72.43,3.91l18.12,31.74c.5.87,1.6,1.19,2.49.73Z" fill="#4D4E4E" stroke="#2a2a2a" stroke-miterlimit="10" stroke-width=".55"/><rect x="1028.19" y="1231.62" width="12.49" height="28.32" rx=".99" ry=".99" transform="translate(2312.8 2239.68) rotate(167.57)" fill="#4D4E4E" stroke="#2a2a2a" stroke-miterlimit="10" stroke-width=".55"/><rect x="1034.1" y="1262.75" width="28.46" height="14.06" rx=".99" ry=".99" transform="translate(2281.19 2361.29) rotate(171.06)" fill="#4D4E4E" stroke="#2a2a2a" stroke-miterlimit="10" stroke-width=".55"/><rect x="1092.08" y="917.84" width="12.28" height="12.28" rx=".99" ry=".99" transform="translate(2126.43 1925.29) rotate(-175.83)" fill="#4D4E4E" stroke="#2a2a2a" stroke-miterlimit="10" stroke-width=".55"/><rect x="1123.93" y="920.16" width="12.28" height="12.28" rx=".99" ry=".99" transform="translate(1941.57 2141.43) rotate(-163.08)" fill="#4D4E4E" stroke="#2a2a2a" stroke-miterlimit="10" stroke-width=".55"/><rect x="1129.04" y="854.76" width="12.28" height="38.41" rx=".99" ry=".99" transform="translate(2009.93 2008.55) rotate(-165.22)" fill="#4D4E4E" stroke="#2a2a2a" stroke-miterlimit="10" stroke-width=".55"/><path d="M1052.55,906.78s-8.97-.59-13.07-.77-6.59,1.19-7.37,5.23,1.13,8.61,4.93,9.21,11.52.59,14.97.83,6.36-1.19,6.59-5.41-.06-8.55-6.06-9.09Z" fill="#4D4E4E" stroke="#2a2a2a" stroke-miterlimit="10" stroke-width=".55"/><path d="M1002.05,885.06s-4.4,5.64-5.94,9.62-4.87,5.75-10.28,3.56-4.63-7.49-2.55-11.35,5.11-7.66,7.13-9.68,7.13-2.67,9.92-.65,4.75,5.05,1.72,8.5Z" fill="#4D4E4E" stroke="#2a2a2a" stroke-miterlimit="10" stroke-width=".55"/><path d="M991.2,917.04s-4.4,1.07-7.49,2.38c-3.09,1.31-5.35,2.91-4.22,7.66s4.57,8.5,8.32,6.3,7.37-5.58,8.73-7.37,2.61-3.92,1.6-6.77-4.51-2.97-6.95-2.2Z" fill="#4D4E4E" stroke="#2a2a2a" stroke-miterlimit="10" stroke-width=".55"/><path d="M393.97,787.75s-6.42,1.03-12.44-.71c-6.02-1.74-9.9-3.02-12.28.51s.4,7.1,4.12,10.34c3.72,3.25,7.92,8.71,10.14,10.14s9.5,2.14,13.7-4.2c4.2-6.34,7.6-16.48-3.25-16.08Z" fill="#4D4E4E" stroke="#2a2a2a" stroke-miterlimit="10" stroke-width=".55"/><path d="M411.6,807.59s-19.12,7.49-26.79,11.64-8.97,9.31-6.6,17.25,14.57,9.72,23.03,12.46,17.25,7.52,26.99,2.99,15.8-14.04,12.59-25.44-6.88-19.37-12.48-20.67c-7.13-1.66-16.75,1.78-16.75,1.78Z" fill="#4D4E4E" stroke="#2a2a2a" stroke-miterlimit="10" stroke-width=".55"/><path d="M378.8,856.78s-6.65-.95-11.88-9.27-10.06-16.4-18.75-18.42-13.83-2.24-18.51-5.64-10.72-6.13-18.51.76c-7.79,6.89-1.38,26.97,8.72,28.51s21.74-.12,20.79,4.04,1.43,18.06,11.52,17.47,15.56-3.92,21.62-3.56,8.68-.48,10.99-4.63c2.31-4.16-.9-8.55-6-9.27Z" fill="#4D4E4E" stroke="#2a2a2a" stroke-miterlimit="10" stroke-width=".55"/><path d="M95.6,601.89s-7.29-3.23-10.93-6.21c-3.64-2.98-7.68-5.75-12.04-.52-4.36,5.23-3.64,9.43,1.5,11.72,5.15,2.3,7.29,6.26,9.66,10.22,2.38,3.96,7.84,8,12.91,2.93,5.07-5.07,6.26-15.76-1.11-18.14Z" fill="#4D4E4E" stroke="#2a2a2a" stroke-miterlimit="10" stroke-width=".55"/><path d="M95.76,546.56s-5.86,11.01-1.35,17.43c4.51,6.42,16.71,7.68,20.83,0,4.12-7.68,1.9-15.52-3.17-19.49-5.07-3.96-13.62-3.64-16.32,2.06Z" fill="#4D4E4E" stroke="#2a2a2a" stroke-miterlimit="10" stroke-width=".55"/><path d="M458.82,521.46s-7.95-12.04-16.72-22.5c-8.77-10.46-9.88-18.42-6.71-27.27s5.09-13.29,1.55-18.97c-3.53-5.68-13.63-10.2-10.19-23.98,3.45-13.78,13.07-13.31,18.42-7.25,5.35,6.06,5.93,13.46,11.46,21.76,5.53,8.3,13.73,13.65,16.94,19.7s3.56,14.26,5.47,19.37,4.75,6.18,9.74,8.55,8.2,10.81,10.34,20.44,21.07,42.52,27.25,48.69c6.18,6.16,14.1,9.49,15.84,23.11,1.74,13.62,5.7,17.58,9.19,23.92s4.91,27.09,13.78,43.56c8.87,16.48,20.75,37.39,27.25,49.58,6.5,12.2,10.14,31.01,16.32,45.37,6.18,14.36,11.72,18.95,17.11,26.71,5.39,7.76,6.97,21.39,9.98,31.68,3.01,10.3,5.15,22.22,6.57,30.24s3.8,18.71-11.05,23.7c-14.85,4.99-20.4-3.33-23.8-12.59-3.41-9.27-11.13-40.81-16.83-50.94-5.7-10.13-14.73-28.41-17.82-40.97s-7.84-27.77-16.79-42.35c-8.95-14.57-17.35-29.15-25.27-42.93-7.92-13.78-14.42-28.48-16.79-41.57s-11.56-24.65-16.95-30.83c-5.39-6.18-7.6-16.16-15.21-26.77-7.6-10.61-8.4-10.3-10.3-21.39-1.9-11.09-12.77-26.1-12.77-26.1Z" fill="#4D4E4E" stroke="#2a2a2a" stroke-miterlimit="10" stroke-width=".55"/><path d="M1100.35,868.43s-8.44-3.45-12.53-5.7-12.95-4.75-16.57,0-1.31,9.92,4.1,13.37c5.41,3.45,8.2,8.02,7.96,12s.36,9.98,5.94,11.47c5.58,1.49,8.44-2.91,9.03-6.36s1.53-3.68,5.04-7.6,5.35-12.48-2.97-17.17Z" fill="#4D4E4E" stroke="#2a2a2a" stroke-miterlimit="10" stroke-width=".55"/><path d="M1053.44,930.48s-5.54,3.71-14.1,2.84-20.32.48-23.54,10.3c-3.23,9.82,3.74,16.4,10.71,17.11s6.44-6.97,16.37-6.81c9.93.16,21.57.46,22.92-8.29,1.35-8.74-1.74-19.73-12.36-15.15Z" fill="#4D4E4E" stroke="#2a2a2a" stroke-miterlimit="10" stroke-width=".55"/><path d="M1021.63,823.85s-15.09-2.26-24.24-5.35-14.14-3.21-21.27-1.54c-7.13,1.66-10.79.46-12.35-4.7-1.55-5.16-3.1-8.61-14.74-11.22s-50.18-14.91-64.79-22.15c-14.61-7.24-23.52-15.48-30.18-20.35-6.65-4.87-26.85-7.84-34.46,13.07-7.6,20.91,15.68,41.35,37.86,46.89,22.18,5.54,42.93,10.61,48.79,14.1,5.86,3.49,11.09,16.79,24.87,19.17s13.19-7.35,20.46-5.65c7.27,1.69,9.17,17.22,20.89,22.13,11.72,4.91,18.85-.32,27.56,2.69s28.4,7.45,31.21-2.53,3.96-13.62,5.7-20.91,3.88-23.52-15.33-23.64Z" fill="#4D4E4E" stroke="#2a2a2a" stroke-miterlimit="10" stroke-width=".55"/><path d="M884.85,896.68s-31.97-12.2-45.28-19.01c-13.31-6.81-14.03-14.73-21.43-23.92-7.4-9.19-13.58-12.67-26.41-18.06-12.83-5.39-27.25-18.06-32.32-24.08s-8.79-16.87-15.45-19.13-16.04,11.47-20.85,9c-4.81-2.47-.65-15.16-2.67-22.59s-9.03-13.02-16.51-16.59-9.03-3.51-14.73-2.88-9.27.24-10.1-6.4-2.18-9.29-6.3-12.14c-4.12-2.85-6.18-4.75-8.55-8.71-2.38-3.96-10.77-6.73-17.35,1.35-6.57,8.08-4.68,16.21.95,19.51s11.12,8.37,13.88,15.97c2.76,7.6,11.51,16.51,26.12,16.24,14.61-.28,19.6,8.28,17.58,14.34s-4.04,14.73,5.47,22.57c9.5,7.84,28.99,26.38,41.98,36.36,12.99,9.98,16.63,16.45,24.71,16.07s12.36,4.72,12.2,13.11c-.16,8.39,3.01,13.76,12.99,19.3,9.98,5.54,41.5,23.45,55.92,29.78,14.42,6.34,38.49,10.46,48.48-2.85s1.9-29.62-4.75-32.16c-6.65-2.53-10.59-2.38-17.57-5.07Z" fill="#4D4E4E" stroke="#2a2a2a" stroke-miterlimit="10" stroke-width=".55"/><path d="M551.54,951.57s-12.51-28.36-18.06-38.97c-5.54-10.61-17.72-31.05-30.01-39.13s-20.37-12.04-27.97-17.58c-7.6-5.54-18.22-1.56-26.46,3.5-8.24,5.06-10.14,18.14-2.22,24.59,7.92,6.45,25.86,16.27,36.93,31.48s18.2,21.23,23.9,28.51c5.7,7.29,10.61,16.95,14.26,23.76,3.64,6.81,11.35,18.57,22.94,13.8s12.7-17.6,6.68-29.96Z" fill="#4D4E4E" stroke="#2a2a2a" stroke-miterlimit="10" stroke-width=".55"/><path d="M585.23,936.92s10.42,17.9,14.54,29.62c4.12,11.72,2.06,22.5,1.74,29.78-.32,7.29,3.96,16.63,15.84,22.02,11.88,5.39,14.73,7.6,22.18,9.19,7.45,1.58,10.93,8.08,13.47,14.41,2.53,6.34,8.95,17.27,18.4,15.49,9.44-1.78,15.98-13.55,12.18-25.49-3.8-11.94-11.29-13.04-19.25-16.94-7.96-3.9-8.2-10.8-8.44-18.87-.24-8.08-1.19-26.14-11.88-33.39-10.69-7.25-14.02-19.13-15.56-24.36s-6.65-15.09-11.76-19.84c-5.11-4.75-22.93-40.16-28.16-50.85s-14.49-36.2-19.09-42.69c-4.6-6.5-8.4-15.45-9.43-19.96-1.03-4.51-8.55-15.97-21.54-19.39-12.99-3.42-21.39,5.29-18.53,15.43,2.85,10.14,8.08,17.58,7.76,26.93-.32,9.35-1.74,15.93,7.92,25.79s22.97,36.95,27.25,46.13c4.28,9.19,22.37,36.99,22.37,36.99Z" fill="#4D4E4E" stroke="#2a2a2a" stroke-miterlimit="10" stroke-width=".55"/><path d="M827.5,1048.84s-17.27-14.26-27.09-26.93c-9.82-12.67-29.31-45.15-33.11-51.17-3.8-6.02-9.9-14.89-10.38-20.48-.48-5.58-1.9-10.93-6.77-14.38-4.87-3.45-17.35-27.68-20.2-34.97-2.85-7.29-3.8-16.16-17.43-11.25-13.62,4.91-18.38,16-13.31,30.89,5.07,14.89,16,33.43,18.53,42.61,2.53,9.19.95,14.89,9.82,19.96s7.88,13.93,12.34,24.08,11.9,18.22,17.45,26.62c5.54,8.4,26.3,36.28,31.68,44.83,5.39,8.55,3.8,15.52,12.99,18.53,9.19,3.01,17.9-3.17,24.24-10.3,6.34-7.13,20.99-15.45,1.23-38.06Z" fill="#4D4E4E" stroke="#2a2a2a" stroke-miterlimit="10" stroke-width=".55"/><path d="M830.55,1096.64s-17.23,26.38-10.69,35.05c6.53,8.67,14.67.83,18.56-5.58s11.28-5.23,10.32,2.38c-.96,7.6,3.32,17.19,9.5,22.14s15.63,4.67,20.89,0c5.25-4.67,5.13-10.38,1.09-15.37s-7.25-9.62-8.79-13.07-3.35-5.19-7.5-6.22-6.52-2.81-4.27-9.94c2.26-7.13,3.45-14.5-4.16-17.82-7.6-3.33-18.89.83-24.95,8.44Z" fill="#4D4E4E" stroke="#2a2a2a" stroke-miterlimit="10" stroke-width=".55"/><path d="M1015.24,1241.78s-5.88-.64-8.2-4.98-6.06-7.74-10.28-5.53c-4.22,2.21-2.61,7.76-1.01,10.51s1.27,6.73-.29,9.46c-1.56,2.73-3.16,10.22,6.7,11.29,9.86,1.07,17.64-2.02,19.66-9.56,2.02-7.54-2.38-10.6-6.59-11.18Z" fill="#4D4E4E" stroke="#2a2a2a" stroke-miterlimit="10" stroke-width=".55"/><path d="M1029.08,1147.26s-5.23-23.21-9.5-37.03-4.87-29.19-3.78-35.37-.65-13.31-6.04-21.23-2.38-30.1,3.8-37.23,23.45-24.24,23.13-32.79c-.32-8.55-7.45-10.61-17.11-11.09-9.66-.48-11.45-2.85-17.84-4.91s-16.49-3.33-22.93,6.81c-6.44,10.14-.74,14.57,1.8,18.85,2.54,4.28.95,11.14-9.03,16.02-9.98,4.89-12.83,23.5-12.51,35.18s12.51,30.85,17.58,39.88c5.07,9.03,13.78,29.31,18.69,41.98,4.91,12.67,10.61,27.88,14.1,33.74,3.49,5.86,7.6,10.46,15.05,7.29,7.45-3.17,7.13-8.71,4.59-20.12Z" fill="#4D4E4E" stroke="#2a2a2a" stroke-miterlimit="10" stroke-width=".55"/><path d="M1065.56,1159.1s2.85,13.19,4.04,20.79c1.19,7.6.48,18.42-.83,24.83-1.31,6.42-1.54,12.24,5.7,12.36s10.26,1.35,10.5,4.65c.24,3.31-4.51,4.18-4.75,9.41s-2.61,6.46-3.8,11.43c-1.19,4.97-2.3,12.41,6.42,17.56,8.71,5.15,16.71,2.22,21.86-8.24s4.36-22,.4-26.21c-3.96-4.21-4.99-5.71-3.88-8.88s2.46-2.53,6.02-3.25,9.03-3.33,8.4-8.79-9.07-20.28-11.51-32c-2.43-11.72-7.19-38.97-7.98-52.44-.79-13.47-.16-27.41,4.44-49.27,4.59-21.86,3.96-29.94-8.55-34.22-12.51-4.28-35.33-9.55-42.3,1.8-6.97,11.35-7.8,28.14-2.4,34.32,5.41,6.18,8.42,9.13,9.37,24.13s4.28,20.23,5.7,25.45,2.06,12.36,1.58,18.38,1.11,14.65,1.58,18.18Z" fill="#4D4E4E" stroke="#2a2a2a" stroke-miterlimit="10" stroke-width=".55"/><path d="M820.33,1207.07s-57.35-20.21-68.75-24.48c-11.41-4.28-27.88-16.63-45.15-19.49s-38.65-7.6-59.25-17.11c-20.59-9.5-29.62-12.86-33.9-5.24s-7.76,11.66-15.13,8.69c-7.37-2.97-10.93-4.4-19.84-7.13-8.91-2.73-23.28-9.96-28.21-2.96s-4.11,12.82,3.62,15.56c7.72,2.73,10.93,6.06,13.31,8.67,2.38,2.61,9.98,7.72,20.32,9.86s13.54-1.31,16.51-4.28,10.1-.36,14.61,4.99,13.66,9.27,20.67,5.47,13.19-2.5,14.73,3.56,3.92,16.4,16.4,15.21,22.57.88,34.61,7.29c12.04,6.41,23.29,9.26,28.83,9.42s15.62,3.33,23.02,7.92c7.4,4.59,14.69,2.06,23.08,3.64,8.4,1.58,18.85,7.6,23.29,12.67,4.44,5.07,11.25,5.86,15.68,4.75,4.44-1.11,4.91,2.69,12.67,4.44,7.76,1.74,27.59,3.64,32.01-3.8s6.8-16.63-9.68-24.71c-16.48-8.08-33.47-12.94-33.47-12.94Z" fill="#4D4E4E" stroke="#2a2a2a" stroke-miterlimit="10" stroke-width=".55"/><path d="M465.56,706.38s-16.07,10.8-19.96,13.26-6.82-.15-13.15,3.74-22.57,16.71-27.41,19.72-6.65,7.6-3.8,11.72,17.58-.32,22.42-2.3c4.83-1.98,12.83-4.2,16.95-5.39s7.45-2.41,7.37-7.97c-.08-5.57,2.85-8.9,7.37-10.64s7.6,1.66,10.85,3.72c3.25,2.06,8.24,1.38,16.24-4.3,8-5.68,7.91-12.97,3.32-19.07s-12.35-7.47-20.19-2.51Z" fill="#4D4E4E" stroke="#2a2a2a" stroke-miterlimit="10" stroke-width=".55"/></g><g id="sand"><path d="M164.29,639.49s-1.6,3.03-1.66,4.99-3.45,5.17-2.73,9.45c.71,4.28,4.81,4.57,6.89,3.39s2.73-4.75,2.14-7.37-1.19-4.22-.3-6.77.24-4.87-1.19-5.64-2.85,1.43-3.15,1.96Z" fill="#9B9B9B" stroke="#7a7a7a" stroke-miterlimit="10" stroke-width=".75"/><path d="M173.02,628.85s2.26,7.37,6.12,6.77,3.27-5.76,1.07-9.21-4.1-6.18-6.3-5.47-1.96,5.94-.89,7.9Z" fill="#9B9B9B" stroke="#7a7a7a" stroke-miterlimit="10" stroke-width=".75"/><path d="M281.75,522.67s-2.22-1.27-3.72.16c-1.5,1.43.12,3.88.91,4.83.79.95,3.41,1.19,4.4-.2s.63-3.52-1.58-4.79Z" fill="#9B9B9B" stroke="#7a7a7a" stroke-miterlimit="10" stroke-width=".75"/><path d="M246.76,464.12s2.08,4.16,4.51,4.87,3.86-1.37,2.85-4.87-1.54-5.88-4.28-5.58-3.98,3.98-3.09,5.58Z" fill="#9B9B9B" stroke="#7a7a7a" stroke-miterlimit="10" stroke-width=".75"/><path d="M387.14,160.4s-1.94,1.11-1.54,3.01,2.38,2.5,3.64,1.98,2.3-1.07,1.74-3.29c-.55-2.22-2.3-2.73-3.84-1.7Z" fill="#9B9B9B" stroke="#7a7a7a" stroke-miterlimit="10" stroke-width=".75"/><path d="M394.78,158.02s-3.29,1.98-2.53,4.44,3.84,2.38,5.62,1.35,3.68-2.46,2.42-5.19c-1.27-2.73-4.36-1.39-5.5-.59Z" fill="#9B9B9B" stroke="#7a7a7a" stroke-miterlimit="10" stroke-width=".75"/><path d="M407.71,120.51s-.12,3.45.53,5.85c.65,2.41,1.51,4.54,2.44,4.4s2.32-3.21,2.85-5.29.86-4.22-.77-5.55-4.54-2.94-5.05.59Z" fill="#9B9B9B" stroke="#7a7a7a" stroke-miterlimit="10" stroke-width=".75"/><path d="M380.35,96.45s-1.43,2.11.33,5.02c1.75,2.91,4.78,3.83,6.15,1.54,1.37-2.29,1.4-5.2.15-6.56s-4.57-3.06-6.62,0Z" fill="#9B9B9B" stroke="#7a7a7a" stroke-miterlimit="10" stroke-width=".75"/><path d="M341.8,170.03s-1.43-.2-1.82-1.98c-.4-1.78-2.73-4.32-4.99-2.81-2.26,1.5-3.96,2.97-1.94,5.82,2.02,2.85,6.1,4.44,7.68,4.32s2.24-1.39,2.57-2.53c.32-1.07-.04-2.5-1.5-2.81Z" fill="#9B9B9B" stroke="#7a7a7a" stroke-miterlimit="10" stroke-width=".75"/><path d="M353.84,222.9s-4.46-1.25-5.52-.16-1.68,3.13.89,5.86c2.57,2.73,5.27,4.67,6.85,3.45s1.43-3.68.87-5.78-1.78-2.97-3.09-3.37Z" fill="#9B9B9B" stroke="#7a7a7a" stroke-miterlimit="10" stroke-width=".75"/><path d="M225.59,346.71c-.35-.41-3.53-4.69-6.06-4.93s-5.2,1.28-6.24-.45c-1.04-1.72,1.28-3.39,3.03-3.21s1.75.15,2.76-.21,3.89.3,5.64,1.28c1.75.98,2.82,3.48,3.71,5.76s.42,5.55-2.85,1.75Z" fill="#9B9B9B" stroke="#7a7a7a" stroke-miterlimit="10" stroke-width=".75"/><path d="M256.03,398.59c-.12,0-6.42,1.66-8.51,2.38-2.1.71-4,1.9-3.45,4.08s4.71.67,6.73,1.27,4.55,0,6.65-1.62c2.1-1.62,3.09-4.08,2.61-5.54s-3.21-.59-4.04-.55Z" fill="#9B9B9B" stroke="#7a7a7a" stroke-miterlimit="10" stroke-width=".75"/><path d="M158.21,133.85s-2.11,1.01-1.81,3.8,3,5.58,5.26,4.31c2.26-1.28,2.26-3,2.05-4.93-.21-1.93-1.69-5.64-5.5-3.18Z" fill="#9B9B9B" stroke="#7a7a7a" stroke-miterlimit="10" stroke-width=".75"/><path d="M194.14,157.98s-1.78.95-2.61.48-3.12-.8-4.54.95-.77,4.57,1.69,6.27,4.4,4.04,5.47,4.93,2.7,1.72,4.16.59.83-2.94.12-4.81-1.6-3.42-1.1-4.66c.5-1.25.33-2.38-.56-3.21s-1.81-.95-2.61-.53Z" fill="#9B9B9B" stroke="#7a7a7a" stroke-miterlimit="10" stroke-width=".75"/><path d="M182.35,169.38s-2.55.09-3.48-.42c-.92-.5-3.74-1.07-4.72.83-.98,1.9-.03,3.06,1.54,4.37,1.57,1.31,1.49,3,1.31,4.31-.18,1.31-.12,4.25,3.53,3s5.02-2.88,5.7-4.31c.68-1.43.24-2.44-.65-3.15s-1.16-1.03-.74-2.27,0-2.75-2.5-2.37Z" fill="#9B9B9B" stroke="#7a7a7a" stroke-miterlimit="10" stroke-width=".75"/><path d="M38.73,327.71s-2.69,1.94-.79,4.67,5.58,2.34,6.73,1.07c1.15-1.27,1.11-3.8-.75-5.35-1.86-1.54-4.32-1.31-5.19-.4Z" fill="#9B9B9B" stroke="#7a7a7a" stroke-miterlimit="10" stroke-width=".75"/><path d="M55.81,362.82s-3.84.91-4,3.68c-.16,2.77,1.5,4.36,3.6,4.55,2.1.2,4.48-1.23,4.51-4.12.04-2.89-2.3-4.59-4.12-4.12Z" fill="#9B9B9B" stroke="#7a7a7a" stroke-miterlimit="10" stroke-width=".75"/><path d="M123.44,283.66s-2.52-6.62-3.36-8.14-2.61-2.61-4.31-1.69-2.47,2.32-1.72,4.49c.74,2.17,3.36,6.42,4.16,7.75.8,1.34,2.11,3.59,3.98,2.52s2.38-2.2,1.25-4.93Z" fill="#9B9B9B" stroke="#7a7a7a" stroke-miterlimit="10" stroke-width=".75"/><path d="M182.66,274.54s-4.55-2.89-6.34-4.75-3.41-2.18-4.44,0-1.23,6.5,2.38,9.03c3.6,2.53,7.56.55,9.07,0s2.26-2.46-.67-4.28Z" fill="#9B9B9B" stroke="#7a7a7a" stroke-miterlimit="10" stroke-width=".75"/><path d="M162.93,238.54s-4.55-4.12-7.09-5.78c-2.53-1.66-7.17.04-7.49,2.89-.32,2.85,2.18,4.95,4.63,4.59s2.02-.32,2.93.95c.91,1.27,3.96,3.49,5.9,2.42s2.93-2.93,1.11-5.07Z" fill="#9B9B9B" stroke="#7a7a7a" stroke-miterlimit="10" stroke-width=".75"/><path d="M281.11,195.43s-4.32-4.2-6.06-5.7c-1.74-1.5-3.72-1.62-2.89,1.07s1.11,4.48.99,5.74.04,5.62,3.92,4.75,6.53-3.29,4.04-5.86Z" fill="#9B9B9B" stroke="#7a7a7a" stroke-miterlimit="10" stroke-width=".75"/><path d="M432.08,214s-2.53-3.25-4.79-3.45c-2.26-.2-5.5-.08-5.5,3.13s1.31,6.14,5.7,6.46,7.41-2.5,4.59-6.14Z" fill="#9B9B9B" stroke="#7a7a7a" stroke-miterlimit="10" stroke-width=".75"/><path d="M418.08,279.22s-6.92-6.69-10.64-9.27c-3.72-2.57-4.67-2.02-4.4.51s1.31,2.72,2.77,3.28,2.42,2.46,3.96,4.68c1.54,2.22,3.21,5.78,6.02,5.35,2.81-.44,4.3-2.22,2.29-4.55Z" fill="#9B9B9B" stroke="#7a7a7a" stroke-miterlimit="10" stroke-width=".75"/><path d="M379.13,368.77s-1.57,2.5-2.02,3.33c-.45.83-.53,2.05.56,2.67s2.11.06,2.73-.68c.62-.74,1.72-2.47,2.08-3.27s.33-1.84-.65-2.44c-.98-.59-2.26-.27-2.7.39Z" fill="#9B9B9B" stroke="#7a7a7a" stroke-miterlimit="10" stroke-width=".75"/><path d="M385.29,359.3s-.79.89-1.21,1.66-.48,1.74.51,2.55,2.14.87,2.83.12,1.84-2.63,1.07-3.56-2.42-1.47-3.21-.77Z" fill="#9B9B9B" stroke="#7a7a7a" stroke-miterlimit="10" stroke-width=".75"/><path d="M390.93,394.9s-1.7-.04-4.04,0c-2.34.04-3.72.63-3.96,2.46s1.31,2.93,3.45,3.05,3.39.12,4.94,0,3.14-1.08,3.3-2.72c.16-1.64-1.58-2.83-3.68-2.79Z" fill="#9B9B9B" stroke="#7a7a7a" stroke-miterlimit="10" stroke-width=".75"/><path d="M403.05,385.16s-3.68-1.9-5.39.95-.36,5.07.91,5.9c1.27.83,5.15,1.07,6.22-.48s.67-5.54-1.74-6.38Z" fill="#9B9B9B" stroke="#7a7a7a" stroke-miterlimit="10" stroke-width=".75"/><path d="M409.59,355.2s-2.57,2.06-1.47,6.37c1.11,4.32,5.23,4.12,7.56,3.33,2.34-.79,5.62-2.34,5.11-6.69s-7.37-6.85-11.21-3.01Z" fill="#9B9B9B" stroke="#7a7a7a" stroke-miterlimit="10" stroke-width=".75"/><path d="M431.69,354.84s-1.7,1.94-.44,3.6c1.27,1.66,3.49,1.98,4.59.51,1.11-1.47,1.31-4.04-.32-4.91-1.62-.87-3.45.04-3.84.79Z" fill="#9B9B9B" stroke="#7a7a7a" stroke-miterlimit="10" stroke-width=".75"/><path d="M436.95,452.72s-3.52-5.9-5.94-4.87c-2.42,1.03-2.26,4.51-.55,8.24s4.48,4.59,5.86,3.76,2.61-2.1.63-7.13Z" fill="#9B9B9B" stroke="#7a7a7a" stroke-miterlimit="10" stroke-width=".75"/><path d="M455.2,441.27s3.16,5.17,5.59,4.51c2.44-.65,3-4.51,1.75-7.4-1.25-2.88-4.4-4.22-6.33-3.21s-2.28,4.04-1.02,6.09Z" fill="#9B9B9B" stroke="#7a7a7a" stroke-miterlimit="10" stroke-width=".75"/><path d="M483.67,477.18s-3.25,3.09-2.1,5.62c1.15,2.53,4.59,1.58,6.34.36,1.74-1.23,4.08-3.96,2.85-6.53-1.23-2.57-5.82-.75-7.09.55Z" fill="#9B9B9B" stroke="#7a7a7a" stroke-miterlimit="10" stroke-width=".75"/><path d="M451.86,706.8s-8.2,3.49-10.5,4.87-2.69,3.21-2.53,5.47c.16,2.26,2,4.04,3.97,4.08s2.33-.67,3.44-2.73,2.57-4.4,6.18-4.2,5.74-.67,6.18-3.68-2.22-5.86-6.73-3.8Z" fill="#9B9B9B" stroke="#7a7a7a" stroke-miterlimit="10" stroke-width=".75"/><path d="M457.08,728.33s-3.45,1.34-5.08,2.26-2.44,2.35-2.11,4.49c.33,2.14,2.26,2.29,4.63,2.73s3.33,1.75,5.47,1.25,2.91-3.03,3.33-5.76-1.87-6.56-6.24-4.96Z" fill="#9B9B9B" stroke="#7a7a7a" stroke-miterlimit="10" stroke-width=".75"/><path d="M591.37,1139.34s-2.14-.94-3.74-1.29-3.59.48-4.13,1.57.74,2.55,3.24,3.33,5.47.92,6.42-.48-.27-2.52-1.78-3.13Z" fill="#9B9B9B" stroke="#7a7a7a" stroke-miterlimit="10" stroke-width=".75"/><path d="M597.16,1144.49s4.43,4.72,6.33,3.65.83-3.74-.71-6-3.06-3.56-4.9-2.44-2.08,2.94-.71,4.78Z" fill="#9B9B9B" stroke="#7a7a7a" stroke-miterlimit="10" stroke-width=".75"/><path d="M810.46,1054.75s-2.11,2.14-1.37,3.8,3.53.98,4.54.21,2.41-2.41,1.16-4.01-3.68-.86-4.34,0Z" fill="#9B9B9B" stroke="#7a7a7a" stroke-miterlimit="10" stroke-width=".75"/><path d="M843.09,1124.88s-2.85,3.25-3.64,5.43c-.79,2.18-1.86,4.08,0,5.78,1.86,1.7,4,1.37,5.47-.98,1.47-2.35,2.22-3.7,2.93-4.84s1.58-3.64,0-5.23-3.52-1.86-4.75-.16Z" fill="#9B9B9B" stroke="#7a7a7a" stroke-miterlimit="10" stroke-width=".75"/><path d="M867.68,1107.34s-5.35-1.03-6.93,1.82c-1.58,2.85.63,5.43,3.17,6.81s6.97,1.23,8.08-.99-.63-6.81-4.32-7.64Z" fill="#9B9B9B" stroke="#7a7a7a" stroke-miterlimit="10" stroke-width=".75"/><path d="M990.96,1243.84s-2.41.77-2.76,3.42,1.1,5.41,2.76,5.85,3.09-.71,4.16-3.68-.33-7.16-4.16-5.58Z" fill="#9B9B9B" stroke="#7a7a7a" stroke-miterlimit="10" stroke-width=".75"/><path d="M988.91,1233.71s-2.91.86-3.06,3.74c-.15,2.88,1.69,4.72,3.71,4.25s3.68-1.46,3.42-4.31c-.27-2.85-1.69-4.46-4.07-3.68Z" fill="#9B9B9B" stroke="#7a7a7a" stroke-miterlimit="10" stroke-width=".75"/><path d="M985.56,1224.56s-1.63,3.77,1.16,5.73,4.69.56,5.67-.77c.98-1.34,2.44-3.71.98-5.58-1.46-1.87-6.71-2.26-7.81.62Z" fill="#9B9B9B" stroke="#7a7a7a" stroke-miterlimit="10" stroke-width=".75"/><path d="M996.57,1223.17s-1.28,3.71.58,5.47,4.62,1.93,5.57,1.04.8-3.88-1.13-5.91c-1.93-2.03-4.69-2.5-5.02-.59Z" fill="#9B9B9B" stroke="#7a7a7a" stroke-miterlimit="10" stroke-width=".75"/><path d="M1015.95,1233.2s-5.75-1.72-7.35-2.23-4.12-.18-4.59,1.96,1.54,4.93,6.27,6.45c4.72,1.51,9,.89,9.48-.68s-.42-4.54-3.8-5.5Z" fill="#9B9B9B" stroke="#7a7a7a" stroke-miterlimit="10" stroke-width=".75"/><path d="M1082.22,1225.04s-2.82.95-3.09,3.83c-.27,2.88-.06,7.66-3.18,7.87s-4.22-2.97-3.09-5.85,3.13-6.92,4.46-8.44c1.33-1.51,3.8-2.44,5.37-1.46,1.57.98,1.96,2.94-.48,4.04Z" fill="#9B9B9B" stroke="#7a7a7a" stroke-miterlimit="10" stroke-width=".75"/><path d="M1112.88,1231.85s-.67-5.78-2.81-8.08-6.14-6.53-8.12-5.19c-1.98,1.35-1.86,3.01-.48,4.16,1.39,1.15,4.32,3.49,4.75,6.61.44,3.13.04,8.59,3.01,8.87,2.97.28,4.55-2.3,3.64-6.38Z" fill="#9B9B9B" stroke="#7a7a7a" stroke-miterlimit="10" stroke-width=".75"/><path d="M1047.66,1078.55s-3.03.59-2.73,3.21,2.23,3.27,3.68,3.24,2.5-1.28,2.47-2.91c-.03-1.63-1.6-4.01-3.42-3.53Z" fill="#9B9B9B" stroke="#7a7a7a" stroke-miterlimit="10" stroke-width=".75"/><path d="M951.99,1008.67s-2.65,4.71-4.04,7.33-1.66,4.48-.67,6.3c.99,1.82,3.33.75,4.71-.36s3.8-2.34,6.22-3.01,3.68-1.35,4.4-2.61.79-2.85-.87-4-2.22-1.74-3.05-3.33-4.16-4.08-6.69-.32Z" fill="#9B9B9B" stroke="#7a7a7a" stroke-miterlimit="10" stroke-width=".75"/><path d="M971.52,994.61s-1.62,1.9-4.48,2.26-5.62,1.39-6.1,3.8.95,3.96,2.89,5.03c1.94,1.07,2.69,3.09,5.39,2.77s3.17-1.58,3.68-2.85c.51-1.27,1.07-2.06,2.61-2.26s4.55-1.78,3.29-5.19c-1.27-3.41-4.99-5.31-7.29-3.56Z" fill="#9B9B9B" stroke="#7a7a7a" stroke-miterlimit="10" stroke-width=".75"/><path d="M1048.9,960.61s-4.2,1.78-6.69.67-6.14-4.67-8.79-2.57-1.54,5.5,1.07,9.66,6.53,5.47,8.24,4.24,2.77-1.7,4.95-1.58,5.78-.99,6.14-5.23-1.78-7.13-4.91-5.19Z" fill="#9B9B9B" stroke="#7a7a7a" stroke-miterlimit="10" stroke-width=".75"/><path d="M1072.62,882.28s-2.73-1.31-2.77-2.46c-.04-1.15.63-3.96-1.74-5.35s-4.42.36-5.04,2.02c-.62,1.66.33,3.05,1.56,4.51,1.23,1.47,1.07,2.18,1.15,4,.08,1.82,2.65,4.04,5.07,4.08s4.44-4.16,1.78-6.81Z" fill="#9B9B9B" stroke="#7a7a7a" stroke-miterlimit="10" stroke-width=".75"/><path d="M990.07,854.53s-2.26,1.43-3.56,4.4-2.81,4.91-4.99,4.51-2.02-3.68-.36-5.27,2.85-3.17,3.56-5.35,2.93-4.79,4.87-4.12c1.94.67,2.93,3.68.48,5.82Z" fill="#9B9B9B" stroke="#7a7a7a" stroke-miterlimit="10" stroke-width=".75"/><path d="M945.3,846.77s-3.15,4.99-3.39,7.37-1.25,4.75,1.69,6.12c2.94,1.37,3.89-.12,5.38-2.55s5.47-8.91,2.61-11.58-5.23-.83-6.3.65Z" fill="#9B9B9B" stroke="#7a7a7a" stroke-miterlimit="10" stroke-width=".75"/><path d="M964.6,809.92s-2.34,5.78.87,7.21,7.45-.16,7.68-1.7-1.54-2.77-1.07-4.04-.04-3.09-1.54-4.04-4.67-.83-5.94,2.57Z" fill="#9B9B9B" stroke="#7a7a7a" stroke-miterlimit="10" stroke-width=".75"/><path d="M785.79,885.84c-.04.16-.63,2.34,0,4.63.63,2.3.99,5.76-2.89,5.59s-4.2-4.09-3.6-6.11-.32-2.69-.59-4.12.32-4.44,3.74-4.63c3.43-.2,3.94,2.42,3.35,4.63Z" fill="#9B9B9B" stroke="#7a7a7a" stroke-miterlimit="10" stroke-width=".75"/><path d="M703,795.15s-2.3,2.81-3.05,5.47c-.75,2.65-.44,5.47-3.68,5.15s-2.53-3.88-2.34-6.1-.48-6.77,2.57-8.59c3.05-1.82,8.28.32,6.5,4.08Z" fill="#9B9B9B" stroke="#7a7a7a" stroke-miterlimit="10" stroke-width=".75"/><path d="M731.48,787.07c-.11.06-1.82.87-3.92,1.54s-5.11,2.26-6.02,5.98c-.91,3.72-.59,6.26,1.58,6.89s4.24-1.31,4.99-3.09,1.86-2.49,4.28-4.06,3.49-3.35,3.37-5.05-1.11-3.88-4.28-2.22Z" fill="#9B9B9B" stroke="#7a7a7a" stroke-miterlimit="10" stroke-width=".75"/><path d="M637.1,759.92s-2.14,1.35-2.61,0-3.49-3.92-6.85-3.76c-3.37.16-5.03,1.7-4.79,4.87s4.87,5.47,8.48,5.82,6.93-.59,7.72-2.89c.79-2.3.87-5.5-1.94-4.04Z" fill="#9B9B9B" stroke="#7a7a7a" stroke-miterlimit="10" stroke-width=".75"/><path d="M655.04,757.78s-1.62-1.39-2.46-2.46-4.12-3.33-6.97-.75-1.74,5.15.63,6.57,7.6,4.83,9.35,5.43,3.29.99,4.16-.59c.87-1.58.24-3.41-1.19-4.28s-1.78-2.65-3.52-3.92Z" fill="#9B9B9B" stroke="#7a7a7a" stroke-miterlimit="10" stroke-width=".75"/><path d="M681.54,751.8s-.16,5.39,2.85,5.9c3.01.51,5.5-1.7,5.74-3.8s-.95-4.93-3.72-5.49c-2.77-.57-4.99.66-4.87,3.39Z" fill="#9B9B9B" stroke="#7a7a7a" stroke-miterlimit="10" stroke-width=".75"/><path d="M698.92,711.68c-.08.19-1.11,3.84-1.03,6.65.08,2.81,2.1,5.9,4.59,5.78s3.52-2.65,3.41-4.71-.87-3.41-2.14-5.78-3.29-5.78-4.83-1.94Z" fill="#9B9B9B" stroke="#7a7a7a" stroke-miterlimit="10" stroke-width=".75"/><path d="M717,686.81s.89,6.89,3.74,7.54,4.5-4,4.77-6.3-1.5-6.06-3.72-6.5-4.95-.44-4.79,5.25Z" fill="#9B9B9B" stroke="#7a7a7a" stroke-miterlimit="10" stroke-width=".75"/><path d="M648.08,628.1s-1.19,3.27-.42,4.75c.77,1.49,3.45.56,4.4-.65s1.6-3.53,0-4.78-3.39-1.28-3.98.68Z" fill="#9B9B9B" stroke="#7a7a7a" stroke-miterlimit="10" stroke-width=".75"/><path d="M533.58,576.7s-3.58,2.77-5.25,4.83-2.65,4.36-5.03,2.77-3.01-6.61-.63-10.81c2.38-4.2,8.59-3.6,10.69-2.14,2.1,1.47,1.9,3.84.22,5.35Z" fill="#9B9B9B" stroke="#7a7a7a" stroke-miterlimit="10" stroke-width=".75"/><path d="M483.73,551.56s-5.62,2.46-5.43,5.58c.2,3.13,5.35,3.09,7.96,2.65,2.61-.44,6.5-1.78,6.3-4.99-.2-3.21-5.43-4.75-8.83-3.25Z" fill="#9B9B9B" stroke="#7a7a7a" stroke-miterlimit="10" stroke-width=".75"/><path d="M529.83,525.14s-4.63.42-5.19,2.75c-.55,2.34,1.07,4.55,3.29,5.03s5.23-.95,5.74-3.13c.51-2.18-1.98-4.95-3.84-4.65Z" fill="#9B9B9B" stroke="#7a7a7a" stroke-miterlimit="10" stroke-width=".75"/><path d="M578.07,512.94s-1.31,1.07-2.93,1.66-3.01,1.47-2.61,3.68,3.17,2.93,4.91,1.54,3.52-4.08,3.29-5.94-2.1-1.62-2.65-.95Z" fill="#9B9B9B" stroke="#7a7a7a" stroke-miterlimit="10" stroke-width=".75"/></g><g id="water"><path d="M1019.16,905.87l3.72,3.49s6.18-5.78,8.95-7.92c2.77-2.14,11.17-2.38,16.55-2.22,5.39.16,9.43-.71,11.17,1.35,1.74,2.06,2.38,3.64,3.33,3.25s-1.9-5.15-4.67-9.66c-2.77-4.51-6.26-16.48-8.71-22.42-2.46-5.94-2.77-15.37-1.66-21.62,1.11-6.26,4.04-11.01,5.15-14.18,1.11-3.17,2.06-4.59,1.03-5.07s-4.44,5.15-6.34,10.06-3.64,11.01-4.04,19.17c-.4,8.16-2.77,19.09-6.02,26.22-3.25,7.13-9.19,12.36-11.09,14.34s-7.37,5.23-7.37,5.23Z" fill="#9B9B9B"/><path d="M976.82,951.18l1.98,4.36s-12.55,6.97-17.6,11.41-8.62,10.93-12.69,12.59-11.76,7.29-16.04,9.98l-1.9-3.41s11.49-6.26,12.2-9.58.55-11.09,4.91-16.24c4.36-5.15,13.78-9.35,16.95-8.4s6.81,3.17,12.2-.71Z" fill="#9B9B9B"/><path d="M982.76,946.62l2.78,5.12s10.85-4.59,13.94-7.13,6.45-9.54,9.19-13.95c3.4-5.47,7.13-13.55,12.04-18.68l-3.8-3.56s-7.92,8.57-12.75,16.4c-4.83,7.83-7.68,13.69-10.77,15.6s-10.62,6.21-10.62,6.21Z" fill="#9B9B9B"/><path d="M1150.64,816.04c-.58,2.28-2.9,3.66-5.18,3.07-24.32-6.28-149.57-38.83-205.91-57.39-63.81-21.03-224.17-119.72-247.15-136.43-15.18-11.04-52.97-43.66-75.9-107.86-14.91-41.74-52.31-145.25-77.7-204.92-24.22-56.93-37.19-129.63-38.66-163.06-1.26-28.66-4.56-103.32-26.94-139.75-1.19-1.94-.71-4.46,1.16-5.77l4.5-3.14c1.99-1.39,4.75-.85,6.03,1.21,24.5,39.64,27.92,117.1,29.23,146.83,1.39,31.45,14.28,103.48,37.56,158.2,25.53,60.02,63.05,163.84,78,205.69,21.62,60.53,56.82,90.97,70.95,101.25,22.69,16.5,180.71,113.83,243.3,134.46,55.94,18.43,180.78,50.87,205.02,57.13,2.27.59,3.64,2.9,3.05,5.18l-1.36,5.31Z" fill="#9B9B9B"/></g><g id="green"><path d="M149.6,626.46s-7.68,13.54-14.57,18.14c-6.89,4.59-12.99,11.01-10.38,19.88s13.86,9.03,21.31,4.67c7.45-4.36,9.35-9.98,10.14-14.81s1.27-10.69,5.86-15.37c4.59-4.67,5.31-11.56,1.74-15.6s-11.01-3.64-14.1,3.09Z" fill="#FFFFFF" stroke="#e6e6e6" stroke-miterlimit="10" stroke-width=".5"/><path d="M400.61,82.85s-10.1,16.16-6.89,23.64,16.04,5.11,22.34-1.9,14.85-17.58,8.67-26.26c-6.18-8.67-19.37-4.28-24.12,4.51Z" fill="#FFFFFF" stroke="#e6e6e6" stroke-miterlimit="10" stroke-width=".5"/><path d="M29.95,344.83s-7.29,5.78-10.14,8.08-7.76,9.5-4.12,17.19c3.64,7.68,11.64,8.55,16.48,5.07,4.83-3.49,8.55-6.57,12.28-9.82,3.72-3.25,6.57-7.52,3.09-14.65-3.49-7.13-10.3-12.51-17.58-5.86Z" fill="#FFFFFF" stroke="#e6e6e6" stroke-miterlimit="10" stroke-width=".5"/><path d="M394.45,364.29s-4.57,7.49-7.54,10.28-5.88,6.53-3.21,10.1,7.6,1.07,9.09-1.78c1.49-2.85,3.09-4.28,7.37-6.95s5.88-3.98,4.75-9.21-5.64-8.85-10.46-2.44Z" fill="#FFFFFF" stroke="#e6e6e6" stroke-miterlimit="10" stroke-width=".5"/><path d="M422.96,362.45s-.36,3.68-3.5,5.94-5.47,4.69-6.53,11.17c-1.07,6.48-.3,10.93,4.46,12.36s7.25.18,8.14-2.5,3.68-10.4,5.41-13.84,2.97-6.18,1.72-9.45-2.94-6.38-5.11-6.77c-2.32-.42-4.34,1.13-4.57,3.09Z" fill="#FFFFFF" stroke="#e6e6e6" stroke-miterlimit="10" stroke-width=".5"/><path d="M452.9,441.77s-3.68-8.73-5.41-13.19c-1.72-4.46-6.42-9.86-11.88-7.43s-6.8,8.73-6.58,14.32c.22,5.58,3.13,7.96,6.1,10.81s6.24,10.63,7.66,12.06c1.43,1.43,4.57,1.9,8.44-.95s5.76-5.35,1.66-15.62Z" fill="#FFFFFF" stroke="#e6e6e6" stroke-miterlimit="10" stroke-width=".5"/><path d="M198.45,128.53s-2.97,1.31-9.74.65-12.83-.77-16.69,6.71c-3.86,7.49-3.86,15.21,1.66,18,5.52,2.79,11.23,1.43,15.86-2.61s6.59-5.23,11.64-5.94c5.05-.71,10.87-2.67,11.35-8.32.48-5.64-5.88-10.99-14.08-8.5Z" fill="#FFFFFF" stroke="#e6e6e6" stroke-miterlimit="10" stroke-width=".5"/><path d="M740.83,714.16c-.85-1.92-2.07-3.64-3.48-5.2-1.85-2.04-5.08-5.42-7.64-7.13-3.8-2.53-11.41-3.01-15.29.79s-5.07,10.93,1.66,19.64c6.73,8.71,15.67,10.37,21.15,7.52,4.51-2.34,6.7-8.64,3.59-15.63Z" fill="#FFFFFF" stroke="#e6e6e6" stroke-miterlimit="10" stroke-width=".5"/><path d="M674.38,746.82c-1.28-2.04-2.91-3.82-4.73-5.38-1.81-1.56-4.51-4.01-6-5.94-2.38-3.09-7.78-6.95-13.19-1.54s-4.93,13.9-.65,16.16,7.66,6,9.5,9.03,5.16,9.24,11.58,4.99c6.16-4.07,8.13-9.89,3.48-17.31Z" fill="#FFFFFF" stroke="#e6e6e6" stroke-miterlimit="10" stroke-width=".5"/><path d="M468.37,708.01s-4.51,3.27-8.26,5.7-10.34,2.26-11.11,7.07,4.04,6.24,6.77,5.11,6.95-.06,9.62,2.2,7.43,2.38,13.25-.95,9.21-8.55,5.64-14.73-11.7-7.54-15.92-4.4Z" fill="#FFFFFF" stroke="#e6e6e6" stroke-miterlimit="10" stroke-width=".5"/><path d="M340.67,830.56s-8.16-.71-11.8-3.25-12.91-8-16.75,1.62c-3.84,9.62,4.63,20.08,11.37,22.22s20.67-.12,23.59-7.57c2.78-7.1.17-12.47-6.4-13.02Z" fill="#FFFFFF" stroke="#e6e6e6" stroke-miterlimit="10" stroke-width=".5"/><path d="M656.98,1040.58s6.34,15.05,14.73,12.75,10.61-12.04,6.57-20.67c-4.04-8.63-12.28-12.36-17.66-9.27s-6.73,9.43-3.64,17.19Z" fill="#FFFFFF" stroke="#e6e6e6" stroke-miterlimit="10" stroke-width=".5"/><path d="M1098.88,871.16s-7.74-3.03-10.77-4.63-8.55-3.15-10.81,1.31.48,7.72,3.86,10.28,4.93,6.06,5.11,9.56c.18,3.5-.53,7.66,3.5,8.79s5.7-2.38,7.01-6.18,2.73-4.69,4.57-7.25,4.2-9.03-2.48-11.88Z" fill="#FFFFFF" stroke="#e6e6e6" stroke-miterlimit="10" stroke-width=".5"/><path d="M1052.64,933.83s-3.5,2.85-11.53,2.46-17.86-1.43-20.87,8.08c-3.01,9.5,4.67,13.54,11.01,10.06,6.34-3.49,11.49-4.2,17.82-4.12s13.72-.4,13.99-7.84c.27-7.45-3.53-12.75-10.42-8.63Z" fill="#FFFFFF" stroke="#e6e6e6" stroke-miterlimit="10" stroke-width=".5"/><path d="M582.15,1146.58s-15.29-5.41-19.33-6.48-9.68-1.84-12.12,3.62,2.91,9.68,7.84,11.17,7.19,4.04,10.63,7.01c3.45,2.97,11.58,6.53,15.8.48s4.32-12.89-2.83-15.8Z" fill="#FFFFFF" stroke="#e6e6e6" stroke-miterlimit="10" stroke-width=".5"/><path d="M877.46,1136.27s-3.8-6.65-6.5-10.61c-2.69-3.96-9.5-9.9-15.68-5.94-6.18,3.96-4.59,16.32-.55,22.5,4.04,6.18,11.8,12.24,18.69,8.42s6.57-8.73,4.04-14.36Z" fill="#FFFFFF" stroke="#e6e6e6" stroke-miterlimit="10" stroke-width=".5"/><path d="M1015.32,1243.99s-5.7-1.31-9.03-4.93c-3.33-3.62-5.05-6.42-7.6-5.23s-1.49,4.57,0,7.72.24,6.65-.83,9.68-.12,9.56,7.96,8.91,11.94-3.39,13.72-7.96-1.25-7.9-4.22-8.2Z" fill="#FFFFFF" stroke="#e6e6e6" stroke-miterlimit="10" stroke-width=".5"/><path d="M1082.74,1231.59s-1.7,5.94-3.19,9.82c-1.49,3.88-2.83,13.94,6.44,17.11,9.27,3.17,14.1-2.46,16-7.37s2.69-12.59,1.66-18.22c-1.03-5.62-4.12-7.6-10.85-7.21s-9.03,2.14-10.06,5.86Z" fill="#FFFFFF" stroke="#e6e6e6" stroke-miterlimit="10" stroke-width=".5"/></g><g id="clubHouse"><polygon points="74.93 628.64 62.3 640.29 92.34 672.41 96.26 668.76 99.78 672.41 108.5 664.41 74.93 628.64" fill="#4e4e4e"/><polygon points="18.3 647.99 25.19 641.93 27.77 644.7 31.13 641.65 29.98 640.43 46.78 625.32 59.9 639.46 44.7 653.42 47.08 655.74 35.61 666.31 18.3 647.99" fill="#4e4e4e"/></g><g id="lines"><polyline points="124.84 595.68 287.3 294.54 352.88 182.85 411.34 88.75" fill="none" stroke="#ffffff" stroke-dasharray="3" stroke-miterlimit="10" stroke-width=".5"/><polyline points="414.15 55.09 257 179.29 31.1 357.66" fill="none" stroke="#ffffff" stroke-dasharray="3" stroke-miterlimit="10" stroke-width=".5"/><line x1="25.54" y1="279.18" x2="188.07" y2="140.88" fill="#ffffff" stroke="#ffffff" stroke-dasharray="3" stroke-miterlimit="10" stroke-width=".5"/><polyline points="450.65 36.25 439.95 254.26 423.56 377.71" fill="none" stroke="#ffffff" stroke-dasharray="3" stroke-miterlimit="10" stroke-width=".5"/><polyline points="491.83 288.71 542.53 497.32 727.08 714.98" fill="none" stroke="#ffffff" stroke-dasharray="3" stroke-miterlimit="10" stroke-width=".5"/><polyline points="676.23 731.3 892.94 809.24 1091.67 878.5" fill="none" stroke="#ffffff" stroke-dasharray="3" stroke-miterlimit="10" stroke-width=".5"/><polyline points="1135.87 872.13 1079.56 1090.98 1090.25 1238.54" fill="none" stroke="#ffffff" stroke-dasharray="3" stroke-miterlimit="10" stroke-width=".5"/><polyline points="1047.32 1268.96 984.27 1044.48 1043.52 942.47" fill="none" stroke="#ffffff" stroke-dasharray="3" stroke-miterlimit="10" stroke-width=".5"/><polyline points="1099.83 922.82 817.21 886.23 661.66 745.55" fill="none" stroke="#ffffff" stroke-dasharray="3" stroke-miterlimit="10" stroke-width=".5"/><polyline points="614.45 723.22 762.25 1002.66 865.38 1135.26" fill="none" stroke="#ffffff" stroke-dasharray="3" stroke-miterlimit="10" stroke-width=".5"/><line x1="919.79" y1="1110.23" x2="1006.29" y2="1247.73" fill="#ffffff" stroke="#ffffff" stroke-dasharray="3" stroke-miterlimit="10" stroke-width=".5"/><polyline points="987.93 1271.81 739.91 1193.24 575 1150.62" fill="none" stroke="#ffffff" stroke-dasharray="3" stroke-miterlimit="10" stroke-width=".5"/><polyline points="607.56 1101.2 503.71 903.02 328.35 836.49" fill="none" stroke="#ffffff" stroke-dasharray="3" stroke-miterlimit="10" stroke-width=".5"/><line x1="312.11" y1="802.43" x2="470.53" y2="716.25" fill="#ffffff" stroke="#ffffff" stroke-dasharray="3" stroke-miterlimit="10" stroke-width=".5"/><polyline points="483.75 641.71 575.32 889.32 668.47 1037.12" fill="none" stroke="#ffffff" stroke-dasharray="3" stroke-miterlimit="10" stroke-width=".5"/><polyline points="703 1021.91 603.91 776.66 507.23 560.67 442.8 436.04" fill="none" stroke="#ffffff" stroke-dasharray="3" stroke-miterlimit="10" stroke-width=".5"/><line x1="343.79" y1="492.72" x2="394.88" y2="372.25" fill="#ffffff" stroke="#ffffff" stroke-dasharray="3" stroke-miterlimit="10" stroke-width=".5"/><polyline points="391.32 306.19 252.08 520.05 144.19 650.53" fill="none" stroke="#ffffff" stroke-dasharray="3" stroke-miterlimit="10" stroke-width=".5"/></g><g id="numberContainer"><path d="M289.42,285.06c4.85,0,8.78,3.93,8.78,8.78s-3.93,8.78-8.78,8.78-8.78-3.93-8.78-8.78,3.93-8.78,8.78-8.78Z" fill="#ffffff" stroke="#1a2b40" stroke-miterlimit="10" stroke-width=".25"/><path d="M242.04,183.81c4.85,0,8.78,3.93,8.78,8.78s-3.93,8.78-8.78,8.78-8.78-3.93-8.78-8.78,3.93-8.78,8.78-8.78Z" fill="#ffffff" stroke="#1a2b40" stroke-miterlimit="10" stroke-width=".25"/><path d="M104.87,204.01c4.85,0,8.78,3.93,8.78,8.78s-3.93,8.78-8.78,8.78-8.78-3.93-8.78-8.78,3.93-8.78,8.78-8.78Z" fill="#ffffff" stroke="#1a2b40" stroke-miterlimit="10" stroke-width=".25"/><path d="M439.71,245.09c4.85,0,8.78,3.93,8.78,8.78s-3.93,8.78-8.78,8.78-8.78-3.93-8.78-8.78,3.93-8.78,8.78-8.78Z" fill="#ffffff" stroke="#1a2b40" stroke-miterlimit="10" stroke-width=".25"/><path d="M541.32,486.49c4.85,0,8.78,3.93,8.78,8.78s-3.93,8.78-8.78,8.78-8.78-3.93-8.78-8.78,3.93-8.78,8.78-8.78Z" fill="#ffffff" stroke="#1a2b40" stroke-miterlimit="10" stroke-width=".25"/><path d="M887.67,800.04c4.85,0,8.78,3.93,8.78,8.78s-3.93,8.78-8.78,8.78-8.78-3.93-8.78-8.78,3.93-8.78,8.78-8.78Z" fill="#ffffff" stroke="#1a2b40" stroke-miterlimit="10" stroke-width=".25"/><path d="M1080.89,1079.53c4.85,0,8.78,3.93,8.78,8.78s-3.93,8.78-8.78,8.78-8.78-3.93-8.78-8.78,3.93-8.78,8.78-8.78Z" fill="#ffffff" stroke="#1a2b40" stroke-miterlimit="10" stroke-width=".25"/><path d="M984.02,1035.31c4.85,0,8.78,3.93,8.78,8.78s-3.93,8.78-8.78,8.78-8.78-3.93-8.78-8.78,3.93-8.78,8.78-8.78Z" fill="#ffffff" stroke="#1a2b40" stroke-miterlimit="10" stroke-width=".25"/><path d="M817.81,878.5c4.85,0,8.78,3.93,8.78,8.78s-3.93,8.78-8.78,8.78-8.78-3.93-8.78-8.78,3.93-8.78,8.78-8.78Z" fill="#ffffff" stroke="#1a2b40" stroke-miterlimit="10" stroke-width=".25"/><path d="M762,993.13c5.04,0,9.12,4.08,9.12,9.12s-4.08,9.12-9.12,9.12-9.12-4.08-9.12-9.12,4.08-9.12,9.12-9.12Z" fill="#ffffff" stroke="#1a2b40" stroke-miterlimit="10" stroke-width=".25"/><path d="M966.12,1174.99c5.04,0,9.12,4.08,9.12,9.12s-4.08,9.12-9.12,9.12-9.12-4.08-9.12-9.12,4.08-9.12,9.12-9.12Z" fill="#ffffff" stroke="#1a2b40" stroke-miterlimit="10" stroke-width=".25"/><path d="M764.45,1191.47c5.04,0,9.12,4.08,9.12,9.12s-4.08,9.12-9.12,9.12-9.12-4.08-9.12-9.12,4.08-9.12,9.12-9.12Z" fill="#ffffff" stroke="#1a2b40" stroke-miterlimit="10" stroke-width=".25"/><path d="M503.47,893.49c5.04,0,9.12,4.08,9.12,9.12s-4.08,9.12-9.12,9.12-9.12-4.08-9.12-9.12,4.08-9.12,9.12-9.12Z" fill="#ffffff" stroke="#1a2b40" stroke-miterlimit="10" stroke-width=".25"/><path d="M364.78,762.8c5.04,0,9.12,4.08,9.12,9.12s-4.08,9.12-9.12,9.12-9.12-4.08-9.12-9.12,4.08-9.12,9.12-9.12Z" fill="#ffffff" stroke="#1a2b40" stroke-miterlimit="10" stroke-width=".25"/><path d="M576.11,880.53c5.04,0,9.12,4.08,9.12,9.12s-4.08,9.12-9.12,9.12-9.12-4.08-9.12-9.12,4.08-9.12,9.12-9.12Z" fill="#ffffff" stroke="#1a2b40" stroke-miterlimit="10" stroke-width=".25"/><path d="M607.56,776.12c5.04,0,9.12,4.08,9.12,9.12s-4.08,9.12-9.12,9.12-9.12-4.08-9.12-9.12,4.08-9.12,9.12-9.12Z" fill="#ffffff" stroke="#1a2b40" stroke-miterlimit="10" stroke-width=".25"/><path d="M371.18,429.9c5.04,0,9.12,4.08,9.12,9.12s-4.08,9.12-9.12,9.12-9.12-4.08-9.12-9.12,4.08-9.12,9.12-9.12Z" fill="#ffffff" stroke="#1a2b40" stroke-miterlimit="10" stroke-width=".25"/><path d="M265.37,492.72c5.04,0,9.12,4.08,9.12,9.12s-4.08,9.12-9.12,9.12-9.12-4.08-9.12-9.12,4.08-9.12,9.12-9.12Z" fill="#ffffff" stroke="#1a2b40" stroke-miterlimit="10" stroke-width=".25"/></g><g id="number"><path d="M289.13,293.4c0-.18.01-.83,0-1.93-.01-.47-.07-.78-.33-.78-.12,0-.33.04-.55.11l-.97.32c-.06.01-.11.01-.14-.04l-.11-.25c-.03-.06-.01-.11.08-.17l2.87-1.65c.07-.04.12-.08.19-.08.08,0,.1.08.1.19,0,.12-.04,2.3-.04,4.09v.58c0,.17.01,3.1.01,3.28.01.72.07.82.97.82h.5c.1,0,.14.04.14.11v.32c0,.08-.03.11-.12.11-.12,0-2.01-.04-2.13-.04s-2.08.04-2.15.04-.11-.03-.11-.11v-.35c0-.07.08-.08.19-.08h.64c.9,0,.93-.04.96-.78.01-.18.01-2.98.01-3.23v-.5Z" fill="#1a2b40"/><path d="M239.97,197.16c-.24,0-.48.01-.69.03s-.37.03-.43.03c-.07,0-.11,0-.15-.08-.04-.1-.03-.14.04-.21.65-.61,1.87-1.68,2.98-2.87s1.75-2.26,1.7-3.46c-.04-1.23-.79-1.97-1.79-1.95-1.18.01-1.62.93-1.86,1.34-.06.1-.1.11-.17.07l-.19-.08s-.06-.07,0-.19c.22-.54.9-2.08,2.77-2.08,1.16,0,2.42.96,2.42,2.52,0,1.18-.47,2.17-1.72,3.57-.94,1.08-2.04,1.88-2.65,2.42h2.81c.94,0,1.3-.65,1.61-1.16.07-.12.11-.14.25-.07.11.06.17.11.11.19l-.9,2.16c-.07.15.04.15-.21.15-.12,0-.12-.01-.18-.14-.08-.18-.35-.19-.76-.19h-3.01Z" fill="#1a2b40"/><path d="M101.94,216.48c0-.36.22-.6.46-.6.46,0,.54.54.57.61.07.15.32.57,1.29.57,1.27,0,2.04-.93,2.04-1.9,0-1.4-.87-2.22-2-2.48-.25-.05-.25-.01-.25-.21,0-.14.04-.17.17-.19.89-.17,1.8-.9,1.8-1.97,0-.89-.54-1.55-1.41-1.55-1.03,0-1.55.72-1.84,1.51-.04.11-.08.15-.14.14l-.25-.06s-.04-.08-.01-.21c.19-.96,1.04-2.24,2.6-2.24s2.05,1.11,2.05,1.81c0,1.19-.83,1.94-1.55,2.38.94.24,2.02,1.21,2.02,2.42,0,1.79-1.59,3.05-3.46,3.05-1.63,0-2.08-.69-2.08-1.09Z" fill="#1a2b40"/><path d="M440.79,258.43c-.12,0-.17-.03-.17-.15v-2.44h-3.87c-.12,0-.21-.06-.21-.17,0-.08.04-.14.14-.28l4.5-6.21c.08-.11.19-.22.31-.22.12,0,.18.1.18.42v5.54h1.12c.1,0,.17.03.17.11v.67c0,.08-.04.14-.22.14h-1.07v2.4c0,.15-.03.19-.19.19h-.69ZM440.64,251.19c0-.22-.14-.26-.26-.08l-2.55,3.52c-.17.24-.15.37.1.37h2.72v-3.81Z" fill="#1a2b40"/><path d="M539.85,493.88c.35-.03,1.28.07,1.58.15,1.36.36,2.13,1.33,2.13,2.58.01,1.98-1.61,3.44-3.49,3.44-1.02,0-1.8-.38-1.8-.78,0-.19.12-.36.3-.36.25,0,.49.15.69.28.21.12.68.26,1.09.26,1.08,0,2.16-.91,2.16-2.13,0-.97-.32-1.73-1.22-2.12-.75-.33-1.44-.33-1.8-.3-.08.01-.15.03-.25-.03-.07-.03-.08-.07-.07-.15l.5-3.91c.01-.17.04-.22.22-.22h2.96c.49,0,.61-.24.85-.69.04-.08.08-.1.17-.07.15.07.22.08.19.17l-.5,1.39c-.1.22-.17.28-.6.28h-2.88l-.25,2.23Z" fill="#1a2b40"/><path d="M885.74,812.83c-.69-.75-.89-1.83-.89-2.55,0-1.73.64-3.44,2.11-4.86.67-.64,1.41-1.09,2.04-1.34.22-.1.42-.15.51-.15.08,0,.17.04.17.14,0,.11-.04.18-.12.22-1.11.5-2.94,2.02-3.28,4.29.44-.39,1.04-.64,1.84-.64,1.73,0,2.45,1.54,2.45,2.44,0,1.29-.38,1.88-.86,2.38-.51.55-1.09.83-1.97.83-.93,0-1.58-.26-2-.76ZM889.39,810.81c0-1.23-.61-2.27-1.68-2.27-.82,0-1.21.33-1.37.68-.19.36-.3.93-.3,1.51,0,.71.11,2.42,1.79,2.42.3,0,1.57-.15,1.57-2.34Z" fill="#1a2b40"/><path d="M1084.07,1083.62c.07,0,.14.04.14.12,0,.07-.01.11-.1.25-.08.14-1.21,2.22-1.76,3.59-.14.32-1.3,2.88-1.87,4.79-.17.57-.44.71-.69.71-.35,0-.54-.21-.54-.51,0-.35.3-.92.49-1.29.24-.47,2.65-5.07,3.44-6.64h-3.28c-.83,0-1.01.37-1.41.97-.07.1-.17.08-.26.03-.12-.07-.12-.08-.08-.21l.86-2.23c.04-.08.06-.1.22-.1.15,0,.21.04.18.25-.03.19.08.26.79.26h3.89Z" fill="#1a2b40"/><path d="M981.51,1046.89c0-1.19.62-1.9,1.8-2.66-1.04-.58-1.9-1.3-1.9-2.37,0-1.21,1-2.66,2.96-2.66,1.27,0,2.36.87,2.36,1.79,0,1.32-.44,1.93-1.91,2.95,1.11.53,1.95,1.23,1.95,2.49,0,1.08-1.05,2.44-2.73,2.44-1.9,0-2.54-1.09-2.54-1.98ZM985.78,1046.7c0-1.12-.91-1.63-2.01-2.22-.89.5-1.39,1.3-1.39,2.18,0,1.21.94,1.73,1.75,1.73,1,0,1.65-.54,1.65-1.69ZM982.5,1041.52c0,1,.65,1.4,1.87,2.12.68-.43,1.4-1.25,1.46-2.18.04-1.01-.71-1.7-1.66-1.7s-1.66.79-1.66,1.76Z" fill="#1a2b40"/><path d="M819.95,883.36c.62.71.75,1.8.75,2.23,0,1.86-.62,3.77-2.26,5.21-.69.61-1.23.91-2,1.16-.14.04-.33.1-.43.1-.11,0-.21-.06-.21-.19,0-.1.06-.17.12-.19,1.21-.49,3.05-2,3.35-4.31v-.03c-.39.35-.89.68-1.7.68-1.91,0-2.56-1.45-2.56-2.77,0-.53.5-1.68,1.03-2.13.54-.47,1.18-.72,1.76-.72.98,0,1.52.29,2.15.97ZM816.12,885.17c0,1.3.78,2.24,1.72,2.24.8,0,1.22-.43,1.4-.79.17-.35.21-.8.21-1.37,0-1.22-.35-2.42-1.61-2.42-.82,0-1.72.79-1.72,2.34Z" fill="#1a2b40"/><path d="M757.53,1001.8c0-.19.01-.86,0-2-.01-.49-.07-.81-.35-.81-.13,0-.34.04-.58.12l-1.01.33c-.06.01-.12.01-.14-.04l-.12-.26c-.03-.06-.01-.12.09-.17l2.98-1.71c.07-.04.13-.09.2-.09.09,0,.1.09.1.2,0,.13-.04,2.39-.04,4.25v.6c0,.17.01,3.22.01,3.41.01.75.07.85,1.01.85h.52c.1,0,.14.04.14.12v.33c0,.09-.03.12-.13.12-.13,0-2.09-.04-2.22-.04s-2.16.04-2.23.04-.11-.03-.11-.12v-.36c0-.07.09-.09.2-.09h.66c.93,0,.96-.04.99-.81.01-.19.01-3.09.01-3.35v-.52Z" fill="#1a2b40"/><path d="M761.92,1002.68c0-3.29,1.37-5.51,3.21-5.51,2.11,0,3.09,2.75,3.09,4.94,0,3.29-1.22,5.11-3.08,5.11-2.33,0-3.22-2.79-3.22-4.53ZM766.54,1005.67c.32-.69.45-1.78.45-3.88s-.72-4.1-1.94-4.1c-.56,0-.96.22-1.29.86-.52,1.01-.58,2.69-.58,3.88,0,1.37.17,2.37.49,3.04.45.95.99,1.22,1.5,1.22.45,0,.99-.17,1.38-1.02Z" fill="#1a2b40"/><path d="M961.65,1183.66c0-.19.01-.86,0-2-.01-.49-.07-.81-.35-.81-.13,0-.34.04-.58.12l-1.01.33c-.06.01-.12.01-.14-.04l-.12-.26c-.03-.06-.01-.12.09-.17l2.98-1.71c.07-.04.13-.09.2-.09.09,0,.1.09.1.2,0,.13-.04,2.39-.04,4.25v.6c0,.17.01,3.22.01,3.41.01.75.07.85,1.01.85h.52c.1,0,.14.04.14.12v.33c0,.09-.03.12-.13.12-.13,0-2.09-.04-2.22-.04s-2.16.04-2.23.04-.11-.03-.11-.12v-.36c0-.07.09-.09.2-.09h.66c.93,0,.96-.04.99-.81.01-.19.01-3.09.01-3.35v-.52Z" fill="#1a2b40"/><path d="M968.84,1183.66c0-.19.01-.86,0-2-.01-.49-.07-.81-.35-.81-.13,0-.34.04-.58.12l-1.01.33c-.06.01-.12.01-.14-.04l-.12-.26c-.03-.06-.01-.12.09-.17l2.98-1.71c.07-.04.13-.09.2-.09.09,0,.1.09.1.2,0,.13-.04,2.39-.04,4.25v.6c0,.17.01,3.22.01,3.41.01.75.07.85,1.01.85h.52c.1,0,.14.04.14.12v.33c0,.09-.03.12-.13.12-.13,0-2.09-.04-2.22-.04s-2.16.04-2.23.04-.11-.03-.11-.12v-.36c0-.07.09-.09.2-.09h.66c.93,0,.96-.04.99-.81.01-.19.01-3.09.01-3.35v-.52Z" fill="#1a2b40"/><path d="M759.98,1200.14c0-.19.01-.86,0-2-.01-.49-.07-.81-.35-.81-.13,0-.34.04-.58.12l-1.01.33c-.06.01-.12.01-.14-.04l-.12-.26c-.03-.06-.01-.12.09-.17l2.98-1.71c.07-.04.13-.09.2-.09.09,0,.1.09.1.2,0,.13-.04,2.39-.04,4.25v.6c0,.17.01,3.22.01,3.41.01.75.07.85,1.01.85h.52c.1,0,.14.04.14.12v.33c0,.09-.03.12-.13.12-.13,0-2.09-.04-2.22-.04s-2.16.04-2.23.04-.12-.03-.12-.12v-.36c0-.07.09-.09.2-.09h.66c.93,0,.96-.04.99-.81.01-.19.01-3.09.01-3.35v-.52Z" fill="#1a2b40"/><path d="M765.34,1205.33c-.25,0-.5.01-.72.03s-.39.03-.45.03c-.07,0-.11,0-.16-.09-.04-.1-.03-.14.04-.22.68-.63,1.94-1.74,3.09-2.98,1.15-1.24,1.81-2.34,1.77-3.6-.04-1.28-.82-2.04-1.86-2.03-1.22.01-1.68.96-1.93,1.4-.06.1-.1.12-.17.07l-.2-.09s-.06-.07,0-.2c.23-.56.93-2.16,2.88-2.16,1.21,0,2.52.99,2.52,2.62,0,1.22-.49,2.26-1.78,3.71-.98,1.12-2.12,1.96-2.75,2.52h2.92c.98,0,1.35-.68,1.67-1.21.07-.13.12-.14.26-.07.12.06.17.12.12.2l-.94,2.24c-.07.16.04.16-.22.16-.13,0-.13-.01-.19-.14-.09-.19-.36-.2-.79-.2h-3.12Z" fill="#1a2b40"/><path d="M499,902.16c0-.19.01-.86,0-2-.01-.49-.07-.81-.35-.81-.13,0-.34.04-.58.12l-1.01.33c-.06.01-.12.01-.14-.04l-.12-.26c-.03-.06-.01-.12.09-.17l2.98-1.71c.07-.04.13-.09.2-.09.09,0,.1.09.1.2,0,.13-.04,2.39-.04,4.24v.6c0,.17.01,3.22.01,3.41.01.75.07.85,1.01.85h.52c.1,0,.14.04.14.12v.33c0,.09-.03.11-.13.11-.13,0-2.09-.04-2.22-.04s-2.16.04-2.23.04-.11-.03-.11-.11v-.36c0-.07.09-.09.2-.09h.66c.93,0,.96-.04.99-.8.01-.19.01-3.09.01-3.35v-.52Z" fill="#1a2b40"/><path d="M503.44,906.43c0-.37.23-.62.47-.62.47,0,.56.56.59.63.07.16.33.59,1.34.59,1.32,0,2.12-.96,2.12-1.97,0-1.45-.91-2.3-2.07-2.58-.26-.06-.26-.01-.26-.22,0-.14.04-.17.17-.2.92-.17,1.87-.94,1.87-2.04,0-.92-.56-1.61-1.47-1.61-1.07,0-1.61.75-1.91,1.57-.04.12-.09.16-.14.14l-.26-.06s-.04-.09-.01-.22c.2-.99,1.08-2.33,2.71-2.33s2.13,1.15,2.13,1.88c0,1.24-.86,2.01-1.61,2.47.98.24,2.1,1.25,2.1,2.52,0,1.86-1.65,3.17-3.6,3.17-1.7,0-2.16-.72-2.16-1.14Z" fill="#1a2b40"/><path d="M360.3,771.47c0-.19.01-.86,0-2-.01-.49-.07-.81-.35-.81-.13,0-.34.04-.58.12l-1.01.33c-.06.01-.12.01-.14-.04l-.12-.26c-.03-.06-.01-.12.09-.17l2.98-1.71c.07-.04.13-.09.2-.09.09,0,.1.09.1.2,0,.13-.04,2.39-.04,4.25v.6c0,.17.01,3.22.01,3.41.01.75.07.85,1.01.85h.52c.1,0,.14.04.14.12v.33c0,.09-.03.11-.13.11-.13,0-2.09-.04-2.22-.04s-2.16.04-2.23.04-.11-.03-.11-.11v-.36c0-.07.09-.09.2-.09h.66c.93,0,.96-.04.99-.81.01-.19.01-3.09.01-3.35v-.52Z" fill="#1a2b40"/><path d="M368.92,776.66c-.13,0-.17-.03-.17-.16v-2.53h-4.01c-.13,0-.22-.06-.22-.17,0-.09.04-.14.14-.29l4.68-6.45c.09-.11.2-.23.32-.23.13,0,.19.1.19.43v5.75h1.17c.1,0,.17.03.17.12v.69c0,.09-.04.14-.23.14h-1.11v2.49c0,.16-.03.2-.2.2h-.72ZM368.77,769.14c0-.23-.14-.27-.27-.09l-2.65,3.65c-.17.25-.16.39.1.39h2.82v-3.96Z" fill="#1a2b40"/><path d="M571.64,889.2c0-.19.01-.86,0-2-.01-.49-.07-.81-.35-.81-.13,0-.34.04-.58.12l-1.01.33c-.06.01-.12.01-.14-.04l-.12-.26c-.03-.06-.01-.12.09-.17l2.98-1.71c.07-.04.13-.09.2-.09.09,0,.1.09.1.2,0,.13-.04,2.39-.04,4.25v.6c0,.17.01,3.22.01,3.41.01.75.07.85,1.01.85h.52c.1,0,.14.04.14.12v.33c0,.09-.03.12-.13.12-.13,0-2.09-.04-2.22-.04s-2.16.04-2.23.04-.12-.03-.12-.12v-.36c0-.07.09-.09.2-.09h.66c.93,0,.96-.04.99-.81.01-.19.01-3.09.01-3.35v-.52Z" fill="#1a2b40"/><path d="M577.61,888.21c.36-.03,1.32.07,1.64.16,1.41.37,2.22,1.38,2.22,2.68.01,2.06-1.67,3.57-3.63,3.57-1.06,0-1.87-.39-1.87-.81,0-.2.13-.37.32-.37.26,0,.5.16.72.29.22.13.71.27,1.14.27,1.12,0,2.24-.95,2.24-2.22,0-1.01-.33-1.8-1.27-2.2-.78-.35-1.5-.35-1.87-.32-.09.01-.16.03-.26-.03-.07-.03-.09-.07-.07-.16l.52-4.06c.01-.17.04-.23.23-.23h3.08c.5,0,.63-.24.88-.72.04-.09.09-.1.17-.07.16.07.23.09.2.17l-.52,1.44c-.1.23-.17.29-.62.29h-2.99l-.26,2.32Z" fill="#1a2b40"/><path d="M603.08,784.79c0-.19.01-.86,0-2-.01-.49-.07-.81-.35-.81-.13,0-.34.04-.58.12l-1.01.33c-.06.01-.12.01-.14-.04l-.12-.26c-.03-.06-.01-.12.09-.17l2.98-1.71c.07-.04.13-.09.2-.09.09,0,.1.09.1.2,0,.13-.04,2.39-.04,4.25v.6c0,.17.01,3.22.01,3.41.01.75.07.85,1.01.85h.52c.1,0,.14.04.14.12v.33c0,.09-.03.11-.13.11-.13,0-2.09-.04-2.22-.04s-2.16.04-2.23.04-.11-.03-.11-.11v-.36c0-.07.09-.09.2-.09h.66c.93,0,.96-.04.99-.81.01-.19.01-3.09.01-3.35v-.52Z" fill="#1a2b40"/><path d="M608.58,789.41c-.72-.78-.92-1.9-.92-2.65,0-1.8.66-3.57,2.19-5.05.69-.66,1.47-1.14,2.12-1.4.23-.1.43-.16.53-.16.09,0,.17.04.17.14,0,.12-.04.19-.13.23-1.15.52-3.05,2.1-3.41,4.46.46-.4,1.08-.66,1.91-.66,1.8,0,2.55,1.6,2.55,2.53,0,1.34-.39,1.96-.89,2.48-.53.58-1.14.86-2.04.86-.96,0-1.64-.27-2.07-.79ZM612.37,787.3c0-1.28-.63-2.36-1.74-2.36-.85,0-1.25.34-1.42.71-.2.37-.32.96-.32,1.57,0,.73.12,2.52,1.86,2.52.32,0,1.63-.16,1.63-2.43Z" fill="#1a2b40"/><path d="M366.71,438.57c0-.19.01-.86,0-2-.01-.49-.07-.81-.35-.81-.13,0-.34.04-.58.12l-1.01.33c-.06.01-.12.01-.14-.04l-.12-.26c-.03-.06-.01-.12.09-.17l2.98-1.71c.07-.04.13-.09.2-.09.09,0,.1.09.1.2,0,.13-.04,2.39-.04,4.25v.6c0,.17.01,3.22.01,3.41.01.75.07.85,1.01.85h.52c.1,0,.14.04.14.12v.33c0,.09-.03.12-.13.12-.13,0-2.09-.04-2.22-.04s-2.16.04-2.23.04-.12-.03-.12-.12v-.36c0-.07.09-.09.2-.09h.66c.93,0,.96-.04.99-.81.01-.19.01-3.09.01-3.35v-.52Z" fill="#1a2b40"/><path d="M377.51,434.15c.07,0,.14.04.14.13,0,.07-.01.12-.1.26-.09.14-1.25,2.3-1.83,3.73-.14.33-1.35,2.99-1.94,4.98-.17.59-.46.73-.72.73-.36,0-.56-.22-.56-.53,0-.36.32-.95.5-1.34.24-.49,2.75-5.27,3.57-6.89h-3.41c-.86,0-1.05.39-1.47,1.01-.07.1-.17.09-.27.03-.13-.07-.13-.09-.09-.22l.89-2.32c.04-.09.06-.1.23-.1.16,0,.22.04.19.26-.03.2.09.27.82.27h4.04Z" fill="#1a2b40"/><path d="M260.9,501.4c0-.19.01-.86,0-2-.01-.49-.07-.81-.35-.81-.13,0-.34.04-.58.12l-1.01.33c-.06.01-.12.01-.14-.04l-.12-.26c-.03-.06-.01-.12.09-.17l2.98-1.71c.07-.04.13-.09.2-.09.09,0,.1.09.1.2,0,.13-.04,2.39-.04,4.24v.6c0,.17.01,3.22.01,3.41.01.75.07.85,1.01.85h.52c.1,0,.14.04.14.12v.33c0,.09-.03.11-.13.11-.13,0-2.09-.04-2.22-.04s-2.16.04-2.23.04-.11-.03-.11-.11v-.36c0-.07.09-.09.2-.09h.66c.93,0,.96-.04.99-.8.01-.19.01-3.09.01-3.35v-.52Z" fill="#1a2b40"/><path d="M265.79,504.75c0-1.24.65-1.97,1.87-2.76-1.08-.6-1.97-1.35-1.97-2.46,0-1.25,1.04-2.76,3.08-2.76,1.32,0,2.45.91,2.45,1.86,0,1.37-.46,2-1.99,3.06,1.15.55,2.03,1.28,2.03,2.59,0,1.12-1.09,2.53-2.83,2.53-1.97,0-2.63-1.14-2.63-2.06ZM270.22,504.56c0-1.17-.95-1.7-2.09-2.3-.92.52-1.44,1.35-1.44,2.26,0,1.25.98,1.8,1.81,1.8,1.04,0,1.71-.56,1.71-1.75ZM266.81,499.18c0,1.04.68,1.45,1.94,2.2.71-.45,1.45-1.29,1.51-2.26.04-1.05-.73-1.77-1.73-1.77s-1.73.82-1.73,1.83Z" fill="#1a2b40"/></g></svg>