<svg id="Layer_2" xmlns="http://www.w3.org/2000/svg" width="396.14mm" height="428.07mm" viewBox="0 0 1122.92 1213.43"><g id="fairway"><path d="M296.74,993.73s12.3,2.92,16.03,9.26c3.72,6.34,1.93,11.6,1.21,14.9-.72,3.3-.32,11.28,8.38,13.85,8.7,2.58,18.56-4.79,18.68-21.58.12-16.79-10.03-27.54-15.22-29.48-5.19-1.93-5.21-8.05-14.26-11.23-12.36-4.35-16.15-13.69-31.17-16.19-10.2-1.69-29.84.93-43.05-10.99-13.21-11.92-5.96-21.76-4.51-31.66,1.45-9.9-3.22-12.76-9.02-14.25-5.8-1.49-8.58-5.99-7.73-11.83.85-5.84-3.87-10.8-8.34-13.94-4.47-3.14-5.8-9.48-6.04-13.68-.24-4.2-2.05-7.7-6.77-10.36-4.71-2.66-2.3-10.87-14.38-16.19-12.08-5.32-29.95-11.6-37.75-23.92-7.79-12.32-5.74-17.19-4.9-22.61.85-5.42-.24-13.27-9.18-17.01-8.94-3.74-14.98-2.03-18.24,4.36-3.26,6.39-4.83,6.49-8.09,10.18s-5.44,17.21,7.97,23.14c13.41,5.93,19.33,14.02,21.14,23.81,1.81,9.79,3.85,17.76,12.68,20.3,8.83,2.54,15.47,8.58,16.08,19.21.6,10.63.72,21.82,10.51,28.55,9.79,6.73,11.72,15.54,12.81,21.34s4.59,19.21,18.6,20.78c14.01,1.57,18.36,5.27,20.3,10.97,1.93,5.7,6.89,16.09,23.07,14.52s26.46,2.42,30.68,8.46c4.23,6.04,8.57,16.18,20.5,21.3Z" fill="#758838" stroke="#525d29" stroke-miterlimit="10" stroke-width=".5"/><path d="M502.58,737.55s-4.11,9.79.85,12.87c4.95,3.08,9.66-1.81,11.42-6.77,1.75-4.95,2.72-9.18-1.93-11.3-4.65-2.11-9.07.95-10.33,5.19Z" fill="#758838" stroke="#525d29" stroke-miterlimit="10" stroke-width=".5"/><path d="M493.8,792.37s-3.95,8.32-5.23,12.13c-1.29,3.81-.64,7,2.62,8.11s6.16-.59,8.5-5.02c2.34-4.43,3.79-9.18,4.67-11.92.89-2.74.34-5.17-2.98-6.44-3.32-1.27-6.09-.06-7.57,3.14Z" fill="#758838" stroke="#525d29" stroke-miterlimit="10" stroke-width=".5"/><path d="M740.9,309.77s-5.93,2.57-6.43,7.47c-1.37,13.31-4.71,16.79-10.51,22.59s-6.04,8.09-6.04,13.29-6.04,10.99-8.21,15.1c-2.17,4.11-6.16,7.49-8.09,15.7-1.93,8.21-7.53,15.58-13.81,21.22s-8.05,8.17-10.47,16.24c-2.42,8.08-6.28,15.73-10.95,26.08s-2.17,20.25-13.13,37.01c-10.95,16.75-20.78,19.65-24.32,30.77-3.54,11.11-9.02,11.6-14.5,17.72-5.48,6.12-4.66,9.6-3.3,20.67,1.37,11.06-3.31,22.78-11.84,26.99-8.54,4.21-11.94,7.27-11.12,14.84.82,7.57-3.85,14.98-13.2,18.85-9.34,3.87-15.3,12.08-11.44,22.39,3.87,10.31,7.11,20.3-1.2,27.87-8.31,7.57-28.12,5.64-36.33,0s-5.48-35.11,3.7-42.04,11.44-10.15,9.83-20.13c-1.61-9.99.48-16.31,4.19-21.77s-.16-9.48,5.8-18.82c5.96-9.34,10.31-15.13,10.47-23.27.16-8.14,3.55-16.19,12.65-24.57,9.1-8.38,17.8-19.17,20.7-29.64s6.12-16.38,12.24-24.38c6.12-8,9.02-11.38,12.24-17.34,3.22-5.96,7.09-10.5,18.52-17.41,11.44-6.91,17.23-15.93,17.56-27.21.32-11.28,1.45-18.36,6.93-23.52,5.48-5.15,5.15-16.91,13.05-23.52,7.89-6.6,9.02-11.04,11.6-16.87,2.58-5.84,8.7-11.56,14.38-15.18,5.68-3.62,6.98-10.03,12.49-13.53,5.51-3.5,2.3-9.66,14.78-13.05,12.48-3.38,17.35,3.3,18.56,7.41,1.21,4.11.44,7.25-4.76,10.05Z" fill="#758838" stroke="#525d29" stroke-miterlimit="10" stroke-width=".5"/><path d="M743.12,353.57s-6.58,7.09-7.97,8.79c-2.05,2.5-2.3,4.8,0,6.55,2.3,1.75,4.35.18,7.31-3.14,2.96-3.32,5.01-5.8,6.28-7.31,1.27-1.51,1.27-3.93-.54-5.32-1.81-1.39-3.93-.83-5.07.42Z" fill="#758838" stroke="#525d29" stroke-miterlimit="10" stroke-width=".5"/><path d="M767.4,327.17s-9.74,9.02-11.03,10.39c-1.29,1.37-2.82,3.87-.48,6.36s4.59,1.13,7.33-1.45c2.74-2.58,6.85-6.81,8.38-8.4,1.53-1.59,4.27-4.07,2.15-6.6s-4.93-1.61-6.34-.3Z" fill="#758838" stroke="#525d29" stroke-miterlimit="10" stroke-width=".5"/><path d="M1062.27,69.86s-11.96-2.4-14.86,5.68-3.14,11.71-11.36,14.25c-8.21,2.54-10.87,4.35-12.93,9.54s-4.51,11.68-16.27,16.35c-11.76,4.67-10.55,16.58-25.53,22.59-14.98,6.01-9.74,21.84-21.58,28.78-11.84,6.94-15.7,5.02-17.88,13.35-2.17,8.33-9.2,17.51-28.16,19.45-18.96,1.93-23.47,5.37-23.15,18.11.32,12.74-6.68,26.62-25.53,29.14-18.85,2.52-28.51-3.28-30.68-14.15-2.17-10.87,9.57-25.37,17.83-33.1,8.26-7.73,17.2-22.12,21.55-29.46,4.35-7.34,8.38-15.88,18.2-17.65,9.83-1.77,15.46-3.87,20.3-9.83,4.83-5.96,8.31-8.54,17.12-9.99,8.81-1.45,16.86-8.38,22.66-15.14s22.71-14.34,32.86-19.01,19.97-12.56,28.67-19.97c8.7-7.41,14.82-13.53,25.13-18.04,10.31-4.51,11.19-7.23,15.46-14.68,4.27-7.45,9.5-17.05,24.48-19.95,14.98-2.9,22.55,5.32,19.49,21.1-3.06,15.79-15.95,17.92-20.17,18.28s-5.11,5.56-15.66,4.35Z" fill="#758838" stroke="#525d29" stroke-miterlimit="10" stroke-width=".5"/><path d="M910.05,58.34s-4.11,7.14-10.95,4.05c-6.85-3.09-13.37-5.37-17.56,0-4.19,5.37-7.09,9.38-11.6,11.36-4.51,1.98-9.42,5.53-8.54,10.76.89,5.23,7.73,4.99,12.97,8.05s16.7,2.74,19.79-3.3c3.08-6.04,10.57-12.52,17.1-12.86,6.52-.35,14.09-2.68,13.53-9.69-.56-7.01-7.01-16.83-14.74-8.38Z" fill="#758838" stroke="#525d29" stroke-miterlimit="10" stroke-width=".5"/><path d="M1032.11,18.31s-8.44,2.6-10.37,5.92c-2.03,3.48-.12,7.06,3.81,6.52s6.83-2.23,9.66-3.74,2.66-3.62,1.93-5.68-2.54-3.76-5.03-3.02Z" fill="#758838" stroke="#525d29" stroke-miterlimit="10" stroke-width=".5"/><path d="M1052.36,9.43s-4.83,1.21-6.46,2.54c-1.63,1.33-1.87,3.5-1.03,5.8.85,2.3,3.26,2.84,5.38,2.48,2.11-.36,8.03-1.87,8.15-5.07.12-3.2-2.29-6.91-6.04-5.74Z" fill="#758838" stroke="#525d29" stroke-miterlimit="10" stroke-width=".5"/><path d="M1078.88.45s-6.89,1.87-9.18,2.78-4.23,2.72-3.56,5.98c.66,3.26,3.67,3.87,6.31,3.14,2.63-.72,6.5-1.51,8.85-2.11s4.65-2.3,3.5-6.04c-1.18-3.83-3.82-4.33-5.92-3.74Z" fill="#758838" stroke="#525d29" stroke-miterlimit="10" stroke-width=".5"/><path d="M799.98,139.96s-6.1,3.08-3.74,8.15,8.15,3.81,10.45,2.36c2.3-1.45,4.59-4.93,2.72-9.02s-7.31-3.01-9.42-1.49Z" fill="#758838" stroke="#525d29" stroke-miterlimit="10" stroke-width=".5"/><path d="M935.52,80.04s-3.97,2-2.44,5.3c1.53,3.3,5.3,2.47,6.8,1.53,1.49-.94,2.99-3.21,1.77-5.87-1.22-2.66-4.76-1.96-6.13-.97Z" fill="#758838" stroke="#525d29" stroke-miterlimit="10" stroke-width=".5"/><path d="M860.46,106.46s-11.96,5.03-10.63,9.14,7.67.91,9.66,0,8.34-3.2,7.07-6.64c-1.27-3.44-3.82-3.56-6.1-2.5Z" fill="#758838" stroke="#525d29" stroke-miterlimit="10" stroke-width=".5"/><path d="M475.29,338s-5.84-7.29-11.07-4.71c-5.23,2.58-4.75,9.87-4.03,18.2.72,8.34-.24,21.83-13.53,25.57-13.29,3.74-19.32,7.53-19.89,12.2s-5.37,6.68-4.18,15.1,1.31,12.53-1.22,16.15c-2.54,3.62-2.42,14.62-7.73,14.86-5.32.24-7.25-7.13-6.16-13.41,1.09-6.28-.97-12.28,2.42-18s7.09-16.63,5.52-24.97c-1.57-8.34-.93-13.65,3.76-15.34,4.69-1.69,6.99-7.74,10.29-8.98s2.58-11.36,9.5-13.23c6.93-1.87,14.5-3.32,16.75-9.12,2.26-5.8.07-14.9,5.79-18.6,5.72-3.7,10.88-5.29,12.65-9.77,1.77-4.48,6.52-5.85,10.31-2.87,3.79,2.98,9.1,5.02,14.09,2.87,4.99-2.15,4.67-13.18,12.89-13.1s17.88-1.13,28.99-7.77c11.11-6.64,29.84-20.05,37.45-23.98,7.61-3.93,16.43-5.66,22.47-6.06s10.87-8.5,20.54-8.74c9.66-.24,19.77-10.87,30.06-16.19s18.82-6.2,25.59-7.01c6.77-.81,10.47-4.99,16.11-12.08,5.64-7.09,16.43-18.2,28.99-19.97,12.56-1.77,20.78-5.48,27.06-12.08s11.64-10.27,19.97-5.44,15.5,14.17,9.7,27.38c-5.8,13.21-10.31,16.59-19.17,18.2-8.86,1.61-12.4,13.05-26.58,11.28-14.17-1.77-20.78,3.22-21.1,11.28-.32,8.05-5.93,15.56-15.77,16.72-9.84,1.16-11.13,4.72-12.42,8.34-1.29,3.62-3.01,10.7-15.12,11.02s-20.16,4.83-22.9,12.89-13.21,10.57-22.39,9.8-19.33,4.7-23.36,8.73c-4.03,4.03-18.44,7.49-24.6-.24s-10.39-11.05-14.5-8.49c-4.11,2.57-1.93,6.3-1.69,8.97.6,6.64-3.62,10.15-14.26,6.89-10.63-3.26-20.66-.9-23.46,4.35-2.67,5.02-2.52,11.11-11.58,10.99-9.06-.12-13.53,4.71-16.67,7.25-3.14,2.54-9.5,8.17-17.56,1.13Z" fill="#758838" stroke="#525d29" stroke-miterlimit="10" stroke-width=".5"/><path d="M482.31,224.77s-1.94.51-1.69,1.99,1.09,1.77,2.63,1.6c1.39-.15,1.84-1.44,1.57-2.57-.33-1.39-2.11-1.17-2.51-1.03Z" fill="#758838" stroke="#525d29" stroke-miterlimit="10" stroke-width=".5"/><path d="M464.7,239.9s-5.01,2.54-6.89,3.62c-1.87,1.09-3.5,2.96-2.48,5.44.83,2.01,2.62,2.75,5.01,2.03,2.43-.73,6.52-2.69,8.34-3.42,1.81-.72,3.81-2.53,2.3-5.86-1.13-2.49-4.02-2.97-6.28-1.81Z" fill="#758838" stroke="#525d29" stroke-miterlimit="10" stroke-width=".5"/><path d="M443.28,258.18s-5.11,3.91-6.77,7.37c-1.65,3.46-.6,5.6,1.41,6.77s4.97-.44,6.06-3.4c1.09-2.96,5.32-3.87,5.19-7.79-.12-3.93-3.93-4.59-5.9-2.94Z" fill="#758838" stroke="#525d29" stroke-miterlimit="10" stroke-width=".5"/><path d="M407.87,295.87s-1.99,4.41-4.11,5.68-5.19,4.47-2.9,7.97c2.3,3.5,7.67.91,11.54-3.32,3.87-4.23,7.26-7.82,4.17-11.3-2.96-3.32-7.13-2.54-8.7.97Z" fill="#758838" stroke="#525d29" stroke-miterlimit="10" stroke-width=".5"/><path d="M341.38,374.18c-5.84-3.64-10.63-2.3-14.5,3.14-3.86,5.44-8.09,14.63-8.09,14.63,0,0-10.19,21.29-22.76,30.59-12.56,9.3-20.53,14.43-26.33,22.14-5.8,7.7-11.72,10.75-21.38,15.27-9.67,4.51-13.77,11.36-15.1,22.37-1.33,11.01-4.47,16.58-13.9,16.76-9.42.17-21.86.54-25.85,8.75-3.98,8.21-13.17,14.98-18.6,18.24-5.44,3.26-10.03,8.34-12.69,13.53-2.65,5.2-11.23,10.57-17.15,14.59-5.92,4.02-13.29,11.38-17.16,22.26-3.86,10.87-16.3,14.98-26.21,15.1-9.91.12-20.17-2.1-22.59,3.54-2.42,5.64-9.1,8.14-12.97,3.79-3.86-4.35-7.89-9.99-15.62-8.7-7.73,1.29-10.31,6.2-17.4,2.98-7.08-3.22-13.12-2.3-14.57,1.47-1.45,3.76-1.7,4.65-3.79,6.1-2.09,1.45-3.06,7.41,2.26,12.8,5.31,5.4,9.26,3.52,12.56,1.48,3.3-2.04,10.63-1.48,10.71,4.16.08,5.64,3.54,7.73,9.02,6.2,5.48-1.53,16.35-2.33,19.81,3.06,3.47,5.4,3.71,13.59,19.49,18.36,15.79,4.76,20.14-8.61,35.92-8.61s53-12.57,59.76-26.9c6.77-14.34,8.38-23.84,18.04-27.22,9.67-3.38,14.98-6.07,18.52-17.94,3.55-11.86,8.38-18.63,17.08-21.36,8.7-2.74,14.17-9.51,16.43-16.43,2.25-6.93,21.74-16.14,26.9-29.25,5.15-13.12,4.18-18.91,15.62-25.68,11.44-6.76,17.48-11.85,21.95-23,4.47-11.15,23.96-21.62,25.57-32.57,1.61-10.95,1.67-18.76,2.74-25.88,1.07-7.12,1.48-13.29-5.72-17.77ZM159.77,606.44c-11.22,6.88-26.22,12.44-28.39,7.25-2.18-5.2,16.91-22.6,16.91-22.6,6.35-6.22,18.97-9.66,22.59-4.34,3.63,5.31.12,12.8-11.11,19.69Z" fill="#758838" stroke="#525d29" stroke-miterlimit="10" stroke-width=".5"/><path d="M.77,625.86s2.93,4.65,5.65,3.32c2.72-1.33,2.75-3.93,1.3-5.65s-4.11-3.38-5.92-1.99-1.86,3.19-1.03,4.32Z" fill="#758838" stroke="#525d29" stroke-miterlimit="10" stroke-width=".5"/><path d="M22.82,658.42c.3.73,3.38,5.74,4.89,7.49,1.51,1.75,4.53,2.84,8.15.6,3.62-2.23,4.47-3.44,3.2-7.31-1.27-3.87-3.2-7.03-3.87-7.97-1.43-2.02-4.32-2.07-7.47-.58s-6.6,3.61-4.91,7.77Z" fill="#758838" stroke="#525d29" stroke-miterlimit="10" stroke-width=".5"/><path d="M53.2,705.41s2.54,6.1,4.23,8.82c1.69,2.72,4.53,3.93,8.03,2.84s5.13-3.26,4.11-6.77-3.87-8.64-4.41-9.85-2.47-3.38-7.25-1.9c-4.77,1.48-5.88,4.16-4.71,6.85Z" fill="#758838" stroke="#525d29" stroke-miterlimit="10" stroke-width=".5"/><path d="M292.11,910.1s2.17,7.91,6.58,6.28c4.41-1.63,3.81-5.32,2.9-7.97s-3.29-4.8-6.61-3.59c-3.32,1.21-3.37,3.83-2.87,5.28Z" fill="#758838" stroke="#525d29" stroke-miterlimit="10" stroke-width=".5"/><path d="M316.59,917.58s.97,4.31,1.21,5.32c.44,1.87,1.33,2.11,4.35,1.57s2.11-2.42,1.99-3.74c-.12-1.33-.85-3.74-.97-4.41-.12-.66-.97-2.23-3.87-1.69s-2.9,2.03-2.72,2.96Z" fill="#758838" stroke="#525d29" stroke-miterlimit="10" stroke-width=".5"/><path d="M318.16,937.01s.94,4.29,1.33,5.32c.63,1.7,1.85,2.3,4.87,1.69,3.02-.6,2.98-2.21,2.86-3.74s-.52-4.27-.97-5.76c-.44-1.49-2.66-2.05-4.47-1.57s-4.19,1.32-3.62,4.07Z" fill="#758838" stroke="#525d29" stroke-miterlimit="10" stroke-width=".5"/><path d="M264.01,730.1s5.96-7.61,5.96-17.6,2.74-11.6,7.25-16.43c4.51-4.83,6.93-7.25,7.09-15.79.16-8.54,1.17-9.18-2.09-18.85s5.34-10.03,2.37-18.85c-2.97-8.82-7.56-10.63-5.51-13.89,2.05-3.26,1.45-3.5.54-5.68s1.66-13.11,6.48-14.15c4.82-1.05,13.88-4.33,14.44-11.17s-2.74-12.44-17.23-14.98-23.07,4.23-22.11,11.23c.97,7.01,3.96,10.19-.07,16.51-4.03,6.32-7.9,15.26-5.48,22.99s9.67,8.53,13.05,8.55,5.92,1.35,3.5,3.29-2.78,2.94-2.21,4.95-2.01,3.8-4.75,5.89c-2.74,2.08-6.2,6.03-6.36,14.25-.16,8.21-3.72,13.85-9.67,19.17-5.95,5.32-16.74,13.29-17.39,31.49-.64,18.2,11.76,40.75,19.17,52.19,7.41,11.44,18.44,22.23,27.62,15.34,9.18-6.89,2.84-17.81-5.68-24.52-10.07-7.93-3.56-11.62-6.77-17.52-3.54-6.52-4.67-9.26-2.13-16.43Z" fill="#758838" stroke="#525d29" stroke-miterlimit="10" stroke-width=".5"/><path d="M323.1,581.16s-3.29,5.98-.44,8.28c2.85,2.3,6.11-.17,7.5-3.29,1.39-3.12,1.93-5.41-.72-6.92s-4.95-.6-6.34,1.93Z" fill="#758838" stroke="#525d29" stroke-miterlimit="10" stroke-width=".5"/><path d="M327.55,568.31s-3.07,5.58-.41,7.73,5.71-.16,7.01-3.07,1.81-5.05-.68-6.46c-2.48-1.41-4.63-.56-5.92,1.81Z" fill="#758838" stroke="#525d29" stroke-miterlimit="10" stroke-width=".5"/><path d="M353.52,529.8s-1.7,3-2.36,4.83c-.74,2.07.02,3.44,1.87,4.17,1.74.68,3.68.91,4.77-1.39,1.09-2.3,1.51-3.5,2.11-4.77.6-1.27.42-2.96-1.63-4.05-2.05-1.09-3.92-.42-4.77,1.21Z" fill="#758838" stroke="#525d29" stroke-miterlimit="10" stroke-width=".5"/><path d="M333.44,550.37s-2.38,4.5-3.11,6.27-1.14,4.92,2.26,6.77c3.39,1.85,5.8.24,7.17-2.34,1.37-2.58,2.5-4.75,3.3-6.52.81-1.77.48-4.59-2.09-5.88-2.58-1.29-5.92-.91-7.52,1.7Z" fill="#758838" stroke="#525d29" stroke-miterlimit="10" stroke-width=".5"/><path d="M468.37,421.3s-.97,9.56-2.42,14.08c-1.45,4.52-3.74,10.69,2.42,13.1,6.16,2.42,10.03-1.93,9.42-7.73-.6-5.8.36-10.15,1.21-14.01s3.02-11.6-2.17-13.29c-5.19-1.69-7.65,1.52-8.46,7.85Z" fill="#758838" stroke="#525d29" stroke-miterlimit="10" stroke-width=".5"/><path d="M470.95,368.83s-2.96,10.03,1.3,11.36,5.95-1.61,6.44-6.97.35-7.2-1.85-8.01c-2.4-.89-5.1-.04-5.88,3.62Z" fill="#758838" stroke="#525d29" stroke-miterlimit="10" stroke-width=".5"/><path d="M509.2,338.38s-4.74,9.32-.79,11.4c3.95,2.08,6.15-.51,7.59-5.68,1.45-5.18,1.65-7.02-.37-8.22-2.2-1.31-5.01-.96-6.44,2.5Z" fill="#758838" stroke="#525d29" stroke-miterlimit="10" stroke-width=".5"/><path d="M438.85,770.47s-2.42,18.27-15.66,25.33c-8.54,4.55-13.65,3.99-17.76,11.23-4.11,7.25-9.79,15.33-22.35,13.1-12.56-2.23-14.16-12.8-7.14-15.85,7.02-3.05,11.85-8.85,13.78-17.67,1.93-8.82-.05-16.91,10.36-21.87,10.41-4.95,12.25-13.41,6.38-18.6-5.87-5.19-8.77-11.48-2.37-18.48,6.4-7.01-3.23-9.79,2.37-24.04,5.6-14.26,4.03-25.13,5-33.34.97-8.21-1.05-17.68,3.2-30.72,4.25-13.05-3.48-14.66-1.07-33.02,2.42-18.36,6.41-36.24,6.43-48.81.02-12.56-1.76-32.86,9.04-44.46,10.79-11.6,38.82-9.99,45.42,4.99,6.6,14.98-3.87,17.4-1.29,32.21,2.58,14.82-3.54,23.52-12.72,29.32-9.18,5.8-17.4,13.92-12.56,24.6,4.83,10.68,7.57,17.12-.64,26.3-8.21,9.18-10.47,15.95-5.8,28.35s5.96,17.66,1.61,27.92c-4.35,10.26-4.51,13.16-.97,26.2,3.54,13.05-1.13,14.45-4.03,18.5s-4.83,6.46-.64,15.48c4.19,9.02,1.41,23.32,1.41,23.32Z" fill="#758838" stroke="#525d29" stroke-miterlimit="10" stroke-width=".5"/><path d="M349.37,803s-4.35,1.69-2.9,5.96c1.45,4.27,5.4,3.56,6.97,2.91s3.74-2.67,2.53-5.97c-1.21-3.3-4.11-4.03-6.6-2.9Z" fill="#758838" stroke="#525d29" stroke-miterlimit="10" stroke-width=".5"/><path d="M368.99,834.89s.04,5.88,4.87,12.72c4.83,6.85,8.46,8.13,11.6,5.72,3.14-2.42-1.85-7.34-4.35-12.21s-1.37-10.82-5.72-11.79c-4.35-.97-6.84,2.53-6.4,5.56Z" fill="#758838" stroke="#525d29" stroke-miterlimit="10" stroke-width=".5"/><path d="M373.9,872.34s1.61,4.51,3.06,7.65c1.45,3.14,3.3,5.64,6.28,4.51s3.06-3.7,1.45-8.13c-1.61-4.43-3.95-10.63-7.49-9.83-3.54.81-4.35,2.98-3.3,5.8Z" fill="#758838" stroke="#525d29" stroke-miterlimit="10" stroke-width=".5"/><path d="M413.84,942.53s-2.78,3.02-.36,5.8c2.42,2.78,6.22,2.11,6.95.42.72-1.69,1.09-3.68-1.45-5.8s-4.57-1.2-5.13-.42Z" fill="#758838" stroke="#525d29" stroke-miterlimit="10" stroke-width=".5"/><path d="M462.29,978.67s-2.42,9.54,3.99,14.26c6.4,4.71,9.06,8.21,9.3,16.31.24,8.09,4.59,14.62,12.08,18.24,7.49,3.62,17.8,11.03,19.73,29.23s-4.99,24.48,1.93,39.3c6.93,14.82,14.72,21.1,22.5,26.42,7.78,5.32,11.48,6.28,12.09,14.13.6,7.85-10.03,10.66-7.13,18.74,2.9,8.08,19.09,3.61,21.5,12.31,2.42,8.7,4.11,9.54,6.89,13.41,2.78,3.87,3.74,17.64-.72,25.49s-17.64,8.21-24.89,3.99c-7.25-4.23-4.83-7.37-3.26-9.79,1.57-2.42-1.38-5.8,1.49-12.44,2.86-6.64-2.62-5.8,0-11.84,2.62-6.04-1.85-10.27-7.77-11.96-5.92-1.69-9.79-8.94-4.71-15.1,5.07-6.16,7.13-15.83.12-20.17s-17.64-14.5-22.11-25.73c-4.47-11.23-3.99-21.5-12.81-22.47-8.82-.97-19.25-7.85-20.21-23.32s-7.25-18.68-13.53-20.13-15.79-6.6-15.79-16.91-3.38-17.88-7.73-25.13-4.67-18.85,6.6-25.61c11.28-6.77,23.11-1.77,22.43,8.78Z" fill="#758838" stroke="#525d29" stroke-miterlimit="10" stroke-width=".5"/><path d="M592.96,1140.15s-1.15,4.05-1.81,6.28c-.66,2.23.24,4.05,1.81,4.41,1.57.36,3.02.06,3.93-3.14.91-3.2,1.33-5.26,1.69-6.95s-.36-2.66-2.36-3.14-2.93,1.39-3.26,2.54Z" fill="#758838" stroke="#525d29" stroke-miterlimit="10" stroke-width=".5"/><path d="M612.25,1061.42l-2.01,11.11s-1.45,5.48,3.38,6.04c4.83.56,4.83-1.61,5.56-5.48.72-3.87,1.03-7.18,1.29-8.62.4-2.26.08-5.07-3.14-5.56s-4.75.72-5.07,2.5Z" fill="#758838" stroke="#525d29" stroke-miterlimit="10" stroke-width=".5"/><path d="M678.85,868.54s-17.4,3.22-17.23,17.72c.16,14.5.45,24.32-9.6,30.77-10.05,6.44-19.44,12.4-15.79,30.28,3.65,17.88,13.47,23.52,9.12,35.44s-4.19,12.4-4.03,16.59c.16,4.19-.81,15.62-11.76,17.23-10.95,1.61-15.46-10.63-14.34-21.26,1.13-10.63,2.58-25.29-1.77-36.4-4.35-11.11-4.51-20.46,1.45-28.67,5.96-8.21.64-13.95,9.5-23.81,8.86-9.86,15.3-18.07,17.72-30.47,2.42-12.4,3.87-22.07,11.92-25.93,8.05-3.87,4.99-15.46,15.79-19.65,10.79-4.19,26.58.27,29.15,10.76,2.58,10.5.64,23.22-20.13,27.41Z" fill="#758838" stroke="#525d29" stroke-miterlimit="10" stroke-width=".5"/><path d="M771.07,770.28s-10.63,1.13-14.17,10.63c-3.54,9.5-4.03,15.79-11.44,18.2-7.41,2.42-8.7,5.32-9.66,9.83s-12.74,9.15-21.67-2.43c-8.93-11.58-6.36-24.31,7.34-32.68,13.69-8.38,11.28-10.63,20.46-16.59,9.18-5.96,12.08-8.54,14.34-13.21,2.26-4.67,3.7-7.09,13.69-11.28,9.99-4.19,24.32-16.43,26.9-24.32,2.58-7.89,2.94-13.5,16.75-14.98,13.81-1.48,18.2-10.63,18.85-18.52.64-7.89,1.53-8.21,5.28-11.36,3.74-3.14,1.81-7.01,7.61-9.42s8.58-4.59,9.54-9.54c.97-4.95,2.9-6.4,11.23-6.77s15.58,4.83,13.41,19.09c-2.17,14.26-5.68,17.76-15.58,19.09-9.91,1.33-5.56,11.96-14.01,14.62-8.46,2.66-1.09,12.97-15.58,14.09-14.5,1.13-7.61,13.58-16.43,12.08-8.05-1.37-10.74,4.31-8.35,9,2.39,4.69,4.64,11.3-3.41,17.42-8.05,6.12-10.79,9.18-13.37,14.5-2.58,5.32-5.88,11.6-21.7,12.56Z" fill="#758838" stroke="#525d29" stroke-miterlimit="10" stroke-width=".5"/><path d="M788.98,456.31s-4.31,3.34-3.18,8.5c1.13,5.15.54,7.68-2.31,11.65-2.85,3.97-3.49,7.51-1.4,14.12,2.09,6.6,1.77,14.01-2.9,18.85-4.67,4.83-3.87,11.92-5.32,20.13-1.45,8.21-5.32,22.07-22.55,25.93-17.23,3.87-25.61-8.21-20.94-18.2,4.67-9.99,14.61-24.64,15.76-35.28,1.15-10.63-.03-20.3,8.69-24.16,8.73-3.87,10.14-5.32,10.38-8.46.24-3.14-5.54-4.42-8.82-7.01-4.39-3.46-6.89-15.14,9.87-20.13,16.75-4.99,24.08,1.53,25.41,4.47,2.62,5.8-2.7,9.58-2.7,9.58Z" fill="#758838" stroke="#525d29" stroke-miterlimit="10" stroke-width=".5"/><path d="M809.87,395.35s-7.12.24-13.4,5.56c-3.53,2.99,1.45,10.07-4.83,14.66-6.28,4.59-15.54,2.5-20.94-5.15-5.4-7.65-1.13-11.03,2.98-13.93s5.4-6.04,8.46-13.69c3.06-7.65,5.64-14.98,17.4-15.79,11.76-.81,16.19,1.13,15.3,7.65-.89,6.52,1.66,8.53,4.11,10.1,3.22,2.06,3.36,10.68-9.07,10.6Z" fill="#758838" stroke="#525d29" stroke-miterlimit="10" stroke-width=".5"/><path d="M935.3,260.97s-9.34,2.58-10.71,8.13c-1.37,5.56-1.21,10.79-7.65,12.64-6.44,1.85-7.97,4.03-9.1,7.97-1.13,3.95-10.07,11.44-17.07,5.48-7.01-5.96-9.18-14.26-3.95-21.91s11.68-3.62,14.17-7.65c2.5-4.03,4.35-3.95,8.62-4.67s6.68-2.82,8.21-6.52c1.53-3.7,7.73-9.18,16.11-8.7s10.15,5.05,9.34,9.42c-.72,3.95-7.97,5.8-7.97,5.8Z" fill="#758838" stroke="#525d29" stroke-miterlimit="10" stroke-width=".5"/><path d="M885.85,458.28s-15.62,11.6-19.33,24.97,5.32,17.72-.81,25.29c-6.12,7.57-22.55,3.52-27.7,14.08s7.41,20.87,0,36.01c-7.41,15.14-24.32,17.07-34.95,23.19-10.63,6.12-16.27,10.95-17.07,24.32-.81,13.37-4.67,21.1-14.82,27.22s-13.69,13.16-13.05,22.93c.64,9.77-2.42,10.25-8.21,9.45-5.8-.81-8.21.68-7.73,4.31.48,3.62-1.73,6.28-4.31,8.58-2.58,2.3-2.82,3.87-1.97,9.91s2.05,13.29-4.83,15.1c-6.89,1.81-13.15-4.35-17.33-9.54-4.18-5.19-1.12-7.14-2.48-15.83-1.07-6.79,3.14-10.63,7.85-11.11s9.55-8.26,5.2-18.4c-4.35-10.15,3.38-10.47,6.28-16.91,2.9-6.44,4.19-11.28,11.76-15.14s12.08-15.79,17.23-24.32c5.15-8.54,12.21-19.65,20.52-22.55,8.31-2.9,13.3-9.34,10.89-16.11s-2.9-15.54,5.48-17.64c8.38-2.09,10.47-5.32,10.47-11.92s4.51-14.82,12.56-21.1,12.72-10.15,13.85-19.01c1.13-8.86,4.19-13.21,10.15-17.23,5.96-4.03,8.21-7.89,11.92-12.56,3.7-4.67,13.05-9.29,18.04-13.82,4.99-4.54,13.25-10.01,19.17-3.61,5.92,6.4,3.14,14.78-6.77,21.46Z" fill="#758838" stroke="#525d29" stroke-miterlimit="10" stroke-width=".5"/><path d="M778.29,938.61s-3.54,2.9-3.22,9.5c.32,6.6,2.9,7.73,3.79,8.54s2.5,3.79.64,7.73c-1.85,3.95-5.4,1.13-7.57,4.43-2.17,3.3-5.72,9.26-15.62,4.27-9.91-4.99-9.26-15.14-4.43-17.88,4.83-2.74,4.99-6.28,5.15-9.02.16-2.74,2.58-8.13,5.88-9.1s2.74-4.51,2.34-8.05c-.4-3.54,2.66-8.86,10.47-5.96,7.01,2.6,8.86,5.8,7.57,9.5-1.33,3.81-3.58,4.31-4.99,6.04Z" fill="#758838" stroke="#525d29" stroke-miterlimit="10" stroke-width=".5"/><path d="M1067.88,273.69s-11.25-.16-13.35,6.93,4.27,9.42.72,15.22c-3.54,5.8,2.01,11.28,4.47,14.17,2.46,2.9,5.04,11.11-2.21,18.85-7.25,7.73-7.73,9.99-7.25,16.11s-5.96,21.1-18.52,19.49c-12.56-1.61-15.79-14.82-13.53-28.99,2.26-14.17,6.28-35.11,7.41-44.62,1.13-9.5,2.74-33.83,12.24-42.36,9.5-8.54,11.28-12.89,10.79-20.3s-3.7-11.92,4.51-18.85c8.21-6.93,9.5-11.92,10.15-23.03.64-11.11,1.45-20.3,8.38-25.77,6.93-5.48,4.75-16.43,14.7-17.72,9.95-1.29,12.79-7.57,10.24-14.01-2.55-6.44-5.85-19.57,7.6-22.71,11.72-2.74,19.97,4.68,18.2,17.8-1.77,13.12-9.34,13.12-6.12,22.46,3.22,9.34,5.8,23.36-4.59,32.78-10.39,9.42-4.81,28.27-15.09,38.66s-8.59,23.44-6.9,32.86c1.69,9.42-.93,20.94-21.85,23.03Z" fill="#758838" stroke="#525d29" stroke-miterlimit="10" stroke-width=".5"/><path d="M968.16,578.93s-10.87-7.73-8.34-14.34c2.54-6.6,4.51-10.71,1.49-15.06s-2.9-4.59-1.87-7.85c1.03-3.26-3.93-9.75-16.97-9.75s-16.19,8.06-14.98,14.1c1.21,6.04.85,12.68-2.78,16.67s-2.66,8.58,1.45,10.99.6,9.3,5.32,15.83c4.71,6.52,11.14,19.73,10.83,37.61-.32,17.88-8.69,25.77-14.81,32.38-6.12,6.6-6.6,13.69-3.06,25.61,3.54,11.92,3.7,16.11,1.13,22.87-2.58,6.77-2.26,14.17.32,21.26,2.58,7.09,2.09,7.57-.48,15.79-2.58,8.21-2.82,11.76-3.18,18.04s-6.64,15.62-14.7,20.62c-8.05,4.99-14.82,9.5-15.14,19.49-.32,9.99-.16,19.97-9.99,22.07-9.83,2.09-14.34,3.54-16.59,10.79-2.26,7.25-6.44,9.66-11.92,13.21-5.48,3.54-9.66,13.69-2.9,22.23,6.77,8.54,22.87,1.29,25.93-5.8,3.06-7.09,10.31-8.21,13.69-14.82,3.38-6.6,10.95-4.03,14.5-11.44,3.54-7.41,12.24-7.57,15.46-13.85,3.22-6.28-.85-18,3.62-22.59,4.47-4.59,16.79-.72,19.57-9.42,2.78-8.7.24-12.2,6.52-21.62,6.28-9.42,8.82-16.91,8.58-23.92-.24-7.01-1.81-10.15.6-14.98,2.42-4.83.48-14.5-2.66-22.59-3.14-8.09-4.83-18.85-2.42-25.37,2.42-6.52,6.89-10.51,7.25-20.05.36-9.54,1.81-12.93,4.83-18.72,3.02-5.8,2.78-9.66,3.99-18.85,1.21-9.18,5.8-18.97,5.92-27.42.12-8.46-.36-14.66-8.21-21.1Z" fill="#758838" stroke="#525d29" stroke-miterlimit="10" stroke-width=".5"/><path d="M974.9,509.18s-2.34,5.56,2.17,7.89c4.51,2.34,8.3,1.29,9.74-1.29,1.45-2.58,1.93-6.04-2.74-8.62-4.67-2.58-7.89-.64-9.18,2.01Z" fill="#758838" stroke="#525d29" stroke-miterlimit="10" stroke-width=".5"/><path d="M688.01,582.75s-4.35,4.67-4.35,12.56-1.29,14.5-9.18,18.85-12.08,13.29-9.66,19.09c2.42,5.8,7.25,17.72-2.58,23.52-9.83,5.8-17.4,15.14-15.7,24.81,1.69,9.66,1.69,20.54-7.73,27.3-9.42,6.77-17.4,12.81-17.4,22.23s-4.1,16.19-11.11,20.3c-7.01,4.11-8.94,12.56-7.49,20.54s-2.17,15.7-8.7,21.99c-6.52,6.28-.48,14.97-8.46,26.21-7.97,11.24-10.39,23.08-14.98,31.3-4.59,8.21-2.74,16.75-14.82,20.13s-14.5,6.44-12.72,12.72c1.77,6.28,3.18,10.93-2.74,13.02-5.92,2.08-6.4,4.5-6.16,8.25.24,3.74.11,5.8-2.12,8.7s-.78,9.46-8.03,10.71c-7.25,1.25-13.41,2.82-17.52,4.03-4.11,1.21-7.01,1.69-10.03-.97-3.02-2.66-1.69-8.46,2.54-12.32,4.23-3.87,3.99-7.73,2.05-11.96-1.93-4.23-1.69-12.68,4.35-15.83,6.04-3.14,20.42,2.05,22.71-4.11,2.3-6.16-6.99-4.59-8.27-11.6-1.28-7.01,6.46-8.09,9.11-11.96,2.66-3.87,3.76-8.82,2.69-17.36-1.08-8.54-.82-12.56,6.46-17.07,7.28-4.51,13.64-7.96,16.58-21.54,2.94-13.58,3.91-21.47,13.25-31.62,9.34-10.15,13.05-14.5,13.85-26.09.81-11.6.66-19.17,9.59-24.97,8.93-5.8,3.46-16.51,11.83-27.3,8.38-10.79,17.4-11.99,13.21-24.76-4.19-12.77-2.9-24.53,4.51-33.55,7.41-9.02,11.44-23.84,22.39-29.8,10.95-5.96,2.58-15.95,3.7-23.44,1.13-7.49,2.9-19.25,23.03-21.99,20.13-2.74,25.13,11.28,17.88,21.99Z" fill="#758838" stroke="#525d29" stroke-miterlimit="10" stroke-width=".5"/><path d="M836.68,760.22s-1.87,4.77-2.6,6.58c-.72,1.81-1.45,3.56.91,4.53s3.2-.3,3.99-2.23c.79-1.93,1.93-4.89,2.6-6.77s.42-3.2-1.33-3.68-2.77-.46-3.56,1.57Z" fill="#758838" stroke="#525d29" stroke-miterlimit="10" stroke-width=".5"/><path d="M825.63,815.61s-3.91-.14-4.81,2.76.79,4.89,3.2,5.56c2.42.66,5.13-.66,5.62-3.5s-2.28-4.55-4.01-4.81Z" fill="#758838" stroke="#525d29" stroke-miterlimit="10" stroke-width=".5"/><path d="M747.51,1008.05s-3.56,3.81-.6,6.34c2.96,2.54,4.95-.12,6.22-1.75s1.81-4.05,0-5.38c-1.81-1.33-4.43-.95-5.62.79Z" fill="#758838" stroke="#525d29" stroke-miterlimit="10" stroke-width=".5"/><path d="M787.35,971.65s-3.54,3.17-5.32,5.27c-1.77,2.09-2.09,5.48,0,7.33,2.09,1.85,5.32,1.69,7.81-.72s3.38-3.29,4.67-4.95c1.29-1.66,1.21-4.1-.89-6.14-2.09-2.04-4.26-2.66-6.28-.79Z" fill="#758838" stroke="#525d29" stroke-miterlimit="10" stroke-width=".5"/><path d="M804.59,947.96s-4.67-1.2-6.2,2.91c-1.53,4.11.56,5.56,3.06,6.28s5.64.48,6.6-2.98-.89-5.56-3.46-6.21Z" fill="#758838" stroke="#525d29" stroke-miterlimit="10" stroke-width=".5"/><path d="M817.25,915.19s-3.62,3.81-4.89,5.8c-1.27,1.99-1.76,5.62.66,7.76,2.42,2.14,6.28,1.54,8.64-.88,2.36-2.42,3.5-5.38,4.35-6.83s1.15-4.71-1.81-6.46-5.52-.94-6.95.6Z" fill="#758838" stroke="#525d29" stroke-miterlimit="10" stroke-width=".5"/><path d="M944.78,498.63s-1.41,1.81-1.89,2.9.06,2.3,1.39,3.2,2.78.24,3.38-.6.85-1.32,1.33-2.23.48-2.36-.97-3.27c-1.45-.91-2.67-.78-3.24,0Z" fill="#758838" stroke="#525d29" stroke-miterlimit="10" stroke-width=".5"/><path d="M957.04,474.55s-2.23,3.14-2.84,4.35c-.6,1.21-1.21,3.44.85,5.19,2.05,1.75,5.13.85,5.92-.66s1.63-2.72,2.54-4.59c.91-1.87-.12-3.87-1.87-4.65s-3.6-1.05-4.59.36Z" fill="#758838" stroke="#525d29" stroke-miterlimit="10" stroke-width=".5"/><path d="M972.55,455s-1.81,2.84-2.3,4.77-.06,3.68,1.45,4.41c1.51.72,3.81.91,4.89-1.27,1.09-2.17,1.57-3.44,2.05-4.59s.36-3.26-1.75-4.17c-2.11-.91-3.7-.24-4.35.85Z" fill="#758838" stroke="#525d29" stroke-miterlimit="10" stroke-width=".5"/><path d="M1062.37,142.54s-2.82,1.77-4.67,4.19c-1.85,2.42-1.93,4.35,0,6.6s4.51,2.74,7.17.89c2.66-1.85,3.38-2.74,4.43-4.03,1.05-1.29,2.34-4.11,0-7.01s-5.91-1.35-6.93-.64Z" fill="#758838" stroke="#525d29" stroke-miterlimit="10" stroke-width=".5"/><path d="M1047.31,151.32s-5.64,4.19-7.57,6.36-2.26,5.4,0,8.54,6.6,3.87,9.26,1.85c2.66-2.01,5.32-4.03,6.93-5.8,1.61-1.77,2.34-5.56-.97-8.94s-5.71-3.5-7.65-2.01Z" fill="#758838" stroke="#525d29" stroke-miterlimit="10" stroke-width=".5"/><path d="M1027.9,164.12s-5.64,3.62-7.73,5.96c-2.09,2.34-3.15,5.22-1.53,8.13,2.01,3.62,6.52,4.27,9.26,2.26s6.12-3.87,7.49-5.56c1.37-1.69,3.87-4.83,0-9.26-3.04-3.48-6.34-2.3-7.49-1.53Z" fill="#758838" stroke="#525d29" stroke-miterlimit="10" stroke-width=".5"/><path d="M964.92,316.26s-4.99,1.69-8.05,3.62c-3.06,1.93-3.37,5.08-2.09,8.13,1.28,3.05,4.99,3.79,7.81,2.66,2.82-1.13,5.23-2.42,7.65-4.03,2.42-1.61,2.98-4.51,1.37-7.89-1.26-2.64-4.39-3.35-6.68-2.5Z" fill="#758838" stroke="#525d29" stroke-miterlimit="10" stroke-width=".5"/><path d="M937.98,336.26s-4.95,1.58-6.89,4.48-.72,5.88,1.93,8.13c2.66,2.26,8.63.31,11.28-2.66,2.42-2.72,1.93-5.96.72-8.21-1.21-2.26-4.27-3.06-7.05-1.74Z" fill="#758838" stroke="#525d29" stroke-miterlimit="10" stroke-width=".5"/><path d="M689.52,674.85s-.89,6.13-1.05,7.86.16,4.79,3.46,5.35,4.99-.32,5.48-3.22.89-5.96,1.05-8.05-.4-4.67-4.11-4.91c-3.7-.24-4.57,1.11-4.83,2.98Z" fill="#758838" stroke="#525d29" stroke-miterlimit="10" stroke-width=".5"/><path d="M673.7,706.74s-2.09,4.67-2.58,6.2c-.48,1.53-1.37,4.59,1.29,5.96,2.66,1.37,4.59,0,5.88-2.42,1.29-2.42,1.96-4.85,2.66-6.36,1.17-2.54,1.17-4.16-2.11-5.5-3.28-1.34-4.34.31-5.13,2.12Z" fill="#758838" stroke="#525d29" stroke-miterlimit="10" stroke-width=".5"/><path d="M665.21,725.75s-.9,1.49-1.38,3.02-1.37,4.59,1.29,5.96c2.66,1.37,4.59,0,5.88-2.42,1.29-2.42.77-1.67,1.46-3.18,1.17-2.54,1.17-4.16-2.11-5.5-3.28-1.34-4.34.31-5.13,2.12Z" fill="#758838" stroke="#525d29" stroke-miterlimit="10" stroke-width=".5"/><path d="M746.15,369.63s-5.33,13.61-6.66,16.87c-1.33,3.26-3.62,8.34,0,10.03,3.62,1.69,5.68.43,7.61-4.14s4.71-13.02,5.92-16.89c1.21-3.87,2.05-7.59-1.33-8.69s-4.88,1.13-5.54,2.81Z" fill="#758838" stroke="#525d29" stroke-miterlimit="10" stroke-width=".5"/><path d="M729.11,410.91s-2.79,2.66-4.08,4.83-.48,4.51,1.21,6.04c1.69,1.53,4.83,2.01,6.68-.32,1.85-2.34,2.74-3.95,4.03-5.64,1.29-1.69.86-4.59-1.14-5.92-2-1.33-5.01-.74-6.7,1Z" fill="#758838" stroke="#525d29" stroke-miterlimit="10" stroke-width=".5"/><path d="M717.71,441.92s-1.77,6.52-2.34,9.02-1.28,5.87,1.45,6.96,5.31.45,6.44-3.18,1.93-7.33,2.58-9.74c.64-2.42-.24-4.67-3.06-5.15s-3.95,0-5.07,2.09Z" fill="#758838" stroke="#525d29" stroke-miterlimit="10" stroke-width=".5"/></g><g id="sand"><path d="M71.83,594.65s-2.34.6-2.5,2.17,1.05,2.34,2.5,2.5c1.45.16,2.94-.52,3.26-2.13.32-1.61-1.45-2.78-3.26-2.54Z" fill="#F3EE95" stroke="#f5ec99" stroke-miterlimit="10" stroke-width=".75"/><path d="M69.97,605.2s-2.42.56-2.66,2.34c-.24,1.77,1.57,2.82,2.66,2.9s3.1-.6,3.3-2.62c.2-2.01-1.73-3.1-3.3-2.62Z" fill="#F3EE95" stroke="#f5ec99" stroke-miterlimit="10" stroke-width=".75"/><path d="M64.94,629.08s-2.5-.16-3.34-1.21-3.38-2.26-5.28-1.09-2.62,4.99-.72,5.11,3.7-.52,4.67,1.17,3.91,2.17,5.6,1.13,2.86-4.59-.93-5.11Z" fill="#F3EE95" stroke="#f5ec99" stroke-miterlimit="10" stroke-width=".75"/><path d="M284.16,613.78s.04,2.78-1.93,4.15-2.78,4.51-.44,6.16,6.81.16,7.41-2.66.48-4.19,1.81-5.32,1.09-4.11-1.17-4.99-5.19-1.57-5.68,2.66Z" fill="#F3EE95" stroke="#f5ec99" stroke-miterlimit="10" stroke-width=".75"/><path d="M397.88,749.26s-4.05,1.39-4.17,4.49c-.12,3.1,2.13,6.36,5.23,6.48,3.1.12,7.97-4.11,7.49-7.33s-4.35-5.52-8.56-3.64Z" fill="#F3EE95" stroke="#f5ec99" stroke-miterlimit="10" stroke-width=".75"/><path d="M528.45,1172.5s1.45,3.54,4.15,3.18c2.7-.36,3.62-3.6,2.62-5.92-1.29-2.98-9.02-3.54-6.77,2.74Z" fill="#F3EE95" stroke="#f5ec99" stroke-miterlimit="10" stroke-width=".75"/><path d="M539.16,1148.67s-2.74,3.91-.48,5.72c2.26,1.81,6,.68,6.72-1.09.72-1.77.2-4.74-1.97-5.92-2.82-1.53-4.27,1.29-4.27,1.29Z" fill="#F3EE95" stroke="#f5ec99" stroke-miterlimit="10" stroke-width=".75"/><path d="M520.96,1136.59s.77,4.23,3.5,4.11,3.91-2.13,3.58-4.99c-.32-2.86-2.7-5.11-4.59-4.91-1.89.2-2.74,3.46-2.5,5.8Z" fill="#F3EE95" stroke="#f5ec99" stroke-miterlimit="10" stroke-width=".75"/><path d="M522.01,885.83s-1.29-.93-3.26-.85-5.48-.97-5.64-3.38c-.16-2.42,5.84-3.38,8.3-3.22,2.46.16,5.8,2.76,5.28,5.48-.47,2.43-2.34,2.78-4.67,1.97Z" fill="#F3EE95" stroke="#f5ec99" stroke-miterlimit="10" stroke-width=".75"/><path d="M547.25,877.7s-2.33,4.53-.54,6.46,4.86.36,6.46-1.42c1.6-1.78,2.48-5.13.24-6.98-2.23-1.84-5.35.48-6.16,1.93Z" fill="#F3EE95" stroke="#f5ec99" stroke-miterlimit="10" stroke-width=".75"/><path d="M535.74,904.73s.42,5.76-1.55,8.82-3.18,6.6-.64,7.89,6.24-.77,7.01-3.87,3.3-6.77,3.62-10.63c.32-3.87-.28-7.13-3.34-7.73-3.06-.6-5.44,1.41-5.09,5.52Z" fill="#F3EE95" stroke="#f5ec99" stroke-miterlimit="10" stroke-width=".75"/><path d="M759.48,929.88s-3.62.36-4.02,2.54,2.48,2.69,4.02,2.84,4.26-.36,4.41-2.69-2.3-2.87-4.41-2.69Z" fill="#F3EE95" stroke="#f5ec99" stroke-miterlimit="10" stroke-width=".75"/><path d="M777.69,945.25s.94,3.99,3.26,3.84c2.33-.15,3.05-1.78,3.08-4.08.03-2.3-1.75-4.68-4.14-4.71-2.39-.03-2.65,3.65-2.2,4.95Z" fill="#F3EE95" stroke="#f5ec99" stroke-miterlimit="10" stroke-width=".75"/><path d="M771.51,970.28s-2.21,2.13-1.39,4.17c.83,2.03,3.66.56,4.65-.24s2.34-2.54,1.47-3.93-3.75-.91-4.73,0Z" fill="#F3EE95" stroke="#f5ec99" stroke-miterlimit="10" stroke-width=".75"/><path d="M924.31,811.52s2.5,5.4,5.92,5.19c3.42-.2,4.87-3.99,3.91-7.69s-6.04-5.77-8.5-4.52c-2.46,1.26-2.77,4.64-1.33,7.01Z" fill="#F3EE95" stroke="#f5ec99" stroke-miterlimit="10" stroke-width=".75"/><path d="M1059.37,36.57s-.56.6-.97,2.05c-.4,1.45-3.22,4.79-5.64,3.58-2.42-1.21-2.46-4.19-.52-6.36,1.93-2.17,4.27-5.88,6.68-4.95,2.42.93,1.81,3.95.44,5.68Z" fill="#F3EE95" stroke="#f5ec99" stroke-miterlimit="10" stroke-width=".75"/><path d="M1055.92,85.36s-7.01.79-7.79-1.57c-.79-2.36.97-6.7,5.44-7.91,4.47-1.21,8.76,1.03,9.48,3.87.72,2.84-3.32,5.38-7.13,5.62Z" fill="#F3EE95" stroke="#f5ec99" stroke-miterlimit="10" stroke-width=".75"/><path d="M1094.52,131.89s-1.53-2.5-1.89-3.38c-.36-.89-2.13-2.74-4.63-1.65s-1.77,4.71,0,6.89,1.53,4.71,2.82,5.07c1.29.36,6.08-1.89,3.7-6.93Z" fill="#F3EE95" stroke="#f5ec99" stroke-miterlimit="10" stroke-width=".75"/><path d="M1070.14,280.6s-6.83-2.66-9.36,0c-2.54,2.66-.18,8.7,3.93,10.99s8.28,2.05,10.33-1.81,1.21-7.31-4.89-9.18Z" fill="#F3EE95" stroke="#f5ec99" stroke-miterlimit="10" stroke-width=".75"/><path d="M959,592.12s-1.81,4.31-5.11,3.18-2.82-4.03-2.09-5.76,3.18-3.91,5.96-2.98c2.78.93,2.3,3.86,1.25,5.56Z" fill="#F3EE95" stroke="#f5ec99" stroke-miterlimit="10" stroke-width=".75"/><path d="M938.67,673.33s1.24,3.81,4.17,3.59,3.74-3.65,2.99-5.71-3.56-2.9-5.1-2.42-2.66,2.66-2.05,4.53Z" fill="#F3EE95" stroke="#f5ec99" stroke-miterlimit="10" stroke-width=".75"/><path d="M871.12,807.12s1.29,3.54,1.17,6.44c-.12,2.9.68,6.7,5.28,7.43,4.59.72,7.55-.6,8.28-7.85.72-7.25-6.04-13.35-10.63-13.71-4.59-.36-5.28,4.39-4.09,7.69Z" fill="#F3EE95" stroke="#f5ec99" stroke-miterlimit="10" stroke-width=".75"/><path d="M819.6,722.58s-1.65.08-2.3-1.29-2.68-2.52-4.19-1.29c-1.89,1.54-.4,5.19,2.21,6.72s6.32.36,6.64-1.49c.32-1.85-.77-2.7-2.38-2.66Z" fill="#F3EE95" stroke="#f5ec99" stroke-miterlimit="10" stroke-width=".75"/><path d="M814.48,687.28s-.91-.82-.57-1.69.57-2.51-1.51-2.57-3.56,2.67-2.48,5c1.09,2.33,3.84,1.97,4.56,1.37.72-.6.41-1.59,0-2.11Z" fill="#F3EE95" stroke="#f5ec99" stroke-miterlimit="10" stroke-width=".75"/><path d="M743.73,672.94s1.68,4.06-.77,5.64c-3.74,2.42-4.27,5.48-2.54,6.97,1.73,1.49,2.62,2.26,2.09,4.03-.52,1.77.85,3.42,2.54,2.62,1.48-.7,1.41-3.26.81-4.75-.6-1.49-.6-7.41,1.75-9.04,2.36-1.63,6.04-2.18,6.64-5.17s-4.22-3.73-6.28-4.56c-2.42-.97-6.02-.58-4.25,4.27Z" fill="#F3EE95" stroke="#f5ec99" stroke-miterlimit="10" stroke-width=".75"/><path d="M718.77,661.9s-.68-.77-2.26,0-5.32.12-6.24-1.13-.16-1.41,1.33-2.17c1.49-.77.97-1.25.89-3.06s2.74-3.18,5.48-3.02c2.74.16,3.18,3.3,4.75,4.39s2.09,3.02,1.01,4.35-3.74,2.09-4.95.64Z" fill="#F3EE95" stroke="#f5ec99" stroke-miterlimit="10" stroke-width=".75"/><path d="M847.53,523.2s2.01.93,5.32.36,5.15,1.09,5.28,4.31c.12,3.22,2.74,6.04,2.01,8.58-.72,2.54-9.95,3.18-15.18-1.49s-5.4-9.38-3.74-11.19,4.42-1.03,6.32-.56Z" fill="#F3EE95" stroke="#f5ec99" stroke-miterlimit="10" stroke-width=".75"/><path d="M784.75,549.09s-.64,2.17.68,3.42,2.42,3.79.2,4.59-3.5.28-3.5-1.61.44-3.14-.85-3.99-1.97-4.07.28-4.71c2.26-.64,3.46.24,3.18,2.3Z" fill="#F3EE95" stroke="#f5ec99" stroke-miterlimit="10" stroke-width=".75"/><path d="M748.4,469.18s-.52,1.73-2.34,2.17c-1.81.44-2.66,2.46-1.17,4.27s6.64.32,8.21-.97c1.57-1.29,2.62-3.83.68-4.07-1.93-.24-1.48-1.75-2.74-2.34-1.89-.89-2.66.93-2.66.93Z" fill="#F3EE95" stroke="#f5ec99" stroke-miterlimit="10" stroke-width=".75"/><path d="M796.28,418.72s-1.89,1.37-3.46.97-4.23.68-3.99,3.74,3.46,4.59,5.03,3.83,6.04.36,7.57-2.42c1.53-2.78-1.29-7.33-5.15-6.12Z" fill="#F3EE95" stroke="#f5ec99" stroke-miterlimit="10" stroke-width=".75"/><path d="M803.13,399.51s-6.16,2.17-6.24,5.11,5.92,3.79,8.4,2.9c2.48-.89,5.14-3.62,4.49-6.56s-4.77-2.25-6.64-1.45Z" fill="#F3EE95" stroke="#f5ec99" stroke-miterlimit="10" stroke-width=".75"/><path d="M796.72,364.85s-2.05-.42-3.41.48-3.23.97-4.2,0,.36-6.16,5.35-6.55,6.92.27,7.19,2.81-1.6,3.84-4.92,3.26Z" fill="#F3EE95" stroke="#f5ec99" stroke-miterlimit="10" stroke-width=".75"/><path d="M920.88,244.1s-3.62-.68-4.51,1.73-1.09,5.32-3.18,5.92c-2.09.6-3.02,2.74-3.99,4.11s-6.44,3.99-9.02,2.42c-2.58-1.57-.32-7.09,1.97-9.02s3.79-1.73,6.12-1.81,3.66-1.25,4.59-3.87,3.87-5.8,7.21-7.49c3.34-1.69,9.22.08,9.58,2.94.36,2.86-1.01,4.15-2.86,4.03s-2.5,1.85-5.92,1.05Z" fill="#F3EE95" stroke="#f5ec99" stroke-miterlimit="10" stroke-width=".75"/><path d="M899.98,217.84s-6.13-.79-6.4-4.41c-.28-3.62,3.65-4.95,7.46-4.53,3.81.42,6.58,2.36,6.22,5.32s-2.95,4.11-7.28,3.62Z" fill="#F3EE95" stroke="#f5ec99" stroke-miterlimit="10" stroke-width=".75"/><path d="M896.56,147.41s-7.01,3.02-8.94,2.11-1.51-7.01,4.17-9.66c5.68-2.66,8.52-1.63,9.6.42s-.33,5.5-4.83,7.13Z" fill="#F3EE95" stroke="#f5ec99" stroke-miterlimit="10" stroke-width=".75"/><path d="M932.6,125.33s-3.81,4.53-7.13,3.38c-3.32-1.15-3.08-7.43,0-9.97,3.08-2.54,7.01-2.72,9.06-1.27s1.1,5.26-1.93,7.85Z" fill="#F3EE95" stroke="#f5ec99" stroke-miterlimit="10" stroke-width=".75"/><path d="M905.36,80.43s-3.1,3.54-1.53,5.44c1.57,1.89,5.19.32,6.48-.72s3.02-3.87,1.49-5.76c-1.53-1.89-5.25-.66-6.44,1.05Z" fill="#F3EE95" stroke="#f5ec99" stroke-miterlimit="10" stroke-width=".75"/><path d="M900.21,61.58s-4.59-1.69-4.47-5.26c.12-3.56,6.28-4.05,8.76-2.96s5.44,4.05,4.17,6.83c-1.27,2.78-5.44,2.54-8.46,1.39Z" fill="#F3EE95" stroke="#f5ec99" stroke-miterlimit="10" stroke-width=".75"/><path d="M569.06,302.39s-3.5-3.74-6.1-2.3c-2.6,1.45-1.47,5.7.22,7.75,1.69,2.05,5.32,3.34,7.01,2.46s1.69-5.13-1.13-7.91Z" fill="#F3EE95" stroke="#f5ec99" stroke-miterlimit="10" stroke-width=".75"/><path d="M497.28,294.77s-6.34-3.62-9.12-2.05c-2.23,1.26-1.63,6.22,1.63,8.88s8.4,2.3,9.97,0c1.57-2.3.17-5.6-2.48-6.83Z" fill="#F3EE95" stroke="#f5ec99" stroke-miterlimit="10" stroke-width=".75"/><path d="M427.6,396.84s-1.85,3.02,0,4.91,5.68,1.33,6.6-.48c.93-1.81.81-4.67-1.33-5.76-2.13-1.09-4.63-.24-5.28,1.33Z" fill="#F3EE95" stroke="#f5ec99" stroke-miterlimit="10" stroke-width=".75"/><path d="M417.33,351.03s-5.36,4.95-4.03,7.45c1.33,2.5,6.36,2.58,8.94-.89,2.58-3.46,3.95-7.33,2.34-9.18s-5.17.38-7.25,2.62Z" fill="#F3EE95" stroke="#f5ec99" stroke-miterlimit="10" stroke-width=".75"/><path d="M398.62,448.28s-.28,2.55,1.09,4.04,1.53,4.51-.2,7.41c-1.73,2.9-4.23,2.3-5.8,1.29-1.57-1.01-.97-3.14.28-4.75,1.25-1.61.68-3.71.32-5.68-.36-1.97-.77-4.15,1.05-4.87,1.81-.72,3.14.56,3.26,2.56Z" fill="#F3EE95" stroke="#f5ec99" stroke-miterlimit="10" stroke-width=".75"/><path d="M393.05,418.4s1.93,4.23,1.39,6.22-3.63,4.59-1.67,6.77c1.97,2.17,5.71,1.69,7.4-3.74,1.69-5.44-.54-7.25-.6-10.21s.66-5.98-1.99-6.95c-2.66-.97-4.2,1.46-4.81,3.2-.65,1.87.28,4.71.28,4.71Z" fill="#F3EE95" stroke="#f5ec99" stroke-miterlimit="10" stroke-width=".75"/><path d="M402.41,380.16s2.9,4.77,1.57,9.36c-1.33,4.59-5.44,6.16-5.98,9.18-.54,3.02-.19,4.89,2.81,5.56,2.99.66,4.2-2.13,5.17-5.29.97-3.16,3.99-6.97,4.83-13.43.85-6.46-.3-11.96-3.02-14.07-2.72-2.11-4.41-.3-5.68,2.36-1.27,2.66-.49,4.72.3,6.34Z" fill="#F3EE95" stroke="#f5ec99" stroke-miterlimit="10" stroke-width=".75"/></g><g id="green"><path d="M910.54,61.54s-5.68,4.47-10.99,3.74c-5.32-.72-13.29-1.81-16.55,1.93-3.26,3.74-8.7,6.64-11.36,8.46-2.66,1.81-6.04,8.7,0,13.05,6.04,4.35,18.03-1.93,21.94-4.83s11.52-9.79,18.29-10.03c6.77-.24,12.2-1.93,11.23-7.73-.97-5.8-4.61-10.07-8.19-8.52-2.58,1.12-1.97,1.87-4.37,3.93Z" fill="#a6ad4c" stroke="#f5ec99" stroke-miterlimit="10" stroke-width=".5"/><path d="M1092.73,51.37c2.58-3.99,4.87-14.84,0-19.81-6.16-6.28-19.33-1.57-26.58,3.87-7.25,5.44-12.08,17.52-3.87,24.52,8.21,7.01,22.44,3.78,30.44-8.58Z" fill="#a6ad4c" stroke="#f5ec99" stroke-miterlimit="10" stroke-width=".5"/><path d="M1117.49,121.48s-.56,4.75-.64,7.33c-.16,4.91-3.06,9.58-8.46,9.58s-6.68-3.54-7.17-6.52-6.44-9.02-4.03-15.62,11.09-8.22,15.62-5.72,4.67,10.95,4.67,10.95Z" fill="#a6ad4c" stroke="#f5ec99" stroke-miterlimit="10" stroke-width=".5"/><path d="M916.43,274.54s-2.5.89-3.54,2.66c-1.05,1.77-3.14,3.87-5.32,4.43-2.17.56-5.88,8.7-11.92,7.41-6.04-1.29-7.57-11.19-3.87-14.5s8.05-1.77,11.76-5.48,8.78-8.13,14.42-6.68,4.83,11.36-1.53,12.16Z" fill="#a6ad4c" stroke="#f5ec99" stroke-miterlimit="10" stroke-width=".5"/><path d="M737.04,308.37s-4.51,2.98-4.83,7.33.04,14.74-10.23,14.86c-10.27.12-11.6-10.87-7.49-14.86s3.62-7.77,8.34-11.11c3.12-2.21,5.78-10.9,12.56-10.15,6.53.72,9.83,8.66,1.65,13.93Z" fill="#a6ad4c" stroke="#f5ec99" stroke-miterlimit="10" stroke-width=".5"/><path d="M805.9,394.1s-5.32.97-7.85,2.78-7.97,3.74-10.75.6c-3.03-3.42,1.09-7.61.6-12.2-.48-4.59.36-14.36,11.48-14.91,11.11-.55,13.17,7.78,14.13,12.13s-.97,10.63-7.61,11.6Z" fill="#a6ad4c" stroke="#f5ec99" stroke-miterlimit="10" stroke-width=".5"/><path d="M956.42,550.78s-.32,7.91-3.5,10.03c-4.35,2.9-7.37,10.63-15.95,8.7-8.58-1.93-7.73-11.6-6.28-15.34,1.45-3.74-2.66-9.9,5.07-15.64,7.73-5.74,22.11-3.57,20.66,12.26Z" fill="#a6ad4c" stroke="#f5ec99" stroke-miterlimit="10" stroke-width=".5"/><path d="M873.07,642.55s4.71,5.56,2.66,14.5-6.4,7.04-9.54,11.5c-3.14,4.45-13.3,6.5-18.97,1.79-5.23-4.35-4.83-13.41,1.09-14.62,5.92-1.21,8.21-3.14,9.54-8.46,1.33-5.32,9.79-11.48,15.22-4.71Z" fill="#a6ad4c" stroke="#f5ec99" stroke-miterlimit="10" stroke-width=".5"/><path d="M499.05,321.53s-7.85-2.01-13.05,3.18-14.13,8.4-20.78,2.69c-6.64-5.71-3.5-13.31,2.66-14.46,6.16-1.15,5.56-7.8,11.48-8.88,5.92-1.09,9.42,6.4,14.86,4.95s9.09-5.92,12.22-1.57c3.12,4.35,5.26,15.79-7.39,14.09Z" fill="#a6ad4c" stroke="#f5ec99" stroke-miterlimit="10" stroke-width=".5"/><path d="M436.03,349.8s-.72,3.26-4.99,5.82-7.37,6.26-4.71,12.42c2.66,6.16,17.72,7.73,26.3-.36,8.58-8.09,6.36-22.07-.44-25.25-8.05-3.76-14.3,1.09-16.15,7.37Z" fill="#a6ad4c" stroke="#f5ec99" stroke-miterlimit="10" stroke-width=".5"/><path d="M734.99,678.03c-1.89,1.95-2.5,4.75-1.85,10.71.64,5.96.48,11.11-3.38,11.84-3.87.72-13.21-4.83-15.14-12.32-1.93-7.49-.81-17.23,4.67-18.52,5.48-1.29,7.01-6.2,13.13-4.67s7.25,8.16,2.58,12.97Z" fill="#a6ad4c" stroke="#f5ec99" stroke-miterlimit="10" stroke-width=".5"/><path d="M266.95,597.9s1.69,4.91,0,9.26c-1.69,4.35-5.72,10.55-1.37,14.58,4.35,4.03,8.78-1.05,9.91-6.28,1.13-5.23,6.36-9.18,10.55-10.23,4.19-1.05,10.15-3.7,10.79-8.94.64-5.23-6.2-9.1-15.22-9.99-9.02-.89-16.75,2.17-14.66,11.6Z" fill="#a6ad4c" stroke="#f5ec99" stroke-miterlimit="10" stroke-width=".5"/><path d="M46.32,613.72s-8.3-3.79-14.34-2.17c-6.04,1.61-11.52,2.34-13.69-3.7-2.17-6.04,2.5-15.87,9.66-13.77,7.17,2.09,8.54,3.54,16.67,1.29,8.13-2.26,17.23-1.77,19.41,5.8,2.17,7.57-4.43,17.4-17.72,12.56Z" fill="#a6ad4c" stroke="#f5ec99" stroke-miterlimit="10" stroke-width=".5"/><path d="M506.68,901.5s0,8.34-1.09,11.84c-1.09,3.5-1.57,9.42,4.23,11.23,5.8,1.81,15.22-3.02,19.45-10.03,4.23-7.01,3.26-17.4-5.19-21.38s-18.85-2.05-17.4,8.34Z" fill="#a6ad4c" stroke="#f5ec99" stroke-miterlimit="10" stroke-width=".5"/><path d="M404.4,803.46s-3.14,2.4-4.83,5.18c-1.69,2.78-6.52,10.37-15.46,8.81-8.94-1.56-10.27-8.49-5.32-11.19,4.95-2.7,7.85-4.75,10.51-8.86,2.66-4.11,5.32-7.85,13.41-6.04s7.37,9.45,1.69,12.1Z" fill="#a6ad4c" stroke="#f5ec99" stroke-miterlimit="10" stroke-width=".5"/><path d="M773.06,946.48s-1.13,5.48,1.45,8.54c2.58,3.06,2.49,8.86-1.7,10.47-4.18,1.61-7.08,8.16-13.69,5.57-6.6-2.59-8.13-11.81-4.35-15.3,3.79-3.48,3.95-4.53,5.15-8.96,1.21-4.43,3.03-7.64,8.46-6.6,5.88,1.13,4.67,6.28,4.67,6.28Z" fill="#a6ad4c" stroke="#f5ec99" stroke-miterlimit="10" stroke-width=".5"/><path d="M312.47,999.19s4.19,4.43,4.03,10.15-1.37,16.75,7.41,17.96c8.78,1.21,15.62-10.51,13.93-23.92-1.69-13.41-9.91-19.86-18.72-18.99s-12.2,7.72-6.64,14.8Z" fill="#a6ad4c" stroke="#f5ec99" stroke-miterlimit="10" stroke-width=".5"/><path d="M542.44,1182.09s.48,3.87-2.17,7.01c-2.66,3.14-3.06,16.11,6.77,19.17,9.83,3.06,15.3-4.59,14.66-11.44-.64-6.85-.78-9.99.05-12.81.83-2.82-1.66-7.47-8.19-8.62-5.48-.97-11.52,1.77-11.11,6.68Z" fill="#a6ad4c" stroke="#f5ec99" stroke-miterlimit="10" stroke-width=".5"/></g><g id="clubHouse"><polygon points="504.36 807.05 509.72 809.46 506.29 817.38 500.91 815.08 504.36 807.05" fill="#4e4e4e"/><polygon points="514.25 482.04 528.75 484.58 523.71 514.58 508.77 511.88 514.25 482.04" fill="#4e4e4e"/><polygon points="504.87 516.2 529.31 520.46 526.67 535.98 502.01 531.93 504.87 516.2" fill="#4e4e4e"/><polygon points="423.34 844.7 414.32 853.54 426.12 865.6 434.94 857.2 423.34 844.7" fill="#4e4e4e"/><polygon points="435.62 845.87 439.41 855.63 458.34 848.87 470.9 851.08 473.48 841.46 465.42 837.67 465.42 828.15 454.93 827.85 452.9 838.02 435.62 845.87" fill="#4e4e4e"/><polygon points="434.94 879.98 452.05 870.79 463.25 891.81 446.62 900.87 434.94 879.98" fill="#4e4e4e"/></g><g id="lines"><polyline points="495.15 802.18 567.89 572.51 649.57 434.58 727.1 310.58" fill="none" stroke="#991B1E" stroke-dasharray="3" stroke-miterlimit="10" stroke-width=".5"/><polyline points="741.88 362.36 901.54 175.3 1076.79 46.08" fill="none" stroke="#991B1E" stroke-dasharray="3" stroke-miterlimit="10" stroke-width=".5"/><line x1="1074.43" y1="8.37" x2="894.16" y2="73.75" fill="#991B1E" stroke="#991B1E" stroke-dasharray="3" stroke-miterlimit="10" stroke-width=".5"/><polyline points="937.41 82.59 647.05 259.1 479.32 317.19" fill="none" stroke="#991B1E" stroke-dasharray="3" stroke-miterlimit="10" stroke-width=".5"/><polyline points="482.82 225.94 259.38 489.6 182.26 570.47 46.15 604.39" fill="none" stroke="#991B1E" stroke-dasharray="3" stroke-miterlimit="10" stroke-width=".5"/><polyline points="5.99 627.06 192.99 884.53 325.8 1005.85" fill="none" stroke="#991B1E" stroke-dasharray="3" stroke-miterlimit="10" stroke-width=".5"/><polyline points="322.66 938.51 253.73 717.47 277.54 597.29" fill="none" stroke="#991B1E" stroke-dasharray="3" stroke-miterlimit="10" stroke-width=".5"/><line x1="325.8" y1="584.65" x2="445.17" y2="357.16" fill="#991B1E" stroke="#991B1E" stroke-dasharray="3" stroke-miterlimit="10" stroke-width=".5"/><polyline points="511.98 343.06 426.77 624.78 392.77 804.28" fill="none" stroke="#991B1E" stroke-dasharray="3" stroke-miterlimit="10" stroke-width=".5"/><polyline points="350.58 806.47 459.8 1012.73 550.27 1192.08" fill="none" stroke="#991B1E" stroke-dasharray="3" stroke-miterlimit="10" stroke-width=".5"/><polyline points="595.54 1146.92 641.92 899.11 732.29 783.21 863.24 657.6" fill="none" stroke="#991B1E" stroke-dasharray="3" stroke-miterlimit="10" stroke-width=".5"/><polyline points="749.94 1011.87 942.3 758.39 943.14 552.03" fill="none" stroke="#991B1E" stroke-dasharray="3" stroke-miterlimit="10" stroke-width=".5"/><line x1="837.51" y1="766.5" x2="763.89" y2="957.85" fill="#991B1E" stroke="#991B1E" stroke-dasharray="3" stroke-miterlimit="10" stroke-width=".5"/><polyline points="979.74 511.64 1060.57 245.72 1107.06 123.9" fill="none" stroke="#991B1E" stroke-dasharray="3" stroke-miterlimit="10" stroke-width=".5"/><line x1="1063.38" y1="149.7" x2="905.66" y2="275.64" fill="#991B1E" stroke="#991B1E" stroke-dasharray="3" stroke-miterlimit="10" stroke-width=".5"/><polyline points="960.89 323.75 812.23 548.45 724.29 682.71" fill="none" stroke="#991B1E" stroke-dasharray="3" stroke-miterlimit="10" stroke-width=".5"/><polyline points="668.32 730.11 760.76 505.96 799.96 384.74" fill="none" stroke="#991B1E" stroke-dasharray="3" stroke-miterlimit="10" stroke-width=".5"/><polyline points="749.63 374.99 643.14 644.14 578.98 794.42 518.32 908.1" fill="none" stroke="#991B1E" stroke-dasharray="3" stroke-miterlimit="10" stroke-width=".5"/></g><g id="numberContainer"><path d="M570.2,563.06c4.85,0,8.78,3.93,8.78,8.78s-3.93,8.78-8.78,8.78-8.78-3.93-8.78-8.78,3.93-8.78,8.78-8.78Z" fill="#ffffff" stroke="#991B1E" stroke-miterlimit="10" stroke-width=".25"/><path d="M901.74,167.05c4.85,0,8.78,3.93,8.78,8.78s-3.93,8.78-8.78,8.78-8.78-3.93-8.78-8.78,3.93-8.78,8.78-8.78Z" fill="#ffffff" stroke="#991B1E" stroke-miterlimit="10" stroke-width=".25"/><path d="M970.09,36.61c4.85,0,8.78,3.93,8.78,8.78s-3.93,8.78-8.78,8.78-8.78-3.93-8.78-8.78,3.93-8.78,8.78-8.78Z" fill="#ffffff" stroke="#991B1E" stroke-miterlimit="10" stroke-width=".25"/><path d="M647.05,249.71c4.85,0,8.78,3.93,8.78,8.78s-3.93,8.78-8.78,8.78-8.78-3.93-8.78-8.78,3.93-8.78,8.78-8.78Z" fill="#ffffff" stroke="#991B1E" stroke-miterlimit="10" stroke-width=".25"/><path d="M271.15,466.67c4.85,0,8.78,3.93,8.78,8.78s-3.93,8.78-8.78,8.78-8.78-3.93-8.78-8.78,3.93-8.78,8.78-8.78Z" fill="#ffffff" stroke="#991B1E" stroke-miterlimit="10" stroke-width=".25"/><path d="M192.27,875.75c4.85,0,8.78,3.93,8.78,8.78s-3.93,8.78-8.78,8.78-8.78-3.93-8.78-8.78,3.93-8.78,8.78-8.78Z" fill="#ffffff" stroke="#991B1E" stroke-miterlimit="10" stroke-width=".25"/><path d="M252.6,711.04c4.85,0,8.78,3.93,8.78,8.78s-3.93,8.78-8.78,8.78-8.78-3.93-8.78-8.78,3.93-8.78,8.78-8.78Z" fill="#ffffff" stroke="#991B1E" stroke-miterlimit="10" stroke-width=".25"/><path d="M376.61,475.84c4.85,0,8.78,3.93,8.78,8.78s-3.93,8.78-8.78,8.78-8.78-3.93-8.78-8.78,3.93-8.78,8.78-8.78Z" fill="#ffffff" stroke="#991B1E" stroke-miterlimit="10" stroke-width=".25"/><path d="M427.36,617.62c4.85,0,8.78,3.93,8.78,8.78s-3.93,8.78-8.78,8.78-8.78-3.93-8.78-8.78,3.93-8.78,8.78-8.78Z" fill="#ffffff" stroke="#991B1E" stroke-miterlimit="10" stroke-width=".25"/><path d="M459.55,1003.2c5.04,0,9.12,4.08,9.12,9.12s-4.08,9.12-9.12,9.12-9.12-4.08-9.12-9.12,4.08-9.12,9.12-9.12Z" fill="#ffffff" stroke="#991B1E" stroke-miterlimit="10" stroke-width=".25"/><path d="M644.44,889.99c5.04,0,9.12,4.08,9.12,9.12s-4.08,9.12-9.12,9.12-9.12-4.08-9.12-9.12,4.08-9.12,9.12-9.12Z" fill="#ffffff" stroke="#991B1E" stroke-miterlimit="10" stroke-width=".25"/><path d="M789.89,879.06c5.04,0,9.12,4.08,9.12,9.12s-4.08,9.12-9.12,9.12-9.12-4.08-9.12-9.12,4.08-9.12,9.12-9.12Z" fill="#ffffff" stroke="#991B1E" stroke-miterlimit="10" stroke-width=".25"/><path d="M941.05,749.27c5.04,0,9.12,4.08,9.12,9.12s-4.08,9.12-9.12,9.12-9.12-4.08-9.12-9.12,4.08-9.12,9.12-9.12Z" fill="#ffffff" stroke="#991B1E" stroke-miterlimit="10" stroke-width=".25"/><path d="M1063.14,235.06c5.04,0,9.12,4.08,9.12,9.12s-4.08,9.12-9.12,9.12-9.12-4.08-9.12-9.12,4.08-9.12,9.12-9.12Z" fill="#ffffff" stroke="#991B1E" stroke-miterlimit="10" stroke-width=".25"/><path d="M986.74,200.99c5.04,0,9.12,4.08,9.12,9.12s-4.08,9.12-9.12,9.12-9.12-4.08-9.12-9.12,4.08-9.12,9.12-9.12Z" fill="#ffffff" stroke="#991B1E" stroke-miterlimit="10" stroke-width=".25"/><path d="M812.26,537.47c5.04,0,9.12,4.08,9.12,9.12s-4.08,9.12-9.12,9.12-9.12-4.08-9.12-9.12,4.08-9.12,9.12-9.12Z" fill="#ffffff" stroke="#991B1E" stroke-miterlimit="10" stroke-width=".25"/><path d="M751.64,519.22c5.04,0,9.12,4.08,9.12,9.12s-4.08,9.12-9.12,9.12-9.12-4.08-9.12-9.12,4.08-9.12,9.12-9.12Z" fill="#ffffff" stroke="#991B1E" stroke-miterlimit="10" stroke-width=".25"/><path d="M639.85,643.38c5.04,0,9.12,4.08,9.12,9.12s-4.08,9.12-9.12,9.12-9.12-4.08-9.12-9.12,4.08-9.12,9.12-9.12Z" fill="#ffffff" stroke="#991B1E" stroke-miterlimit="10" stroke-width=".25"/></g><g id="number"><path d="M569.91,571.4c0-.18.01-.83,0-1.93-.01-.47-.07-.78-.33-.78-.12,0-.33.04-.55.11l-.97.32c-.06.01-.11.01-.14-.04l-.11-.25c-.03-.06-.01-.11.08-.17l2.87-1.65c.07-.04.12-.08.19-.08.08,0,.1.08.1.19,0,.12-.04,2.3-.04,4.09v.58c0,.17.01,3.1.01,3.28.01.72.07.82.97.82h.5c.1,0,.14.04.14.11v.32c0,.08-.03.11-.12.11-.12,0-2.01-.04-2.13-.04s-2.08.04-2.15.04-.11-.03-.11-.11v-.35c0-.07.08-.08.19-.08h.64c.9,0,.93-.04.96-.78.01-.18.01-2.98.01-3.23v-.5Z" fill="#991B1E"/><path d="M899.68,180.4c-.24,0-.48.01-.69.03-.21.01-.37.03-.43.03-.07,0-.11,0-.15-.08-.04-.1-.03-.14.04-.21.65-.61,1.87-1.68,2.98-2.87s1.75-2.26,1.7-3.46c-.04-1.23-.79-1.97-1.79-1.95-1.18.01-1.62.93-1.86,1.34-.06.1-.1.11-.17.07l-.19-.08s-.06-.07,0-.19c.22-.54.9-2.08,2.77-2.08,1.16,0,2.42.96,2.42,2.52,0,1.18-.47,2.18-1.72,3.57-.94,1.08-2.04,1.88-2.65,2.42h2.81c.94,0,1.3-.65,1.61-1.16.07-.12.11-.14.25-.07.11.06.17.11.11.19l-.9,2.16c-.07.15.04.15-.21.15-.12,0-.12-.01-.18-.14-.08-.18-.35-.19-.76-.19h-3.01Z" fill="#991B1E"/><path d="M967.15,49.07c0-.36.22-.6.46-.6.46,0,.54.54.57.61.07.15.32.57,1.29.57,1.27,0,2.04-.93,2.04-1.9,0-1.4-.87-2.22-2-2.48-.25-.06-.25-.01-.25-.21,0-.14.04-.17.17-.19.89-.17,1.8-.9,1.8-1.97,0-.89-.54-1.55-1.41-1.55-1.03,0-1.55.72-1.84,1.51-.04.11-.08.15-.14.14l-.25-.06s-.04-.08-.01-.21c.19-.96,1.04-2.24,2.6-2.24s2.05,1.11,2.05,1.81c0,1.19-.83,1.94-1.55,2.38.94.24,2.02,1.21,2.02,2.42,0,1.79-1.59,3.05-3.46,3.05-1.63,0-2.08-.69-2.08-1.09Z" fill="#991B1E"/><path d="M648.14,263.05c-.12,0-.17-.03-.17-.15v-2.44h-3.87c-.12,0-.21-.06-.21-.17,0-.08.04-.14.14-.28l4.5-6.21c.08-.11.19-.22.31-.22.12,0,.18.1.18.42v5.54h1.12c.1,0,.17.03.17.11v.67c0,.08-.04.14-.22.14h-1.07v2.4c0,.15-.03.19-.19.19h-.69ZM647.98,255.81c0-.22-.14-.26-.26-.08l-2.55,3.52c-.17.24-.15.37.1.37h2.72v-3.81Z" fill="#991B1E"/><path d="M269.69,474.06c.35-.03,1.28.07,1.58.15,1.36.36,2.13,1.33,2.13,2.58.01,1.98-1.61,3.44-3.49,3.44-1.02,0-1.8-.37-1.8-.78,0-.19.12-.36.3-.36.25,0,.49.15.69.28.21.12.68.26,1.09.26,1.08,0,2.16-.91,2.16-2.13,0-.97-.32-1.73-1.22-2.12-.75-.33-1.44-.33-1.8-.3-.08.01-.15.03-.25-.03-.07-.03-.08-.07-.07-.15l.5-3.91c.01-.17.04-.22.22-.22h2.96c.49,0,.61-.24.85-.69.04-.08.08-.1.17-.07.15.07.22.08.19.17l-.5,1.39c-.1.22-.17.28-.6.28h-2.88l-.25,2.23Z" fill="#991B1E"/><path d="M190.35,888.54c-.69-.75-.89-1.83-.89-2.55,0-1.73.64-3.44,2.11-4.86.67-.64,1.41-1.09,2.04-1.34.22-.1.42-.15.51-.15.08,0,.17.04.17.14,0,.11-.04.18-.12.22-1.11.5-2.94,2.02-3.28,4.29.44-.39,1.04-.64,1.84-.64,1.73,0,2.45,1.54,2.45,2.44,0,1.29-.38,1.88-.86,2.38-.51.55-1.09.83-1.97.83-.93,0-1.58-.26-2-.76ZM193.99,886.52c0-1.23-.61-2.27-1.68-2.27-.82,0-1.21.33-1.37.68-.19.36-.3.93-.3,1.51,0,.71.11,2.42,1.79,2.42.3,0,1.57-.15,1.57-2.34Z" fill="#991B1E"/><path d="M255.77,715.14c.07,0,.14.04.14.12,0,.07-.01.11-.1.25s-1.21,2.22-1.76,3.59c-.14.32-1.3,2.88-1.87,4.79-.17.57-.44.71-.69.71-.35,0-.54-.21-.54-.51,0-.35.3-.91.49-1.29.24-.47,2.65-5.07,3.44-6.64h-3.28c-.83,0-1.01.37-1.41.97-.07.1-.17.08-.26.03-.12-.07-.12-.08-.08-.21l.86-2.23c.04-.08.06-.1.22-.1.15,0,.21.04.18.25-.03.19.08.26.79.26h3.89Z" fill="#991B1E"/><path d="M374.1,487.42c0-1.19.62-1.9,1.8-2.66-1.04-.58-1.9-1.3-1.9-2.37,0-1.21,1-2.66,2.96-2.66,1.27,0,2.36.87,2.36,1.79,0,1.32-.44,1.93-1.91,2.95,1.11.53,1.95,1.23,1.95,2.49,0,1.08-1.05,2.44-2.73,2.44-1.9,0-2.54-1.09-2.54-1.98ZM378.37,487.24c0-1.12-.91-1.63-2.01-2.22-.89.5-1.39,1.3-1.39,2.18,0,1.21.94,1.73,1.75,1.73,1,0,1.65-.54,1.65-1.69ZM375.09,482.05c0,1,.65,1.4,1.87,2.12.68-.43,1.4-1.25,1.46-2.18.04-1.01-.71-1.7-1.66-1.7s-1.66.79-1.66,1.76Z" fill="#991B1E"/><path d="M429.5,622.47c.62.71.75,1.8.75,2.23,0,1.86-.62,3.77-2.26,5.21-.69.61-1.23.91-2,1.16-.14.04-.33.1-.43.1-.11,0-.21-.06-.21-.19,0-.1.06-.17.12-.19,1.21-.48,3.05-2,3.35-4.31v-.03c-.39.35-.89.68-1.7.68-1.91,0-2.56-1.45-2.56-2.77,0-.53.5-1.68,1.03-2.13.54-.47,1.18-.72,1.76-.72.98,0,1.52.29,2.15.97ZM425.67,624.29c0,1.3.78,2.24,1.72,2.24.8,0,1.22-.43,1.4-.79.17-.35.21-.8.21-1.37,0-1.22-.35-2.42-1.61-2.42-.82,0-1.72.79-1.72,2.34Z" fill="#991B1E"/><path d="M455.08,1011.87c0-.19.01-.86,0-2-.01-.49-.07-.81-.35-.81-.13,0-.34.04-.58.12l-1.01.33c-.06.01-.12.01-.14-.04l-.12-.26c-.03-.06-.01-.12.09-.17l2.98-1.71c.07-.04.13-.09.2-.09.09,0,.1.09.1.2,0,.13-.04,2.39-.04,4.25v.6c0,.17.01,3.22.01,3.41.01.75.07.85,1.01.85h.52c.1,0,.14.04.14.12v.33c0,.09-.03.12-.13.12-.13,0-2.09-.04-2.22-.04s-2.16.04-2.23.04-.11-.03-.11-.12v-.36c0-.07.09-.09.2-.09h.66c.93,0,.96-.04.99-.81.01-.19.01-3.09.01-3.35v-.52Z" fill="#991B1E"/><path d="M459.47,1012.75c0-3.29,1.37-5.51,3.21-5.51,2.11,0,3.09,2.75,3.09,4.94,0,3.29-1.22,5.11-3.08,5.11-2.33,0-3.22-2.79-3.22-4.53ZM464.09,1015.74c.32-.69.45-1.78.45-3.88s-.72-4.1-1.94-4.1c-.56,0-.96.22-1.29.86-.52,1.01-.58,2.69-.58,3.88,0,1.37.17,2.37.49,3.04.45.95.99,1.22,1.5,1.22.45,0,.99-.17,1.38-1.02Z" fill="#991B1E"/><path d="M639.97,898.66c0-.19.01-.86,0-2-.01-.49-.07-.81-.35-.81-.13,0-.34.04-.58.12l-1.01.33c-.06.01-.12.01-.14-.04l-.12-.26c-.03-.06-.01-.12.09-.17l2.98-1.71c.07-.04.13-.09.2-.09.09,0,.1.09.1.2,0,.13-.04,2.39-.04,4.25v.6c0,.17.01,3.22.01,3.41.01.75.07.85,1.01.85h.52c.1,0,.14.04.14.12v.33c0,.09-.03.12-.13.12-.13,0-2.09-.04-2.22-.04s-2.16.04-2.23.04-.11-.03-.11-.12v-.36c0-.07.09-.09.2-.09h.66c.93,0,.96-.04.99-.81.01-.19.01-3.09.01-3.35v-.52Z" fill="#991B1E"/><path d="M647.16,898.66c0-.19.01-.86,0-2-.01-.49-.07-.81-.35-.81-.13,0-.34.04-.58.12l-1.01.33c-.06.01-.12.01-.14-.04l-.12-.26c-.03-.06-.01-.12.09-.17l2.98-1.71c.07-.04.13-.09.2-.09.09,0,.1.09.1.2,0,.13-.04,2.39-.04,4.25v.6c0,.17.01,3.22.01,3.41.01.75.07.85,1.01.85h.52c.1,0,.14.04.14.12v.33c0,.09-.03.12-.13.12-.13,0-2.09-.04-2.22-.04s-2.16.04-2.23.04-.11-.03-.11-.12v-.36c0-.07.09-.09.2-.09h.66c.93,0,.96-.04.99-.81.01-.19.01-3.09.01-3.35v-.52Z" fill="#991B1E"/><path d="M785.43,887.73c0-.19.01-.86,0-2-.01-.49-.07-.81-.35-.81-.13,0-.34.04-.58.12l-1.01.33c-.06.01-.12.01-.14-.04l-.12-.26c-.03-.06-.01-.12.09-.17l2.98-1.71c.07-.04.13-.09.2-.09.09,0,.1.09.1.2,0,.13-.04,2.39-.04,4.25v.6c0,.17.01,3.22.01,3.41.01.75.07.85,1.01.85h.52c.1,0,.14.04.14.12v.33c0,.09-.03.11-.13.11-.13,0-2.09-.04-2.22-.04s-2.16.04-2.23.04-.12-.03-.12-.11v-.36c0-.07.09-.09.2-.09h.66c.93,0,.96-.04.99-.81.01-.19.01-3.09.01-3.35v-.52Z" fill="#991B1E"/><path d="M790.78,892.92c-.25,0-.5.01-.72.03-.22.01-.39.03-.45.03-.07,0-.11,0-.16-.09-.04-.1-.03-.14.04-.22.68-.63,1.94-1.74,3.09-2.98,1.15-1.24,1.81-2.35,1.77-3.6-.04-1.28-.82-2.04-1.86-2.03-1.22.01-1.68.96-1.93,1.4-.06.1-.1.12-.17.07l-.2-.09s-.06-.07,0-.2c.23-.56.93-2.16,2.88-2.16,1.21,0,2.52.99,2.52,2.62,0,1.22-.49,2.26-1.78,3.71-.98,1.12-2.12,1.96-2.75,2.52h2.92c.98,0,1.35-.68,1.67-1.21.07-.13.12-.14.26-.07.12.06.17.12.12.2l-.94,2.25c-.07.16.04.16-.22.16-.13,0-.13-.01-.19-.14-.09-.19-.36-.2-.79-.2h-3.12Z" fill="#991B1E"/><path d="M936.58,757.94c0-.19.01-.86,0-2-.01-.49-.07-.81-.35-.81-.13,0-.34.04-.58.12l-1.01.33c-.06.01-.12.01-.14-.04l-.12-.26c-.03-.06-.01-.12.09-.17l2.98-1.71c.07-.04.13-.09.2-.09.09,0,.1.09.1.2,0,.13-.04,2.39-.04,4.25v.6c0,.17.01,3.22.01,3.41.01.75.07.85,1.01.85h.52c.1,0,.14.04.14.12v.33c0,.09-.03.12-.13.12-.13,0-2.09-.04-2.22-.04s-2.16.04-2.23.04-.11-.03-.11-.12v-.36c0-.07.09-.09.2-.09h.66c.93,0,.96-.04.99-.81.01-.19.01-3.09.01-3.35v-.52Z" fill="#991B1E"/><path d="M941.03,762.21c0-.37.23-.62.47-.62.47,0,.56.56.59.63.07.16.33.59,1.34.59,1.32,0,2.12-.96,2.12-1.97,0-1.45-.91-2.3-2.07-2.58-.26-.06-.26-.01-.26-.22,0-.14.04-.17.17-.2.92-.17,1.87-.93,1.87-2.04,0-.92-.56-1.61-1.47-1.61-1.07,0-1.61.75-1.91,1.57-.04.12-.09.16-.14.14l-.26-.06s-.04-.09-.01-.22c.2-.99,1.08-2.33,2.71-2.33s2.13,1.15,2.13,1.88c0,1.24-.86,2.01-1.61,2.48.98.24,2.1,1.25,2.1,2.52,0,1.86-1.65,3.17-3.6,3.17-1.7,0-2.16-.72-2.16-1.14Z" fill="#991B1E"/><path d="M1058.67,243.73c0-.19.01-.86,0-2-.01-.49-.07-.81-.35-.81-.13,0-.34.04-.58.12l-1.01.33c-.06.01-.12.01-.14-.04l-.12-.26c-.03-.06-.01-.12.09-.17l2.98-1.71c.07-.04.13-.09.2-.09.09,0,.1.09.1.2,0,.13-.04,2.39-.04,4.25v.6c0,.17.01,3.22.01,3.41.01.75.07.85,1.01.85h.52c.1,0,.14.04.14.12v.33c0,.09-.03.11-.13.11-.13,0-2.09-.04-2.22-.04s-2.16.04-2.23.04-.11-.03-.11-.11v-.36c0-.07.09-.09.2-.09h.66c.93,0,.96-.04.99-.81.01-.19.01-3.09.01-3.35v-.52Z" fill="#991B1E"/><path d="M1067.29,248.92c-.13,0-.17-.03-.17-.16v-2.53h-4.01c-.13,0-.22-.06-.22-.17,0-.09.04-.14.14-.29l4.68-6.45c.09-.11.2-.23.32-.23.13,0,.19.1.19.43v5.76h1.17c.1,0,.17.03.17.12v.69c0,.09-.04.14-.23.14h-1.11v2.49c0,.16-.03.2-.2.2h-.72ZM1067.13,241.4c0-.23-.14-.27-.27-.09l-2.65,3.65c-.17.24-.16.39.1.39h2.82v-3.96Z" fill="#991B1E"/><path d="M982.27,209.66c0-.19.01-.86,0-2-.01-.49-.07-.81-.35-.81-.13,0-.34.04-.58.12l-1.01.33c-.06.01-.12.01-.14-.04l-.12-.26c-.03-.06-.01-.12.09-.17l2.98-1.71c.07-.04.13-.09.2-.09.09,0,.1.09.1.2,0,.13-.04,2.39-.04,4.25v.6c0,.17.01,3.22.01,3.41.01.75.07.85,1.01.85h.52c.1,0,.14.04.14.12v.33c0,.09-.03.11-.13.11-.13,0-2.09-.04-2.22-.04s-2.16.04-2.23.04-.12-.03-.12-.11v-.36c0-.07.09-.09.2-.09h.66c.93,0,.96-.04.99-.81.01-.19.01-3.09.01-3.35v-.52Z" fill="#991B1E"/><path d="M988.24,208.67c.36-.03,1.32.07,1.64.16,1.41.37,2.22,1.38,2.22,2.68.01,2.06-1.67,3.57-3.63,3.57-1.06,0-1.87-.39-1.87-.81,0-.2.13-.37.32-.37.26,0,.5.16.72.29s.71.27,1.14.27c1.12,0,2.24-.95,2.24-2.22,0-1.01-.33-1.8-1.27-2.2-.78-.35-1.5-.35-1.87-.32-.09.01-.16.03-.26-.03-.07-.03-.09-.07-.07-.16l.52-4.06c.01-.17.04-.23.23-.23h3.08c.5,0,.63-.24.88-.72.04-.09.09-.1.17-.07.16.07.23.09.2.17l-.52,1.44c-.1.23-.17.29-.62.29h-2.99l-.26,2.32Z" fill="#991B1E"/><path d="M807.8,546.14c0-.19.01-.86,0-2-.01-.49-.07-.81-.35-.81-.13,0-.34.04-.58.12l-1.01.33c-.06.01-.12.01-.14-.04l-.12-.26c-.03-.06-.01-.12.09-.17l2.98-1.71c.07-.04.13-.09.2-.09.09,0,.1.09.1.2,0,.13-.04,2.39-.04,4.25v.6c0,.17.01,3.22.01,3.41.01.75.07.85,1.01.85h.52c.1,0,.14.04.14.12v.33c0,.09-.03.11-.13.11-.13,0-2.09-.04-2.22-.04s-2.16.04-2.23.04-.11-.03-.11-.11v-.36c0-.07.09-.09.2-.09h.66c.93,0,.96-.04.99-.81.01-.19.01-3.09.01-3.35v-.52Z" fill="#991B1E"/><path d="M813.29,550.76c-.72-.78-.92-1.9-.92-2.65,0-1.8.66-3.57,2.19-5.05.69-.66,1.47-1.14,2.12-1.4.23-.1.43-.16.53-.16.09,0,.17.04.17.14,0,.11-.04.19-.13.23-1.15.52-3.05,2.1-3.41,4.46.46-.4,1.08-.66,1.91-.66,1.8,0,2.55,1.6,2.55,2.53,0,1.34-.39,1.96-.89,2.48-.53.58-1.14.86-2.04.86-.96,0-1.64-.27-2.07-.79ZM817.08,548.66c0-1.28-.63-2.36-1.74-2.36-.85,0-1.25.35-1.42.71-.2.37-.32.96-.32,1.57,0,.73.12,2.52,1.86,2.52.32,0,1.63-.16,1.63-2.43Z" fill="#991B1E"/><path d="M747.17,527.89c0-.19.01-.86,0-2-.01-.49-.07-.81-.35-.81-.13,0-.34.04-.58.12l-1.01.33c-.06.01-.12.01-.14-.04l-.12-.26c-.03-.06-.01-.12.09-.17l2.98-1.71c.07-.04.13-.09.2-.09.09,0,.1.09.1.2,0,.13-.04,2.39-.04,4.25v.6c0,.17.01,3.22.01,3.41.01.75.07.85,1.01.85h.52c.1,0,.14.04.14.12v.33c0,.09-.03.11-.13.11-.13,0-2.09-.04-2.22-.04s-2.16.04-2.23.04-.12-.03-.12-.11v-.36c0-.07.09-.09.2-.09h.66c.93,0,.96-.04.99-.81.01-.19.01-3.09.01-3.35v-.52Z" fill="#991B1E"/><path d="M757.96,523.48c.07,0,.14.04.14.13,0,.07-.01.12-.1.26-.09.14-1.25,2.3-1.83,3.73-.14.33-1.35,2.99-1.94,4.98-.17.59-.46.73-.72.73-.36,0-.56-.22-.56-.53,0-.36.32-.95.5-1.34.24-.49,2.75-5.27,3.57-6.89h-3.41c-.86,0-1.05.39-1.47,1.01-.07.1-.17.09-.27.03-.13-.07-.13-.09-.09-.22l.89-2.32c.04-.09.06-.1.23-.1.16,0,.22.04.19.26-.03.2.09.27.82.27h4.04Z" fill="#991B1E"/><path d="M635.38,652.06c0-.19.01-.86,0-2-.01-.49-.07-.81-.35-.81-.13,0-.34.04-.58.12l-1.01.33c-.06.01-.12.01-.14-.04l-.12-.26c-.03-.06-.01-.12.09-.17l2.98-1.71c.07-.04.13-.09.2-.09.09,0,.1.09.1.2,0,.13-.04,2.39-.04,4.25v.6c0,.17.01,3.22.01,3.41.01.75.07.85,1.01.85h.52c.1,0,.14.04.14.12v.33c0,.09-.03.12-.13.12-.13,0-2.09-.04-2.22-.04s-2.16.04-2.23.04-.11-.03-.11-.12v-.36c0-.07.09-.09.2-.09h.66c.93,0,.96-.04.99-.81.01-.19.01-3.09.01-3.35v-.52Z" fill="#991B1E"/><path d="M640.28,655.41c0-1.24.65-1.97,1.87-2.76-1.08-.6-1.97-1.35-1.97-2.46,0-1.25,1.04-2.76,3.08-2.76,1.32,0,2.45.91,2.45,1.86,0,1.37-.46,2-1.99,3.06,1.15.55,2.03,1.28,2.03,2.59,0,1.12-1.09,2.53-2.83,2.53-1.97,0-2.63-1.14-2.63-2.06ZM644.71,655.22c0-1.17-.95-1.7-2.09-2.3-.92.52-1.44,1.35-1.44,2.26,0,1.25.98,1.8,1.81,1.8,1.04,0,1.71-.56,1.71-1.76ZM641.3,649.84c0,1.04.68,1.45,1.94,2.2.71-.45,1.45-1.29,1.51-2.26.04-1.05-.73-1.77-1.73-1.77s-1.73.82-1.73,1.83Z" fill="#991B1E"/></g></svg>